<?xml version="1.0" encoding="UTF-8"?>
<svg xmlns="http://www.w3.org/2000/svg" xmlns:xlink="http://www.w3.org/1999/xlink" width="128" height="128" viewBox="0 0 128 128">
<defs>
<filter id="filter-remove-color" x="0%" y="0%" width="100%" height="100%">
<feColorMatrix color-interpolation-filters="sRGB" values="0 0 0 0 1 0 0 0 0 1 0 0 0 0 1 0 0 0 1 0" />
</filter>
<clipPath id="clip-0">
<rect x="0" y="0" width="128" height="128"/>
</clipPath>
<g id="source-12" clip-path="url(#clip-0)">
<path fill-rule="evenodd" fill="rgb(0%, 0%, 0%)" fill-opacity="1" d="M 65.554688 17.390625 C 47.203125 17.234375 28.832031 17.183594 10.429688 17.234375 C 10.40625 37.816406 10.429688 58.402344 10.507812 78.984375 C 10.722656 79.5 11.105469 79.761719 11.65625 79.769531 C 29.074219 79.847656 46.476562 79.769531 63.867188 79.535156 C 64.050781 79.390625 64.179688 79.207031 64.25 78.984375 C 64.300781 68.980469 64.351562 58.976562 64.40625 48.972656 C 64.621094 48.457031 65.003906 48.195312 65.554688 48.1875 C 66.082031 48.132812 66.464844 48.339844 66.699219 48.816406 C 66.804688 59.082031 66.804688 69.347656 66.699219 79.613281 C 66.265625 80.894531 65.425781 81.761719 64.175781 82.207031 C 46.3125 82.308594 28.449219 82.308594 10.585938 82.207031 C 9.332031 81.761719 8.492188 80.894531 8.058594 79.613281 C 7.957031 56.253906 7.957031 32.894531 8.058594 9.535156 C 8.417969 8.433594 9.105469 7.621094 10.125 7.101562 C 28.132812 6.839844 46.148438 6.785156 64.175781 6.941406 C 65.425781 7.386719 66.265625 8.253906 66.699219 9.535156 C 66.804688 11.890625 66.804688 14.25 66.699219 16.605469 C 66.4375 17.042969 66.054688 17.304688 65.554688 17.390625 Z M 65.554688 17.390625 "/>
</g>
<mask id="mask-0">
<g filter="url(#filter-remove-color)">
<rect x="-12.8" y="-12.8" width="153.6" height="153.6" fill="rgb(0%, 0%, 0%)" fill-opacity="0.99"/>
</g>
</mask>
<clipPath id="clip-1">
<rect x="0" y="0" width="128" height="128"/>
</clipPath>
<g id="source-18" clip-path="url(#clip-1)">
<path fill-rule="evenodd" fill="rgb(1.568627%, 0.784314%, 0.784314%)" fill-opacity="1" d="M 65.554688 43.160156 C 56.601562 52.265625 47.667969 61.40625 38.757812 70.578125 C 34.792969 71.707031 30.785156 72.675781 26.738281 73.484375 C 25.9375 73.464844 25.503906 73.046875 25.4375 72.226562 C 26.324219 68.46875 27.167969 64.699219 27.964844 60.914062 C 28 60.496094 28.152344 60.128906 28.421875 59.816406 C 40.886719 47.101562 53.265625 34.320312 65.554688 21.476562 C 67.105469 19.964844 68.636719 18.417969 70.144531 16.839844 C 71.78125 15.691406 73.414062 15.691406 75.046875 16.839844 C 76.960938 18.804688 78.875 20.769531 80.789062 22.734375 C 81.707031 24.355469 81.707031 25.980469 80.789062 27.605469 C 75.730469 32.820312 70.652344 38.007812 65.554688 43.160156 Z M 65.554688 43.160156 "/>
</g>
</defs>
<path fill-rule="nonzero" fill="rgb(60.784314%, 78.823529%, 100%)" fill-opacity="1" d="M 125.867188 74.667969 L 125.867188 83.199219 C 125.859375 85.554688 123.953125 87.460938 121.601562 87.464844 L 85.332031 87.464844 C 78.265625 87.464844 72.535156 93.199219 72.535156 100.265625 C 72.542969 107.332031 78.269531 113.054688 85.332031 113.066406 L 89.601562 125.867188 L 38.398438 125.867188 L 42.667969 113.066406 C 49.730469 113.054688 55.457031 107.332031 55.464844 100.265625 C 55.464844 93.199219 49.734375 87.464844 42.667969 87.464844 L 6.398438 87.464844 C 4.046875 87.460938 2.140625 85.554688 2.132812 83.199219 L 2.132812 74.667969 Z M 125.867188 74.667969 "/>
<path fill-rule="nonzero" fill="rgb(0%, 100%, 0%)" fill-opacity="1" d="M 61.546875 92.578125 L 61.546875 97.164062 L 66.453125 97.164062 L 66.453125 92.578125 Z M 63.324219 92.847656 L 63.339844 92.847656 L 63.339844 96.898438 L 63.324219 96.898438 Z M 64.675781 92.847656 L 64.675781 96.898438 Z M 64.675781 92.847656 "/>
<path fill-rule="nonzero" fill="rgb(12.54902%, 47.843137%, 82.745098%)" fill-opacity="1" d="M 121.601562 0 L 6.398438 0 C 2.867188 0 0 2.867188 0 6.398438 L 0 83.199219 C 0 86.734375 2.867188 89.601562 6.398438 89.601562 L 42.667969 89.601562 C 48.554688 89.605469 53.324219 94.378906 53.332031 100.265625 C 53.324219 106.152344 48.554688 110.921875 42.667969 110.933594 C 42.636719 110.933594 42.613281 110.949219 42.582031 110.949219 C 42.429688 110.960938 42.273438 110.992188 42.128906 111.042969 C 42.007812 111.066406 41.894531 111.097656 41.777344 111.136719 C 41.65625 111.207031 41.539062 111.285156 41.429688 111.371094 C 41.320312 111.445312 41.214844 111.523438 41.121094 111.613281 C 41.039062 111.710938 40.96875 111.8125 40.90625 111.917969 C 40.816406 112.042969 40.738281 112.179688 40.675781 112.320312 C 40.675781 112.347656 40.648438 112.363281 40.636719 112.394531 L 36.371094 125.191406 C 36.152344 125.84375 36.261719 126.558594 36.664062 127.117188 C 37.066406 127.671875 37.714844 128 38.398438 128 L 89.601562 128 C 90.285156 128 90.929688 127.667969 91.328125 127.113281 C 91.730469 126.558594 91.839844 125.84375 91.621094 125.191406 L 87.355469 112.394531 C 87.355469 112.363281 87.324219 112.347656 87.316406 112.320312 C 87.253906 112.179688 87.179688 112.046875 87.085938 111.921875 C 87.023438 111.8125 86.953125 111.710938 86.875 111.613281 C 86.777344 111.523438 86.671875 111.445312 86.5625 111.371094 C 86.453125 111.285156 86.335938 111.207031 86.214844 111.136719 C 86.101562 111.097656 85.984375 111.066406 85.867188 111.042969 C 85.71875 110.992188 85.566406 110.960938 85.410156 110.949219 C 85.378906 110.949219 85.355469 110.933594 85.328125 110.933594 C 79.441406 110.921875 74.671875 106.152344 74.660156 100.265625 C 74.667969 94.378906 79.4375 89.605469 85.328125 89.601562 L 121.601562 89.601562 C 125.132812 89.601562 128 86.734375 128 83.199219 L 128 6.398438 C 128 2.867188 125.132812 0 121.601562 0 Z M 70.398438 100.265625 C 70.410156 107.902344 76.171875 114.304688 83.769531 115.117188 L 86.636719 123.734375 L 41.363281 123.734375 L 44.230469 115.117188 C 51.828125 114.304688 57.589844 107.902344 57.601562 100.265625 C 57.601562 96.25 55.976562 92.402344 53.097656 89.601562 L 74.902344 89.601562 C 72.023438 92.402344 70.398438 96.25 70.398438 100.265625 Z M 123.734375 83.199219 C 123.734375 84.378906 122.777344 85.332031 121.601562 85.332031 L 6.398438 85.332031 C 5.222656 85.332031 4.265625 84.378906 4.265625 83.199219 L 4.265625 76.800781 L 123.734375 76.800781 Z M 4.265625 72.535156 L 4.265625 6.398438 C 4.265625 5.222656 5.222656 4.265625 6.398438 4.265625 L 121.601562 4.265625 C 122.777344 4.265625 123.734375 5.222656 123.734375 6.398438 L 123.734375 72.535156 Z M 4.265625 72.535156 "/>
<path fill-rule="nonzero" fill="rgb(0%, 0%, 75.294118%)" fill-opacity="1" d="M 4.472656 3.394531 L 124.085938 3.394531 L 124.085938 85.378906 L 4.472656 85.378906 Z M 4.472656 3.394531 "/>
<path fill-rule="nonzero" fill="rgb(33.333333%, 86.666667%, 100%)" fill-opacity="1" d="M 4.050781 3.238281 L 4.050781 85.382812 L 124.28125 85.382812 L 124.28125 3.238281 Z M 8.859375 7.058594 L 42.523438 7.058594 L 42.523438 69.144531 L 8.859375 69.144531 Z M 46.132812 7.058594 L 61.761719 7.058594 L 61.761719 69.144531 L 46.132812 69.144531 Z M 66.570312 7.058594 L 100.234375 7.058594 L 100.234375 69.144531 L 66.570312 69.144531 Z M 103.839844 7.058594 L 119.472656 7.058594 L 119.472656 69.144531 L 103.839844 69.144531 Z M 12.46875 19.476562 L 12.46875 22.339844 L 38.917969 22.339844 L 38.917969 19.476562 Z M 49.738281 19.476562 L 49.738281 22.339844 L 58.15625 22.339844 L 58.15625 19.476562 Z M 70.175781 19.476562 L 70.175781 22.339844 L 96.628906 22.339844 L 96.628906 19.476562 Z M 107.449219 19.476562 L 107.449219 22.339844 L 115.863281 22.339844 L 115.863281 19.476562 Z M 12.46875 26.164062 L 12.46875 29.027344 L 38.917969 29.027344 L 38.917969 26.164062 Z M 49.738281 26.164062 L 49.738281 29.027344 L 58.15625 29.027344 L 58.15625 26.164062 Z M 70.175781 26.164062 L 70.175781 29.027344 L 96.628906 29.027344 L 96.628906 26.164062 Z M 107.449219 26.164062 L 107.449219 29.027344 L 115.863281 29.027344 L 115.863281 26.164062 Z M 12.46875 32.847656 L 12.46875 35.714844 L 38.917969 35.714844 L 38.917969 32.847656 Z M 49.738281 32.847656 L 49.738281 35.714844 L 58.15625 35.714844 L 58.15625 32.847656 Z M 70.175781 32.847656 L 70.175781 35.714844 L 96.628906 35.714844 L 96.628906 32.847656 Z M 107.449219 32.847656 L 107.449219 35.714844 L 115.863281 35.714844 L 115.863281 32.847656 Z M 12.46875 39.535156 L 12.46875 42.402344 L 38.917969 42.402344 L 38.917969 39.535156 Z M 49.738281 39.535156 L 49.738281 42.402344 L 58.15625 42.402344 L 58.15625 39.535156 Z M 12.46875 46.222656 L 12.46875 49.085938 L 38.917969 49.085938 L 38.917969 46.222656 Z M 49.738281 46.222656 L 49.738281 49.085938 L 58.15625 49.085938 L 58.15625 46.222656 Z M 8.859375 72.011719 L 61.761719 72.011719 L 61.761719 81.5625 L 8.859375 81.5625 Z M 66.570312 72.011719 L 119.472656 72.011719 L 119.472656 81.5625 L 66.570312 81.5625 Z M 11.265625 75.355469 L 11.265625 78.21875 L 35.3125 78.21875 L 35.3125 75.355469 Z M 38.917969 75.355469 L 38.917969 78.21875 L 42.523438 78.21875 L 42.523438 75.355469 Z M 46.132812 75.355469 L 46.132812 78.21875 L 56.953125 78.21875 L 56.953125 75.355469 Z M 68.976562 75.355469 L 68.976562 78.21875 L 93.019531 78.21875 L 93.019531 75.355469 Z M 96.628906 75.355469 L 96.628906 78.21875 L 100.234375 78.21875 L 100.234375 75.355469 Z M 103.839844 75.355469 L 103.839844 78.21875 L 114.660156 78.21875 L 114.660156 75.355469 Z M 103.839844 75.355469 "/>
<path fill-rule="nonzero" fill="rgb(100%, 100%, 0%)" fill-opacity="1" d="M 75.101562 9.925781 L 75.101562 12.789062 L 94.292969 12.789062 L 94.292969 9.925781 Z M 17.527344 9.925781 L 17.527344 12.792969 L 36.71875 12.792969 L 36.71875 9.925781 Z M 49.910156 9.925781 L 49.910156 12.792969 L 59.507812 12.792969 L 59.507812 9.925781 Z M 107.488281 9.925781 L 107.488281 12.792969 L 117.082031 12.792969 L 117.082031 9.925781 Z M 107.488281 9.925781 "/>
<use xlink:href="#source-12"/>
<path fill-rule="evenodd" fill="rgb(96.470588%, 54.509804%, 11.372549%)" fill-opacity="1" d="M 64.328125 10.636719 C 47.332031 10.609375 30.335938 10.636719 13.339844 10.714844 C 11.761719 11.570312 11.203125 12.90625 11.65625 14.71875 C 11.246094 14.71875 10.839844 14.71875 10.429688 14.71875 C 10.40625 13.199219 10.429688 11.683594 10.507812 10.164062 C 10.636719 9.824219 10.863281 9.585938 11.195312 9.457031 C 28.652344 9.351562 46.105469 9.351562 63.5625 9.457031 C 64.066406 9.679688 64.320312 10.070312 64.328125 10.636719 Z M 64.328125 10.636719 "/>
<path fill-rule="evenodd" fill="rgb(98.431373%, 70.980392%, 29.803922%)" fill-opacity="1" d="M 64.328125 10.636719 C 64.328125 11.996094 64.328125 13.359375 64.328125 14.71875 C 46.769531 14.71875 29.214844 14.71875 11.65625 14.71875 C 11.203125 12.90625 11.761719 11.570312 13.339844 10.714844 C 30.335938 10.636719 47.332031 10.609375 64.328125 10.636719 Z M 64.328125 10.636719 "/>
<g mask="url(#mask-0)">
<use xlink:href="#source-18"/>
</g>
<path fill-rule="evenodd" fill="rgb(87.058824%, 87.058824%, 87.058824%)" fill-opacity="1" d="M 65.554688 17.390625 C 65.554688 17.757812 65.554688 18.125 65.554688 18.492188 C 57.601562 18.5 50.046875 20.226562 42.890625 23.675781 C 34.011719 23.648438 25.128906 23.675781 16.25 23.753906 C 15.292969 24.464844 15.242188 25.25 16.097656 26.113281 C 28.550781 26.191406 41.003906 26.214844 53.457031 26.191406 C 48.226562 26.320312 42.96875 26.398438 37.6875 26.425781 C 35.566406 27.710938 33.578125 29.175781 31.714844 30.824219 C 36.539062 30.851562 41.335938 30.929688 46.105469 31.0625 C 36.101562 31.035156 26.101562 31.0625 16.097656 31.140625 C 15.210938 32.0625 15.3125 32.847656 16.402344 33.496094 C 20.433594 33.574219 24.464844 33.601562 28.5 33.574219 C 27.097656 35.039062 25.71875 36.535156 24.363281 38.054688 C 29.136719 38.078125 33.882812 38.160156 38.605469 38.289062 C 31.101562 38.261719 23.597656 38.289062 16.097656 38.367188 C 15.445312 38.90625 15.316406 39.558594 15.714844 40.332031 C 15.851562 40.519531 16.03125 40.652344 16.25 40.722656 C 18.238281 40.804688 20.230469 40.828125 22.222656 40.804688 C 21.171875 42.324219 20.203125 43.898438 19.3125 45.515625 C 18.171875 45.449219 17.046875 45.527344 15.941406 45.753906 C 15.265625 46.605469 15.367188 47.339844 16.25 47.953125 C 21.660156 48.03125 27.070312 48.058594 32.480469 48.03125 C 27.605469 48.160156 22.707031 48.238281 17.78125 48.265625 C 16.808594 49.914062 16.09375 51.617188 15.636719 53.371094 C 15.507812 53.667969 15.457031 53.980469 15.484375 54.316406 C 15.367188 54.195312 15.289062 54.039062 15.253906 53.84375 C 12.277344 62.21875 11.078125 70.859375 11.65625 79.769531 C 11.105469 79.761719 10.722656 79.5 10.507812 78.984375 C 10.429688 58.402344 10.40625 37.816406 10.429688 17.234375 C 28.832031 17.183594 47.203125 17.234375 65.554688 17.390625 Z M 65.554688 17.390625 "/>
<path fill-rule="evenodd" fill="rgb(92.941176%, 92.941176%, 92.941176%)" fill-opacity="1" d="M 65.554688 18.492188 C 65.554688 19.488281 65.554688 20.480469 65.554688 21.476562 C 53.265625 34.320312 40.886719 47.101562 28.421875 59.816406 C 28.152344 60.128906 28 60.496094 27.964844 60.914062 C 27.167969 64.699219 26.324219 68.46875 25.4375 72.226562 C 25.503906 73.046875 25.9375 73.464844 26.738281 73.484375 C 30.785156 72.675781 34.792969 71.707031 38.757812 70.578125 C 47.667969 61.40625 56.601562 52.265625 65.554688 43.160156 C 65.554688 44.835938 65.554688 46.511719 65.554688 48.1875 C 65.003906 48.195312 64.621094 48.457031 64.40625 48.972656 C 64.351562 58.976562 64.300781 68.980469 64.25 78.984375 C 64.179688 79.207031 64.050781 79.390625 63.867188 79.535156 C 46.476562 79.769531 29.074219 79.847656 11.65625 79.769531 C 11.078125 70.859375 12.277344 62.21875 15.253906 53.84375 C 15.289062 54.039062 15.367188 54.195312 15.484375 54.316406 C 15.59375 54.667969 15.800781 54.953125 16.097656 55.179688 C 19.667969 55.285156 23.242188 55.285156 26.816406 55.179688 C 27.707031 54.234375 27.605469 53.449219 26.507812 52.824219 C 23.089844 52.71875 19.667969 52.71875 16.25 52.824219 C 16.003906 52.972656 15.800781 53.15625 15.636719 53.371094 C 16.09375 51.617188 16.808594 49.914062 17.78125 48.265625 C 22.707031 48.238281 27.605469 48.160156 32.480469 48.03125 C 33.511719 47.691406 33.792969 47.011719 33.320312 45.988281 C 33.144531 45.769531 32.914062 45.636719 32.632812 45.59375 C 28.191406 45.515625 23.753906 45.492188 19.3125 45.515625 C 20.203125 43.898438 21.171875 42.324219 22.222656 40.804688 C 27.734375 40.828125 33.246094 40.804688 38.757812 40.722656 C 39.589844 40.40625 39.867188 39.804688 39.601562 38.917969 C 39.347656 38.566406 39.015625 38.355469 38.605469 38.289062 C 33.882812 38.160156 29.136719 38.078125 24.363281 38.054688 C 25.71875 36.535156 27.097656 35.039062 28.5 33.574219 C 34.367188 33.601562 40.238281 33.574219 46.105469 33.496094 C 46.941406 33.164062 47.222656 32.5625 46.949219 31.691406 C 46.726562 31.382812 46.445312 31.171875 46.105469 31.0625 C 41.335938 30.929688 36.539062 30.851562 31.714844 30.824219 C 33.578125 29.175781 35.566406 27.710938 37.6875 26.425781 C 42.96875 26.398438 48.226562 26.320312 53.457031 26.191406 C 54.359375 25.769531 54.589844 25.085938 54.144531 24.148438 C 53.929688 23.996094 53.699219 23.867188 53.457031 23.753906 C 49.933594 23.675781 46.414062 23.648438 42.890625 23.675781 C 50.046875 20.226562 57.601562 18.5 65.554688 18.492188 Z M 65.554688 18.492188 "/>
<path fill-rule="evenodd" fill="rgb(84.313725%, 10.588235%, 37.647059%)" fill-opacity="1" d="M 78.875 25.5625 C 78.6875 25.121094 78.382812 24.78125 77.957031 24.539062 C 74.5 22.632812 71.027344 22.578125 67.542969 24.382812 C 67.015625 24.703125 66.558594 25.097656 66.164062 25.5625 C 65.894531 25.433594 65.816406 25.222656 65.933594 24.933594 C 67.953125 22.863281 69.96875 20.796875 71.984375 18.726562 C 72.390625 18.621094 72.800781 18.621094 73.207031 18.726562 C 75.121094 20.691406 77.035156 22.65625 78.949219 24.621094 C 79.070312 24.96875 79.046875 25.28125 78.875 25.5625 Z M 78.875 25.5625 "/>
<path fill-rule="evenodd" fill="rgb(91.764706%, 25.098039%, 47.058824%)" fill-opacity="1" d="M 78.875 25.5625 C 76.894531 27.855469 74.800781 30.054688 72.597656 32.160156 C 70.398438 30.011719 68.253906 27.8125 66.164062 25.5625 C 66.558594 25.097656 67.015625 24.703125 67.542969 24.382812 C 71.027344 22.578125 74.5 22.632812 77.957031 24.539062 C 78.382812 24.78125 78.6875 25.121094 78.875 25.5625 Z M 78.875 25.5625 "/>
<path fill-rule="evenodd" fill="rgb(2.745098%, 2.745098%, 2.745098%)" fill-opacity="1" d="M 42.890625 23.675781 C 46.414062 23.648438 49.933594 23.675781 53.457031 23.753906 C 53.699219 23.867188 53.929688 23.996094 54.144531 24.148438 C 54.589844 25.085938 54.359375 25.769531 53.457031 26.191406 C 41.003906 26.214844 28.550781 26.191406 16.097656 26.113281 C 15.242188 25.25 15.292969 24.464844 16.25 23.753906 C 25.128906 23.675781 34.011719 23.648438 42.890625 23.675781 Z M 42.890625 23.675781 "/>
<path fill-rule="evenodd" fill="rgb(94.901961%, 54.117647%, 11.372549%)" fill-opacity="1" d="M 70.453125 34.359375 C 69.234375 32.824219 67.804688 31.539062 66.164062 30.511719 C 64.367188 29.894531 62.628906 30.027344 60.960938 30.902344 C 60.785156 30.804688 60.632812 30.675781 60.5 30.511719 C 61.652344 29.304688 62.824219 28.125 64.023438 26.976562 C 66.339844 29.277344 68.636719 31.609375 70.910156 33.96875 C 70.777344 34.132812 70.625 34.261719 70.453125 34.359375 Z M 70.453125 34.359375 "/>
<path fill-rule="evenodd" fill="rgb(97.647059%, 64.705882%, 15.686275%)" fill-opacity="1" d="M 70.453125 34.359375 C 69.484375 35.457031 68.464844 36.503906 67.390625 37.503906 C 65.191406 35.351562 63.046875 33.152344 60.960938 30.902344 C 62.628906 30.027344 64.367188 29.894531 66.164062 30.511719 C 67.804688 31.539062 69.234375 32.824219 70.453125 34.359375 Z M 70.453125 34.359375 "/>
<path fill-rule="evenodd" fill="rgb(3.137255%, 3.137255%, 3.137255%)" fill-opacity="1" d="M 46.105469 31.0625 C 46.445312 31.171875 46.726562 31.382812 46.949219 31.691406 C 47.222656 32.5625 46.941406 33.164062 46.105469 33.496094 C 40.238281 33.574219 34.367188 33.601562 28.5 33.574219 C 24.464844 33.601562 20.433594 33.574219 16.402344 33.496094 C 15.3125 32.847656 15.210938 32.0625 16.097656 31.140625 C 26.101562 31.0625 36.101562 31.035156 46.105469 31.0625 Z M 46.105469 31.0625 "/>
<path fill-rule="evenodd" fill="rgb(94.509804%, 47.843137%, 12.156863%)" fill-opacity="1" d="M 58.664062 32.320312 C 59.660156 33.15625 60.503906 34.101562 61.1875 35.148438 C 52.003906 44.574219 42.816406 54 33.628906 63.429688 C 32.8125 62.589844 31.996094 61.753906 31.179688 60.914062 C 31.078125 60.808594 31.078125 60.707031 31.179688 60.601562 C 40.371094 51.195312 49.53125 41.765625 58.664062 32.320312 Z M 58.664062 32.320312 "/>
<path fill-rule="evenodd" fill="rgb(95.294118%, 54.117647%, 11.372549%)" fill-opacity="1" d="M 62.796875 36.875 C 62.957031 36.851562 63.109375 36.878906 63.257812 36.953125 C 63.996094 37.714844 64.734375 38.472656 65.476562 39.230469 C 65.578125 39.335938 65.578125 39.441406 65.476562 39.546875 C 56.289062 48.972656 47.101562 58.402344 37.914062 67.828125 C 37.097656 66.992188 36.28125 66.152344 35.464844 65.3125 C 35.363281 65.210938 35.363281 65.105469 35.464844 65 C 44.605469 55.644531 53.71875 46.269531 62.796875 36.875 Z M 62.796875 36.875 "/>
<path fill-rule="evenodd" fill="rgb(1.568627%, 1.568627%, 1.568627%)" fill-opacity="1" d="M 38.605469 38.289062 C 39.015625 38.355469 39.347656 38.566406 39.601562 38.917969 C 39.867188 39.804688 39.589844 40.40625 38.757812 40.722656 C 33.246094 40.804688 27.734375 40.828125 22.222656 40.804688 C 20.230469 40.828125 18.238281 40.804688 16.25 40.722656 C 16.03125 40.652344 15.851562 40.519531 15.714844 40.332031 C 15.316406 39.558594 15.445312 38.90625 16.097656 38.367188 C 23.597656 38.289062 31.101562 38.261719 38.605469 38.289062 Z M 38.605469 38.289062 "/>
<path fill-rule="evenodd" fill="rgb(0.392157%, 0.392157%, 0.392157%)" fill-opacity="1" d="M 19.3125 45.515625 C 23.753906 45.492188 28.191406 45.515625 32.632812 45.59375 C 32.914062 45.636719 33.144531 45.769531 33.320312 45.988281 C 33.792969 47.011719 33.511719 47.691406 32.480469 48.03125 C 27.070312 48.058594 21.660156 48.03125 16.25 47.953125 C 15.367188 47.339844 15.265625 46.605469 15.941406 45.753906 C 17.046875 45.527344 18.171875 45.449219 19.3125 45.515625 Z M 19.3125 45.515625 "/>
<path fill-rule="evenodd" fill="rgb(2.745098%, 2.745098%, 2.745098%)" fill-opacity="1" d="M 15.484375 54.316406 C 15.457031 53.980469 15.507812 53.667969 15.636719 53.371094 C 15.800781 53.15625 16.003906 52.972656 16.25 52.824219 C 19.667969 52.71875 23.089844 52.71875 26.507812 52.824219 C 27.605469 53.449219 27.707031 54.234375 26.816406 55.179688 C 23.242188 55.285156 19.667969 55.285156 16.097656 55.179688 C 15.800781 54.953125 15.59375 54.667969 15.484375 54.316406 Z M 15.484375 54.316406 "/>
<path fill-rule="evenodd" fill="rgb(12.54902%, 12.54902%, 12.54902%)" fill-opacity="1" d="M 34.777344 69.085938 C 34.332031 68.726562 33.824219 68.492188 33.246094 68.378906 C 31.519531 68.035156 29.988281 68.425781 28.652344 69.558594 C 28.96875 67.710938 29.351562 65.878906 29.800781 64.058594 C 29.832031 63.777344 29.957031 63.566406 30.183594 63.429688 C 31.96875 65.15625 33.703125 66.9375 35.390625 68.769531 C 35.195312 68.90625 34.992188 69.011719 34.777344 69.085938 Z M 34.777344 69.085938 "/>
<path fill-rule="evenodd" fill="rgb(25.882353%, 25.882353%, 25.882353%)" fill-opacity="1" d="M 34.777344 69.085938 C 32.726562 69.515625 30.6875 69.988281 28.652344 70.5 C 28.550781 70.445312 28.449219 70.394531 28.34375 70.34375 C 28.449219 70.074219 28.550781 69.8125 28.652344 69.558594 C 29.988281 68.425781 31.519531 68.035156 33.246094 68.378906 C 33.824219 68.492188 34.332031 68.726562 34.777344 69.085938 Z M 34.777344 69.085938 "/>
</svg>
