<?xml version="1.0" encoding="UTF-8"?>
<svg xmlns="http://www.w3.org/2000/svg" xmlns:xlink="http://www.w3.org/1999/xlink" width="128" height="128" viewBox="0 0 128 128">
<path fill-rule="nonzero" fill="rgb(60.784314%, 78.823529%, 100%)" fill-opacity="1" d="M 125.867188 74.667969 L 125.867188 83.199219 C 125.859375 85.554688 123.953125 87.460938 121.601562 87.464844 L 85.332031 87.464844 C 78.265625 87.464844 72.535156 93.199219 72.535156 100.265625 C 72.542969 107.332031 78.269531 113.054688 85.332031 113.066406 L 89.601562 125.867188 L 38.398438 125.867188 L 42.667969 113.066406 C 49.730469 113.054688 55.457031 107.332031 55.464844 100.265625 C 55.464844 93.199219 49.734375 87.464844 42.667969 87.464844 L 6.398438 87.464844 C 4.046875 87.460938 2.140625 85.554688 2.132812 83.199219 L 2.132812 74.667969 Z M 125.867188 74.667969 "/>
<path fill-rule="nonzero" fill="rgb(0%, 100%, 0%)" fill-opacity="1" d="M 61.546875 92.578125 L 61.546875 97.164062 L 66.453125 97.164062 L 66.453125 92.578125 Z M 63.324219 92.847656 L 63.339844 92.847656 L 63.339844 96.898438 L 63.324219 96.898438 Z M 64.675781 92.847656 L 64.675781 96.898438 Z M 64.675781 92.847656 "/>
<path fill-rule="nonzero" fill="rgb(12.54902%, 47.843137%, 82.745098%)" fill-opacity="1" d="M 121.601562 0 L 6.398438 0 C 2.867188 0 0 2.867188 0 6.398438 L 0 83.199219 C 0 86.734375 2.867188 89.601562 6.398438 89.601562 L 42.667969 89.601562 C 48.554688 89.605469 53.324219 94.378906 53.332031 100.265625 C 53.324219 106.152344 48.554688 110.921875 42.667969 110.933594 C 42.636719 110.933594 42.613281 110.949219 42.582031 110.949219 C 42.429688 110.960938 42.273438 110.992188 42.128906 111.042969 C 42.007812 111.066406 41.894531 111.097656 41.777344 111.136719 C 41.65625 111.207031 41.539062 111.285156 41.429688 111.371094 C 41.320312 111.445312 41.214844 111.523438 41.121094 111.613281 C 41.039062 111.710938 40.96875 111.8125 40.90625 111.917969 C 40.816406 112.042969 40.738281 112.179688 40.675781 112.320312 C 40.675781 112.347656 40.648438 112.363281 40.636719 112.394531 L 36.371094 125.191406 C 36.152344 125.84375 36.261719 126.558594 36.664062 127.117188 C 37.066406 127.671875 37.714844 128 38.398438 128 L 89.601562 128 C 90.285156 128 90.929688 127.667969 91.328125 127.113281 C 91.730469 126.558594 91.839844 125.84375 91.621094 125.191406 L 87.355469 112.394531 C 87.355469 112.363281 87.324219 112.347656 87.316406 112.320312 C 87.253906 112.179688 87.179688 112.046875 87.085938 111.921875 C 87.023438 111.8125 86.953125 111.710938 86.875 111.613281 C 86.777344 111.523438 86.671875 111.445312 86.5625 111.371094 C 86.453125 111.285156 86.335938 111.207031 86.214844 111.136719 C 86.101562 111.097656 85.984375 111.066406 85.867188 111.042969 C 85.71875 110.992188 85.566406 110.960938 85.410156 110.949219 C 85.378906 110.949219 85.355469 110.933594 85.328125 110.933594 C 79.441406 110.921875 74.671875 106.152344 74.660156 100.265625 C 74.667969 94.378906 79.4375 89.605469 85.328125 89.601562 L 121.601562 89.601562 C 125.132812 89.601562 128 86.734375 128 83.199219 L 128 6.398438 C 128 2.867188 125.132812 0 121.601562 0 Z M 70.398438 100.265625 C 70.410156 107.902344 76.171875 114.304688 83.769531 115.117188 L 86.636719 123.734375 L 41.363281 123.734375 L 44.230469 115.117188 C 51.828125 114.304688 57.589844 107.902344 57.601562 100.265625 C 57.601562 96.25 55.976562 92.402344 53.097656 89.601562 L 74.902344 89.601562 C 72.023438 92.402344 70.398438 96.25 70.398438 100.265625 Z M 123.734375 83.199219 C 123.734375 84.378906 122.777344 85.332031 121.601562 85.332031 L 6.398438 85.332031 C 5.222656 85.332031 4.265625 84.378906 4.265625 83.199219 L 4.265625 76.800781 L 123.734375 76.800781 Z M 4.265625 72.535156 L 4.265625 6.398438 C 4.265625 5.222656 5.222656 4.265625 6.398438 4.265625 L 121.601562 4.265625 C 122.777344 4.265625 123.734375 5.222656 123.734375 6.398438 L 123.734375 72.535156 Z M 4.265625 72.535156 "/>
<path fill-rule="nonzero" fill="rgb(0%, 0%, 75.294118%)" fill-opacity="1" d="M 4.472656 3.394531 L 124.085938 3.394531 L 124.085938 85.378906 L 4.472656 85.378906 Z M 4.472656 3.394531 "/>
<path fill-rule="nonzero" fill="rgb(33.333333%, 86.666667%, 100%)" fill-opacity="1" d="M 4.050781 3.238281 L 4.050781 85.382812 L 124.28125 85.382812 L 124.28125 3.238281 Z M 8.859375 7.058594 L 42.523438 7.058594 L 42.523438 69.144531 L 8.859375 69.144531 Z M 46.132812 7.058594 L 61.761719 7.058594 L 61.761719 69.144531 L 46.132812 69.144531 Z M 66.570312 7.058594 L 100.234375 7.058594 L 100.234375 69.144531 L 66.570312 69.144531 Z M 103.839844 7.058594 L 119.472656 7.058594 L 119.472656 69.144531 L 103.839844 69.144531 Z M 12.46875 19.476562 L 12.46875 22.339844 L 38.917969 22.339844 L 38.917969 19.476562 Z M 49.738281 19.476562 L 49.738281 22.339844 L 58.15625 22.339844 L 58.15625 19.476562 Z M 70.175781 19.476562 L 70.175781 22.339844 L 96.628906 22.339844 L 96.628906 19.476562 Z M 107.449219 19.476562 L 107.449219 22.339844 L 115.863281 22.339844 L 115.863281 19.476562 Z M 12.46875 26.164062 L 12.46875 29.027344 L 38.917969 29.027344 L 38.917969 26.164062 Z M 49.738281 26.164062 L 49.738281 29.027344 L 58.15625 29.027344 L 58.15625 26.164062 Z M 70.175781 26.164062 L 70.175781 29.027344 L 96.628906 29.027344 L 96.628906 26.164062 Z M 107.449219 26.164062 L 107.449219 29.027344 L 115.863281 29.027344 L 115.863281 26.164062 Z M 12.46875 32.847656 L 12.46875 35.714844 L 38.917969 35.714844 L 38.917969 32.847656 Z M 49.738281 32.847656 L 49.738281 35.714844 L 58.15625 35.714844 L 58.15625 32.847656 Z M 70.175781 32.847656 L 70.175781 35.714844 L 96.628906 35.714844 L 96.628906 32.847656 Z M 107.449219 32.847656 L 107.449219 35.714844 L 115.863281 35.714844 L 115.863281 32.847656 Z M 12.46875 39.535156 L 12.46875 42.402344 L 38.917969 42.402344 L 38.917969 39.535156 Z M 49.738281 39.535156 L 49.738281 42.402344 L 58.15625 42.402344 L 58.15625 39.535156 Z M 12.46875 46.222656 L 12.46875 49.085938 L 38.917969 49.085938 L 38.917969 46.222656 Z M 49.738281 46.222656 L 49.738281 49.085938 L 58.15625 49.085938 L 58.15625 46.222656 Z M 8.859375 72.011719 L 61.761719 72.011719 L 61.761719 81.5625 L 8.859375 81.5625 Z M 66.570312 72.011719 L 119.472656 72.011719 L 119.472656 81.5625 L 66.570312 81.5625 Z M 11.265625 75.355469 L 11.265625 78.21875 L 35.3125 78.21875 L 35.3125 75.355469 Z M 38.917969 75.355469 L 38.917969 78.21875 L 42.523438 78.21875 L 42.523438 75.355469 Z M 46.132812 75.355469 L 46.132812 78.21875 L 56.953125 78.21875 L 56.953125 75.355469 Z M 68.976562 75.355469 L 68.976562 78.21875 L 93.019531 78.21875 L 93.019531 75.355469 Z M 96.628906 75.355469 L 96.628906 78.21875 L 100.234375 78.21875 L 100.234375 75.355469 Z M 103.839844 75.355469 L 103.839844 78.21875 L 114.660156 78.21875 L 114.660156 75.355469 Z M 103.839844 75.355469 "/>
<path fill-rule="nonzero" fill="rgb(100%, 100%, 0%)" fill-opacity="1" d="M 75.101562 9.925781 L 75.101562 12.789062 L 94.292969 12.789062 L 94.292969 9.925781 Z M 17.527344 9.925781 L 17.527344 12.792969 L 36.71875 12.792969 L 36.71875 9.925781 Z M 49.910156 9.925781 L 49.910156 12.792969 L 59.507812 12.792969 L 59.507812 9.925781 Z M 107.488281 9.925781 L 107.488281 12.792969 L 117.082031 12.792969 L 117.082031 9.925781 Z M 107.488281 9.925781 "/>
</svg>
