<?xml version="1.0" encoding="UTF-8"?>
<svg xmlns="http://www.w3.org/2000/svg" xmlns:xlink="http://www.w3.org/1999/xlink" width="32" height="32" viewBox="0 0 32 32">
<defs>
<filter id="filter-remove-color" x="0%" y="0%" width="100%" height="100%">
<feColorMatrix color-interpolation-filters="sRGB" values="0 0 0 0 1 0 0 0 0 1 0 0 0 0 1 0 0 0 1 0" />
</filter>
<clipPath id="clip-0">
<rect x="0" y="0" width="32" height="32"/>
</clipPath>
<g id="source-12" clip-path="url(#clip-0)">
<path fill-rule="evenodd" fill="rgb(0%, 0%, 0%)" fill-opacity="1" d="M 16.386719 4.347656 C 11.800781 4.308594 7.207031 4.296875 2.609375 4.308594 C 2.601562 9.453125 2.609375 14.601562 2.625 19.746094 C 2.679688 19.875 2.777344 19.941406 2.914062 19.941406 C 7.269531 19.960938 11.621094 19.941406 15.96875 19.882812 C 16.011719 19.847656 16.046875 19.800781 16.0625 19.746094 C 16.074219 17.246094 16.089844 14.746094 16.101562 12.242188 C 16.15625 12.113281 16.25 12.046875 16.386719 12.046875 C 16.519531 12.03125 16.617188 12.085938 16.675781 12.203125 C 16.699219 14.769531 16.699219 17.335938 16.675781 19.902344 C 16.566406 20.222656 16.355469 20.441406 16.042969 20.550781 C 11.578125 20.578125 7.113281 20.578125 2.644531 20.550781 C 2.332031 20.441406 2.121094 20.222656 2.015625 19.902344 C 1.988281 14.0625 1.988281 8.222656 2.015625 2.382812 C 2.105469 2.109375 2.277344 1.90625 2.53125 1.773438 C 7.035156 1.710938 11.539062 1.695312 16.042969 1.734375 C 16.355469 1.847656 16.566406 2.0625 16.675781 2.382812 C 16.699219 2.972656 16.699219 3.5625 16.675781 4.152344 C 16.609375 4.261719 16.515625 4.324219 16.386719 4.347656 Z M 16.386719 4.347656 "/>
</g>
<mask id="mask-0">
<g filter="url(#filter-remove-color)">
<rect x="-3.2" y="-3.2" width="38.4" height="38.4" fill="rgb(0%, 0%, 0%)" fill-opacity="0.99"/>
</g>
</mask>
<clipPath id="clip-1">
<rect x="0" y="0" width="32" height="32"/>
</clipPath>
<g id="source-18" clip-path="url(#clip-1)">
<path fill-rule="evenodd" fill="rgb(1.568627%, 0.784314%, 0.784314%)" fill-opacity="1" d="M 16.386719 10.789062 C 14.148438 13.066406 11.917969 15.351562 9.6875 17.644531 C 8.699219 17.925781 7.695312 18.167969 6.683594 18.371094 C 6.484375 18.367188 6.375 18.261719 6.359375 18.058594 C 6.582031 17.117188 6.792969 16.175781 6.992188 15.230469 C 7 15.125 7.039062 15.03125 7.105469 14.953125 C 10.222656 11.773438 13.316406 8.582031 16.386719 5.371094 C 16.777344 4.992188 17.160156 4.605469 17.535156 4.210938 C 17.945312 3.921875 18.355469 3.921875 18.761719 4.210938 C 19.238281 4.703125 19.71875 5.191406 20.195312 5.683594 C 20.425781 6.089844 20.425781 6.496094 20.195312 6.902344 C 18.933594 8.207031 17.664062 9.5 16.386719 10.789062 Z M 16.386719 10.789062 "/>
</g>
</defs>
<path fill-rule="nonzero" fill="rgb(60.784314%, 78.823529%, 100%)" fill-opacity="1" d="M 31.464844 18.667969 L 31.464844 20.800781 C 31.464844 21.386719 30.988281 21.863281 30.398438 21.867188 L 21.332031 21.867188 C 19.566406 21.867188 18.132812 23.300781 18.132812 25.066406 C 18.136719 26.832031 19.566406 28.265625 21.332031 28.265625 L 22.398438 31.464844 L 9.601562 31.464844 L 10.667969 28.265625 C 12.433594 28.265625 13.863281 26.832031 13.867188 25.066406 C 13.867188 23.300781 12.433594 21.867188 10.667969 21.867188 L 1.601562 21.867188 C 1.011719 21.863281 0.535156 21.386719 0.535156 20.800781 L 0.535156 18.667969 Z M 31.464844 18.667969 "/>
<path fill-rule="nonzero" fill="rgb(0%, 100%, 0%)" fill-opacity="1" d="M 15.386719 23.144531 L 15.386719 24.292969 L 16.613281 24.292969 L 16.613281 23.144531 Z M 15.832031 23.210938 L 15.835938 23.210938 L 15.835938 24.222656 L 15.832031 24.222656 Z M 16.167969 23.210938 L 16.167969 24.222656 Z M 16.167969 23.210938 "/>
<path fill-rule="nonzero" fill="rgb(12.54902%, 47.843137%, 82.745098%)" fill-opacity="1" d="M 30.398438 0 L 1.601562 0 C 0.714844 0 0 0.714844 0 1.601562 L 0 20.800781 C 0 21.683594 0.714844 22.398438 1.601562 22.398438 L 10.667969 22.398438 C 12.140625 22.402344 13.332031 23.59375 13.332031 25.066406 C 13.332031 26.539062 12.136719 27.730469 10.667969 27.734375 C 10.660156 27.734375 10.652344 27.738281 10.644531 27.738281 C 10.605469 27.742188 10.570312 27.75 10.53125 27.761719 C 10.503906 27.765625 10.472656 27.773438 10.445312 27.785156 C 10.414062 27.800781 10.386719 27.820312 10.359375 27.84375 C 10.332031 27.859375 10.304688 27.882812 10.28125 27.902344 C 10.261719 27.925781 10.242188 27.953125 10.226562 27.980469 C 10.203125 28.011719 10.183594 28.042969 10.167969 28.082031 C 10.167969 28.085938 10.160156 28.089844 10.160156 28.097656 L 9.09375 31.296875 C 9.039062 31.460938 9.066406 31.640625 9.167969 31.777344 C 9.265625 31.917969 9.429688 32 9.601562 32 L 22.398438 32 C 22.570312 32 22.730469 31.917969 22.832031 31.777344 C 22.933594 31.640625 22.960938 31.460938 22.90625 31.296875 L 21.839844 28.097656 C 21.839844 28.089844 21.832031 28.085938 21.828125 28.082031 C 21.8125 28.046875 21.792969 28.011719 21.773438 27.980469 C 21.757812 27.953125 21.738281 27.925781 21.71875 27.902344 C 21.695312 27.882812 21.667969 27.859375 21.640625 27.84375 C 21.613281 27.820312 21.585938 27.800781 21.554688 27.785156 C 21.523438 27.773438 21.496094 27.765625 21.464844 27.761719 C 21.429688 27.75 21.390625 27.742188 21.351562 27.738281 C 21.34375 27.738281 21.339844 27.734375 21.332031 27.734375 C 19.859375 27.730469 18.667969 26.539062 18.664062 25.066406 C 18.667969 23.59375 19.859375 22.402344 21.332031 22.398438 L 30.398438 22.398438 C 31.285156 22.398438 32 21.683594 32 20.800781 L 32 1.601562 C 32 0.714844 31.285156 0 30.398438 0 Z M 17.601562 25.066406 C 17.601562 26.976562 19.042969 28.578125 20.941406 28.777344 L 21.660156 30.933594 L 10.339844 30.933594 L 11.058594 28.777344 C 12.957031 28.578125 14.398438 26.976562 14.398438 25.066406 C 14.398438 24.0625 13.996094 23.101562 13.273438 22.398438 L 18.726562 22.398438 C 18.003906 23.101562 17.601562 24.0625 17.601562 25.066406 Z M 30.933594 20.800781 C 30.933594 21.09375 30.695312 21.332031 30.398438 21.332031 L 1.601562 21.332031 C 1.304688 21.332031 1.066406 21.09375 1.066406 20.800781 L 1.066406 19.199219 L 30.933594 19.199219 Z M 1.066406 18.132812 L 1.066406 1.601562 C 1.066406 1.304688 1.304688 1.066406 1.601562 1.066406 L 30.398438 1.066406 C 30.695312 1.066406 30.933594 1.304688 30.933594 1.601562 L 30.933594 18.132812 Z M 1.066406 18.132812 "/>
<path fill-rule="nonzero" fill="rgb(0%, 0%, 75.294118%)" fill-opacity="1" d="M 1.117188 0.847656 L 31.023438 0.847656 L 31.023438 21.34375 L 1.117188 21.34375 Z M 1.117188 0.847656 "/>
<path fill-rule="nonzero" fill="rgb(33.333333%, 86.666667%, 100%)" fill-opacity="1" d="M 1.011719 0.808594 L 1.011719 21.34375 L 31.070312 21.34375 L 31.070312 0.808594 Z M 2.214844 1.765625 L 10.632812 1.765625 L 10.632812 17.285156 L 2.214844 17.285156 Z M 11.53125 1.765625 L 15.441406 1.765625 L 15.441406 17.285156 L 11.53125 17.285156 Z M 16.644531 1.765625 L 25.058594 1.765625 L 25.058594 17.285156 L 16.644531 17.285156 Z M 25.960938 1.765625 L 29.867188 1.765625 L 29.867188 17.285156 L 25.960938 17.285156 Z M 3.117188 4.867188 L 3.117188 5.585938 L 9.730469 5.585938 L 9.730469 4.867188 Z M 12.433594 4.867188 L 12.433594 5.585938 L 14.539062 5.585938 L 14.539062 4.867188 Z M 17.542969 4.867188 L 17.542969 5.585938 L 24.15625 5.585938 L 24.15625 4.867188 Z M 26.863281 4.867188 L 26.863281 5.585938 L 28.964844 5.585938 L 28.964844 4.867188 Z M 3.117188 6.539062 L 3.117188 7.257812 L 9.730469 7.257812 L 9.730469 6.539062 Z M 12.433594 6.539062 L 12.433594 7.257812 L 14.539062 7.257812 L 14.539062 6.539062 Z M 17.542969 6.539062 L 17.542969 7.257812 L 24.15625 7.257812 L 24.15625 6.539062 Z M 26.863281 6.539062 L 26.863281 7.257812 L 28.964844 7.257812 L 28.964844 6.539062 Z M 3.117188 8.210938 L 3.117188 8.929688 L 9.730469 8.929688 L 9.730469 8.210938 Z M 12.433594 8.210938 L 12.433594 8.929688 L 14.539062 8.929688 L 14.539062 8.210938 Z M 17.542969 8.210938 L 17.542969 8.929688 L 24.15625 8.929688 L 24.15625 8.210938 Z M 26.863281 8.210938 L 26.863281 8.929688 L 28.964844 8.929688 L 28.964844 8.210938 Z M 3.117188 9.882812 L 3.117188 10.601562 L 9.730469 10.601562 L 9.730469 9.882812 Z M 12.433594 9.882812 L 12.433594 10.601562 L 14.539062 10.601562 L 14.539062 9.882812 Z M 3.117188 11.554688 L 3.117188 12.273438 L 9.730469 12.273438 L 9.730469 11.554688 Z M 12.433594 11.554688 L 12.433594 12.273438 L 14.539062 12.273438 L 14.539062 11.554688 Z M 2.214844 18.003906 L 15.441406 18.003906 L 15.441406 20.390625 L 2.214844 20.390625 Z M 16.644531 18.003906 L 29.867188 18.003906 L 29.867188 20.390625 L 16.644531 20.390625 Z M 2.816406 18.839844 L 2.816406 19.554688 L 8.828125 19.554688 L 8.828125 18.839844 Z M 9.730469 18.839844 L 9.730469 19.554688 L 10.632812 19.554688 L 10.632812 18.839844 Z M 11.53125 18.839844 L 11.53125 19.554688 L 14.238281 19.554688 L 14.238281 18.839844 Z M 17.242188 18.839844 L 17.242188 19.554688 L 23.253906 19.554688 L 23.253906 18.839844 Z M 24.15625 18.839844 L 24.15625 19.554688 L 25.058594 19.554688 L 25.058594 18.839844 Z M 25.960938 18.839844 L 25.960938 19.554688 L 28.664062 19.554688 L 28.664062 18.839844 Z M 25.960938 18.839844 "/>
<path fill-rule="nonzero" fill="rgb(100%, 100%, 0%)" fill-opacity="1" d="M 18.773438 2.480469 L 18.773438 3.199219 L 23.574219 3.199219 L 23.574219 2.480469 Z M 4.382812 2.480469 L 4.382812 3.199219 L 9.179688 3.199219 L 9.179688 2.480469 Z M 12.476562 2.480469 L 12.476562 3.199219 L 14.875 3.199219 L 14.875 2.480469 Z M 26.871094 2.480469 L 26.871094 3.199219 L 29.269531 3.199219 L 29.269531 2.480469 Z M 26.871094 2.480469 "/>
<use xlink:href="#source-12"/>
<path fill-rule="evenodd" fill="rgb(96.470588%, 54.509804%, 11.372549%)" fill-opacity="1" d="M 16.082031 2.660156 C 11.832031 2.652344 7.585938 2.660156 3.335938 2.679688 C 2.941406 2.890625 2.800781 3.226562 2.914062 3.679688 C 2.8125 3.679688 2.710938 3.679688 2.609375 3.679688 C 2.601562 3.300781 2.609375 2.921875 2.625 2.539062 C 2.660156 2.457031 2.714844 2.398438 2.800781 2.363281 C 7.164062 2.339844 11.527344 2.339844 15.890625 2.363281 C 16.015625 2.417969 16.082031 2.519531 16.082031 2.660156 Z M 16.082031 2.660156 "/>
<path fill-rule="evenodd" fill="rgb(98.431373%, 70.980392%, 29.803922%)" fill-opacity="1" d="M 16.082031 2.660156 C 16.082031 3 16.082031 3.339844 16.082031 3.679688 C 11.691406 3.679688 7.304688 3.679688 2.914062 3.679688 C 2.800781 3.226562 2.941406 2.890625 3.335938 2.679688 C 7.585938 2.660156 11.832031 2.652344 16.082031 2.660156 Z M 16.082031 2.660156 "/>
<g mask="url(#mask-0)">
<use xlink:href="#source-18"/>
</g>
<path fill-rule="evenodd" fill="rgb(87.058824%, 87.058824%, 87.058824%)" fill-opacity="1" d="M 16.386719 4.347656 C 16.386719 4.441406 16.386719 4.53125 16.386719 4.621094 C 14.402344 4.625 12.511719 5.058594 10.722656 5.917969 C 8.503906 5.914062 6.28125 5.917969 4.0625 5.9375 C 3.824219 6.117188 3.808594 6.3125 4.023438 6.527344 C 7.136719 6.546875 10.25 6.554688 13.363281 6.546875 C 12.054688 6.582031 10.742188 6.601562 9.421875 6.605469 C 8.890625 6.925781 8.394531 7.292969 7.929688 7.707031 C 9.132812 7.714844 10.332031 7.734375 11.527344 7.765625 C 9.027344 7.757812 6.523438 7.765625 4.023438 7.785156 C 3.804688 8.015625 3.828125 8.210938 4.101562 8.375 C 5.109375 8.394531 6.117188 8.402344 7.125 8.394531 C 6.773438 8.761719 6.429688 9.132812 6.089844 9.511719 C 7.285156 9.519531 8.472656 9.539062 9.652344 9.574219 C 7.777344 9.566406 5.898438 9.574219 4.023438 9.59375 C 3.859375 9.726562 3.828125 9.890625 3.929688 10.082031 C 3.964844 10.128906 4.007812 10.164062 4.0625 10.179688 C 4.558594 10.199219 5.058594 10.207031 5.554688 10.199219 C 5.292969 10.582031 5.050781 10.972656 4.828125 11.378906 C 4.542969 11.363281 4.261719 11.382812 3.984375 11.4375 C 3.816406 11.652344 3.84375 11.835938 4.0625 11.988281 C 5.414062 12.007812 6.765625 12.015625 8.121094 12.007812 C 6.902344 12.039062 5.675781 12.058594 4.445312 12.066406 C 4.203125 12.480469 4.023438 12.90625 3.910156 13.34375 C 3.878906 13.417969 3.863281 13.496094 3.871094 13.578125 C 3.839844 13.550781 3.824219 13.507812 3.8125 13.460938 C 3.070312 15.554688 2.769531 17.714844 2.914062 19.941406 C 2.777344 19.941406 2.679688 19.875 2.625 19.746094 C 2.609375 14.601562 2.601562 9.453125 2.609375 4.308594 C 7.207031 4.296875 11.800781 4.308594 16.386719 4.347656 Z M 16.386719 4.347656 "/>
<path fill-rule="evenodd" fill="rgb(92.941176%, 92.941176%, 92.941176%)" fill-opacity="1" d="M 16.386719 4.621094 C 16.386719 4.871094 16.386719 5.121094 16.386719 5.371094 C 13.316406 8.582031 10.222656 11.773438 7.105469 14.953125 C 7.039062 15.03125 7 15.125 6.992188 15.230469 C 6.792969 16.175781 6.582031 17.117188 6.359375 18.058594 C 6.375 18.261719 6.484375 18.367188 6.683594 18.371094 C 7.695312 18.167969 8.699219 17.925781 9.6875 17.644531 C 11.917969 15.351562 14.148438 13.066406 16.386719 10.789062 C 16.386719 11.207031 16.386719 11.628906 16.386719 12.046875 C 16.25 12.046875 16.15625 12.113281 16.101562 12.242188 C 16.089844 14.746094 16.074219 17.246094 16.0625 19.746094 C 16.046875 19.800781 16.011719 19.847656 15.96875 19.882812 C 11.621094 19.941406 7.269531 19.960938 2.914062 19.941406 C 2.769531 17.714844 3.070312 15.554688 3.8125 13.460938 C 3.824219 13.507812 3.839844 13.550781 3.871094 13.578125 C 3.898438 13.667969 3.949219 13.738281 4.023438 13.796875 C 4.917969 13.820312 5.808594 13.820312 6.703125 13.796875 C 6.925781 13.558594 6.902344 13.363281 6.628906 13.207031 C 5.773438 13.179688 4.917969 13.179688 4.0625 13.207031 C 4 13.242188 3.949219 13.289062 3.910156 13.34375 C 4.023438 12.90625 4.203125 12.480469 4.445312 12.066406 C 5.675781 12.058594 6.902344 12.039062 8.121094 12.007812 C 8.378906 11.921875 8.449219 11.753906 8.332031 11.496094 C 8.285156 11.441406 8.226562 11.410156 8.160156 11.398438 C 7.046875 11.378906 5.9375 11.371094 4.828125 11.378906 C 5.050781 10.972656 5.292969 10.582031 5.554688 10.199219 C 6.933594 10.207031 8.3125 10.199219 9.6875 10.179688 C 9.898438 10.101562 9.96875 9.953125 9.898438 9.730469 C 9.835938 9.640625 9.753906 9.589844 9.652344 9.574219 C 8.472656 9.539062 7.285156 9.519531 6.089844 9.511719 C 6.429688 9.132812 6.773438 8.761719 7.125 8.394531 C 8.59375 8.402344 10.058594 8.394531 11.527344 8.375 C 11.734375 8.292969 11.804688 8.140625 11.738281 7.921875 C 11.683594 7.84375 11.613281 7.792969 11.527344 7.765625 C 10.332031 7.734375 9.132812 7.714844 7.929688 7.707031 C 8.394531 7.292969 8.890625 6.925781 9.421875 6.605469 C 10.742188 6.601562 12.054688 6.582031 13.363281 6.546875 C 13.589844 6.441406 13.648438 6.273438 13.535156 6.035156 C 13.480469 6 13.425781 5.964844 13.363281 5.9375 C 12.484375 5.917969 11.601562 5.914062 10.722656 5.917969 C 12.511719 5.058594 14.402344 4.625 16.386719 4.621094 Z M 16.386719 4.621094 "/>
<path fill-rule="evenodd" fill="rgb(84.313725%, 10.588235%, 37.647059%)" fill-opacity="1" d="M 19.71875 6.390625 C 19.671875 6.28125 19.597656 6.195312 19.488281 6.136719 C 18.625 5.65625 17.757812 5.644531 16.886719 6.097656 C 16.753906 6.175781 16.640625 6.273438 16.542969 6.390625 C 16.472656 6.359375 16.453125 6.304688 16.484375 6.234375 C 16.988281 5.714844 17.492188 5.199219 17.996094 4.683594 C 18.097656 4.65625 18.199219 4.65625 18.300781 4.683594 C 18.78125 5.171875 19.257812 5.664062 19.738281 6.15625 C 19.769531 6.242188 19.761719 6.320312 19.71875 6.390625 Z M 19.71875 6.390625 "/>
<path fill-rule="evenodd" fill="rgb(91.764706%, 25.098039%, 47.058824%)" fill-opacity="1" d="M 19.71875 6.390625 C 19.222656 6.964844 18.699219 7.515625 18.148438 8.039062 C 17.597656 7.503906 17.0625 6.953125 16.542969 6.390625 C 16.640625 6.273438 16.753906 6.175781 16.886719 6.097656 C 17.757812 5.644531 18.625 5.65625 19.488281 6.136719 C 19.597656 6.195312 19.671875 6.28125 19.71875 6.390625 Z M 19.71875 6.390625 "/>
<path fill-rule="evenodd" fill="rgb(2.745098%, 2.745098%, 2.745098%)" fill-opacity="1" d="M 10.722656 5.917969 C 11.601562 5.914062 12.484375 5.917969 13.363281 5.9375 C 13.425781 5.964844 13.480469 6 13.535156 6.035156 C 13.648438 6.273438 13.589844 6.441406 13.363281 6.546875 C 10.25 6.554688 7.136719 6.546875 4.023438 6.527344 C 3.808594 6.3125 3.824219 6.117188 4.0625 5.9375 C 6.28125 5.917969 8.503906 5.914062 10.722656 5.917969 Z M 10.722656 5.917969 "/>
<path fill-rule="evenodd" fill="rgb(94.901961%, 54.117647%, 11.372549%)" fill-opacity="1" d="M 17.613281 8.589844 C 17.308594 8.207031 16.953125 7.886719 16.542969 7.628906 C 16.089844 7.472656 15.65625 7.507812 15.238281 7.726562 C 15.195312 7.703125 15.160156 7.667969 15.125 7.628906 C 15.414062 7.324219 15.707031 7.03125 16.003906 6.742188 C 16.585938 7.320312 17.160156 7.902344 17.726562 8.492188 C 17.695312 8.53125 17.65625 8.566406 17.613281 8.589844 Z M 17.613281 8.589844 "/>
<path fill-rule="evenodd" fill="rgb(97.647059%, 64.705882%, 15.686275%)" fill-opacity="1" d="M 17.613281 8.589844 C 17.371094 8.863281 17.117188 9.125 16.847656 9.375 C 16.296875 8.839844 15.761719 8.289062 15.238281 7.726562 C 15.65625 7.507812 16.089844 7.472656 16.542969 7.628906 C 16.953125 7.886719 17.308594 8.207031 17.613281 8.589844 Z M 17.613281 8.589844 "/>
<path fill-rule="evenodd" fill="rgb(3.137255%, 3.137255%, 3.137255%)" fill-opacity="1" d="M 11.527344 7.765625 C 11.613281 7.792969 11.683594 7.84375 11.738281 7.921875 C 11.804688 8.140625 11.734375 8.292969 11.527344 8.375 C 10.058594 8.394531 8.59375 8.402344 7.125 8.394531 C 6.117188 8.402344 5.109375 8.394531 4.101562 8.375 C 3.828125 8.210938 3.804688 8.015625 4.023438 7.785156 C 6.523438 7.765625 9.027344 7.757812 11.527344 7.765625 Z M 11.527344 7.765625 "/>
<path fill-rule="evenodd" fill="rgb(94.509804%, 47.843137%, 12.156863%)" fill-opacity="1" d="M 14.664062 8.078125 C 14.914062 8.289062 15.125 8.523438 15.296875 8.785156 C 13 11.144531 10.703125 13.5 8.40625 15.855469 C 8.203125 15.648438 8 15.4375 7.792969 15.230469 C 7.769531 15.203125 7.769531 15.175781 7.792969 15.148438 C 10.09375 12.796875 12.382812 10.441406 14.664062 8.078125 Z M 14.664062 8.078125 "/>
<path fill-rule="evenodd" fill="rgb(95.294118%, 54.117647%, 11.372549%)" fill-opacity="1" d="M 15.699219 9.21875 C 15.738281 9.210938 15.777344 9.21875 15.8125 9.238281 C 16 9.429688 16.183594 9.617188 16.367188 9.808594 C 16.394531 9.835938 16.394531 9.859375 16.367188 9.886719 C 14.074219 12.242188 11.777344 14.601562 9.480469 16.957031 C 9.273438 16.746094 9.070312 16.539062 8.867188 16.328125 C 8.839844 16.300781 8.839844 16.277344 8.867188 16.25 C 11.152344 13.910156 13.429688 11.566406 15.699219 9.21875 Z M 15.699219 9.21875 "/>
<path fill-rule="evenodd" fill="rgb(1.568627%, 1.568627%, 1.568627%)" fill-opacity="1" d="M 9.652344 9.574219 C 9.753906 9.589844 9.835938 9.640625 9.898438 9.730469 C 9.96875 9.953125 9.898438 10.101562 9.6875 10.179688 C 8.3125 10.199219 6.933594 10.207031 5.554688 10.199219 C 5.058594 10.207031 4.558594 10.199219 4.0625 10.179688 C 4.007812 10.164062 3.964844 10.128906 3.929688 10.082031 C 3.828125 9.890625 3.859375 9.726562 4.023438 9.59375 C 5.898438 9.574219 7.777344 9.566406 9.652344 9.574219 Z M 9.652344 9.574219 "/>
<path fill-rule="evenodd" fill="rgb(0.392157%, 0.392157%, 0.392157%)" fill-opacity="1" d="M 4.828125 11.378906 C 5.9375 11.371094 7.046875 11.378906 8.160156 11.398438 C 8.226562 11.410156 8.285156 11.441406 8.332031 11.496094 C 8.449219 11.753906 8.378906 11.921875 8.121094 12.007812 C 6.765625 12.015625 5.414062 12.007812 4.0625 11.988281 C 3.84375 11.835938 3.816406 11.652344 3.984375 11.4375 C 4.261719 11.382812 4.542969 11.363281 4.828125 11.378906 Z M 4.828125 11.378906 "/>
<path fill-rule="evenodd" fill="rgb(2.745098%, 2.745098%, 2.745098%)" fill-opacity="1" d="M 3.871094 13.578125 C 3.863281 13.496094 3.878906 13.417969 3.910156 13.34375 C 3.949219 13.289062 4 13.242188 4.0625 13.207031 C 4.917969 13.179688 5.773438 13.179688 6.628906 13.207031 C 6.902344 13.363281 6.925781 13.558594 6.703125 13.796875 C 5.808594 13.820312 4.917969 13.820312 4.023438 13.796875 C 3.949219 13.738281 3.898438 13.667969 3.871094 13.578125 Z M 3.871094 13.578125 "/>
<path fill-rule="evenodd" fill="rgb(12.54902%, 12.54902%, 12.54902%)" fill-opacity="1" d="M 8.695312 17.269531 C 8.582031 17.183594 8.457031 17.121094 8.3125 17.09375 C 7.878906 17.007812 7.496094 17.105469 7.164062 17.390625 C 7.242188 16.929688 7.335938 16.46875 7.449219 16.015625 C 7.457031 15.945312 7.488281 15.890625 7.546875 15.855469 C 7.992188 16.289062 8.425781 16.734375 8.847656 17.191406 C 8.796875 17.226562 8.746094 17.253906 8.695312 17.269531 Z M 8.695312 17.269531 "/>
<path fill-rule="evenodd" fill="rgb(25.882353%, 25.882353%, 25.882353%)" fill-opacity="1" d="M 8.695312 17.269531 C 8.183594 17.378906 7.671875 17.496094 7.164062 17.625 C 7.136719 17.613281 7.113281 17.597656 7.085938 17.585938 C 7.113281 17.519531 7.136719 17.453125 7.164062 17.390625 C 7.496094 17.105469 7.878906 17.007812 8.3125 17.09375 C 8.457031 17.121094 8.582031 17.183594 8.695312 17.269531 Z M 8.695312 17.269531 "/>
</svg>
