<?xml version="1.0" encoding="UTF-8"?>
<svg xmlns="http://www.w3.org/2000/svg" xmlns:xlink="http://www.w3.org/1999/xlink" width="32" height="32" viewBox="0 0 32 32">
<path fill-rule="nonzero" fill="rgb(60.784314%, 78.823529%, 100%)" fill-opacity="1" d="M 31.464844 18.667969 L 31.464844 20.800781 C 31.464844 21.386719 30.988281 21.863281 30.398438 21.867188 L 21.332031 21.867188 C 19.566406 21.867188 18.132812 23.300781 18.132812 25.066406 C 18.136719 26.832031 19.566406 28.265625 21.332031 28.265625 L 22.398438 31.464844 L 9.601562 31.464844 L 10.667969 28.265625 C 12.433594 28.265625 13.863281 26.832031 13.867188 25.066406 C 13.867188 23.300781 12.433594 21.867188 10.667969 21.867188 L 1.601562 21.867188 C 1.011719 21.863281 0.535156 21.386719 0.535156 20.800781 L 0.535156 18.667969 Z M 31.464844 18.667969 "/>
<path fill-rule="nonzero" fill="rgb(0%, 100%, 0%)" fill-opacity="1" d="M 15.386719 23.144531 L 15.386719 24.292969 L 16.613281 24.292969 L 16.613281 23.144531 Z M 15.832031 23.210938 L 15.835938 23.210938 L 15.835938 24.222656 L 15.832031 24.222656 Z M 16.167969 23.210938 L 16.167969 24.222656 Z M 16.167969 23.210938 "/>
<path fill-rule="nonzero" fill="rgb(12.54902%, 47.843137%, 82.745098%)" fill-opacity="1" d="M 30.398438 0 L 1.601562 0 C 0.714844 0 0 0.714844 0 1.601562 L 0 20.800781 C 0 21.683594 0.714844 22.398438 1.601562 22.398438 L 10.667969 22.398438 C 12.140625 22.402344 13.332031 23.59375 13.332031 25.066406 C 13.332031 26.539062 12.136719 27.730469 10.667969 27.734375 C 10.660156 27.734375 10.652344 27.738281 10.644531 27.738281 C 10.605469 27.742188 10.570312 27.75 10.53125 27.761719 C 10.503906 27.765625 10.472656 27.773438 10.445312 27.785156 C 10.414062 27.800781 10.386719 27.820312 10.359375 27.84375 C 10.332031 27.859375 10.304688 27.882812 10.28125 27.902344 C 10.261719 27.925781 10.242188 27.953125 10.226562 27.980469 C 10.203125 28.011719 10.183594 28.042969 10.167969 28.082031 C 10.167969 28.085938 10.160156 28.089844 10.160156 28.097656 L 9.09375 31.296875 C 9.039062 31.460938 9.066406 31.640625 9.167969 31.777344 C 9.265625 31.917969 9.429688 32 9.601562 32 L 22.398438 32 C 22.570312 32 22.730469 31.917969 22.832031 31.777344 C 22.933594 31.640625 22.960938 31.460938 22.90625 31.296875 L 21.839844 28.097656 C 21.839844 28.089844 21.832031 28.085938 21.828125 28.082031 C 21.8125 28.046875 21.792969 28.011719 21.773438 27.980469 C 21.757812 27.953125 21.738281 27.925781 21.71875 27.902344 C 21.695312 27.882812 21.667969 27.859375 21.640625 27.84375 C 21.613281 27.820312 21.585938 27.800781 21.554688 27.785156 C 21.523438 27.773438 21.496094 27.765625 21.464844 27.761719 C 21.429688 27.75 21.390625 27.742188 21.351562 27.738281 C 21.34375 27.738281 21.339844 27.734375 21.332031 27.734375 C 19.859375 27.730469 18.667969 26.539062 18.664062 25.066406 C 18.667969 23.59375 19.859375 22.402344 21.332031 22.398438 L 30.398438 22.398438 C 31.285156 22.398438 32 21.683594 32 20.800781 L 32 1.601562 C 32 0.714844 31.285156 0 30.398438 0 Z M 17.601562 25.066406 C 17.601562 26.976562 19.042969 28.578125 20.941406 28.777344 L 21.660156 30.933594 L 10.339844 30.933594 L 11.058594 28.777344 C 12.957031 28.578125 14.398438 26.976562 14.398438 25.066406 C 14.398438 24.0625 13.996094 23.101562 13.273438 22.398438 L 18.726562 22.398438 C 18.003906 23.101562 17.601562 24.0625 17.601562 25.066406 Z M 30.933594 20.800781 C 30.933594 21.09375 30.695312 21.332031 30.398438 21.332031 L 1.601562 21.332031 C 1.304688 21.332031 1.066406 21.09375 1.066406 20.800781 L 1.066406 19.199219 L 30.933594 19.199219 Z M 1.066406 18.132812 L 1.066406 1.601562 C 1.066406 1.304688 1.304688 1.066406 1.601562 1.066406 L 30.398438 1.066406 C 30.695312 1.066406 30.933594 1.304688 30.933594 1.601562 L 30.933594 18.132812 Z M 1.066406 18.132812 "/>
<path fill-rule="nonzero" fill="rgb(0%, 0%, 75.294118%)" fill-opacity="1" d="M 1.117188 0.847656 L 31.023438 0.847656 L 31.023438 21.34375 L 1.117188 21.34375 Z M 1.117188 0.847656 "/>
<path fill-rule="nonzero" fill="rgb(33.333333%, 86.666667%, 100%)" fill-opacity="1" d="M 1.011719 0.808594 L 1.011719 21.34375 L 31.070312 21.34375 L 31.070312 0.808594 Z M 2.214844 1.765625 L 10.632812 1.765625 L 10.632812 17.285156 L 2.214844 17.285156 Z M 11.53125 1.765625 L 15.441406 1.765625 L 15.441406 17.285156 L 11.53125 17.285156 Z M 16.644531 1.765625 L 25.058594 1.765625 L 25.058594 17.285156 L 16.644531 17.285156 Z M 25.960938 1.765625 L 29.867188 1.765625 L 29.867188 17.285156 L 25.960938 17.285156 Z M 3.117188 4.867188 L 3.117188 5.585938 L 9.730469 5.585938 L 9.730469 4.867188 Z M 12.433594 4.867188 L 12.433594 5.585938 L 14.539062 5.585938 L 14.539062 4.867188 Z M 17.542969 4.867188 L 17.542969 5.585938 L 24.15625 5.585938 L 24.15625 4.867188 Z M 26.863281 4.867188 L 26.863281 5.585938 L 28.964844 5.585938 L 28.964844 4.867188 Z M 3.117188 6.539062 L 3.117188 7.257812 L 9.730469 7.257812 L 9.730469 6.539062 Z M 12.433594 6.539062 L 12.433594 7.257812 L 14.539062 7.257812 L 14.539062 6.539062 Z M 17.542969 6.539062 L 17.542969 7.257812 L 24.15625 7.257812 L 24.15625 6.539062 Z M 26.863281 6.539062 L 26.863281 7.257812 L 28.964844 7.257812 L 28.964844 6.539062 Z M 3.117188 8.210938 L 3.117188 8.929688 L 9.730469 8.929688 L 9.730469 8.210938 Z M 12.433594 8.210938 L 12.433594 8.929688 L 14.539062 8.929688 L 14.539062 8.210938 Z M 17.542969 8.210938 L 17.542969 8.929688 L 24.15625 8.929688 L 24.15625 8.210938 Z M 26.863281 8.210938 L 26.863281 8.929688 L 28.964844 8.929688 L 28.964844 8.210938 Z M 3.117188 9.882812 L 3.117188 10.601562 L 9.730469 10.601562 L 9.730469 9.882812 Z M 12.433594 9.882812 L 12.433594 10.601562 L 14.539062 10.601562 L 14.539062 9.882812 Z M 3.117188 11.554688 L 3.117188 12.273438 L 9.730469 12.273438 L 9.730469 11.554688 Z M 12.433594 11.554688 L 12.433594 12.273438 L 14.539062 12.273438 L 14.539062 11.554688 Z M 2.214844 18.003906 L 15.441406 18.003906 L 15.441406 20.390625 L 2.214844 20.390625 Z M 16.644531 18.003906 L 29.867188 18.003906 L 29.867188 20.390625 L 16.644531 20.390625 Z M 2.816406 18.839844 L 2.816406 19.554688 L 8.828125 19.554688 L 8.828125 18.839844 Z M 9.730469 18.839844 L 9.730469 19.554688 L 10.632812 19.554688 L 10.632812 18.839844 Z M 11.53125 18.839844 L 11.53125 19.554688 L 14.238281 19.554688 L 14.238281 18.839844 Z M 17.242188 18.839844 L 17.242188 19.554688 L 23.253906 19.554688 L 23.253906 18.839844 Z M 24.15625 18.839844 L 24.15625 19.554688 L 25.058594 19.554688 L 25.058594 18.839844 Z M 25.960938 18.839844 L 25.960938 19.554688 L 28.664062 19.554688 L 28.664062 18.839844 Z M 25.960938 18.839844 "/>
<path fill-rule="nonzero" fill="rgb(100%, 100%, 0%)" fill-opacity="1" d="M 18.773438 2.480469 L 18.773438 3.199219 L 23.574219 3.199219 L 23.574219 2.480469 Z M 4.382812 2.480469 L 4.382812 3.199219 L 9.179688 3.199219 L 9.179688 2.480469 Z M 12.476562 2.480469 L 12.476562 3.199219 L 14.875 3.199219 L 14.875 2.480469 Z M 26.871094 2.480469 L 26.871094 3.199219 L 29.269531 3.199219 L 29.269531 2.480469 Z M 26.871094 2.480469 "/>
</svg>
