<svg xmlns="http://www.w3.org/2000/svg" width="32" height="32">
    <path d="M0 953.15h128v128H0Z" style="fill:#00c;fill-opacity:1;stroke-width:1.28" transform="matrix(.25 0 0 .25 0 -238.287)"/>
    <path d="M0 1063.23v17.92h128v-17.92z" style="fill:#2b0000;fill-opacity:1;stroke-width:1.28" transform="matrix(.25 0 0 .25 0 -238.287)"/>
    <path d="M30.72 1072.099v9.05H51.2v-9.05zm25.6 0v9.05H76.8v-9.05zm25.6 0v9.05h20.48v-9.05zm-76.8.092v8.959H25.6v-8.96H5.12Zm102.4 0v8.959H128v-8.96h-20.48z" style="fill:teal;fill-opacity:1;stroke-width:1.28" transform="matrix(.25 0 0 .25 0 -238.287)"/>
    <path d="M0 1063.23v8.96h10.24v-4.48H5.12v-4.48z" style="fill:#e6e6e6;fill-opacity:1;stroke-width:1.28" transform="matrix(.25 0 0 .25 0 -238.287)"/>
    <path d="M0 953.15v110.079h128V953.15Zm5.12 5.119h35.84v83.2H5.12Zm39.68 0h16.64v83.2H44.8Zm21.76 0h35.84v83.2H66.56Zm39.68 0h16.64v83.2h-16.64zm-97.28 16.64v3.84h28.16v-3.84zm39.68 0v3.84h8.96v-3.84zm21.76 0v3.84h28.16v-3.84zm39.68 0v3.84h8.96v-3.84zM8.96 983.87v3.84h28.16v-3.84zm39.68 0v3.84h8.96v-3.84zm21.76 0v3.84h28.16v-3.84zm39.68 0v3.84h8.96v-3.84zM8.96 992.83v3.84h28.16v-3.84zm39.68 0v3.84h8.96v-3.84zm21.76 0v3.84h28.16v-3.84zm39.68 0v3.84h8.96v-3.84zm-101.12 8.96v3.84h28.16v-3.84zm39.68 0v3.84h8.96v-3.84zm-39.68 8.96v3.84h28.16v-3.84zm39.68 0v3.84h8.96v-3.84zm-43.52 34.56h56.32v12.8H5.12Zm61.44 0h56.32v12.8H66.56Zm-58.88 4.48v3.84h25.6v-3.84zm29.44 0v3.84h3.84v-3.84zm7.68 0v3.84h11.52v-3.84zm24.32 0v3.84h25.6v-3.84zm29.44 0v3.84h3.84v-3.84zm7.68 0v3.84h11.52v-3.84z" style="fill:#5df;fill-opacity:1;stroke-width:1.28" transform="matrix(.25 0 0 .25 0 -238.287)"/>
    <path d="M75.52 962.109v3.841H96v-3.841zm-61.44.002v3.84h20.48v-3.84zm34.56 0v3.84h10.24v-3.84zm61.44 0v3.84h10.24v-3.84z" style="fill:#ff0;fill-opacity:1;stroke-width:1.28" transform="matrix(.25 0 0 .25 0 -238.287)"/>
    <g style="clip-rule:evenodd;fill-rule:evenodd;image-rendering:optimizeQuality;shape-rendering:geometricPrecision;text-rendering:geometricPrecision">
        <path d="M205.96 15.509c-58.833.166-117.657.662-176.463 1.492-6.648 3.314-11.148 8.48-13.5 15.5a49726.54 49726.54 0 0 0 0 445.998c2.834 8.167 8.338 13.67 16.504 16.504 116.667.667 233.332.667 349.998 0 8.167-2.833 13.671-8.337 16.504-16.504a9599.42 9599.42 0 0 0 0-196c-1.539-3.02-4.04-4.353-7.5-4-3.59.045-6.091 1.716-7.501 5.005-.333 63.667-.672 127.329-1.005 190.996A6.977 6.977 0 0 1 380.5 478a19452.499 19452.499 0 0 1-341.005 1.502c-3.59-.044-6.08-1.714-7.491-5.003-.5-131-.674-262.005-.507-393.004 120.168-.333 240.174.005 360.006 1.004 3.287-.555 5.787-2.226 7.5-5.004.667-15 .667-29.996 0-44.996-2.833-8.166-8.337-13.67-16.503-16.503-58.862-.497-117.707-.655-176.54-.488Zm231.553 57.988c-5.334 0-10.677 1.836-16.016 5.502a1246.688 1246.688 0 0 1-29.994 29.506 27866.43 27866.43 0 0 1-242.508 244c-1.75 1.99-2.745 4.316-2.994 6.993a2871.497 2871.497 0 0 1-16.504 72.005c.438 5.208 3.276 7.873 8.505 7.999a1035.432 1035.432 0 0 0 78.501-18.504 43153.258 43153.258 0 0 1 175-174.501 13937.14 13937.14 0 0 0 99.501-98.995c6-10.333 6-20.666 0-30.999L453.5 79c-5.327-3.666-10.654-5.502-15.987-5.502zm-194.01 49.005c-58-.167-116.005-.002-174.004.497-6.247 4.514-6.575 9.516-.995 15.002 81.333.5 162.666.665 244 .498 5.905-2.687 7.401-7.022 4.496-13.002a29.468 29.468 0 0 0-4.496-2.498c-22.998-.5-46-.664-69.001-.497zm21 46.995c-65.333-.167-130.667.007-196 .508-5.779 5.876-5.112 10.868 2 14.992 26.332.5 52.664.674 79 .507 38.334.167 76.669-.007 115-.507 5.446-2.11 7.27-5.944 5.492-11.5-1.45-1.964-3.275-3.297-5.491-4zm-122.502 46c-24.5.084-48.998.248-73.497.498-4.253 3.42-5.093 7.592-2.507 12.505a6.976 6.976 0 0 0 3.502 2.497c12.996.5 25.993.674 38.997.507 36.002.167 72.01-.007 108.007-.507 5.424-2.017 7.26-5.85 5.502-11.5-1.638-2.234-3.811-3.566-6.506-4-24.5-.083-48.998-.082-73.498 0zm-58.065 45.858a86.603 86.603 0 0 0-16.437 1.646c-4.425 5.44-3.76 10.105 2 13.997 35.332.5 70.663.664 105.998.497 6.74-2.153 8.574-6.478 5.501-12.992-1.17-1.393-2.667-2.234-4.496-2.507-28.998-.5-57.996-.665-86.997-.498a89.397 89.397 0 0 0-5.569-.143zm19.068 46.144c-11.166 0-22.338.164-33.505.497-1.593.95-2.926 2.117-4 3.502-.84 1.88-1.169 3.878-.994 5.999.728 2.235 2.06 4.07 3.999 5.501 23.333.667 46.663.667 69.996 0 5.83-6.006 5.163-11.008-2-15.002-11.166-.333-22.33-.497-33.496-.497z" style="display:inline;opacity:.997" transform="translate(-.791 6.712) scale(.05104)"/>
        <path fill="#f68b1d" d="M18.783 8.728c-5.665-.009-11.33 0-16.996.025-.526.278-.713.712-.562 1.302H.817c-.009-.494 0-.987.025-1.48a.383.383 0 0 1 .23-.23c5.819-.034 11.637-.034 17.456 0 .168.072.253.2.255.383z"/>
        <path fill="#fbb54c" d="M18.783 8.728v1.327H1.225c-.151-.59.036-1.024.562-1.302 5.665-.025 11.33-.034 16.996-.025z"/>
        <path fill="#dedede" d="M19.192 10.922v.357c-2.65.003-5.169.564-7.555 1.685-2.96-.009-5.92 0-8.88.025-.32.23-.337.486-.052.766 4.152.025 8.303.034 12.454.025-1.743.043-3.496.068-5.257.077-.706.417-1.37.893-1.99 1.429 1.607.008 3.207.034 4.797.076-3.334-.008-6.67 0-10.004.026-.295.3-.26.555.102.765 1.344.026 2.688.034 4.033.026-.468.476-.927.96-1.378 1.454 1.59.009 3.173.034 4.746.077-2.5-.009-5.002 0-7.503.025-.217.175-.26.388-.127.638a.356.356 0 0 0 .178.128c.664.025 1.327.034 1.99.025a17.97 17.97 0 0 0-.969 1.532 4.444 4.444 0 0 0-1.123.076c-.226.278-.192.516.102.715 1.804.025 3.607.034 5.41.025-1.624.043-3.257.068-4.9.077a6.36 6.36 0 0 0-.714 1.658.614.614 0 0 0-.05.307.283.283 0 0 1-.077-.154 20.351 20.351 0 0 0-1.2 8.421.391.391 0 0 1-.383-.255C.817 24.242.808 17.557.817 10.871c6.133-.017 12.258 0 18.375.051z"/>
        <path fill="#ededed" d="M19.192 11.28v.97A1422.213 1422.213 0 0 1 6.814 24.701a.613.613 0 0 0-.153.357 146.514 146.514 0 0 1-.842 3.675c.022.265.167.401.434.408a52.852 52.852 0 0 0 4.006-.944c2.971-2.98 5.948-5.948 8.933-8.906v1.633a.391.391 0 0 0-.383.255l-.051 9.748a.356.356 0 0 1-.128.179c-5.797.076-11.6.102-17.405.076-.193-2.894.207-5.7 1.2-8.42a.283.283 0 0 0 .076.153.556.556 0 0 0 .204.28c1.191.034 2.382.034 3.573 0 .298-.306.264-.561-.102-.765a57.271 57.271 0 0 0-3.42 0 .723.723 0 0 0-.204.178 6.36 6.36 0 0 1 .715-1.658c1.642-.009 3.275-.034 4.9-.077.344-.11.437-.33.28-.663a.36.36 0 0 0-.23-.128c-1.48-.025-2.96-.034-4.44-.025.297-.527.62-1.037.97-1.532 1.838.009 3.675 0 5.512-.025.277-.103.37-.299.281-.587a.495.495 0 0 0-.332-.204 219.923 219.923 0 0 0-4.746-.077c.45-.493.91-.978 1.378-1.454 1.956.008 3.913 0 5.87-.026.277-.107.37-.303.28-.587a.55.55 0 0 0-.28-.204 224.69 224.69 0 0 0-4.799-.076 13.712 13.712 0 0 1 1.991-1.43c1.761-.008 3.514-.033 5.257-.076.302-.137.378-.358.23-.663a1.507 1.507 0 0 0-.23-.128 121.466 121.466 0 0 0-3.522-.025 17.599 17.599 0 0 1 7.555-1.685z"/>
        <path fill="#d71b60" d="M23.632 13.576a.677.677 0 0 0-.306-.332c-1.152-.62-2.31-.637-3.471-.05a1.855 1.855 0 0 0-.46.382c-.09-.042-.115-.11-.076-.204l2.016-2.016a.83.83 0 0 1 .409 0l1.914 1.914a.336.336 0 0 1-.026.306z"/>
        <path fill="#ea4078" d="M23.632 13.576c-.66.745-1.357 1.46-2.093 2.144a63.734 63.734 0 0 1-2.143-2.144c.13-.15.283-.279.459-.383 1.162-.586 2.319-.569 3.47.051a.677.677 0 0 1 .307.332z"/>
        <path fill="#f9a528" d="M20.825 16.434c-.322.356-.663.696-1.021 1.02a63.734 63.734 0 0 1-2.144-2.143 2.165 2.165 0 0 1 1.736-.127c.546.333 1.023.75 1.429 1.25z"/>
        <path fill="#f17a1f" d="M16.895 15.77c.332.273.613.58.842.92l-9.188 9.186-.816-.817c-.034-.034-.034-.068 0-.102 3.064-3.055 6.118-6.118 9.162-9.186z"/>
        <path fill="#f38a1d" d="M18.273 17.25a.252.252 0 0 1 .153.026l.74.74c.034.034.034.068 0 .102l-9.187 9.187-.817-.817c-.034-.034-.034-.068 0-.102 3.047-3.038 6.084-6.084 9.11-9.135z"/>
        <path fill="#202020" d="M8.932 27.713a1.168 1.168 0 0 0-.51-.23 1.77 1.77 0 0 0-1.531.383c.105-.6.233-1.195.382-1.786a.257.257 0 0 1 .128-.204c.596.561 1.174 1.14 1.735 1.735a.834.834 0 0 1-.204.102z"/>
        <path fill="#424242" d="M8.932 27.713c-.682.14-1.363.293-2.041.46l-.102-.052.102-.255a1.77 1.77 0 0 1 1.53-.383c.193.037.363.114.511.23z"/>
    </g>
</svg>
