<svg xmlns="http://www.w3.org/2000/svg" width="72" height="72">
    <path d="M0 953.15h128v128H0Z" style="fill:#00c;fill-opacity:1;stroke-width:1.28" transform="translate(0 -536.147) scale(.5625)"/>
    <path d="M0 1063.23v17.92h128v-17.92z" style="fill:#2b0000;fill-opacity:1;stroke-width:1.28" transform="translate(0 -536.147) scale(.5625)"/>
    <path d="M30.72 1072.099v9.05H51.2v-9.05zm25.6 0v9.05H76.8v-9.05zm25.6 0v9.05h20.48v-9.05zm-76.8.092v8.959H25.6v-8.96H5.12Zm102.4 0v8.959H128v-8.96h-20.48z" style="fill:teal;fill-opacity:1;stroke-width:1.28" transform="translate(0 -536.147) scale(.5625)"/>
    <path d="M0 1063.23v8.96h10.24v-4.48H5.12v-4.48z" style="fill:#e6e6e6;fill-opacity:1;stroke-width:1.28" transform="translate(0 -536.147) scale(.5625)"/>
    <path d="M0 953.15v110.079h128V953.15Zm5.12 5.119h35.84v83.2H5.12Zm39.68 0h16.64v83.2H44.8Zm21.76 0h35.84v83.2H66.56Zm39.68 0h16.64v83.2h-16.64zm-97.28 16.64v3.84h28.16v-3.84zm39.68 0v3.84h8.96v-3.84zm21.76 0v3.84h28.16v-3.84zm39.68 0v3.84h8.96v-3.84zM8.96 983.87v3.84h28.16v-3.84zm39.68 0v3.84h8.96v-3.84zm21.76 0v3.84h28.16v-3.84zm39.68 0v3.84h8.96v-3.84zM8.96 992.83v3.84h28.16v-3.84zm39.68 0v3.84h8.96v-3.84zm21.76 0v3.84h28.16v-3.84zm39.68 0v3.84h8.96v-3.84zm-101.12 8.96v3.84h28.16v-3.84zm39.68 0v3.84h8.96v-3.84zm-39.68 8.96v3.84h28.16v-3.84zm39.68 0v3.84h8.96v-3.84zm-43.52 34.56h56.32v12.8H5.12Zm61.44 0h56.32v12.8H66.56Zm-58.88 4.48v3.84h25.6v-3.84zm29.44 0v3.84h3.84v-3.84zm7.68 0v3.84h11.52v-3.84zm24.32 0v3.84h25.6v-3.84zm29.44 0v3.84h3.84v-3.84zm7.68 0v3.84h11.52v-3.84z" style="fill:#5df;fill-opacity:1;stroke-width:1.28" transform="translate(0 -536.147) scale(.5625)"/>
    <path d="M75.52 962.109v3.841H96v-3.841zm-61.44.002v3.84h20.48v-3.84zm34.56 0v3.84h10.24v-3.84zm61.44 0v3.84h10.24v-3.84z" style="fill:#ff0;fill-opacity:1;stroke-width:1.28" transform="translate(0 -536.147) scale(.5625)"/>
    <g style="clip-rule:evenodd;fill-rule:evenodd;image-rendering:optimizeQuality;shape-rendering:geometricPrecision;text-rendering:geometricPrecision">
        <path d="M205.96 15.509c-58.833.166-117.657.662-176.463 1.492-6.648 3.314-11.148 8.48-13.5 15.5a49726.54 49726.54 0 0 0 0 445.998c2.834 8.167 8.338 13.67 16.504 16.504 116.667.667 233.332.667 349.998 0 8.167-2.833 13.671-8.337 16.504-16.504a9599.42 9599.42 0 0 0 0-196c-1.539-3.02-4.04-4.353-7.5-4-3.59.045-6.091 1.716-7.501 5.005-.333 63.667-.672 127.329-1.005 190.996A6.977 6.977 0 0 1 380.5 478a19452.499 19452.499 0 0 1-341.005 1.502c-3.59-.044-6.08-1.714-7.491-5.003-.5-131-.674-262.005-.507-393.004 120.168-.333 240.174.005 360.006 1.004 3.287-.555 5.787-2.226 7.5-5.004.667-15 .667-29.996 0-44.996-2.833-8.166-8.337-13.67-16.503-16.503-58.862-.497-117.707-.655-176.54-.488Zm231.553 57.988c-5.334 0-10.677 1.836-16.016 5.502a1246.688 1246.688 0 0 1-29.994 29.506 27866.43 27866.43 0 0 1-242.508 244c-1.75 1.99-2.745 4.316-2.994 6.993a2871.497 2871.497 0 0 1-16.504 72.005c.438 5.208 3.276 7.873 8.505 7.999a1035.432 1035.432 0 0 0 78.501-18.504 43153.258 43153.258 0 0 1 175-174.501 13937.14 13937.14 0 0 0 99.501-98.995c6-10.333 6-20.666 0-30.999L453.5 79c-5.327-3.666-10.654-5.502-15.987-5.502zm-194.01 49.005c-58-.167-116.005-.002-174.004.497-6.247 4.514-6.575 9.516-.995 15.002 81.333.5 162.666.665 244 .498 5.905-2.687 7.401-7.022 4.496-13.002a29.468 29.468 0 0 0-4.496-2.498c-22.998-.5-46-.664-69.001-.497zm21 46.995c-65.333-.167-130.667.007-196 .508-5.779 5.876-5.112 10.868 2 14.992 26.332.5 52.664.674 79 .507 38.334.167 76.669-.007 115-.507 5.446-2.11 7.27-5.944 5.492-11.5-1.45-1.964-3.275-3.297-5.491-4zm-122.502 46c-24.5.084-48.998.248-73.497.498-4.253 3.42-5.093 7.592-2.507 12.505a6.976 6.976 0 0 0 3.502 2.497c12.996.5 25.993.674 38.997.507 36.002.167 72.01-.007 108.007-.507 5.424-2.017 7.26-5.85 5.502-11.5-1.638-2.234-3.811-3.566-6.506-4-24.5-.083-48.998-.082-73.498 0zm-58.065 45.858a86.603 86.603 0 0 0-16.437 1.646c-4.425 5.44-3.76 10.105 2 13.997 35.332.5 70.663.664 105.998.497 6.74-2.153 8.574-6.478 5.501-12.992-1.17-1.393-2.667-2.234-4.496-2.507-28.998-.5-57.996-.665-86.997-.498a89.397 89.397 0 0 0-5.569-.143zm19.068 46.144c-11.166 0-22.338.164-33.505.497-1.593.95-2.926 2.117-4 3.502-.84 1.88-1.169 3.878-.994 5.999.728 2.235 2.06 4.07 3.999 5.501 23.333.667 46.663.667 69.996 0 5.83-6.006 5.163-11.008-2-15.002-11.166-.333-22.33-.497-33.496-.497z" style="display:inline;opacity:.997" transform="matrix(.11484 0 0 .11483 -1.78 15.101)"/>
        <path fill="#f68b1d" d="M42.262 19.637c-12.747-.019-25.495 0-38.242.058-1.183.625-1.604 1.601-1.263 2.928h-.92c-.018-1.11 0-2.22.058-3.33a.863.863 0 0 1 .517-.517c13.092-.077 26.184-.077 39.276 0 .378.162.57.45.574.861z"/>
        <path fill="#fbb54c" d="M42.262 19.637v2.986H2.757c-.341-1.327.08-2.303 1.263-2.928 12.747-.058 25.495-.077 38.242-.058z"/>
        <path fill="#dedede" d="M43.18 24.575v.804c-5.962.005-11.628 1.269-16.996 3.79-6.66-.02-13.322 0-19.982.057-.718.518-.756 1.092-.115 1.722 9.34.057 18.68.077 28.021.057-3.923.096-7.866.153-11.828.173a30.852 30.852 0 0 0-4.48 3.215c3.619.02 7.217.077 10.796.172-7.503-.019-15.006 0-22.51.058-.663.674-.586 1.248.23 1.722 3.025.057 6.049.077 9.073.057a125.443 125.443 0 0 0-3.1 3.273c3.579.02 7.139.077 10.68.172-5.628-.019-11.255 0-16.882.058-.489.392-.584.87-.287 1.435a.801.801 0 0 0 .402.287c1.492.058 2.985.077 4.479.058a40.434 40.434 0 0 0-2.182 3.444 10 10 0 0 0-2.527.173c-.508.625-.432 1.16.23 1.607 4.057.058 8.115.077 12.173.058-3.656.095-7.33.153-11.025.172a14.31 14.31 0 0 0-1.608 3.732 1.381 1.381 0 0 0-.114.689.637.637 0 0 1-.173-.345 45.79 45.79 0 0 0-2.698 18.947c-.413-.005-.7-.196-.862-.574a8866.307 8866.307 0 0 1-.057-45.128c13.8-.038 27.581 0 41.343.115z"/>
        <path fill="#ededed" d="M43.18 25.379v2.182a3199.978 3199.978 0 0 1-27.848 28.018 1.38 1.38 0 0 0-.345.804 329.657 329.657 0 0 1-1.895 8.268c.05.598.376.904.976.918 3.037-.592 6.041-1.3 9.016-2.124A4955.447 4955.447 0 0 1 43.18 43.407v3.675c-.412.005-.7.196-.861.574l-.115 21.932a.801.801 0 0 1-.287.402c-13.045.172-26.098.23-39.161.172a45.79 45.79 0 0 1 2.698-18.947.637.637 0 0 0 .173.345c.083.257.236.467.459.631 2.68.077 5.36.077 8.039 0 .67-.69.593-1.263-.23-1.722a128.86 128.86 0 0 0-7.694 0 1.628 1.628 0 0 0-.46.402 14.31 14.31 0 0 1 1.608-3.732c3.695-.02 7.37-.077 11.025-.172.774-.247.985-.745.632-1.493a.81.81 0 0 0-.517-.287 434.47 434.47 0 0 0-9.991-.058 40.434 40.434 0 0 1 2.182-3.444c4.134.019 8.268 0 12.403-.058.622-.231.833-.672.631-1.32a1.113 1.113 0 0 0-.746-.46c-3.541-.095-7.101-.153-10.68-.172a125.443 125.443 0 0 1 3.1-3.273c4.403.02 8.805 0 13.207-.057.625-.242.836-.683.632-1.32a1.236 1.236 0 0 0-.632-.46 505.552 505.552 0 0 0-10.795-.172 30.852 30.852 0 0 1 4.479-3.215c3.962-.02 7.905-.077 11.828-.173.679-.308.85-.806.517-1.492a3.39 3.39 0 0 0-.517-.287c-2.64-.058-5.282-.077-7.924-.058 5.368-2.52 11.034-3.784 16.997-3.79z"/>
        <path fill="#d71b60" d="M53.172 30.546a1.524 1.524 0 0 0-.689-.746c-2.593-1.395-5.196-1.434-7.81-.115-.394.234-.739.521-1.033.861-.203-.093-.26-.247-.172-.46l4.536-4.535c.307-.077.613-.077.919 0l4.307 4.306c.09.254.071.484-.058.69z"/>
        <path fill="#ea4078" d="M53.172 30.546a69.826 69.826 0 0 1-4.708 4.823 143.403 143.403 0 0 1-4.824-4.823c.294-.34.639-.627 1.034-.861 2.613-1.319 5.216-1.28 7.81.115.32.176.55.425.688.746z"/>
        <path fill="#f9a528" d="M46.856 36.977a32.484 32.484 0 0 1-2.297 2.296 143.403 143.403 0 0 1-4.823-4.823c1.253-.64 2.555-.737 3.904-.287a12.528 12.528 0 0 1 3.216 2.814z"/>
        <path fill="#f17a1f" d="M38.013 35.484a9.583 9.583 0 0 1 1.895 2.067L19.236 58.22 17.4 56.382c-.077-.077-.077-.153 0-.23a5243.115 5243.115 0 0 0 20.614-20.67z"/>
        <path fill="#f38a1d" d="M41.114 38.814a.567.567 0 0 1 .344.057l1.665 1.665c.077.077.077.153 0 .23l-20.671 20.67-1.838-1.838c-.076-.077-.076-.153 0-.23a5192.725 5192.725 0 0 0 20.5-20.554z"/>
        <path fill="#202020" d="M20.098 62.354a2.628 2.628 0 0 0-1.149-.517c-1.293-.25-2.442.036-3.445.861a56.12 56.12 0 0 1 .861-4.019.58.58 0 0 1 .287-.459 93.842 93.842 0 0 1 3.905 3.904 1.876 1.876 0 0 1-.46.23z"/>
        <path fill="#424242" d="M20.098 62.354c-1.536.315-3.068.66-4.594 1.033l-.23-.114.23-.575c1.003-.825 2.152-1.112 3.445-.86.433.082.816.254 1.149.516z"/>
    </g>
</svg>
