<?xml version="1.0" encoding="UTF-8"?>
<svg xmlns="http://www.w3.org/2000/svg" xmlns:xlink="http://www.w3.org/1999/xlink" width="72" height="72" viewBox="0 0 72 72">
<path fill-rule="nonzero" fill="rgb(60.784314%, 78.823529%, 100%)" fill-opacity="1" d="M 70.800781 42 L 70.800781 46.800781 C 70.796875 48.125 69.722656 49.195312 68.398438 49.199219 L 48 49.199219 C 44.023438 49.199219 40.800781 52.421875 40.800781 56.398438 C 40.804688 60.375 44.027344 63.59375 48 63.601562 L 50.398438 70.800781 L 21.601562 70.800781 L 24 63.601562 C 27.972656 63.59375 31.195312 60.375 31.199219 56.398438 C 31.199219 52.421875 27.976562 49.199219 24 49.199219 L 3.601562 49.199219 C 2.277344 49.195312 1.203125 48.125 1.199219 46.800781 L 1.199219 42 Z M 70.800781 42 "/>
<path fill-rule="nonzero" fill="rgb(0%, 100%, 0%)" fill-opacity="1" d="M 34.621094 52.074219 L 34.621094 54.65625 L 37.378906 54.65625 L 37.378906 52.074219 Z M 35.621094 52.226562 L 35.628906 52.226562 L 35.628906 54.503906 L 35.621094 54.503906 Z M 36.378906 52.226562 L 36.378906 54.503906 Z M 36.378906 52.226562 "/>
<path fill-rule="nonzero" fill="rgb(12.54902%, 47.843137%, 82.745098%)" fill-opacity="1" d="M 68.398438 0 L 3.601562 0 C 1.613281 0 0 1.613281 0 3.601562 L 0 46.800781 C 0 48.789062 1.613281 50.398438 3.601562 50.398438 L 24 50.398438 C 27.3125 50.402344 29.996094 53.085938 30 56.398438 C 29.996094 59.710938 27.3125 62.394531 24 62.398438 C 23.984375 62.398438 23.96875 62.40625 23.953125 62.410156 C 23.867188 62.417969 23.78125 62.433594 23.695312 62.460938 C 23.628906 62.472656 23.566406 62.492188 23.5 62.515625 C 23.429688 62.554688 23.367188 62.597656 23.304688 62.648438 C 23.242188 62.6875 23.183594 62.734375 23.128906 62.78125 C 23.085938 62.835938 23.046875 62.894531 23.007812 62.953125 C 22.957031 63.023438 22.914062 63.101562 22.878906 63.179688 C 22.878906 63.195312 22.863281 63.207031 22.859375 63.222656 L 20.457031 70.421875 C 20.335938 70.785156 20.398438 71.191406 20.625 71.503906 C 20.851562 71.816406 21.214844 72 21.601562 72 L 50.398438 72 C 50.785156 72 51.148438 71.8125 51.371094 71.5 C 51.597656 71.1875 51.660156 70.785156 51.539062 70.421875 L 49.136719 63.222656 C 49.136719 63.207031 49.121094 63.195312 49.117188 63.179688 C 49.082031 63.101562 49.039062 63.027344 48.984375 62.957031 C 48.953125 62.894531 48.910156 62.835938 48.867188 62.78125 C 48.8125 62.734375 48.753906 62.6875 48.691406 62.648438 C 48.628906 62.597656 48.566406 62.554688 48.496094 62.515625 C 48.433594 62.492188 48.367188 62.472656 48.300781 62.460938 C 48.21875 62.433594 48.128906 62.417969 48.042969 62.410156 C 48.027344 62.410156 48.011719 62.398438 47.996094 62.398438 C 44.683594 62.394531 42.003906 59.710938 41.996094 56.398438 C 42 53.085938 44.683594 50.402344 47.996094 50.398438 L 68.398438 50.398438 C 70.386719 50.398438 72 48.789062 72 46.800781 L 72 3.601562 C 72 1.613281 70.386719 0 68.398438 0 Z M 39.601562 56.398438 C 39.605469 60.695312 42.847656 64.296875 47.121094 64.753906 L 48.734375 69.601562 L 23.265625 69.601562 L 24.878906 64.753906 C 29.152344 64.296875 32.394531 60.695312 32.398438 56.398438 C 32.402344 54.140625 31.488281 51.976562 29.867188 50.398438 L 42.132812 50.398438 C 40.511719 51.976562 39.597656 54.140625 39.601562 56.398438 Z M 69.601562 46.800781 C 69.601562 47.460938 69.0625 48 68.398438 48 L 3.601562 48 C 2.9375 48 2.398438 47.460938 2.398438 46.800781 L 2.398438 43.199219 L 69.601562 43.199219 Z M 2.398438 40.800781 L 2.398438 3.601562 C 2.398438 2.9375 2.9375 2.398438 3.601562 2.398438 L 68.398438 2.398438 C 69.0625 2.398438 69.601562 2.9375 69.601562 3.601562 L 69.601562 40.800781 Z M 2.398438 40.800781 "/>
<path fill-rule="nonzero" fill="rgb(0%, 0%, 75.294118%)" fill-opacity="1" d="M 2.515625 1.910156 L 69.800781 1.910156 L 69.800781 48.027344 L 2.515625 48.027344 Z M 2.515625 1.910156 "/>
<path fill-rule="nonzero" fill="rgb(33.333333%, 86.666667%, 100%)" fill-opacity="1" d="M 2.277344 1.820312 L 2.277344 48.027344 L 69.90625 48.027344 L 69.90625 1.820312 Z M 4.984375 3.96875 L 23.921875 3.96875 L 23.921875 38.894531 L 4.984375 38.894531 Z M 25.949219 3.96875 L 34.742188 3.96875 L 34.742188 38.894531 L 25.949219 38.894531 Z M 37.445312 3.96875 L 56.382812 3.96875 L 56.382812 38.894531 L 37.445312 38.894531 Z M 58.410156 3.96875 L 67.203125 3.96875 L 67.203125 38.894531 L 58.410156 38.894531 Z M 7.011719 10.957031 L 7.011719 12.566406 L 21.890625 12.566406 L 21.890625 10.957031 Z M 27.976562 10.957031 L 27.976562 12.566406 L 32.710938 12.566406 L 32.710938 10.957031 Z M 39.476562 10.957031 L 39.476562 12.566406 L 54.351562 12.566406 L 54.351562 10.957031 Z M 60.441406 10.957031 L 60.441406 12.566406 L 65.171875 12.566406 L 65.171875 10.957031 Z M 7.011719 14.714844 L 7.011719 16.328125 L 21.890625 16.328125 L 21.890625 14.714844 Z M 27.976562 14.714844 L 27.976562 16.328125 L 32.710938 16.328125 L 32.710938 14.714844 Z M 39.476562 14.714844 L 39.476562 16.328125 L 54.351562 16.328125 L 54.351562 14.714844 Z M 60.441406 14.714844 L 60.441406 16.328125 L 65.171875 16.328125 L 65.171875 14.714844 Z M 7.011719 18.476562 L 7.011719 20.089844 L 21.890625 20.089844 L 21.890625 18.476562 Z M 27.976562 18.476562 L 27.976562 20.089844 L 32.710938 20.089844 L 32.710938 18.476562 Z M 39.476562 18.476562 L 39.476562 20.089844 L 54.351562 20.089844 L 54.351562 18.476562 Z M 60.441406 18.476562 L 60.441406 20.089844 L 65.171875 20.089844 L 65.171875 18.476562 Z M 7.011719 22.238281 L 7.011719 23.851562 L 21.890625 23.851562 L 21.890625 22.238281 Z M 27.976562 22.238281 L 27.976562 23.851562 L 32.710938 23.851562 L 32.710938 22.238281 Z M 7.011719 26 L 7.011719 27.609375 L 21.890625 27.609375 L 21.890625 26 Z M 27.976562 26 L 27.976562 27.609375 L 32.710938 27.609375 L 32.710938 26 Z M 4.984375 40.507812 L 34.742188 40.507812 L 34.742188 45.878906 L 4.984375 45.878906 Z M 37.445312 40.507812 L 67.203125 40.507812 L 67.203125 45.878906 L 37.445312 45.878906 Z M 6.335938 42.386719 L 6.335938 44 L 19.863281 44 L 19.863281 42.386719 Z M 21.890625 42.386719 L 21.890625 44 L 23.921875 44 L 23.921875 42.386719 Z M 25.949219 42.386719 L 25.949219 44 L 32.035156 44 L 32.035156 42.386719 Z M 38.796875 42.386719 L 38.796875 44 L 52.324219 44 L 52.324219 42.386719 Z M 54.351562 42.386719 L 54.351562 44 L 56.382812 44 L 56.382812 42.386719 Z M 58.410156 42.386719 L 58.410156 44 L 64.496094 44 L 64.496094 42.386719 Z M 58.410156 42.386719 "/>
<path fill-rule="nonzero" fill="rgb(100%, 100%, 0%)" fill-opacity="1" d="M 42.246094 5.582031 L 42.246094 7.195312 L 53.039062 7.195312 L 53.039062 5.582031 Z M 9.859375 5.582031 L 9.859375 7.195312 L 20.652344 7.195312 L 20.652344 5.582031 Z M 28.074219 5.582031 L 28.074219 7.195312 L 33.472656 7.195312 L 33.472656 5.582031 Z M 60.460938 5.582031 L 60.460938 7.195312 L 65.859375 7.195312 L 65.859375 5.582031 Z M 60.460938 5.582031 "/>
</svg>
