<?xml version="1.0" encoding="UTF-8"?>
<svg xmlns="http://www.w3.org/2000/svg" xmlns:xlink="http://www.w3.org/1999/xlink" width="72" height="72" viewBox="0 0 72 72">
<defs>
<filter id="filter-remove-color" x="0%" y="0%" width="100%" height="100%">
<feColorMatrix color-interpolation-filters="sRGB" values="0 0 0 0 1 0 0 0 0 1 0 0 0 0 1 0 0 0 1 0" />
</filter>
<clipPath id="clip-0">
<rect x="0" y="0" width="72" height="72"/>
</clipPath>
<g id="source-12" clip-path="url(#clip-0)">
<path fill-rule="evenodd" fill="rgb(0%, 0%, 0%)" fill-opacity="1" d="M 36.875 9.78125 C 26.550781 9.695312 16.21875 9.664062 5.867188 9.695312 C 5.851562 21.273438 5.867188 32.851562 5.910156 44.429688 C 6.03125 44.71875 6.246094 44.867188 6.554688 44.871094 C 16.351562 44.914062 26.144531 44.871094 35.925781 44.738281 C 36.03125 44.65625 36.101562 44.554688 36.140625 44.429688 C 36.171875 38.800781 36.199219 33.175781 36.226562 27.546875 C 36.347656 27.257812 36.5625 27.109375 36.875 27.105469 C 37.171875 27.074219 37.386719 27.191406 37.519531 27.460938 C 37.578125 33.234375 37.578125 39.007812 37.519531 44.78125 C 37.273438 45.503906 36.800781 45.988281 36.097656 46.242188 C 26.050781 46.300781 16 46.300781 5.953125 46.242188 C 5.25 45.988281 4.777344 45.503906 4.53125 44.78125 C 4.476562 31.644531 4.476562 18.503906 4.53125 5.363281 C 4.734375 4.742188 5.121094 4.285156 5.695312 3.992188 C 15.824219 3.847656 25.960938 3.816406 36.097656 3.90625 C 36.800781 4.15625 37.273438 4.640625 37.519531 5.363281 C 37.578125 6.6875 37.578125 8.015625 37.519531 9.339844 C 37.371094 9.585938 37.15625 9.734375 36.875 9.78125 Z M 36.875 9.78125 "/>
</g>
<mask id="mask-0">
<g filter="url(#filter-remove-color)">
<rect x="-7.2" y="-7.2" width="86.4" height="86.4" fill="rgb(0%, 0%, 0%)" fill-opacity="0.99"/>
</g>
</mask>
<clipPath id="clip-1">
<rect x="0" y="0" width="72" height="72"/>
</clipPath>
<g id="source-18" clip-path="url(#clip-1)">
<path fill-rule="evenodd" fill="rgb(1.568627%, 0.784314%, 0.784314%)" fill-opacity="1" d="M 36.875 24.277344 C 31.839844 29.402344 26.8125 34.542969 21.800781 39.699219 C 19.570312 40.335938 17.316406 40.878906 15.039062 41.335938 C 14.589844 41.324219 14.347656 41.089844 14.308594 40.628906 C 14.808594 38.511719 15.28125 36.390625 15.730469 34.265625 C 15.75 34.027344 15.835938 33.820312 15.988281 33.644531 C 23 26.496094 29.960938 19.304688 36.875 12.082031 C 37.746094 11.230469 38.605469 10.359375 39.457031 9.472656 C 40.378906 8.824219 41.296875 8.824219 42.214844 9.472656 C 43.289062 10.578125 44.367188 11.683594 45.441406 12.789062 C 45.960938 13.699219 45.960938 14.613281 45.441406 15.527344 C 42.597656 18.460938 39.742188 21.378906 36.875 24.277344 Z M 36.875 24.277344 "/>
</g>
</defs>
<path fill-rule="nonzero" fill="rgb(60.784314%, 78.823529%, 100%)" fill-opacity="1" d="M 70.800781 42 L 70.800781 46.800781 C 70.796875 48.125 69.722656 49.195312 68.398438 49.199219 L 48 49.199219 C 44.023438 49.199219 40.800781 52.421875 40.800781 56.398438 C 40.804688 60.375 44.027344 63.59375 48 63.601562 L 50.398438 70.800781 L 21.601562 70.800781 L 24 63.601562 C 27.972656 63.59375 31.195312 60.375 31.199219 56.398438 C 31.199219 52.421875 27.976562 49.199219 24 49.199219 L 3.601562 49.199219 C 2.277344 49.195312 1.203125 48.125 1.199219 46.800781 L 1.199219 42 Z M 70.800781 42 "/>
<path fill-rule="nonzero" fill="rgb(0%, 100%, 0%)" fill-opacity="1" d="M 34.621094 52.074219 L 34.621094 54.65625 L 37.378906 54.65625 L 37.378906 52.074219 Z M 35.621094 52.226562 L 35.628906 52.226562 L 35.628906 54.503906 L 35.621094 54.503906 Z M 36.378906 52.226562 L 36.378906 54.503906 Z M 36.378906 52.226562 "/>
<path fill-rule="nonzero" fill="rgb(12.54902%, 47.843137%, 82.745098%)" fill-opacity="1" d="M 68.398438 0 L 3.601562 0 C 1.613281 0 0 1.613281 0 3.601562 L 0 46.800781 C 0 48.789062 1.613281 50.398438 3.601562 50.398438 L 24 50.398438 C 27.3125 50.402344 29.996094 53.085938 30 56.398438 C 29.996094 59.710938 27.3125 62.394531 24 62.398438 C 23.984375 62.398438 23.96875 62.40625 23.953125 62.410156 C 23.867188 62.417969 23.78125 62.433594 23.695312 62.460938 C 23.628906 62.472656 23.566406 62.492188 23.5 62.515625 C 23.429688 62.554688 23.367188 62.597656 23.304688 62.648438 C 23.242188 62.6875 23.183594 62.734375 23.128906 62.78125 C 23.085938 62.835938 23.046875 62.894531 23.007812 62.953125 C 22.957031 63.023438 22.914062 63.101562 22.878906 63.179688 C 22.878906 63.195312 22.863281 63.207031 22.859375 63.222656 L 20.457031 70.421875 C 20.335938 70.785156 20.398438 71.191406 20.625 71.503906 C 20.851562 71.816406 21.214844 72 21.601562 72 L 50.398438 72 C 50.785156 72 51.148438 71.8125 51.371094 71.5 C 51.597656 71.1875 51.660156 70.785156 51.539062 70.421875 L 49.136719 63.222656 C 49.136719 63.207031 49.121094 63.195312 49.117188 63.179688 C 49.082031 63.101562 49.039062 63.027344 48.984375 62.957031 C 48.953125 62.894531 48.910156 62.835938 48.867188 62.78125 C 48.8125 62.734375 48.753906 62.6875 48.691406 62.648438 C 48.628906 62.597656 48.566406 62.554688 48.496094 62.515625 C 48.433594 62.492188 48.367188 62.472656 48.300781 62.460938 C 48.21875 62.433594 48.128906 62.417969 48.042969 62.410156 C 48.027344 62.410156 48.011719 62.398438 47.996094 62.398438 C 44.683594 62.394531 42.003906 59.710938 41.996094 56.398438 C 42 53.085938 44.683594 50.402344 47.996094 50.398438 L 68.398438 50.398438 C 70.386719 50.398438 72 48.789062 72 46.800781 L 72 3.601562 C 72 1.613281 70.386719 0 68.398438 0 Z M 39.601562 56.398438 C 39.605469 60.695312 42.847656 64.296875 47.121094 64.753906 L 48.734375 69.601562 L 23.265625 69.601562 L 24.878906 64.753906 C 29.152344 64.296875 32.394531 60.695312 32.398438 56.398438 C 32.402344 54.140625 31.488281 51.976562 29.867188 50.398438 L 42.132812 50.398438 C 40.511719 51.976562 39.597656 54.140625 39.601562 56.398438 Z M 69.601562 46.800781 C 69.601562 47.460938 69.0625 48 68.398438 48 L 3.601562 48 C 2.9375 48 2.398438 47.460938 2.398438 46.800781 L 2.398438 43.199219 L 69.601562 43.199219 Z M 2.398438 40.800781 L 2.398438 3.601562 C 2.398438 2.9375 2.9375 2.398438 3.601562 2.398438 L 68.398438 2.398438 C 69.0625 2.398438 69.601562 2.9375 69.601562 3.601562 L 69.601562 40.800781 Z M 2.398438 40.800781 "/>
<path fill-rule="nonzero" fill="rgb(0%, 0%, 75.294118%)" fill-opacity="1" d="M 2.515625 1.910156 L 69.800781 1.910156 L 69.800781 48.027344 L 2.515625 48.027344 Z M 2.515625 1.910156 "/>
<path fill-rule="nonzero" fill="rgb(33.333333%, 86.666667%, 100%)" fill-opacity="1" d="M 2.277344 1.820312 L 2.277344 48.027344 L 69.90625 48.027344 L 69.90625 1.820312 Z M 4.984375 3.96875 L 23.921875 3.96875 L 23.921875 38.894531 L 4.984375 38.894531 Z M 25.949219 3.96875 L 34.742188 3.96875 L 34.742188 38.894531 L 25.949219 38.894531 Z M 37.445312 3.96875 L 56.382812 3.96875 L 56.382812 38.894531 L 37.445312 38.894531 Z M 58.410156 3.96875 L 67.203125 3.96875 L 67.203125 38.894531 L 58.410156 38.894531 Z M 7.011719 10.957031 L 7.011719 12.566406 L 21.890625 12.566406 L 21.890625 10.957031 Z M 27.976562 10.957031 L 27.976562 12.566406 L 32.710938 12.566406 L 32.710938 10.957031 Z M 39.476562 10.957031 L 39.476562 12.566406 L 54.351562 12.566406 L 54.351562 10.957031 Z M 60.441406 10.957031 L 60.441406 12.566406 L 65.171875 12.566406 L 65.171875 10.957031 Z M 7.011719 14.714844 L 7.011719 16.328125 L 21.890625 16.328125 L 21.890625 14.714844 Z M 27.976562 14.714844 L 27.976562 16.328125 L 32.710938 16.328125 L 32.710938 14.714844 Z M 39.476562 14.714844 L 39.476562 16.328125 L 54.351562 16.328125 L 54.351562 14.714844 Z M 60.441406 14.714844 L 60.441406 16.328125 L 65.171875 16.328125 L 65.171875 14.714844 Z M 7.011719 18.476562 L 7.011719 20.089844 L 21.890625 20.089844 L 21.890625 18.476562 Z M 27.976562 18.476562 L 27.976562 20.089844 L 32.710938 20.089844 L 32.710938 18.476562 Z M 39.476562 18.476562 L 39.476562 20.089844 L 54.351562 20.089844 L 54.351562 18.476562 Z M 60.441406 18.476562 L 60.441406 20.089844 L 65.171875 20.089844 L 65.171875 18.476562 Z M 7.011719 22.238281 L 7.011719 23.851562 L 21.890625 23.851562 L 21.890625 22.238281 Z M 27.976562 22.238281 L 27.976562 23.851562 L 32.710938 23.851562 L 32.710938 22.238281 Z M 7.011719 26 L 7.011719 27.609375 L 21.890625 27.609375 L 21.890625 26 Z M 27.976562 26 L 27.976562 27.609375 L 32.710938 27.609375 L 32.710938 26 Z M 4.984375 40.507812 L 34.742188 40.507812 L 34.742188 45.878906 L 4.984375 45.878906 Z M 37.445312 40.507812 L 67.203125 40.507812 L 67.203125 45.878906 L 37.445312 45.878906 Z M 6.335938 42.386719 L 6.335938 44 L 19.863281 44 L 19.863281 42.386719 Z M 21.890625 42.386719 L 21.890625 44 L 23.921875 44 L 23.921875 42.386719 Z M 25.949219 42.386719 L 25.949219 44 L 32.035156 44 L 32.035156 42.386719 Z M 38.796875 42.386719 L 38.796875 44 L 52.324219 44 L 52.324219 42.386719 Z M 54.351562 42.386719 L 54.351562 44 L 56.382812 44 L 56.382812 42.386719 Z M 58.410156 42.386719 L 58.410156 44 L 64.496094 44 L 64.496094 42.386719 Z M 58.410156 42.386719 "/>
<path fill-rule="nonzero" fill="rgb(100%, 100%, 0%)" fill-opacity="1" d="M 42.246094 5.582031 L 42.246094 7.195312 L 53.039062 7.195312 L 53.039062 5.582031 Z M 9.859375 5.582031 L 9.859375 7.195312 L 20.652344 7.195312 L 20.652344 5.582031 Z M 28.074219 5.582031 L 28.074219 7.195312 L 33.472656 7.195312 L 33.472656 5.582031 Z M 60.460938 5.582031 L 60.460938 7.195312 L 65.859375 7.195312 L 65.859375 5.582031 Z M 60.460938 5.582031 "/>
<use xlink:href="#source-12"/>
<path fill-rule="evenodd" fill="rgb(96.470588%, 54.509804%, 11.372549%)" fill-opacity="1" d="M 36.183594 5.980469 C 26.625 5.96875 17.0625 5.980469 7.503906 6.027344 C 6.617188 6.507812 6.300781 7.257812 6.554688 8.28125 C 6.328125 8.28125 6.097656 8.28125 5.867188 8.28125 C 5.851562 7.425781 5.867188 6.570312 5.910156 5.71875 C 5.980469 5.527344 6.113281 5.394531 6.296875 5.320312 C 16.117188 5.261719 25.933594 5.261719 35.753906 5.320312 C 36.035156 5.445312 36.179688 5.664062 36.183594 5.980469 Z M 36.183594 5.980469 "/>
<path fill-rule="evenodd" fill="rgb(98.431373%, 70.980392%, 29.803922%)" fill-opacity="1" d="M 36.183594 5.980469 C 36.183594 6.75 36.183594 7.515625 36.183594 8.28125 C 26.308594 8.28125 16.433594 8.28125 6.554688 8.28125 C 6.300781 7.257812 6.617188 6.507812 7.503906 6.027344 C 17.0625 5.980469 26.625 5.96875 36.183594 5.980469 Z M 36.183594 5.980469 "/>
<g mask="url(#mask-0)">
<use xlink:href="#source-18"/>
</g>
<path fill-rule="evenodd" fill="rgb(87.058824%, 87.058824%, 87.058824%)" fill-opacity="1" d="M 36.875 9.78125 C 36.875 9.988281 36.875 10.195312 36.875 10.402344 C 32.402344 10.40625 28.152344 11.378906 24.125 13.316406 C 19.132812 13.304688 14.136719 13.316406 9.140625 13.363281 C 8.601562 13.761719 8.574219 14.203125 9.054688 14.6875 C 16.058594 14.730469 23.0625 14.746094 30.070312 14.730469 C 27.125 14.804688 24.167969 14.851562 21.199219 14.863281 C 20.007812 15.585938 18.886719 16.410156 17.839844 17.339844 C 20.550781 17.355469 23.25 17.398438 25.933594 17.472656 C 20.308594 17.457031 14.679688 17.472656 9.054688 17.515625 C 8.554688 18.035156 8.613281 18.476562 9.226562 18.84375 C 11.496094 18.886719 13.761719 18.902344 16.03125 18.886719 C 15.242188 19.710938 14.464844 20.550781 13.707031 21.40625 C 16.390625 21.417969 19.058594 21.464844 21.714844 21.539062 C 17.496094 21.523438 13.273438 21.539062 9.054688 21.582031 C 8.6875 21.882812 8.617188 22.253906 8.839844 22.6875 C 8.917969 22.792969 9.015625 22.867188 9.140625 22.90625 C 10.257812 22.953125 11.378906 22.964844 12.5 22.953125 C 11.910156 23.808594 11.363281 24.691406 10.863281 25.601562 C 10.222656 25.566406 9.589844 25.609375 8.96875 25.734375 C 8.585938 26.214844 8.644531 26.628906 9.140625 26.972656 C 12.183594 27.015625 15.226562 27.03125 18.269531 27.015625 C 15.527344 27.089844 12.773438 27.136719 10 27.148438 C 9.453125 28.078125 9.050781 29.035156 8.796875 30.023438 C 8.722656 30.1875 8.695312 30.363281 8.710938 30.550781 C 8.644531 30.484375 8.601562 30.398438 8.582031 30.289062 C 6.90625 34.996094 6.230469 39.859375 6.554688 44.871094 C 6.246094 44.867188 6.03125 44.71875 5.910156 44.429688 C 5.867188 32.851562 5.851562 21.273438 5.867188 9.695312 C 16.21875 9.664062 26.550781 9.695312 36.875 9.78125 Z M 36.875 9.78125 "/>
<path fill-rule="evenodd" fill="rgb(92.941176%, 92.941176%, 92.941176%)" fill-opacity="1" d="M 36.875 10.402344 C 36.875 10.960938 36.875 11.519531 36.875 12.082031 C 29.960938 19.304688 23 26.496094 15.988281 33.644531 C 15.835938 33.820312 15.75 34.027344 15.730469 34.265625 C 15.28125 36.390625 14.808594 38.511719 14.308594 40.628906 C 14.347656 41.089844 14.589844 41.324219 15.039062 41.335938 C 17.316406 40.878906 19.570312 40.335938 21.800781 39.699219 C 26.8125 34.542969 31.839844 29.402344 36.875 24.277344 C 36.875 25.21875 36.875 26.164062 36.875 27.105469 C 36.5625 27.109375 36.347656 27.257812 36.226562 27.546875 C 36.199219 33.175781 36.171875 38.800781 36.140625 44.429688 C 36.101562 44.554688 36.03125 44.65625 35.925781 44.738281 C 26.144531 44.871094 16.351562 44.914062 6.554688 44.871094 C 6.230469 39.859375 6.90625 34.996094 8.582031 30.289062 C 8.601562 30.398438 8.644531 30.484375 8.710938 30.550781 C 8.773438 30.75 8.886719 30.910156 9.054688 31.039062 C 11.0625 31.097656 13.074219 31.097656 15.082031 31.039062 C 15.585938 30.507812 15.527344 30.066406 14.910156 29.714844 C 12.988281 29.652344 11.0625 29.652344 9.140625 29.714844 C 9.003906 29.796875 8.886719 29.898438 8.796875 30.023438 C 9.050781 29.035156 9.453125 28.078125 10 27.148438 C 12.773438 27.136719 15.527344 27.089844 18.269531 27.015625 C 18.851562 26.828125 19.007812 26.445312 18.742188 25.867188 C 18.644531 25.746094 18.511719 25.671875 18.355469 25.648438 C 15.859375 25.601562 13.359375 25.589844 10.863281 25.601562 C 11.363281 24.691406 11.910156 23.808594 12.5 22.953125 C 15.601562 22.964844 18.699219 22.953125 21.800781 22.90625 C 22.269531 22.730469 22.425781 22.390625 22.273438 21.890625 C 22.132812 21.695312 21.945312 21.574219 21.714844 21.539062 C 19.058594 21.464844 16.390625 21.417969 13.707031 21.40625 C 14.464844 20.550781 15.242188 19.710938 16.03125 18.886719 C 19.332031 18.902344 22.632812 18.886719 25.933594 18.84375 C 26.402344 18.65625 26.5625 18.316406 26.410156 17.824219 C 26.285156 17.652344 26.125 17.535156 25.933594 17.472656 C 23.25 17.398438 20.550781 17.355469 17.839844 17.339844 C 18.886719 16.410156 20.007812 15.585938 21.199219 14.863281 C 24.167969 14.851562 27.125 14.804688 30.070312 14.730469 C 30.578125 14.496094 30.707031 14.113281 30.457031 13.582031 C 30.335938 13.5 30.207031 13.425781 30.070312 13.363281 C 28.089844 13.316406 26.109375 13.304688 24.125 13.316406 C 28.152344 11.378906 32.402344 10.40625 36.875 10.402344 Z M 36.875 10.402344 "/>
<path fill-rule="evenodd" fill="rgb(84.313725%, 10.588235%, 37.647059%)" fill-opacity="1" d="M 44.367188 14.378906 C 44.261719 14.132812 44.089844 13.941406 43.851562 13.804688 C 41.90625 12.730469 39.953125 12.699219 37.992188 13.714844 C 37.695312 13.894531 37.4375 14.117188 37.21875 14.378906 C 37.066406 14.308594 37.023438 14.1875 37.089844 14.023438 C 38.222656 12.863281 39.355469 11.699219 40.492188 10.535156 C 40.71875 10.476562 40.949219 10.476562 41.179688 10.535156 C 42.257812 11.640625 43.332031 12.742188 44.410156 13.847656 C 44.476562 14.042969 44.464844 14.21875 44.367188 14.378906 Z M 44.367188 14.378906 "/>
<path fill-rule="evenodd" fill="rgb(91.764706%, 25.098039%, 47.058824%)" fill-opacity="1" d="M 44.367188 14.378906 C 43.253906 15.667969 42.074219 16.90625 40.835938 18.089844 C 39.597656 16.882812 38.394531 15.644531 37.21875 14.378906 C 37.4375 14.117188 37.695312 13.894531 37.992188 13.714844 C 39.953125 12.699219 41.90625 12.730469 43.851562 13.804688 C 44.089844 13.941406 44.261719 14.132812 44.367188 14.378906 Z M 44.367188 14.378906 "/>
<path fill-rule="evenodd" fill="rgb(2.745098%, 2.745098%, 2.745098%)" fill-opacity="1" d="M 24.125 13.316406 C 26.109375 13.304688 28.089844 13.316406 30.070312 13.363281 C 30.207031 13.425781 30.335938 13.5 30.457031 13.582031 C 30.707031 14.113281 30.578125 14.496094 30.070312 14.730469 C 23.0625 14.746094 16.058594 14.730469 9.054688 14.6875 C 8.574219 14.203125 8.601562 13.761719 9.140625 13.363281 C 14.136719 13.316406 19.132812 13.304688 24.125 13.316406 Z M 24.125 13.316406 "/>
<path fill-rule="evenodd" fill="rgb(94.901961%, 54.117647%, 11.372549%)" fill-opacity="1" d="M 39.628906 19.328125 C 38.945312 18.460938 38.140625 17.742188 37.21875 17.164062 C 36.207031 16.816406 35.230469 16.890625 34.289062 17.382812 C 34.191406 17.328125 34.105469 17.253906 34.03125 17.164062 C 34.679688 16.484375 35.339844 15.820312 36.011719 15.175781 C 37.316406 16.46875 38.609375 17.78125 39.886719 19.105469 C 39.8125 19.199219 39.726562 19.273438 39.628906 19.328125 Z M 39.628906 19.328125 "/>
<path fill-rule="evenodd" fill="rgb(97.647059%, 64.705882%, 15.686275%)" fill-opacity="1" d="M 39.628906 19.328125 C 39.085938 19.945312 38.511719 20.535156 37.90625 21.09375 C 36.671875 19.886719 35.464844 18.648438 34.289062 17.382812 C 35.230469 16.890625 36.207031 16.816406 37.21875 17.164062 C 38.140625 17.742188 38.945312 18.460938 39.628906 19.328125 Z M 39.628906 19.328125 "/>
<path fill-rule="evenodd" fill="rgb(3.137255%, 3.137255%, 3.137255%)" fill-opacity="1" d="M 25.933594 17.472656 C 26.125 17.535156 26.285156 17.652344 26.410156 17.824219 C 26.5625 18.316406 26.402344 18.65625 25.933594 18.84375 C 22.632812 18.886719 19.332031 18.902344 16.03125 18.886719 C 13.761719 18.902344 11.496094 18.886719 9.226562 18.84375 C 8.613281 18.476562 8.554688 18.035156 9.054688 17.515625 C 14.679688 17.472656 20.308594 17.457031 25.933594 17.472656 Z M 25.933594 17.472656 "/>
<path fill-rule="evenodd" fill="rgb(94.509804%, 47.843137%, 12.156863%)" fill-opacity="1" d="M 32.996094 18.179688 C 33.558594 18.652344 34.03125 19.179688 34.417969 19.769531 C 29.25 25.074219 24.082031 30.375 18.914062 35.679688 C 18.457031 35.207031 17.996094 34.734375 17.539062 34.265625 C 17.480469 34.207031 17.480469 34.148438 17.539062 34.085938 C 22.707031 28.796875 27.863281 23.492188 32.996094 18.179688 Z M 32.996094 18.179688 "/>
<path fill-rule="evenodd" fill="rgb(95.294118%, 54.117647%, 11.372549%)" fill-opacity="1" d="M 35.324219 20.742188 C 35.414062 20.730469 35.5 20.742188 35.582031 20.785156 C 35.996094 21.214844 36.414062 21.640625 36.832031 22.066406 C 36.886719 22.125 36.886719 22.1875 36.832031 22.246094 C 31.664062 27.546875 26.496094 32.851562 21.328125 38.152344 C 20.867188 37.683594 20.410156 37.210938 19.949219 36.738281 C 19.890625 36.679688 19.890625 36.621094 19.949219 36.5625 C 25.089844 31.300781 30.214844 26.027344 35.324219 20.742188 Z M 35.324219 20.742188 "/>
<path fill-rule="evenodd" fill="rgb(1.568627%, 1.568627%, 1.568627%)" fill-opacity="1" d="M 21.714844 21.539062 C 21.945312 21.574219 22.132812 21.695312 22.273438 21.890625 C 22.425781 22.390625 22.269531 22.730469 21.800781 22.90625 C 18.699219 22.953125 15.601562 22.964844 12.5 22.953125 C 11.378906 22.964844 10.257812 22.953125 9.140625 22.90625 C 9.015625 22.867188 8.917969 22.792969 8.839844 22.6875 C 8.617188 22.253906 8.6875 21.882812 9.054688 21.582031 C 13.273438 21.539062 17.496094 21.523438 21.714844 21.539062 Z M 21.714844 21.539062 "/>
<path fill-rule="evenodd" fill="rgb(0.392157%, 0.392157%, 0.392157%)" fill-opacity="1" d="M 10.863281 25.601562 C 13.359375 25.589844 15.859375 25.601562 18.355469 25.648438 C 18.511719 25.671875 18.644531 25.746094 18.742188 25.867188 C 19.007812 26.445312 18.851562 26.828125 18.269531 27.015625 C 15.226562 27.03125 12.183594 27.015625 9.140625 26.972656 C 8.644531 26.628906 8.585938 26.214844 8.96875 25.734375 C 9.589844 25.609375 10.222656 25.566406 10.863281 25.601562 Z M 10.863281 25.601562 "/>
<path fill-rule="evenodd" fill="rgb(2.745098%, 2.745098%, 2.745098%)" fill-opacity="1" d="M 8.710938 30.550781 C 8.695312 30.363281 8.722656 30.1875 8.796875 30.023438 C 8.886719 29.898438 9.003906 29.796875 9.140625 29.714844 C 11.0625 29.652344 12.988281 29.652344 14.910156 29.714844 C 15.527344 30.066406 15.585938 30.507812 15.082031 31.039062 C 13.074219 31.097656 11.0625 31.097656 9.054688 31.039062 C 8.886719 30.910156 8.773438 30.75 8.710938 30.550781 Z M 8.710938 30.550781 "/>
<path fill-rule="evenodd" fill="rgb(12.54902%, 12.54902%, 12.54902%)" fill-opacity="1" d="M 19.5625 38.859375 C 19.3125 38.660156 19.023438 38.527344 18.699219 38.460938 C 17.730469 38.269531 16.871094 38.492188 16.117188 39.125 C 16.292969 38.089844 16.511719 37.058594 16.761719 36.03125 C 16.78125 35.875 16.851562 35.757812 16.976562 35.679688 C 17.984375 36.652344 18.957031 37.652344 19.90625 38.683594 C 19.796875 38.761719 19.683594 38.820312 19.5625 38.859375 Z M 19.5625 38.859375 "/>
<path fill-rule="evenodd" fill="rgb(25.882353%, 25.882353%, 25.882353%)" fill-opacity="1" d="M 19.5625 38.859375 C 18.410156 39.101562 17.261719 39.367188 16.117188 39.65625 C 16.058594 39.625 16 39.597656 15.945312 39.566406 C 16.003906 39.417969 16.058594 39.269531 16.117188 39.125 C 16.871094 38.492188 17.730469 38.269531 18.699219 38.460938 C 19.023438 38.527344 19.3125 38.660156 19.5625 38.859375 Z M 19.5625 38.859375 "/>
</svg>
