<svg xmlns="http://www.w3.org/2000/svg" width="128" height="128">
    <path d="M0 953.15h128v128H0z" style="fill:#00c;fill-opacity:1;stroke-width:1.28" transform="translate(0 -953.15)"/>
    <path d="M0 1063.23v17.92h128v-17.92H0z" style="fill:#2b0000;fill-opacity:1;stroke-width:1.28" transform="translate(0 -953.15)"/>
    <path d="M30.72 1072.099v9.05H51.2v-9.05H30.72zm25.6 0v9.05H76.8v-9.05H56.32zm25.6 0v9.05h20.48v-9.05H81.92zm-76.8.092v8.959H25.6v-8.96H5.12zm102.4 0v8.959H128v-8.96h-20.48z" style="fill:teal;fill-opacity:1;stroke-width:1.28" transform="translate(0 -953.15)"/>
    <path d="M0 1063.23v8.96h10.24v-4.48H5.12v-4.48H0z" style="fill:#e6e6e6;fill-opacity:1;stroke-width:1.28" transform="translate(0 -953.15)"/>
    <path d="M0 953.15v110.079h128V953.15H0zm5.12 5.119h35.84v83.2H5.12v-83.2zm39.68 0h16.64v83.2H44.8v-83.2zm21.76 0h35.84v83.2H66.56v-83.2zm39.68 0h16.64v83.2h-16.64v-83.2zm-97.28 16.64v3.84h28.16v-3.84H8.96zm39.68 0v3.84h8.96v-3.84h-8.96zm21.76 0v3.84h28.16v-3.84H70.4zm39.68 0v3.84h8.96v-3.84h-8.96zM8.96 983.87v3.84h28.16v-3.84H8.96zm39.68 0v3.84h8.96v-3.84h-8.96zm21.76 0v3.84h28.16v-3.84H70.4zm39.68 0v3.84h8.96v-3.84h-8.96zM8.96 992.83v3.84h28.16v-3.84H8.96zm39.68 0v3.84h8.96v-3.84h-8.96zm21.76 0v3.84h28.16v-3.84H70.4zm39.68 0v3.84h8.96v-3.84h-8.96zm-101.12 8.96v3.84h28.16v-3.84H8.96zm39.68 0v3.84h8.96v-3.84h-8.96zm-39.68 8.96v3.84h28.16v-3.84H8.96zm39.68 0v3.84h8.96v-3.84h-8.96zm-43.52 34.56h56.32v12.8H5.12v-12.8zm61.44 0h56.32v12.8H66.56v-12.8zm-58.88 4.48v3.84h25.6v-3.84H7.68zm29.44 0v3.84h3.84v-3.84h-3.84zm7.68 0v3.84h11.52v-3.84H44.8zm24.32 0v3.84h25.6v-3.84h-25.6zm29.44 0v3.84h3.84v-3.84h-3.84zm7.68 0v3.84h11.52v-3.84h-11.52z" style="fill:#5df;fill-opacity:1;stroke-width:1.28" transform="translate(0 -953.15)"/>
    <path d="M75.52 962.109v3.841H96v-3.841H75.52zm-61.44.002v3.84h20.48v-3.84H14.08zm34.56 0v3.84h10.24v-3.84H48.64zm61.44 0v3.84h10.24v-3.84h-10.24z" style="fill:#ff0;fill-opacity:1;stroke-width:1.28" transform="translate(0 -953.15)"/>
    <g style="clip-rule:evenodd;fill-rule:evenodd;image-rendering:optimizeQuality;shape-rendering:geometricPrecision;text-rendering:geometricPrecision">
        <path d="M205.96 15.509c-58.833.166-117.657.662-176.463 1.492-6.648 3.314-11.148 8.48-13.5 15.5a49726.54 49726.54 0 0 0 0 445.998c2.834 8.167 8.338 13.67 16.504 16.504 116.667.667 233.332.667 349.998 0 8.167-2.833 13.671-8.337 16.504-16.504a9599.42 9599.42 0 0 0 0-196c-1.539-3.02-4.04-4.353-7.5-4-3.59.045-6.091 1.716-7.501 5.005-.333 63.667-.672 127.329-1.005 190.996A6.977 6.977 0 0 1 380.5 478a19452.499 19452.499 0 0 1-341.005 1.502c-3.59-.044-6.08-1.714-7.491-5.003-.5-131-.674-262.005-.507-393.004 120.168-.333 240.174.005 360.006 1.004 3.287-.555 5.787-2.226 7.5-5.004.667-15 .667-29.996 0-44.996-2.833-8.166-8.337-13.67-16.503-16.503-58.862-.497-117.707-.655-176.54-.488Zm231.553 57.988c-5.334 0-10.677 1.836-16.016 5.502a1246.688 1246.688 0 0 1-29.994 29.506 27866.43 27866.43 0 0 1-242.508 244c-1.75 1.99-2.745 4.316-2.994 6.993a2871.497 2871.497 0 0 1-16.504 72.005c.438 5.208 3.276 7.873 8.505 7.999a1035.432 1035.432 0 0 0 78.501-18.504 43153.258 43153.258 0 0 1 175-174.501 13937.14 13937.14 0 0 0 99.501-98.995c6-10.333 6-20.666 0-30.999L453.5 79c-5.327-3.666-10.654-5.502-15.987-5.502zm-194.01 49.005c-58-.167-116.005-.002-174.004.497-6.247 4.514-6.575 9.516-.995 15.002 81.333.5 162.666.665 244 .498 5.905-2.687 7.401-7.022 4.496-13.002a29.468 29.468 0 0 0-4.496-2.498c-22.998-.5-46-.664-69.001-.497zm21 46.995c-65.333-.167-130.667.007-196 .508-5.779 5.876-5.112 10.868 2 14.992 26.332.5 52.664.674 79 .507 38.334.167 76.669-.007 115-.507 5.446-2.11 7.27-5.944 5.492-11.5-1.45-1.964-3.275-3.297-5.491-4zm-122.502 46c-24.5.084-48.998.248-73.497.498-4.253 3.42-5.093 7.592-2.507 12.505a6.976 6.976 0 0 0 3.502 2.497c12.996.5 25.993.674 38.997.507 36.002.167 72.01-.007 108.007-.507 5.424-2.017 7.26-5.85 5.502-11.5-1.638-2.234-3.811-3.566-6.506-4-24.5-.083-48.998-.082-73.498 0zm-58.065 45.858a86.603 86.603 0 0 0-16.437 1.646c-4.425 5.44-3.76 10.105 2 13.997 35.332.5 70.663.664 105.998.497 6.74-2.153 8.574-6.478 5.501-12.992-1.17-1.393-2.667-2.234-4.496-2.507-28.998-.5-57.996-.665-86.997-.498a89.397 89.397 0 0 0-5.569-.143zm19.068 46.144c-11.166 0-22.338.164-33.505.497-1.593.95-2.926 2.117-4 3.502-.84 1.88-1.169 3.878-.994 5.999.728 2.235 2.06 4.07 3.999 5.501 23.333.667 46.663.667 69.996 0 5.83-6.006 5.163-11.008-2-15.002-11.166-.333-22.33-.497-33.496-.497z" style="display:inline;opacity:.997" transform="matrix(.20416 0 0 .20414 -3.164 26.847)"/>
        <path fill="#f68b1d" d="M75.133 34.91c-22.663-.033-45.325 0-67.987.103-2.103 1.112-2.851 2.847-2.246 5.205H3.267c-.034-1.974 0-3.948.102-5.92.17-.442.477-.748.919-.918 23.275-.136 46.55-.136 69.824 0 .671.288 1.012.798 1.02 1.53z"/>
        <path fill="#fbb54c" d="M75.133 34.91v5.308H4.9c-.605-2.358.143-4.093 2.246-5.205 22.662-.102 45.324-.136 67.987-.102z"/>
        <path fill="#dedede" d="M76.766 43.689v1.429c-10.601.01-20.674 2.255-30.216 6.736-11.842-.034-23.683 0-35.525.103-1.275.921-1.343 1.942-.204 3.062 16.605.102 33.21.136 49.816.102-6.975.17-13.985.272-21.029.306a54.848 54.848 0 0 0-7.962 5.716c6.432.034 12.829.136 19.191.306-13.339-.034-26.677 0-40.016.102-1.18 1.2-1.044 2.22.409 3.062 5.375.102 10.752.136 16.128.102a223.01 223.01 0 0 0-5.512 5.818 879.69 879.69 0 0 1 18.987.307c-10.004-.034-20.008 0-30.012.102-.868.698-1.038 1.549-.51 2.551.184.246.422.416.714.51 2.654.103 5.308.137 7.963.103a71.882 71.882 0 0 0-3.88 6.124 17.777 17.777 0 0 0-4.491.306c-.904 1.111-.767 2.064.408 2.858 7.214.102 14.428.137 21.642.102-6.499.17-13.032.272-19.6.307-1.297 2.142-2.25 4.353-2.858 6.634-.172.384-.24.792-.204 1.225a1.132 1.132 0 0 1-.307-.612c-3.97 10.88-5.57 22.107-4.798 33.683-.732-.009-1.243-.35-1.53-1.02-.103-26.743-.137-53.486-.103-80.228 24.534-.068 49.034 0 73.5.204z"/>
        <path fill="#ededed" d="M76.766 45.118v3.878a5688.85 5688.85 0 0 1-49.51 49.811 2.453 2.453 0 0 0-.612 1.43 586.057 586.057 0 0 1-3.369 14.697c.09 1.063.668 1.608 1.736 1.633a211.406 211.406 0 0 0 16.026-3.776 8809.685 8809.685 0 0 1 35.73-35.623v6.533c-.734.009-1.244.349-1.532 1.02l-.204 38.991c-.095.292-.266.53-.51.715-23.19.305-46.397.407-69.62.306-.772-11.576.827-22.803 4.797-33.683.048.252.15.456.307.612.148.456.42.83.816 1.123 4.764.136 9.528.136 14.292 0 1.19-1.226 1.054-2.247-.409-3.062-4.56-.136-9.119-.136-13.679 0a2.893 2.893 0 0 0-.816.714c.608-2.28 1.561-4.492 2.858-6.634a937.574 937.574 0 0 0 19.6-.307c1.376-.44 1.75-1.324 1.123-2.653a1.438 1.438 0 0 0-.92-.51c-5.92-.103-11.84-.137-17.761-.103a71.882 71.882 0 0 1 3.879-6.124c7.35.034 14.7 0 22.05-.102 1.107-.412 1.481-1.194 1.122-2.348a1.979 1.979 0 0 0-1.327-.816 879.69 879.69 0 0 0-18.987-.307 223.01 223.01 0 0 1 5.512-5.818c7.827.034 15.653 0 23.48-.102 1.11-.43 1.485-1.213 1.122-2.347-.296-.401-.67-.673-1.123-.817-6.362-.17-12.76-.272-19.191-.306a54.848 54.848 0 0 1 7.962-5.716c7.044-.034 14.054-.136 21.03-.306 1.205-.549 1.511-1.433.918-2.654a6.026 6.026 0 0 0-.919-.51 485.864 485.864 0 0 0-14.087-.103c9.542-4.48 19.615-6.726 30.216-6.736z"/>
        <path fill="#d71b60" d="M94.528 54.304a2.709 2.709 0 0 0-1.225-1.327c-4.609-2.48-9.236-2.548-13.883-.204a7.42 7.42 0 0 0-1.837 1.531c-.362-.166-.464-.438-.307-.816l8.065-8.064a3.318 3.318 0 0 1 1.633 0l7.656 7.655c.161.452.127.86-.102 1.225z"/>
        <path fill="#ea4078" d="M94.528 54.304a124.136 124.136 0 0 1-8.37 8.574 254.938 254.938 0 0 1-8.575-8.574 7.42 7.42 0 0 1 1.837-1.53c4.647-2.345 9.274-2.277 13.883.203.57.314.98.756 1.225 1.327z"/>
        <path fill="#f9a528" d="M83.3 65.736a57.75 57.75 0 0 1-4.084 4.083 254.938 254.938 0 0 1-8.575-8.574c2.229-1.14 4.543-1.31 6.942-.51a22.272 22.272 0 0 1 5.716 5.001z"/>
        <path fill="#f17a1f" d="M67.579 63.082a17.037 17.037 0 0 1 3.368 3.675l-36.75 36.745-3.266-3.266c-.136-.136-.136-.272 0-.408A9321.094 9321.094 0 0 0 67.58 63.082z"/>
        <path fill="#f38a1d" d="M73.091 69.002c.215-.03.42.004.613.102l2.96 2.96c.136.137.136.273 0 .409l-36.75 36.745-3.266-3.266c-.136-.136-.136-.272 0-.408A9231.512 9231.512 0 0 0 73.09 69.002z"/>
        <path fill="#202020" d="M35.73 110.851a4.673 4.673 0 0 0-2.042-.918c-2.3-.446-4.341.064-6.125 1.53a99.769 99.769 0 0 1 1.53-7.144c.04-.365.21-.637.511-.817a166.83 166.83 0 0 1 6.942 6.941c-.259.176-.53.312-.817.408z"/>
        <path fill="#424242" d="M35.73 110.851c-2.732.56-5.454 1.173-8.167 1.838l-.409-.204c.138-.346.274-.687.409-1.021 1.784-1.467 3.825-1.977 6.125-1.531.77.147 1.45.453 2.041.918z"/>
    </g>
</svg>
