<?xml version="1.0" encoding="UTF-8" standalone="no"?>
<svg
   version="1.0"
   x="0px"
   y="0px"
   width="1024"
   height="1024"
   viewBox="0 0 1024 1024"
   inkscape:version="1.4 (e7c3feb, 2024-10-09)"
   sodipodi:docname="far2l-wx-edt.svg"
   id="svg6"
   xmlns:inkscape="http://www.inkscape.org/namespaces/inkscape"
   xmlns:sodipodi="http://sodipodi.sourceforge.net/DTD/sodipodi-0.dtd"
   xmlns="http://www.w3.org/2000/svg"
   xmlns:svg="http://www.w3.org/2000/svg">
  <defs
     id="defs1" />
  <sodipodi:namedview
     inkscape:zoom="0.89453125"
     inkscape:cx="512"
     inkscape:cy="377.85153"
     inkscape:window-width="1852"
     inkscape:window-height="1172"
     inkscape:window-x="0"
     inkscape:window-y="0"
     inkscape:window-maximized="1"
     id="namedview1"
     pagecolor="#ffffff"
     bordercolor="#000000"
     borderopacity="0.25"
     inkscape:showpageshadow="2"
     inkscape:pageopacity="0.0"
     inkscape:pagecheckerboard="0"
     inkscape:deskcolor="#d1d1d1" />
  <path
     d="m 1006.9333,597.33274 v 68.26663 c -0.054,18.82501 -15.3083,34.07499 -34.13332,34.13327 H 682.66665 c -56.55002,0 -102.39997,45.84997 -102.39997,102.39996 0.0832,56.51653 45.88333,102.31658 102.39997,102.39983 l 34.13336,102.39997 H 307.19998 l 34.13334,-102.39997 c 56.51667,-0.0857 102.31668,-45.8833 102.4,-102.39983 0,-56.54999 -45.84998,-102.39996 -102.4,-102.39996 H 51.199998 c -18.824999,-0.0583 -34.075,-15.30826 -34.133333,-34.13327 v -68.26663 z"
     fill="#9bc9ff"
     id="path1" />
  <path
     d="m 492.38709,740.63219 v 2.14453 32.40039 2.14453 h 0.85253 12.50676 0.004 0.84738 10.80389 0.32394 0.52712 0.0515 12.45595 0.85254 v -2.14453 -32.40039 -2.14453 h -0.85254 -12.45595 -0.0515 -0.52712 -0.32394 -10.80389 -0.84738 -0.004 -12.50676 z m 14.21108,2.14453 h 0.1178 v 32.40039 h -0.1178 z m 10.79875,0 h 0.005 v 32.40039 h -0.005 z"
     fill="#00ff00"
     id="path2" />
  <path
     d="M 972.79998,-1.7313486e-6 H 51.199998 C 22.924999,-1.7313486e-6 -2.643356e-7,22.924976 -2.643356e-7,51.199951 V 665.59933 c 0,28.275 22.9249992643356,51.19994 51.1999982643356,51.19994 H 341.33334 c 47.10834,0.0583 85.27499,38.22496 85.33335,85.3333 -0.0832,47.09164 -38.24167,85.24991 -85.33335,85.33324 -0.24166,0 -0.42501,0.11661 -0.66666,0.13375 -1.24168,0.10034 -2.46669,0.34981 -3.65004,0.7339 -0.94997,0.18347 -1.87497,0.44153 -2.7833,0.77505 -0.98337,0.53327 -1.91668,1.15827 -2.78335,1.87485 -0.88338,0.56671 -1.71668,1.21675 -2.49165,1.92509 -0.63332,0.76647 -1.20001,1.58337 -1.70837,2.44166 -0.72497,1.00833 -1.34998,2.08336 -1.84164,3.22501 0,0.20834 -0.23335,0.34208 -0.30829,0.56671 l -34.13333,102.39987 c -1.73335,5.2083 -0.85834,10.9333 2.35832,15.3916 3.21667,4.45 8.38334,7.0751 13.875,7.0667 h 409.60002 c 5.48329,0 10.63331,-2.6417 13.8333,-7.0917 3.20834,-4.45 4.07502,-10.1666 2.35001,-15.3666 L 698.84999,899.14183 c 0,-0.22463 -0.24166,-0.35837 -0.30829,-0.56671 -0.50005,-1.13333 -1.11666,-2.20837 -1.85,-3.20838 -0.49164,-0.86662 -1.06665,-1.68332 -1.69998,-2.45829 -0.77498,-0.70817 -1.60831,-1.3583 -2.49169,-1.92509 -0.86665,-0.71674 -1.79998,-1.3415 -2.7833,-1.87485 -0.90835,-0.33266 -1.84166,-0.59243 -2.78332,-0.77505 -1.18334,-0.38324 -2.40836,-0.63358 -3.65006,-0.7339 -0.24158,0 -0.42492,-0.13375 -0.66667,-0.13375 -47.09164,-0.0857 -85.24995,-38.2416 -85.33334,-85.33324 0.0588,-47.10833 38.22501,-85.27496 85.33334,-85.3333 h 290.1833 C 1001.075,716.79927 1024,693.87433 1024,665.59933 V 51.19995 C 1024,22.924976 1001.075,-1.7313486e-6 972.79998,-1.7313486e-6 Z M 563.2,802.1326 c 0.0832,61.09984 46.18329,112.31656 106.94168,118.79985 l 22.96666,68.93328 H 330.89166 l 22.96667,-68.93328 C 414.61666,914.44916 460.71665,863.23244 460.8,802.1326 460.808,769.99095 447.81664,739.20763 424.77501,716.79931 H 599.22496 C 576.18331,739.20763 563.19165,769.99095 563.2,802.1326 Z M 989.86666,665.59937 c 0,9.42499 -7.64165,17.06667 -17.06668,17.06667 H 51.199998 c -9.425001,0 -17.066666,-7.64168 -17.066666,-17.06667 V 614.39942 H 989.86666 Z M 34.133332,580.26613 V 51.19995 c 0,-9.424989 7.641665,-17.06665 17.066666,-17.06665 H 972.79998 c 9.42503,0 17.06668,7.641661 17.06668,17.06665 V 580.26616 H 34.133332 Z"
     fill="#207ad3"
     id="path3" />
  <path
     d="M 35.772925,27.155276 H 992.69871 V 683.03647 H 35.772925 Z"
     fill="#0000c0"
     id="path4" />
  <path
     d="M 32.413715,25.910336 V 683.05701 H 994.2409 V 25.910336 Z M 70.886782,56.469595 H 340.19844 V 553.15477 H 70.886782 Z m 298.166478,0 H 494.09078 V 553.15477 H 369.05326 Z m 163.51059,0 h 269.3117 V 553.15477 h -269.3117 z m 298.16646,0 H 955.76785 V 553.15477 H 830.73031 Z M 99.741679,155.80663 v 22.92389 H 311.34356 v -22.92389 z m 298.166361,0 v 22.92389 h 67.32795 v -22.92389 z m 163.51071,0 v 22.92389 h 211.60189 v -22.92389 z m 298.16636,0 v 22.92389 h 67.32796 V 155.80663 Z M 99.741679,209.30179 V 232.2257 H 311.34356 v -22.92391 z m 298.166361,0 v 22.92391 h 67.32795 v -22.92391 z m 163.51071,0 v 22.92391 h 211.60189 v -22.92391 z m 298.16636,0 v 22.92391 h 67.32796 V 209.30179 Z M 99.741679,262.79093 V 285.7149 H 311.34356 v -22.92397 z m 298.166361,0 v 22.92397 h 67.32795 v -22.92397 z m 163.51071,0 v 22.92397 h 211.60189 v -22.92397 z m 298.16636,0 v 22.92397 h 67.32796 V 262.79093 Z M 99.741679,316.2801 v 22.92393 H 311.34356 V 316.2801 Z m 298.166361,0 v 22.92393 h 67.32795 V 316.2801 Z M 99.741679,369.76931 v 22.92391 H 311.34356 v -22.92391 z m 298.166361,0 v 22.92391 h 67.32795 V 369.76931 Z M 70.886782,576.08466 H 494.09078 v 76.41312 H 70.886782 Z m 461.677068,0 h 423.204 v 76.41312 h -423.204 z M 90.123337,602.82921 v 22.92393 H 282.48877 v -22.92393 z m 221.220223,0 v 22.92393 h 28.85488 v -22.92393 z m 57.7097,0 v 22.92393 h 86.56445 v -22.92393 z m 182.74713,0 v 22.92393 h 192.36546 v -22.92393 z m 221.22025,0 v 22.92393 h 28.85491 v -22.92393 z m 57.70967,0 v 22.92393 h 86.56448 v -22.92393 z"
     fill="#55ddff"
     style="stroke-width:1.00116"
     id="path5" />
  <path
     d="M 600.80846,79.393513 V 102.32344 H 754.34307 V 79.393513 Z M 140.2046,79.4056 v 22.92402 H 293.73918 V 79.406079 Z m 259.08964,0 v 22.92402 h 76.76735 V 79.40603 Z m 460.60388,0 v 22.92397 h 76.76734 V 79.406079 Z"
     fill="#ffff00"
     id="path6" />
  <g
     id="g19"
     style="clip-rule:evenodd;fill-rule:evenodd;image-rendering:optimizeQuality;shape-rendering:geometricPrecision;text-rendering:geometricPrecision"
     transform="matrix(1.2249236,0,0,1.256989,44.864387,35.431377)"
     inkscape:label="edt">
    <path
       style="opacity:0.997"
       fill="#000000"
       d="m 391.5,82.5 c -119.832,-0.9995 -239.832,-1.3329 -360,-1 -0.1667,131 0,262 0.5,393 1.4103,3.289 3.9103,4.956 7.5,5 113.748,0.496 227.414,-0.004 341,-1.5 1.201,-0.903 2.035,-2.069 2.5,-3.5 0.333,-63.667 0.667,-127.333 1,-191 1.41,-3.289 3.91,-4.956 7.5,-5 3.461,-0.354 5.961,0.979 7.5,4 0.667,65.333 0.667,130.667 0,196 -2.833,8.167 -8.333,13.667 -16.5,16.5 -116.667,0.667 -233.333,0.667 -350,0 C 24.3333,492.167 18.8333,486.667 16,478.5 15.3333,329.833 15.3333,181.167 16,32.5 18.3513,25.4808 22.8513,20.3141 29.5,17 c 117.611,-1.6608 235.277,-1.9941 353,-1 8.167,2.8333 13.667,8.3333 16.5,16.5 0.667,15 0.667,30 0,45 -1.713,2.778 -4.213,4.4446 -7.5,5 z"
       id="path1-9" />
    <path
       fill="#f68b1d"
       d="m 383.5,39.5 c -111.001,-0.1667 -222.001,0 -333,0.5 -10.2996,5.4484 -13.9662,13.9484 -11,25.5 -2.6667,0 -5.3333,0 -8,0 -0.1665,-9.6724 2e-4,-19.3391 0.5,-29 0.8333,-2.1667 2.3333,-3.6667 4.5,-4.5 114,-0.6667 228,-0.6667 342,0 3.289,1.4103 4.956,3.9103 5,7.5 z"
       id="path2-1" />
    <path
       fill="#fbb54c"
       d="m 383.5,39.5 c 0,8.6667 0,17.3333 0,26 -114.667,0 -229.333,0 -344,0 -2.9662,-11.5516 0.7004,-20.0516 11,-25.5 110.999,-0.5 221.999,-0.6667 333,-0.5 z"
       id="path3-2" />
    <path
       style="opacity:0.99"
       fill="#040202"
       d="m 391.5,246.5 c -58.465,57.965 -116.799,116.132 -175,174.5 -25.897,7.179 -52.063,13.346 -78.5,18.5 -5.229,-0.126 -8.062,-2.792 -8.5,-8 5.808,-23.926 11.308,-47.926 16.5,-72 0.249,-2.677 1.249,-5.01 3,-7 81.417,-80.916 162.25,-162.25 242.5,-244 10.132,-9.6312 20.132,-19.4645 30,-29.5 10.679,-7.331 21.346,-7.331 32,0 12.5,12.5 25,25 37.5,37.5 6,10.333 6,20.667 0,31 -33.035,33.201 -66.201,66.201 -99.5,99 z"
       id="path4-7" />
    <path
       fill="#dedede"
       d="m 391.5,82.5 c 0,2.3333 0,4.6667 0,7 -51.926,0.0487 -101.26,11.049 -148,33 -58.001,-0.167 -116.001,0 -174,0.5 -6.247,4.514 -6.5804,9.514 -1,15 81.333,0.5 162.666,0.667 244,0.5 -34.164,0.832 -68.498,1.332 -103,1.5 -13.837,8.17 -26.837,17.504 -39,28 31.503,0.168 62.836,0.668 94,1.5 -65.334,-0.167 -130.668,0 -196,0.5 -5.7795,5.876 -5.1129,10.876 2,15 26.3312,0.5 52.665,0.667 79,0.5 -9.161,9.328 -18.161,18.828 -27,28.5 31.169,0.168 62.169,0.668 93,1.5 -49.001,-0.167 -98.001,0 -147,0.5 -4.2532,3.42 -5.0865,7.587 -2.5,12.5 0.9025,1.201 2.0692,2.035 3.5,2.5 12.9957,0.5 25.9957,0.667 39,0.5 -6.844,9.69 -13.1772,19.69 -19,30 -7.4472,-0.429 -14.7806,0.071 -22,1.5 -4.4258,5.441 -3.7591,10.108 2,14 35.332,0.5 70.665,0.667 106,0.5 -31.831,0.832 -63.831,1.332 -96,1.5 -6.3523,10.493 -11.019,21.326 -14,32.5 -0.8414,1.879 -1.1747,3.879 -1,6 -0.7679,-0.763 -1.2679,-1.763 -1.5,-3 -19.447,53.296 -27.2804,108.296 -23.5,165 -3.5897,-0.044 -6.0897,-1.711 -7.5,-5 -0.5,-131 -0.6667,-262 -0.5,-393 120.168,-0.3329 240.168,5e-4 360,1 z"
       id="path5-0" />
    <path
       fill="#ededed"
       d="m 391.5,89.5 c 0,6.3333 0,12.667 0,19 -80.25,81.75 -161.083,163.084 -242.5,244 -1.751,1.99 -2.751,4.323 -3,7 -5.192,24.074 -10.692,48.074 -16.5,72 0.438,5.208 3.271,7.874 8.5,8 26.437,-5.154 52.603,-11.321 78.5,-18.5 58.201,-58.368 116.535,-116.535 175,-174.5 0,10.667 0,21.333 0,32 -3.59,0.044 -6.09,1.711 -7.5,5 -0.333,63.667 -0.667,127.333 -1,191 -0.465,1.431 -1.299,2.597 -2.5,3.5 -113.586,1.496 -227.252,1.996 -341,1.5 -3.7804,-56.704 4.053,-111.704 23.5,-165 0.2321,1.237 0.7321,2.237 1.5,3 0.7279,2.235 2.0612,4.068 4,5.5 23.3333,0.667 46.667,0.667 70,0 5.83,-6.006 5.163,-11.006 -2,-15 -22.333,-0.667 -44.6667,-0.667 -67,0 -1.5931,0.949 -2.9264,2.115 -4,3.5 2.981,-11.174 7.6477,-22.007 14,-32.5 32.169,-0.168 64.169,-0.668 96,-1.5 6.739,-2.153 8.573,-6.486 5.5,-13 -1.171,-1.393 -2.671,-2.227 -4.5,-2.5 -28.998,-0.5 -57.998,-0.667 -87,-0.5 5.8228,-10.31 12.156,-20.31 19,-30 36.002,0.167 72.002,0 108,-0.5 5.424,-2.017 7.258,-5.85 5.5,-11.5 -1.638,-2.234 -3.805,-3.567 -6.5,-4 -30.831,-0.832 -61.831,-1.332 -93,-1.5 8.839,-9.672 17.839,-19.172 27,-28.5 38.335,0.167 76.668,0 115,-0.5 5.445,-2.11 7.278,-5.944 5.5,-11.5 -1.451,-1.964 -3.284,-3.297 -5.5,-4 -31.164,-0.832 -62.497,-1.332 -94,-1.5 12.163,-10.496 25.163,-19.83 39,-28 34.502,-0.168 68.836,-0.668 103,-1.5 5.905,-2.687 7.405,-7.02 4.5,-13 -1.419,-0.96 -2.919,-1.793 -4.5,-2.5 -22.998,-0.5 -45.998,-0.667 -69,-0.5 46.74,-21.951 96.074,-32.9513 148,-33 z"
       id="path6-9" />
    <path
       fill="#d71b60"
       d="m 478.5,134.5 c -1.206,-2.798 -3.206,-4.965 -6,-6.5 -22.576,-12.15 -45.242,-12.483 -68,-1 -3.44,2.042 -6.44,4.542 -9,7.5 -1.773,-0.814 -2.273,-2.148 -1.5,-4 13.167,-13.167 26.333,-26.333 39.5,-39.5 2.667,-0.6667 5.333,-0.6667 8,0 12.5,12.5 25,25 37.5,37.5 0.789,2.212 0.622,4.212 -0.5,6 z"
       id="path7" />
    <path
       fill="#ea4078"
       d="m 478.5,134.5 c -12.926,14.594 -26.593,28.594 -41,42 -14.354,-13.688 -28.354,-27.688 -42,-42 2.56,-2.958 5.56,-5.458 9,-7.5 22.758,-11.483 45.424,-11.15 68,1 2.794,1.535 4.794,3.702 6,6.5 z"
       id="path8" />
    <path
       fill="#070707"
       d="m 243.5,122.5 c 23.002,-0.167 46.002,0 69,0.5 1.581,0.707 3.081,1.54 4.5,2.5 2.905,5.98 1.405,10.313 -4.5,13 -81.334,0.167 -162.667,0 -244,-0.5 -5.5804,-5.486 -5.247,-10.486 1,-15 57.999,-0.5 115.999,-0.667 174,-0.5 z"
       id="path9" />
    <path
       fill="#f28a1d"
       d="m 423.5,190.5 c -7.956,-9.792 -17.289,-17.959 -28,-24.5 -11.75,-3.917 -23.083,-3.084 -34,2.5 -1.127,-0.622 -2.127,-1.455 -3,-2.5 7.514,-7.681 15.181,-15.181 23,-22.5 15.153,14.653 30.153,29.486 45,44.5 -0.873,1.045 -1.873,1.878 -3,2.5 z"
       id="path10" />
    <path
       fill="#f9a528"
       d="m 423.5,190.5 c -6.312,6.979 -12.979,13.646 -20,20 -14.354,-13.688 -28.354,-27.688 -42,-42 10.917,-5.584 22.25,-6.417 34,-2.5 10.711,6.541 20.044,14.708 28,24.5 z"
       id="path11" />
    <path
       fill="#080808"
       d="m 264.5,169.5 c 2.216,0.703 4.049,2.036 5.5,4 1.778,5.556 -0.055,9.39 -5.5,11.5 -38.332,0.5 -76.665,0.667 -115,0.5 -26.335,0.167 -52.6688,0 -79,-0.5 -7.1129,-4.124 -7.7795,-9.124 -2,-15 65.332,-0.5 130.666,-0.667 196,-0.5 z"
       id="path12" />
    <path
       fill="#f17a1f"
       d="m 346.5,177.5 c 6.518,5.339 12.018,11.339 16.5,18 -60,60 -120,120 -180,180 -5.333,-5.333 -10.667,-10.667 -16,-16 -0.667,-0.667 -0.667,-1.333 0,-2 60.035,-59.868 119.868,-119.868 179.5,-180 z"
       id="path13" />
    <path
       fill="#f38a1d"
       d="m 373.5,206.5 c 1.052,-0.149 2.052,0.017 3,0.5 4.833,4.833 9.667,9.667 14.5,14.5 0.667,0.667 0.667,1.333 0,2 -60,60 -120,120 -180,180 -5.333,-5.333 -10.667,-10.667 -16,-16 -0.667,-0.667 -0.667,-1.333 0,-2 59.701,-59.535 119.201,-119.201 178.5,-179 z"
       id="path14" />
    <path
       fill="#040404"
       d="m 215.5,215.5 c 2.695,0.433 4.862,1.766 6.5,4 1.758,5.65 -0.076,9.483 -5.5,11.5 -35.998,0.5 -71.998,0.667 -108,0.5 -13.0043,0.167 -26.0043,0 -39,-0.5 -1.4308,-0.465 -2.5975,-1.299 -3.5,-2.5 -2.5865,-4.913 -1.7532,-9.08 2.5,-12.5 48.999,-0.5 97.999,-0.667 147,-0.5 z"
       id="path15" />
    <path
       fill="#010101"
       d="m 89.5,261.5 c 29.002,-0.167 58.002,0 87,0.5 1.829,0.273 3.329,1.107 4.5,2.5 3.073,6.514 1.239,10.847 -5.5,13 -35.335,0.167 -70.668,0 -106,-0.5 -5.7591,-3.892 -6.4258,-8.559 -2,-14 7.2194,-1.429 14.5528,-1.929 22,-1.5 z"
       id="path16" />
    <path
       fill="#070707"
       d="m 64.5,317.5 c -0.1747,-2.121 0.1586,-4.121 1,-6 1.0736,-1.385 2.4069,-2.551 4,-3.5 22.3333,-0.667 44.667,-0.667 67,0 7.163,3.994 7.83,8.994 2,15 -23.333,0.667 -46.6667,0.667 -70,0 -1.9388,-1.432 -3.2721,-3.265 -4,-5.5 z"
       id="path17" />
    <path
       fill="#202020"
       d="m 190.5,411.5 c -2.897,-2.278 -6.23,-3.778 -10,-4.5 -11.262,-2.185 -21.262,0.315 -30,7.5 2.069,-11.741 4.569,-23.408 7.5,-35 0.196,-1.786 1.029,-3.119 2.5,-4 11.667,11 23,22.333 34,34 -1.266,0.862 -2.599,1.529 -4,2 z"
       id="path18" />
    <path
       fill="#424242"
       d="m 190.5,411.5 c -13.376,2.742 -26.71,5.742 -40,9 -0.667,-0.333 -1.333,-0.667 -2,-1 0.674,-1.695 1.341,-3.362 2,-5 8.738,-7.185 18.738,-9.685 30,-7.5 3.77,0.722 7.103,2.222 10,4.5 z"
       id="path19" />
  </g>
</svg>
