<?xml version="1.0" encoding="UTF-8" standalone="no"?>
<svg
   version="1.0"
   x="0px"
   y="0px"
   width="1024"
   height="1024"
   viewBox="0 0 1024 1024"
   id="svg6"
   xmlns="http://www.w3.org/2000/svg"
   xmlns:svg="http://www.w3.org/2000/svg">
  <defs
     id="defs1" />
  <path
     d="m 1006.9333,597.33274 v 68.26663 c -0.054,18.82501 -15.3083,34.07499 -34.13332,34.13327 H 682.66665 c -56.55002,0 -102.39997,45.84997 -102.39997,102.39996 0.0832,56.51653 45.88333,102.31658 102.39997,102.39983 l 34.13336,102.39997 H 307.19998 l 34.13334,-102.39997 c 56.51667,-0.0857 102.31668,-45.8833 102.4,-102.39983 0,-56.54999 -45.84998,-102.39996 -102.4,-102.39996 H 51.199998 c -18.824999,-0.0583 -34.075,-15.30826 -34.133333,-34.13327 v -68.26663 z"
     fill="#9bc9ff"
     id="path1" />
  <path
     d="m 492.38709,740.63219 v 2.14453 32.40039 2.14453 h 0.85253 12.50676 0.004 0.84738 10.80389 0.32394 0.52712 0.0515 12.45595 0.85254 v -2.14453 -32.40039 -2.14453 h -0.85254 -12.45595 -0.0515 -0.52712 -0.32394 -10.80389 -0.84738 -0.004 -12.50676 z m 14.21108,2.14453 h 0.1178 v 32.40039 h -0.1178 z m 10.79875,0 h 0.005 v 32.40039 h -0.005 z"
     fill="#00ff00"
     id="path2" />
  <path
     d="M 972.79998,-1.7313486e-6 H 51.199998 C 22.924999,-1.7313486e-6 -2.643356e-7,22.924976 -2.643356e-7,51.199951 V 665.59933 c 0,28.275 22.9249992643356,51.19994 51.1999982643356,51.19994 H 341.33334 c 47.10834,0.0583 85.27499,38.22496 85.33335,85.3333 -0.0832,47.09164 -38.24167,85.24991 -85.33335,85.33324 -0.24166,0 -0.42501,0.11661 -0.66666,0.13375 -1.24168,0.10034 -2.46669,0.34981 -3.65004,0.7339 -0.94997,0.18347 -1.87497,0.44153 -2.7833,0.77505 -0.98337,0.53327 -1.91668,1.15827 -2.78335,1.87485 -0.88338,0.56671 -1.71668,1.21675 -2.49165,1.92509 -0.63332,0.76647 -1.20001,1.58337 -1.70837,2.44166 -0.72497,1.00833 -1.34998,2.08336 -1.84164,3.22501 0,0.20834 -0.23335,0.34208 -0.30829,0.56671 l -34.13333,102.39987 c -1.73335,5.2083 -0.85834,10.9333 2.35832,15.3916 3.21667,4.45 8.38334,7.0751 13.875,7.0667 h 409.60002 c 5.48329,0 10.63331,-2.6417 13.8333,-7.0917 3.20834,-4.45 4.07502,-10.1666 2.35001,-15.3666 L 698.84999,899.14183 c 0,-0.22463 -0.24166,-0.35837 -0.30829,-0.56671 -0.50005,-1.13333 -1.11666,-2.20837 -1.85,-3.20838 -0.49164,-0.86662 -1.06665,-1.68332 -1.69998,-2.45829 -0.77498,-0.70817 -1.60831,-1.3583 -2.49169,-1.92509 -0.86665,-0.71674 -1.79998,-1.3415 -2.7833,-1.87485 -0.90835,-0.33266 -1.84166,-0.59243 -2.78332,-0.77505 -1.18334,-0.38324 -2.40836,-0.63358 -3.65006,-0.7339 -0.24158,0 -0.42492,-0.13375 -0.66667,-0.13375 -47.09164,-0.0857 -85.24995,-38.2416 -85.33334,-85.33324 0.0588,-47.10833 38.22501,-85.27496 85.33334,-85.3333 h 290.1833 C 1001.075,716.79927 1024,693.87433 1024,665.59933 V 51.19995 C 1024,22.924976 1001.075,-1.7313486e-6 972.79998,-1.7313486e-6 Z M 563.2,802.1326 c 0.0832,61.09984 46.18329,112.31656 106.94168,118.79985 l 22.96666,68.93328 H 330.89166 l 22.96667,-68.93328 C 414.61666,914.44916 460.71665,863.23244 460.8,802.1326 460.808,769.99095 447.81664,739.20763 424.77501,716.79931 H 599.22496 C 576.18331,739.20763 563.19165,769.99095 563.2,802.1326 Z M 989.86666,665.59937 c 0,9.42499 -7.64165,17.06667 -17.06668,17.06667 H 51.199998 c -9.425001,0 -17.066666,-7.64168 -17.066666,-17.06667 V 614.39942 H 989.86666 Z M 34.133332,580.26613 V 51.19995 c 0,-9.424989 7.641665,-17.06665 17.066666,-17.06665 H 972.79998 c 9.42503,0 17.06668,7.641661 17.06668,17.06665 V 580.26616 H 34.133332 Z"
     fill="#207ad3"
     id="path3" />
  <path
     d="M 35.772925,27.155276 H 992.69871 V 683.03647 H 35.772925 Z"
     fill="#0000c0"
     id="path4" />
  <path
     d="M 32.413715,25.910336 V 683.05701 H 994.2409 V 25.910336 Z M 70.886782,56.469595 H 340.19844 V 553.15477 H 70.886782 Z m 298.166478,0 H 494.09078 V 553.15477 H 369.05326 Z m 163.51059,0 h 269.3117 V 553.15477 h -269.3117 z m 298.16646,0 H 955.76785 V 553.15477 H 830.73031 Z M 99.741679,155.80663 v 22.92389 H 311.34356 v -22.92389 z m 298.166361,0 v 22.92389 h 67.32795 v -22.92389 z m 163.51071,0 v 22.92389 h 211.60189 v -22.92389 z m 298.16636,0 v 22.92389 h 67.32796 V 155.80663 Z M 99.741679,209.30179 V 232.2257 H 311.34356 v -22.92391 z m 298.166361,0 v 22.92391 h 67.32795 v -22.92391 z m 163.51071,0 v 22.92391 h 211.60189 v -22.92391 z m 298.16636,0 v 22.92391 h 67.32796 V 209.30179 Z M 99.741679,262.79093 V 285.7149 H 311.34356 v -22.92397 z m 298.166361,0 v 22.92397 h 67.32795 v -22.92397 z m 163.51071,0 v 22.92397 h 211.60189 v -22.92397 z m 298.16636,0 v 22.92397 h 67.32796 V 262.79093 Z M 99.741679,316.2801 v 22.92393 H 311.34356 V 316.2801 Z m 298.166361,0 v 22.92393 h 67.32795 V 316.2801 Z M 99.741679,369.76931 v 22.92391 H 311.34356 v -22.92391 z m 298.166361,0 v 22.92391 h 67.32795 V 369.76931 Z M 70.886782,576.08466 H 494.09078 v 76.41312 H 70.886782 Z m 461.677068,0 h 423.204 v 76.41312 h -423.204 z M 90.123337,602.82921 v 22.92393 H 282.48877 v -22.92393 z m 221.220223,0 v 22.92393 h 28.85488 v -22.92393 z m 57.7097,0 v 22.92393 h 86.56445 v -22.92393 z m 182.74713,0 v 22.92393 h 192.36546 v -22.92393 z m 221.22025,0 v 22.92393 h 28.85491 v -22.92393 z m 57.70967,0 v 22.92393 h 86.56448 v -22.92393 z"
     fill="#55ddff"
     style="stroke-width:1.00116"
     id="path5" />
  <path
     d="M 600.80846,79.393513 V 102.32344 H 754.34307 V 79.393513 Z M 140.2046,79.4056 v 22.92402 H 293.73918 V 79.406079 Z m 259.08964,0 v 22.92402 h 76.76735 V 79.40603 Z m 460.60388,0 v 22.92397 h 76.76734 V 79.406079 Z"
     fill="#ffff00"
     id="path6" />
</svg>
