<?xml version="1.0" encoding="UTF-8"?>
<svg xmlns="http://www.w3.org/2000/svg" xmlns:xlink="http://www.w3.org/1999/xlink" width="64" height="64" viewBox="0 0 64 64">
<path fill-rule="nonzero" fill="rgb(60.784314%, 78.823529%, 100%)" fill-opacity="1" d="M 62.933594 37.332031 L 62.933594 41.601562 C 62.929688 42.777344 61.976562 43.730469 60.800781 43.734375 L 42.667969 43.734375 C 39.132812 43.734375 36.265625 46.597656 36.265625 50.132812 C 36.273438 53.664062 39.132812 56.527344 42.667969 56.535156 L 44.800781 62.933594 L 19.199219 62.933594 L 21.332031 56.535156 C 24.867188 56.527344 27.726562 53.664062 27.734375 50.132812 C 27.734375 46.597656 24.867188 43.734375 21.332031 43.734375 L 3.199219 43.734375 C 2.023438 43.730469 1.070312 42.777344 1.066406 41.601562 L 1.066406 37.332031 Z M 62.933594 37.332031 "/>
<path fill-rule="nonzero" fill="rgb(0%, 100%, 0%)" fill-opacity="1" d="M 30.773438 46.289062 L 30.773438 48.582031 L 33.226562 48.582031 L 33.226562 46.289062 Z M 31.664062 46.421875 L 31.667969 46.421875 L 31.667969 48.449219 L 31.664062 48.449219 Z M 32.335938 46.421875 L 32.335938 48.449219 Z M 32.335938 46.421875 "/>
<path fill-rule="nonzero" fill="rgb(12.54902%, 47.843137%, 82.745098%)" fill-opacity="1" d="M 60.800781 0 L 3.199219 0 C 1.433594 0 0 1.433594 0 3.199219 L 0 41.601562 C 0 43.367188 1.433594 44.800781 3.199219 44.800781 L 21.332031 44.800781 C 24.277344 44.804688 26.664062 47.1875 26.667969 50.132812 C 26.660156 53.078125 24.277344 55.460938 21.332031 55.464844 C 21.316406 55.464844 21.308594 55.472656 21.292969 55.476562 C 21.214844 55.480469 21.136719 55.496094 21.0625 55.519531 C 21.003906 55.53125 20.945312 55.546875 20.890625 55.570312 C 20.828125 55.601562 20.769531 55.640625 20.714844 55.6875 C 20.660156 55.722656 20.609375 55.761719 20.558594 55.808594 C 20.519531 55.855469 20.484375 55.90625 20.453125 55.960938 C 20.40625 56.023438 20.367188 56.089844 20.339844 56.160156 C 20.339844 56.175781 20.324219 56.183594 20.320312 56.195312 L 18.183594 62.597656 C 18.078125 62.921875 18.132812 63.28125 18.332031 63.558594 C 18.535156 63.835938 18.855469 64 19.199219 64 L 44.800781 64 C 45.144531 64 45.464844 63.835938 45.664062 63.558594 C 45.863281 63.277344 45.917969 62.921875 45.8125 62.597656 L 43.679688 56.195312 C 43.679688 56.183594 43.664062 56.175781 43.660156 56.160156 C 43.628906 56.089844 43.589844 56.023438 43.542969 55.960938 C 43.511719 55.90625 43.476562 55.855469 43.4375 55.808594 C 43.386719 55.761719 43.335938 55.722656 43.28125 55.6875 C 43.226562 55.640625 43.167969 55.601562 43.105469 55.570312 C 43.050781 55.546875 42.992188 55.53125 42.933594 55.519531 C 42.859375 55.496094 42.78125 55.480469 42.707031 55.476562 C 42.691406 55.476562 42.679688 55.464844 42.664062 55.464844 C 39.71875 55.460938 37.335938 53.078125 37.332031 50.132812 C 37.332031 47.1875 39.71875 44.804688 42.664062 44.800781 L 60.800781 44.800781 C 62.566406 44.800781 64 43.367188 64 41.601562 L 64 3.199219 C 64 1.433594 62.566406 0 60.800781 0 Z M 35.199219 50.132812 C 35.207031 53.953125 38.085938 57.152344 41.882812 57.558594 L 43.320312 61.867188 L 20.679688 61.867188 L 22.117188 57.558594 C 25.914062 57.152344 28.792969 53.953125 28.800781 50.132812 C 28.800781 48.125 27.988281 46.199219 26.546875 44.800781 L 37.453125 44.800781 C 36.011719 46.199219 35.199219 48.125 35.199219 50.132812 Z M 61.867188 41.601562 C 61.867188 42.1875 61.390625 42.667969 60.800781 42.667969 L 3.199219 42.667969 C 2.609375 42.667969 2.132812 42.1875 2.132812 41.601562 L 2.132812 38.398438 L 61.867188 38.398438 Z M 2.132812 36.265625 L 2.132812 3.199219 C 2.132812 2.609375 2.609375 2.132812 3.199219 2.132812 L 60.800781 2.132812 C 61.390625 2.132812 61.867188 2.609375 61.867188 3.199219 L 61.867188 36.265625 Z M 2.132812 36.265625 "/>
<path fill-rule="nonzero" fill="rgb(0%, 0%, 75.294118%)" fill-opacity="1" d="M 2.234375 1.695312 L 62.042969 1.695312 L 62.042969 42.691406 L 2.234375 42.691406 Z M 2.234375 1.695312 "/>
<path fill-rule="nonzero" fill="rgb(33.333333%, 86.666667%, 100%)" fill-opacity="1" d="M 2.027344 1.621094 L 2.027344 42.691406 L 62.140625 42.691406 L 62.140625 1.621094 Z M 4.429688 3.53125 L 21.261719 3.53125 L 21.261719 34.570312 L 4.429688 34.570312 Z M 23.066406 3.53125 L 30.878906 3.53125 L 30.878906 34.570312 L 23.066406 34.570312 Z M 33.285156 3.53125 L 50.117188 3.53125 L 50.117188 34.570312 L 33.285156 34.570312 Z M 51.921875 3.53125 L 59.734375 3.53125 L 59.734375 34.570312 L 51.921875 34.570312 Z M 6.234375 9.738281 L 6.234375 11.171875 L 19.457031 11.171875 L 19.457031 9.738281 Z M 24.871094 9.738281 L 24.871094 11.171875 L 29.078125 11.171875 L 29.078125 9.738281 Z M 35.089844 9.738281 L 35.089844 11.171875 L 48.3125 11.171875 L 48.3125 9.738281 Z M 53.722656 9.738281 L 53.722656 11.171875 L 57.933594 11.171875 L 57.933594 9.738281 Z M 6.234375 13.082031 L 6.234375 14.515625 L 19.457031 14.515625 L 19.457031 13.082031 Z M 24.871094 13.082031 L 24.871094 14.515625 L 29.078125 14.515625 L 29.078125 13.082031 Z M 35.089844 13.082031 L 35.089844 14.515625 L 48.3125 14.515625 L 48.3125 13.082031 Z M 53.722656 13.082031 L 53.722656 14.515625 L 57.933594 14.515625 L 57.933594 13.082031 Z M 6.234375 16.425781 L 6.234375 17.855469 L 19.457031 17.855469 L 19.457031 16.425781 Z M 24.871094 16.425781 L 24.871094 17.855469 L 29.078125 17.855469 L 29.078125 16.425781 Z M 35.089844 16.425781 L 35.089844 17.855469 L 48.3125 17.855469 L 48.3125 16.425781 Z M 53.722656 16.425781 L 53.722656 17.855469 L 57.933594 17.855469 L 57.933594 16.425781 Z M 6.234375 19.765625 L 6.234375 21.199219 L 19.457031 21.199219 L 19.457031 19.765625 Z M 24.871094 19.765625 L 24.871094 21.199219 L 29.078125 21.199219 L 29.078125 19.765625 Z M 6.234375 23.109375 L 6.234375 24.542969 L 19.457031 24.542969 L 19.457031 23.109375 Z M 24.871094 23.109375 L 24.871094 24.542969 L 29.078125 24.542969 L 29.078125 23.109375 Z M 4.429688 36.003906 L 30.878906 36.003906 L 30.878906 40.78125 L 4.429688 40.78125 Z M 33.285156 36.003906 L 59.734375 36.003906 L 59.734375 40.78125 L 33.285156 40.78125 Z M 5.632812 37.675781 L 5.632812 39.109375 L 17.65625 39.109375 L 17.65625 37.675781 Z M 19.457031 37.675781 L 19.457031 39.109375 L 21.261719 39.109375 L 21.261719 37.675781 Z M 23.066406 37.675781 L 23.066406 39.109375 L 28.476562 39.109375 L 28.476562 37.675781 Z M 34.488281 37.675781 L 34.488281 39.109375 L 46.511719 39.109375 L 46.511719 37.675781 Z M 48.3125 37.675781 L 48.3125 39.109375 L 50.117188 39.109375 L 50.117188 37.675781 Z M 51.921875 37.675781 L 51.921875 39.109375 L 57.332031 39.109375 L 57.332031 37.675781 Z M 51.921875 37.675781 "/>
<path fill-rule="nonzero" fill="rgb(100%, 100%, 0%)" fill-opacity="1" d="M 37.550781 4.960938 L 37.550781 6.394531 L 47.144531 6.394531 L 47.144531 4.960938 Z M 8.761719 4.960938 L 8.761719 6.394531 L 18.359375 6.394531 L 18.359375 4.960938 Z M 24.957031 4.960938 L 24.957031 6.394531 L 29.753906 6.394531 L 29.753906 4.960938 Z M 53.742188 4.960938 L 53.742188 6.394531 L 58.542969 6.394531 L 58.542969 4.960938 Z M 53.742188 4.960938 "/>
</svg>
