<svg xmlns="http://www.w3.org/2000/svg" width="64" height="64">
    <path d="M0 953.15h128v128H0Z" style="fill:#00c;fill-opacity:1;stroke-width:1.28" transform="matrix(.5 0 0 .5 0 -476.575)"/>
    <path d="M0 1063.23v17.92h128v-17.92z" style="fill:#2b0000;fill-opacity:1;stroke-width:1.28" transform="matrix(.5 0 0 .5 0 -476.575)"/>
    <path d="M30.72 1072.099v9.05H51.2v-9.05zm25.6 0v9.05H76.8v-9.05zm25.6 0v9.05h20.48v-9.05zm-76.8.092v8.959H25.6v-8.96H5.12Zm102.4 0v8.959H128v-8.96h-20.48z" style="fill:teal;fill-opacity:1;stroke-width:1.28" transform="matrix(.5 0 0 .5 0 -476.575)"/>
    <path d="M0 1063.23v8.96h10.24v-4.48H5.12v-4.48z" style="fill:#e6e6e6;fill-opacity:1;stroke-width:1.28" transform="matrix(.5 0 0 .5 0 -476.575)"/>
    <path d="M0 953.15v110.079h128V953.15Zm5.12 5.119h35.84v83.2H5.12Zm39.68 0h16.64v83.2H44.8Zm21.76 0h35.84v83.2H66.56Zm39.68 0h16.64v83.2h-16.64zm-97.28 16.64v3.84h28.16v-3.84zm39.68 0v3.84h8.96v-3.84zm21.76 0v3.84h28.16v-3.84zm39.68 0v3.84h8.96v-3.84zM8.96 983.87v3.84h28.16v-3.84zm39.68 0v3.84h8.96v-3.84zm21.76 0v3.84h28.16v-3.84zm39.68 0v3.84h8.96v-3.84zM8.96 992.83v3.84h28.16v-3.84zm39.68 0v3.84h8.96v-3.84zm21.76 0v3.84h28.16v-3.84zm39.68 0v3.84h8.96v-3.84zm-101.12 8.96v3.84h28.16v-3.84zm39.68 0v3.84h8.96v-3.84zm-39.68 8.96v3.84h28.16v-3.84zm39.68 0v3.84h8.96v-3.84zm-43.52 34.56h56.32v12.8H5.12Zm61.44 0h56.32v12.8H66.56Zm-58.88 4.48v3.84h25.6v-3.84zm29.44 0v3.84h3.84v-3.84zm7.68 0v3.84h11.52v-3.84zm24.32 0v3.84h25.6v-3.84zm29.44 0v3.84h3.84v-3.84zm7.68 0v3.84h11.52v-3.84z" style="fill:#5df;fill-opacity:1;stroke-width:1.28" transform="matrix(.5 0 0 .5 0 -476.575)"/>
    <path d="M75.52 962.109v3.841H96v-3.841zm-61.44.002v3.84h20.48v-3.84zm34.56 0v3.84h10.24v-3.84zm61.44 0v3.84h10.24v-3.84z" style="fill:#ff0;fill-opacity:1;stroke-width:1.28" transform="matrix(.5 0 0 .5 0 -476.575)"/>
    <g style="clip-rule:evenodd;fill-rule:evenodd;image-rendering:optimizeQuality;shape-rendering:geometricPrecision;text-rendering:geometricPrecision">
        <path d="M205.96 15.509c-58.833.166-117.657.662-176.463 1.492-6.648 3.314-11.148 8.48-13.5 15.5a49726.54 49726.54 0 0 0 0 445.998c2.834 8.167 8.338 13.67 16.504 16.504 116.667.667 233.332.667 349.998 0 8.167-2.833 13.671-8.337 16.504-16.504a9599.42 9599.42 0 0 0 0-196c-1.539-3.02-4.04-4.353-7.5-4-3.59.045-6.091 1.716-7.501 5.005-.333 63.667-.672 127.329-1.005 190.996A6.977 6.977 0 0 1 380.5 478a19452.499 19452.499 0 0 1-341.005 1.502c-3.59-.044-6.08-1.714-7.491-5.003-.5-131-.674-262.005-.507-393.004 120.168-.333 240.174.005 360.006 1.004 3.287-.555 5.787-2.226 7.5-5.004.667-15 .667-29.996 0-44.996-2.833-8.166-8.337-13.67-16.503-16.503-58.862-.497-117.707-.655-176.54-.488Zm231.553 57.988c-5.334 0-10.677 1.836-16.016 5.502a1246.688 1246.688 0 0 1-29.994 29.506 27866.43 27866.43 0 0 1-242.508 244c-1.75 1.99-2.745 4.316-2.994 6.993a2871.497 2871.497 0 0 1-16.504 72.005c.438 5.208 3.276 7.873 8.505 7.999a1035.432 1035.432 0 0 0 78.501-18.504 43153.258 43153.258 0 0 1 175-174.501 13937.14 13937.14 0 0 0 99.501-98.995c6-10.333 6-20.666 0-30.999L453.5 79c-5.327-3.666-10.654-5.502-15.987-5.502zm-194.01 49.005c-58-.167-116.005-.002-174.004.497-6.247 4.514-6.575 9.516-.995 15.002 81.333.5 162.666.665 244 .498 5.905-2.687 7.401-7.022 4.496-13.002a29.468 29.468 0 0 0-4.496-2.498c-22.998-.5-46-.664-69.001-.497zm21 46.995c-65.333-.167-130.667.007-196 .508-5.779 5.876-5.112 10.868 2 14.992 26.332.5 52.664.674 79 .507 38.334.167 76.669-.007 115-.507 5.446-2.11 7.27-5.944 5.492-11.5-1.45-1.964-3.275-3.297-5.491-4zm-122.502 46c-24.5.084-48.998.248-73.497.498-4.253 3.42-5.093 7.592-2.507 12.505a6.976 6.976 0 0 0 3.502 2.497c12.996.5 25.993.674 38.997.507 36.002.167 72.01-.007 108.007-.507 5.424-2.017 7.26-5.85 5.502-11.5-1.638-2.234-3.811-3.566-6.506-4-24.5-.083-48.998-.082-73.498 0zm-58.065 45.858a86.603 86.603 0 0 0-16.437 1.646c-4.425 5.44-3.76 10.105 2 13.997 35.332.5 70.663.664 105.998.497 6.74-2.153 8.574-6.478 5.501-12.992-1.17-1.393-2.667-2.234-4.496-2.507-28.998-.5-57.996-.665-86.997-.498a89.397 89.397 0 0 0-5.569-.143zm19.068 46.144c-11.166 0-22.338.164-33.505.497-1.593.95-2.926 2.117-4 3.502-.84 1.88-1.169 3.878-.994 5.999.728 2.235 2.06 4.07 3.999 5.501 23.333.667 46.663.667 69.996 0 5.83-6.006 5.163-11.008-2-15.002-11.166-.333-22.33-.497-33.496-.497z" style="display:inline;opacity:.997" transform="matrix(.10208 0 0 .10207 -1.582 13.424)"/>
        <path fill="#f68b1d" d="M37.566 17.455c-11.33-.017-22.662 0-33.993.051-1.051.557-1.426 1.424-1.123 2.603h-.816c-.017-.987 0-1.974.05-2.96a.767.767 0 0 1 .46-.46c11.637-.067 23.275-.067 34.912 0 .336.145.506.4.51.766z"/>
        <path fill="#fbb54c" d="M37.566 17.455v2.654H2.45c-.303-1.179.072-2.046 1.123-2.603 11.331-.05 22.662-.068 33.993-.05z"/>
        <path fill="#dedede" d="M38.383 21.844v.715c-5.3.005-10.337 1.128-15.108 3.368-5.92-.017-11.842 0-17.762.051-.638.461-.672.971-.102 1.531 8.302.051 16.605.068 24.908.051-3.488.085-6.993.136-10.515.153a27.424 27.424 0 0 0-3.981 2.858c3.216.018 6.414.069 9.596.154-6.67-.017-13.34 0-20.008.05-.59.6-.522 1.11.204 1.532 2.688.05 5.376.068 8.064.05-.935.953-1.854 1.922-2.756 2.91 3.182.017 6.346.068 9.494.153-5.002-.017-10.004 0-15.006.05-.435.35-.52.775-.256 1.277a.712.712 0 0 0 .358.255c1.326.051 2.653.068 3.98.051-.698.989-1.344 2.01-1.939 3.062a8.888 8.888 0 0 0-2.245.153c-.452.556-.384 1.032.204 1.43 3.606.05 7.213.067 10.82.05-3.249.085-6.516.136-9.8.153a12.72 12.72 0 0 0-1.429 3.318c-.086.191-.12.396-.102.612a.566.566 0 0 1-.153-.306A40.703 40.703 0 0 0 2.45 62.367c-.366-.005-.621-.175-.765-.51-.051-13.372-.068-26.743-.051-40.115 12.267-.034 24.516 0 36.749.102z"/>
        <path fill="#ededed" d="M38.383 22.559v1.94a2844.425 2844.425 0 0 1-24.755 24.905c-.179.203-.28.44-.306.714a293.029 293.029 0 0 1-1.684 7.35c.044.53.333.803.867.816 2.699-.526 5.37-1.156 8.014-1.889a4404.842 4404.842 0 0 1 17.864-17.811v3.266c-.366.005-.622.175-.766.51l-.102 19.496a.712.712 0 0 1-.255.357c-11.595.153-23.198.204-34.81.154a40.703 40.703 0 0 1 2.4-16.842.566.566 0 0 0 .152.306c.075.228.21.415.409.561 2.382.069 4.763.069 7.145 0 .595-.613.527-1.123-.204-1.53-2.28-.069-4.56-.069-6.84 0a1.447 1.447 0 0 0-.408.357 12.72 12.72 0 0 1 1.43-3.318c3.283-.017 6.55-.068 9.8-.153.687-.22.875-.662.56-1.327a.72.72 0 0 0-.459-.255c-2.96-.05-5.92-.068-8.88-.05a35.941 35.941 0 0 1 1.939-3.063c3.675.017 7.35 0 11.025-.051.553-.206.74-.597.561-1.174a.99.99 0 0 0-.663-.408 439.845 439.845 0 0 0-9.494-.153c.902-.988 1.821-1.957 2.756-2.91 3.914.018 7.827 0 11.74-.05.555-.216.743-.607.561-1.174a1.099 1.099 0 0 0-.561-.408 449.38 449.38 0 0 0-9.596-.154 27.424 27.424 0 0 1 3.981-2.858c3.522-.017 7.027-.068 10.515-.153.602-.274.755-.716.459-1.327a3.013 3.013 0 0 0-.46-.255 242.932 242.932 0 0 0-7.043-.05c4.771-2.241 9.807-3.364 15.108-3.37z"/>
        <path fill="#d71b60" d="M47.264 27.152a1.354 1.354 0 0 0-.612-.663c-2.305-1.24-4.619-1.275-6.942-.102a3.71 3.71 0 0 0-.919.765c-.18-.083-.232-.22-.153-.408l4.032-4.032c.273-.068.545-.068.817 0l3.828 3.828c.08.225.064.43-.05.612z"/>
        <path fill="#ea4078" d="M47.264 27.152a62.068 62.068 0 0 1-4.185 4.287 127.469 127.469 0 0 1-4.288-4.287 3.71 3.71 0 0 1 .92-.765c2.322-1.173 4.636-1.139 6.94.102.286.156.49.377.613.663z"/>
        <path fill="#f9a528" d="M41.65 32.868a28.875 28.875 0 0 1-2.042 2.041 127.469 127.469 0 0 1-4.287-4.287c1.114-.57 2.27-.654 3.47-.255a11.136 11.136 0 0 1 2.859 2.501z"/>
        <path fill="#f17a1f" d="M33.79 31.541a8.518 8.518 0 0 1 1.684 1.837L17.099 51.751l-1.633-1.633c-.068-.068-.068-.136 0-.204A4660.547 4660.547 0 0 0 33.789 31.54z"/>
        <path fill="#f38a1d" d="M36.546 34.501a.504.504 0 0 1 .306.051l1.48 1.48c.068.068.068.136 0 .204L19.957 54.61l-1.633-1.633c-.068-.068-.068-.136 0-.204a4615.756 4615.756 0 0 0 18.222-18.27z"/>
        <path fill="#202020" d="M17.865 55.426a2.336 2.336 0 0 0-1.021-.46c-1.15-.223-2.17.033-3.063.766.212-1.198.467-2.39.766-3.573a.515.515 0 0 1 .255-.408 83.415 83.415 0 0 1 3.47 3.47c-.128.089-.264.157-.407.205z"/>
        <path fill="#424242" d="M17.865 55.426c-1.366.28-2.727.586-4.084.918l-.204-.102.204-.51c.892-.733 1.913-.989 3.063-.766.385.074.725.227 1.02.46z"/>
    </g>
</svg>
