<?xml version="1.0" encoding="UTF-8"?>
<svg xmlns="http://www.w3.org/2000/svg" xmlns:xlink="http://www.w3.org/1999/xlink" width="64" height="64" viewBox="0 0 64 64">
<defs>
<filter id="filter-remove-color" x="0%" y="0%" width="100%" height="100%">
<feColorMatrix color-interpolation-filters="sRGB" values="0 0 0 0 1 0 0 0 0 1 0 0 0 0 1 0 0 0 1 0" />
</filter>
<clipPath id="clip-0">
<rect x="0" y="0" width="64" height="64"/>
</clipPath>
<g id="source-12" clip-path="url(#clip-0)">
<path fill-rule="evenodd" fill="rgb(0%, 0%, 0%)" fill-opacity="1" d="M 32.777344 8.695312 C 23.601562 8.617188 14.414062 8.589844 5.214844 8.617188 C 5.203125 18.910156 5.214844 29.199219 5.253906 39.492188 C 5.363281 39.75 5.554688 39.882812 5.828125 39.886719 C 14.535156 39.921875 23.238281 39.882812 31.933594 39.765625 C 32.027344 39.695312 32.089844 39.605469 32.125 39.492188 C 32.152344 34.492188 32.175781 29.488281 32.203125 24.488281 C 32.308594 24.226562 32.5 24.097656 32.777344 24.09375 C 33.042969 24.066406 33.234375 24.171875 33.351562 24.40625 C 33.402344 29.539062 33.402344 34.671875 33.351562 39.804688 C 33.132812 40.449219 32.710938 40.878906 32.085938 41.101562 C 23.15625 41.15625 14.222656 41.15625 5.292969 41.101562 C 4.667969 40.878906 4.246094 40.449219 4.027344 39.804688 C 3.976562 28.125 3.976562 16.449219 4.027344 4.769531 C 4.207031 4.214844 4.554688 3.808594 5.0625 3.550781 C 14.066406 3.417969 23.074219 3.394531 32.085938 3.472656 C 32.710938 3.695312 33.132812 4.125 33.351562 4.769531 C 33.402344 5.945312 33.402344 7.125 33.351562 8.304688 C 33.21875 8.519531 33.027344 8.652344 32.777344 8.695312 Z M 32.777344 8.695312 "/>
</g>
<mask id="mask-0">
<g filter="url(#filter-remove-color)">
<rect x="-6.4" y="-6.4" width="76.8" height="76.8" fill="rgb(0%, 0%, 0%)" fill-opacity="0.99"/>
</g>
</mask>
<clipPath id="clip-1">
<rect x="0" y="0" width="64" height="64"/>
</clipPath>
<g id="source-18" clip-path="url(#clip-1)">
<path fill-rule="evenodd" fill="rgb(1.568627%, 0.784314%, 0.784314%)" fill-opacity="1" d="M 32.777344 21.578125 C 28.300781 26.132812 23.835938 30.703125 19.378906 35.289062 C 17.394531 35.851562 15.394531 36.335938 13.367188 36.742188 C 12.96875 36.734375 12.75 36.523438 12.71875 36.113281 C 13.164062 34.234375 13.582031 32.347656 13.980469 30.457031 C 14 30.246094 14.078125 30.0625 14.210938 29.90625 C 20.445312 23.550781 26.632812 17.160156 32.777344 10.738281 C 33.550781 9.980469 34.316406 9.210938 35.074219 8.421875 C 35.890625 7.84375 36.707031 7.84375 37.523438 8.421875 C 38.480469 9.402344 39.4375 10.386719 40.394531 11.367188 C 40.851562 12.179688 40.851562 12.992188 40.394531 13.800781 C 37.863281 16.410156 35.324219 19.003906 32.777344 21.578125 Z M 32.777344 21.578125 "/>
</g>
</defs>
<path fill-rule="nonzero" fill="rgb(60.784314%, 78.823529%, 100%)" fill-opacity="1" d="M 62.933594 37.332031 L 62.933594 41.601562 C 62.929688 42.777344 61.976562 43.730469 60.800781 43.734375 L 42.667969 43.734375 C 39.132812 43.734375 36.265625 46.597656 36.265625 50.132812 C 36.273438 53.664062 39.132812 56.527344 42.667969 56.535156 L 44.800781 62.933594 L 19.199219 62.933594 L 21.332031 56.535156 C 24.867188 56.527344 27.726562 53.664062 27.734375 50.132812 C 27.734375 46.597656 24.867188 43.734375 21.332031 43.734375 L 3.199219 43.734375 C 2.023438 43.730469 1.070312 42.777344 1.066406 41.601562 L 1.066406 37.332031 Z M 62.933594 37.332031 "/>
<path fill-rule="nonzero" fill="rgb(0%, 100%, 0%)" fill-opacity="1" d="M 30.773438 46.289062 L 30.773438 48.582031 L 33.226562 48.582031 L 33.226562 46.289062 Z M 31.664062 46.421875 L 31.667969 46.421875 L 31.667969 48.449219 L 31.664062 48.449219 Z M 32.335938 46.421875 L 32.335938 48.449219 Z M 32.335938 46.421875 "/>
<path fill-rule="nonzero" fill="rgb(12.54902%, 47.843137%, 82.745098%)" fill-opacity="1" d="M 60.800781 0 L 3.199219 0 C 1.433594 0 0 1.433594 0 3.199219 L 0 41.601562 C 0 43.367188 1.433594 44.800781 3.199219 44.800781 L 21.332031 44.800781 C 24.277344 44.804688 26.664062 47.1875 26.667969 50.132812 C 26.660156 53.078125 24.277344 55.460938 21.332031 55.464844 C 21.316406 55.464844 21.308594 55.472656 21.292969 55.476562 C 21.214844 55.480469 21.136719 55.496094 21.0625 55.519531 C 21.003906 55.53125 20.945312 55.546875 20.890625 55.570312 C 20.828125 55.601562 20.769531 55.640625 20.714844 55.6875 C 20.660156 55.722656 20.609375 55.761719 20.558594 55.808594 C 20.519531 55.855469 20.484375 55.90625 20.453125 55.960938 C 20.40625 56.023438 20.367188 56.089844 20.339844 56.160156 C 20.339844 56.175781 20.324219 56.183594 20.320312 56.195312 L 18.183594 62.597656 C 18.078125 62.921875 18.132812 63.28125 18.332031 63.558594 C 18.535156 63.835938 18.855469 64 19.199219 64 L 44.800781 64 C 45.144531 64 45.464844 63.835938 45.664062 63.558594 C 45.863281 63.277344 45.917969 62.921875 45.8125 62.597656 L 43.679688 56.195312 C 43.679688 56.183594 43.664062 56.175781 43.660156 56.160156 C 43.628906 56.089844 43.589844 56.023438 43.542969 55.960938 C 43.511719 55.90625 43.476562 55.855469 43.4375 55.808594 C 43.386719 55.761719 43.335938 55.722656 43.28125 55.6875 C 43.226562 55.640625 43.167969 55.601562 43.105469 55.570312 C 43.050781 55.546875 42.992188 55.53125 42.933594 55.519531 C 42.859375 55.496094 42.78125 55.480469 42.707031 55.476562 C 42.691406 55.476562 42.679688 55.464844 42.664062 55.464844 C 39.71875 55.460938 37.335938 53.078125 37.332031 50.132812 C 37.332031 47.1875 39.71875 44.804688 42.664062 44.800781 L 60.800781 44.800781 C 62.566406 44.800781 64 43.367188 64 41.601562 L 64 3.199219 C 64 1.433594 62.566406 0 60.800781 0 Z M 35.199219 50.132812 C 35.207031 53.953125 38.085938 57.152344 41.882812 57.558594 L 43.320312 61.867188 L 20.679688 61.867188 L 22.117188 57.558594 C 25.914062 57.152344 28.792969 53.953125 28.800781 50.132812 C 28.800781 48.125 27.988281 46.199219 26.546875 44.800781 L 37.453125 44.800781 C 36.011719 46.199219 35.199219 48.125 35.199219 50.132812 Z M 61.867188 41.601562 C 61.867188 42.1875 61.390625 42.667969 60.800781 42.667969 L 3.199219 42.667969 C 2.609375 42.667969 2.132812 42.1875 2.132812 41.601562 L 2.132812 38.398438 L 61.867188 38.398438 Z M 2.132812 36.265625 L 2.132812 3.199219 C 2.132812 2.609375 2.609375 2.132812 3.199219 2.132812 L 60.800781 2.132812 C 61.390625 2.132812 61.867188 2.609375 61.867188 3.199219 L 61.867188 36.265625 Z M 2.132812 36.265625 "/>
<path fill-rule="nonzero" fill="rgb(0%, 0%, 75.294118%)" fill-opacity="1" d="M 2.234375 1.695312 L 62.042969 1.695312 L 62.042969 42.691406 L 2.234375 42.691406 Z M 2.234375 1.695312 "/>
<path fill-rule="nonzero" fill="rgb(33.333333%, 86.666667%, 100%)" fill-opacity="1" d="M 2.027344 1.621094 L 2.027344 42.691406 L 62.140625 42.691406 L 62.140625 1.621094 Z M 4.429688 3.53125 L 21.261719 3.53125 L 21.261719 34.570312 L 4.429688 34.570312 Z M 23.066406 3.53125 L 30.878906 3.53125 L 30.878906 34.570312 L 23.066406 34.570312 Z M 33.285156 3.53125 L 50.117188 3.53125 L 50.117188 34.570312 L 33.285156 34.570312 Z M 51.921875 3.53125 L 59.734375 3.53125 L 59.734375 34.570312 L 51.921875 34.570312 Z M 6.234375 9.738281 L 6.234375 11.171875 L 19.457031 11.171875 L 19.457031 9.738281 Z M 24.871094 9.738281 L 24.871094 11.171875 L 29.078125 11.171875 L 29.078125 9.738281 Z M 35.089844 9.738281 L 35.089844 11.171875 L 48.3125 11.171875 L 48.3125 9.738281 Z M 53.722656 9.738281 L 53.722656 11.171875 L 57.933594 11.171875 L 57.933594 9.738281 Z M 6.234375 13.082031 L 6.234375 14.515625 L 19.457031 14.515625 L 19.457031 13.082031 Z M 24.871094 13.082031 L 24.871094 14.515625 L 29.078125 14.515625 L 29.078125 13.082031 Z M 35.089844 13.082031 L 35.089844 14.515625 L 48.3125 14.515625 L 48.3125 13.082031 Z M 53.722656 13.082031 L 53.722656 14.515625 L 57.933594 14.515625 L 57.933594 13.082031 Z M 6.234375 16.425781 L 6.234375 17.855469 L 19.457031 17.855469 L 19.457031 16.425781 Z M 24.871094 16.425781 L 24.871094 17.855469 L 29.078125 17.855469 L 29.078125 16.425781 Z M 35.089844 16.425781 L 35.089844 17.855469 L 48.3125 17.855469 L 48.3125 16.425781 Z M 53.722656 16.425781 L 53.722656 17.855469 L 57.933594 17.855469 L 57.933594 16.425781 Z M 6.234375 19.765625 L 6.234375 21.199219 L 19.457031 21.199219 L 19.457031 19.765625 Z M 24.871094 19.765625 L 24.871094 21.199219 L 29.078125 21.199219 L 29.078125 19.765625 Z M 6.234375 23.109375 L 6.234375 24.542969 L 19.457031 24.542969 L 19.457031 23.109375 Z M 24.871094 23.109375 L 24.871094 24.542969 L 29.078125 24.542969 L 29.078125 23.109375 Z M 4.429688 36.003906 L 30.878906 36.003906 L 30.878906 40.78125 L 4.429688 40.78125 Z M 33.285156 36.003906 L 59.734375 36.003906 L 59.734375 40.78125 L 33.285156 40.78125 Z M 5.632812 37.675781 L 5.632812 39.109375 L 17.65625 39.109375 L 17.65625 37.675781 Z M 19.457031 37.675781 L 19.457031 39.109375 L 21.261719 39.109375 L 21.261719 37.675781 Z M 23.066406 37.675781 L 23.066406 39.109375 L 28.476562 39.109375 L 28.476562 37.675781 Z M 34.488281 37.675781 L 34.488281 39.109375 L 46.511719 39.109375 L 46.511719 37.675781 Z M 48.3125 37.675781 L 48.3125 39.109375 L 50.117188 39.109375 L 50.117188 37.675781 Z M 51.921875 37.675781 L 51.921875 39.109375 L 57.332031 39.109375 L 57.332031 37.675781 Z M 51.921875 37.675781 "/>
<path fill-rule="nonzero" fill="rgb(100%, 100%, 0%)" fill-opacity="1" d="M 37.550781 4.960938 L 37.550781 6.394531 L 47.144531 6.394531 L 47.144531 4.960938 Z M 8.761719 4.960938 L 8.761719 6.394531 L 18.359375 6.394531 L 18.359375 4.960938 Z M 24.957031 4.960938 L 24.957031 6.394531 L 29.753906 6.394531 L 29.753906 4.960938 Z M 53.742188 4.960938 L 53.742188 6.394531 L 58.542969 6.394531 L 58.542969 4.960938 Z M 53.742188 4.960938 "/>
<use xlink:href="#source-12"/>
<path fill-rule="evenodd" fill="rgb(96.470588%, 54.509804%, 11.372549%)" fill-opacity="1" d="M 32.164062 5.316406 C 23.664062 5.304688 15.167969 5.316406 6.671875 5.355469 C 5.882812 5.785156 5.601562 6.453125 5.828125 7.359375 C 5.625 7.359375 5.417969 7.359375 5.214844 7.359375 C 5.203125 6.601562 5.214844 5.839844 5.253906 5.082031 C 5.316406 4.910156 5.433594 4.792969 5.597656 4.726562 C 14.324219 4.675781 23.054688 4.675781 31.78125 4.726562 C 32.03125 4.839844 32.160156 5.035156 32.164062 5.316406 Z M 32.164062 5.316406 "/>
<path fill-rule="evenodd" fill="rgb(98.431373%, 70.980392%, 29.803922%)" fill-opacity="1" d="M 32.164062 5.316406 C 32.164062 6 32.164062 6.679688 32.164062 7.359375 C 23.386719 7.359375 14.605469 7.359375 5.828125 7.359375 C 5.601562 6.453125 5.882812 5.785156 6.671875 5.355469 C 15.167969 5.316406 23.664062 5.304688 32.164062 5.316406 Z M 32.164062 5.316406 "/>
<g mask="url(#mask-0)">
<use xlink:href="#source-18"/>
</g>
<path fill-rule="evenodd" fill="rgb(87.058824%, 87.058824%, 87.058824%)" fill-opacity="1" d="M 32.777344 8.695312 C 32.777344 8.878906 32.777344 9.0625 32.777344 9.246094 C 28.800781 9.25 25.023438 10.113281 21.445312 11.839844 C 17.003906 11.824219 12.566406 11.839844 8.125 11.878906 C 7.648438 12.230469 7.621094 12.625 8.046875 13.054688 C 14.273438 13.09375 20.5 13.109375 26.726562 13.09375 C 24.113281 13.160156 21.484375 13.199219 18.84375 13.214844 C 17.785156 13.855469 16.789062 14.589844 15.855469 15.414062 C 18.269531 15.425781 20.667969 15.464844 23.054688 15.53125 C 18.050781 15.515625 13.050781 15.53125 8.046875 15.570312 C 7.605469 16.03125 7.65625 16.425781 8.203125 16.75 C 10.21875 16.789062 12.234375 16.800781 14.25 16.789062 C 13.546875 17.519531 12.859375 18.265625 12.183594 19.027344 C 14.570312 19.039062 16.941406 19.078125 19.300781 19.144531 C 15.550781 19.132812 11.800781 19.144531 8.046875 19.183594 C 7.722656 19.453125 7.660156 19.78125 7.855469 20.164062 C 7.925781 20.261719 8.015625 20.324219 8.125 20.363281 C 9.121094 20.402344 10.113281 20.414062 11.109375 20.402344 C 10.585938 21.164062 10.101562 21.949219 9.65625 22.757812 C 9.085938 22.726562 8.523438 22.765625 7.972656 22.875 C 7.632812 23.304688 7.683594 23.671875 8.125 23.976562 C 10.828125 24.015625 13.535156 24.027344 16.238281 24.015625 C 13.804688 24.082031 11.351562 24.121094 8.890625 24.132812 C 8.402344 24.957031 8.046875 25.808594 7.820312 26.6875 C 7.753906 26.835938 7.730469 26.992188 7.742188 27.15625 C 7.683594 27.097656 7.644531 27.019531 7.628906 26.921875 C 6.136719 31.109375 5.539062 35.429688 5.828125 39.886719 C 5.554688 39.882812 5.363281 39.75 5.253906 39.492188 C 5.214844 29.199219 5.203125 18.910156 5.214844 8.617188 C 14.414062 8.589844 23.601562 8.617188 32.777344 8.695312 Z M 32.777344 8.695312 "/>
<path fill-rule="evenodd" fill="rgb(92.941176%, 92.941176%, 92.941176%)" fill-opacity="1" d="M 32.777344 9.246094 C 32.777344 9.742188 32.777344 10.242188 32.777344 10.738281 C 26.632812 17.160156 20.445312 23.550781 14.210938 29.90625 C 14.078125 30.0625 14 30.246094 13.980469 30.457031 C 13.582031 32.347656 13.164062 34.234375 12.71875 36.113281 C 12.75 36.523438 12.96875 36.734375 13.367188 36.742188 C 15.394531 36.335938 17.394531 35.851562 19.378906 35.289062 C 23.835938 30.703125 28.300781 26.132812 32.777344 21.578125 C 32.777344 22.417969 32.777344 23.257812 32.777344 24.09375 C 32.5 24.097656 32.308594 24.226562 32.203125 24.488281 C 32.175781 29.488281 32.152344 34.492188 32.125 39.492188 C 32.089844 39.605469 32.027344 39.695312 31.933594 39.765625 C 23.238281 39.882812 14.535156 39.921875 5.828125 39.886719 C 5.539062 35.429688 6.136719 31.109375 7.628906 26.921875 C 7.644531 27.019531 7.683594 27.097656 7.742188 27.15625 C 7.796875 27.332031 7.898438 27.476562 8.046875 27.589844 C 9.835938 27.640625 11.621094 27.640625 13.40625 27.589844 C 13.855469 27.117188 13.800781 26.726562 13.253906 26.410156 C 11.542969 26.359375 9.835938 26.359375 8.125 26.410156 C 8.003906 26.484375 7.902344 26.578125 7.820312 26.6875 C 8.046875 25.808594 8.402344 24.957031 8.890625 24.132812 C 11.351562 24.121094 13.804688 24.082031 16.238281 24.015625 C 16.753906 23.847656 16.894531 23.503906 16.660156 22.992188 C 16.570312 22.882812 16.457031 22.820312 16.316406 22.796875 C 14.097656 22.757812 11.875 22.746094 9.65625 22.757812 C 10.101562 21.949219 10.585938 21.164062 11.109375 20.402344 C 13.867188 20.414062 16.621094 20.402344 19.378906 20.363281 C 19.792969 20.203125 19.933594 19.902344 19.800781 19.457031 C 19.675781 19.285156 19.507812 19.179688 19.300781 19.144531 C 16.941406 19.078125 14.570312 19.039062 12.183594 19.027344 C 12.859375 18.265625 13.546875 17.519531 14.25 16.789062 C 17.183594 16.800781 20.117188 16.789062 23.054688 16.75 C 23.46875 16.582031 23.609375 16.28125 23.476562 15.84375 C 23.363281 15.691406 23.222656 15.585938 23.054688 15.53125 C 20.667969 15.464844 18.269531 15.425781 15.855469 15.414062 C 16.789062 14.589844 17.785156 13.855469 18.84375 13.214844 C 21.484375 13.199219 24.113281 13.160156 26.726562 13.09375 C 27.179688 12.882812 27.296875 12.542969 27.074219 12.074219 C 26.964844 12 26.847656 11.933594 26.726562 11.878906 C 24.96875 11.839844 23.207031 11.824219 21.445312 11.839844 C 25.023438 10.113281 28.800781 9.25 32.777344 9.246094 Z M 32.777344 9.246094 "/>
<path fill-rule="evenodd" fill="rgb(84.313725%, 10.588235%, 37.647059%)" fill-opacity="1" d="M 39.4375 12.78125 C 39.34375 12.5625 39.191406 12.390625 38.976562 12.269531 C 37.25 11.316406 35.515625 11.289062 33.773438 12.191406 C 33.507812 12.351562 33.277344 12.546875 33.082031 12.78125 C 32.945312 12.71875 32.910156 12.613281 32.96875 12.464844 C 33.976562 11.433594 34.984375 10.398438 35.992188 9.363281 C 36.195312 9.3125 36.398438 9.3125 36.605469 9.363281 C 37.5625 10.34375 38.519531 11.328125 39.476562 12.308594 C 39.535156 12.484375 39.523438 12.640625 39.4375 12.78125 Z M 39.4375 12.78125 "/>
<path fill-rule="evenodd" fill="rgb(91.764706%, 25.098039%, 47.058824%)" fill-opacity="1" d="M 39.4375 12.78125 C 38.449219 13.925781 37.402344 15.027344 36.296875 16.082031 C 35.199219 15.003906 34.128906 13.90625 33.082031 12.78125 C 33.277344 12.546875 33.507812 12.351562 33.773438 12.191406 C 35.515625 11.289062 37.25 11.316406 38.976562 12.269531 C 39.191406 12.390625 39.34375 12.5625 39.4375 12.78125 Z M 39.4375 12.78125 "/>
<path fill-rule="evenodd" fill="rgb(2.745098%, 2.745098%, 2.745098%)" fill-opacity="1" d="M 21.445312 11.839844 C 23.207031 11.824219 24.96875 11.839844 26.726562 11.878906 C 26.847656 11.933594 26.964844 12 27.074219 12.074219 C 27.296875 12.542969 27.179688 12.882812 26.726562 13.09375 C 20.5 13.109375 14.273438 13.09375 8.046875 13.054688 C 7.621094 12.625 7.648438 12.230469 8.125 11.878906 C 12.566406 11.839844 17.003906 11.824219 21.445312 11.839844 Z M 21.445312 11.839844 "/>
<path fill-rule="evenodd" fill="rgb(94.901961%, 54.117647%, 11.372549%)" fill-opacity="1" d="M 35.226562 17.179688 C 34.617188 16.410156 33.902344 15.769531 33.082031 15.253906 C 32.183594 14.949219 31.316406 15.011719 30.480469 15.453125 C 30.394531 15.402344 30.316406 15.335938 30.25 15.253906 C 30.824219 14.652344 31.414062 14.0625 32.011719 13.488281 C 33.171875 14.640625 34.320312 15.804688 35.457031 16.984375 C 35.390625 17.066406 35.3125 17.132812 35.226562 17.179688 Z M 35.226562 17.179688 "/>
<path fill-rule="evenodd" fill="rgb(97.647059%, 64.705882%, 15.686275%)" fill-opacity="1" d="M 35.226562 17.179688 C 34.742188 17.730469 34.234375 18.253906 33.695312 18.75 C 32.597656 17.675781 31.523438 16.578125 30.480469 15.453125 C 31.316406 15.011719 32.183594 14.949219 33.082031 15.253906 C 33.902344 15.769531 34.617188 16.410156 35.226562 17.179688 Z M 35.226562 17.179688 "/>
<path fill-rule="evenodd" fill="rgb(3.137255%, 3.137255%, 3.137255%)" fill-opacity="1" d="M 23.054688 15.53125 C 23.222656 15.585938 23.363281 15.691406 23.476562 15.84375 C 23.609375 16.28125 23.46875 16.582031 23.054688 16.75 C 20.117188 16.789062 17.183594 16.800781 14.25 16.789062 C 12.234375 16.800781 10.21875 16.789062 8.203125 16.75 C 7.65625 16.425781 7.605469 16.03125 8.046875 15.570312 C 13.050781 15.53125 18.050781 15.515625 23.054688 15.53125 Z M 23.054688 15.53125 "/>
<path fill-rule="evenodd" fill="rgb(94.509804%, 47.843137%, 12.156863%)" fill-opacity="1" d="M 29.332031 16.160156 C 29.832031 16.578125 30.25 17.050781 30.59375 17.574219 C 26 22.285156 21.40625 27 16.8125 31.714844 C 16.40625 31.296875 15.996094 30.875 15.589844 30.457031 C 15.539062 30.40625 15.539062 30.351562 15.589844 30.300781 C 20.183594 25.597656 24.765625 20.882812 29.332031 16.160156 Z M 29.332031 16.160156 "/>
<path fill-rule="evenodd" fill="rgb(95.294118%, 54.117647%, 11.372549%)" fill-opacity="1" d="M 31.398438 18.4375 C 31.480469 18.425781 31.554688 18.4375 31.628906 18.476562 C 31.996094 18.855469 32.367188 19.234375 32.738281 19.617188 C 32.789062 19.667969 32.789062 19.71875 32.738281 19.773438 C 28.144531 24.488281 23.550781 29.199219 18.957031 33.914062 C 18.550781 33.496094 18.140625 33.074219 17.734375 32.65625 C 17.683594 32.605469 17.683594 32.550781 17.734375 32.5 C 22.304688 27.824219 26.859375 23.136719 31.398438 18.4375 Z M 31.398438 18.4375 "/>
<path fill-rule="evenodd" fill="rgb(1.568627%, 1.568627%, 1.568627%)" fill-opacity="1" d="M 19.300781 19.144531 C 19.507812 19.179688 19.675781 19.285156 19.800781 19.457031 C 19.933594 19.902344 19.792969 20.203125 19.378906 20.363281 C 16.621094 20.402344 13.867188 20.414062 11.109375 20.402344 C 10.113281 20.414062 9.121094 20.402344 8.125 20.363281 C 8.015625 20.324219 7.925781 20.261719 7.855469 20.164062 C 7.660156 19.78125 7.722656 19.453125 8.046875 19.183594 C 11.800781 19.144531 15.550781 19.132812 19.300781 19.144531 Z M 19.300781 19.144531 "/>
<path fill-rule="evenodd" fill="rgb(0.392157%, 0.392157%, 0.392157%)" fill-opacity="1" d="M 9.65625 22.757812 C 11.875 22.746094 14.097656 22.757812 16.316406 22.796875 C 16.457031 22.820312 16.570312 22.882812 16.660156 22.992188 C 16.894531 23.503906 16.753906 23.847656 16.238281 24.015625 C 13.535156 24.027344 10.828125 24.015625 8.125 23.976562 C 7.683594 23.671875 7.632812 23.304688 7.972656 22.875 C 8.523438 22.765625 9.085938 22.726562 9.65625 22.757812 Z M 9.65625 22.757812 "/>
<path fill-rule="evenodd" fill="rgb(2.745098%, 2.745098%, 2.745098%)" fill-opacity="1" d="M 7.742188 27.15625 C 7.730469 26.992188 7.753906 26.835938 7.820312 26.6875 C 7.902344 26.578125 8.003906 26.484375 8.125 26.410156 C 9.835938 26.359375 11.542969 26.359375 13.253906 26.410156 C 13.800781 26.726562 13.855469 27.117188 13.40625 27.589844 C 11.621094 27.640625 9.835938 27.640625 8.046875 27.589844 C 7.898438 27.476562 7.796875 27.332031 7.742188 27.15625 Z M 7.742188 27.15625 "/>
<path fill-rule="evenodd" fill="rgb(12.54902%, 12.54902%, 12.54902%)" fill-opacity="1" d="M 17.386719 34.542969 C 17.167969 34.363281 16.910156 34.246094 16.621094 34.1875 C 15.761719 34.015625 14.996094 34.214844 14.324219 34.777344 C 14.484375 33.855469 14.675781 32.9375 14.898438 32.027344 C 14.914062 31.886719 14.980469 31.785156 15.089844 31.714844 C 15.984375 32.578125 16.851562 33.46875 17.695312 34.386719 C 17.597656 34.453125 17.496094 34.503906 17.386719 34.542969 Z M 17.386719 34.542969 "/>
<path fill-rule="evenodd" fill="rgb(25.882353%, 25.882353%, 25.882353%)" fill-opacity="1" d="M 17.386719 34.542969 C 16.363281 34.757812 15.34375 34.992188 14.324219 35.25 C 14.273438 35.222656 14.222656 35.199219 14.171875 35.171875 C 14.222656 35.039062 14.277344 34.90625 14.324219 34.777344 C 14.996094 34.214844 15.761719 34.015625 16.621094 34.1875 C 16.910156 34.246094 17.167969 34.363281 17.386719 34.542969 Z M 17.386719 34.542969 "/>
</svg>
