<?xml version="1.0" encoding="UTF-8"?>
<svg xmlns="http://www.w3.org/2000/svg" xmlns:xlink="http://www.w3.org/1999/xlink" width="1024" height="1024" viewBox="0 0 1024 1024">
<path fill-rule="nonzero" fill="rgb(60.784314%, 78.823529%, 100%)" fill-opacity="1" d="M 1006.933594 597.332031 L 1006.933594 665.597656 C 1006.878906 684.425781 991.625 699.675781 972.800781 699.734375 L 682.667969 699.734375 C 626.117188 699.734375 580.265625 745.582031 580.265625 802.132812 C 580.351562 858.648438 626.148438 904.449219 682.667969 904.53125 L 716.800781 1006.933594 L 307.199219 1006.933594 L 341.332031 904.53125 C 397.851562 904.445312 443.648438 858.648438 443.734375 802.132812 C 443.734375 745.582031 397.882812 699.734375 341.332031 699.734375 L 51.199219 699.734375 C 32.375 699.675781 17.125 684.425781 17.066406 665.597656 L 17.066406 597.332031 Z M 1006.933594 597.332031 "/>
<path fill-rule="nonzero" fill="rgb(0%, 100%, 0%)" fill-opacity="1" d="M 492.386719 740.632812 L 492.386719 777.320312 L 531.613281 777.320312 L 531.613281 740.632812 Z M 506.597656 742.777344 L 506.714844 742.777344 L 506.714844 775.175781 L 506.597656 775.175781 Z M 517.398438 742.777344 L 517.402344 742.777344 L 517.402344 775.175781 L 517.398438 775.175781 Z M 517.398438 742.777344 "/>
<path fill-rule="nonzero" fill="rgb(12.54902%, 47.843137%, 82.745098%)" fill-opacity="1" d="M 972.800781 0 L 51.199219 0 C 22.925781 0 0 22.925781 0 51.199219 L 0 665.597656 C 0 693.875 22.925781 716.800781 51.199219 716.800781 L 341.332031 716.800781 C 388.441406 716.859375 426.609375 755.023438 426.667969 802.132812 C 426.582031 849.222656 388.425781 887.382812 341.332031 887.464844 C 341.089844 887.464844 340.910156 887.582031 340.667969 887.597656 C 339.425781 887.699219 338.199219 887.949219 337.015625 888.332031 C 336.066406 888.515625 335.140625 888.773438 334.234375 889.109375 C 333.25 889.640625 332.316406 890.265625 331.449219 890.984375 C 330.566406 891.550781 329.734375 892.199219 328.957031 892.910156 C 328.324219 893.675781 327.757812 894.492188 327.25 895.351562 C 326.523438 896.359375 325.898438 897.433594 325.410156 898.574219 C 325.410156 898.785156 325.175781 898.917969 325.101562 899.140625 L 290.964844 1001.542969 C 289.234375 1006.75 290.109375 1012.476562 293.324219 1016.933594 C 296.542969 1021.382812 301.707031 1024.007812 307.199219 1024 L 716.800781 1024 C 722.285156 1024 727.433594 1021.359375 730.632812 1016.910156 C 733.839844 1012.457031 734.707031 1006.742188 732.984375 1001.542969 L 698.851562 899.140625 C 698.851562 898.917969 698.609375 898.785156 698.542969 898.574219 C 698.042969 897.441406 697.425781 896.367188 696.691406 895.367188 C 696.199219 894.5 695.625 893.683594 694.992188 892.910156 C 694.214844 892.199219 693.382812 891.550781 692.5 890.984375 C 691.632812 890.265625 690.699219 889.640625 689.714844 889.109375 C 688.808594 888.777344 687.875 888.515625 686.933594 888.332031 C 685.75 887.949219 684.523438 887.699219 683.285156 887.597656 C 683.042969 887.597656 682.859375 887.464844 682.617188 887.464844 C 635.523438 887.378906 597.367188 849.222656 597.285156 802.132812 C 597.34375 755.023438 635.507812 716.859375 682.617188 716.800781 L 972.800781 716.800781 C 1001.074219 716.800781 1024 693.875 1024 665.597656 L 1024 51.199219 C 1024 22.925781 1001.074219 0 972.800781 0 Z M 563.199219 802.132812 C 563.28125 863.234375 609.382812 914.449219 670.140625 920.933594 L 693.109375 989.867188 L 330.890625 989.867188 L 353.859375 920.933594 C 414.617188 914.449219 460.714844 863.234375 460.800781 802.132812 C 460.808594 769.992188 447.816406 739.207031 424.773438 716.800781 L 599.226562 716.800781 C 576.183594 739.207031 563.191406 769.992188 563.199219 802.132812 Z M 989.867188 665.597656 C 989.867188 675.023438 982.226562 682.667969 972.800781 682.667969 L 51.199219 682.667969 C 41.773438 682.667969 34.132812 675.023438 34.132812 665.597656 L 34.132812 614.398438 L 989.867188 614.398438 Z M 34.132812 580.265625 L 34.132812 51.199219 C 34.132812 41.773438 41.773438 34.132812 51.199219 34.132812 L 972.800781 34.132812 C 982.226562 34.132812 989.867188 41.773438 989.867188 51.199219 L 989.867188 580.265625 Z M 34.132812 580.265625 "/>
<path fill-rule="nonzero" fill="rgb(0%, 0%, 75.294118%)" fill-opacity="1" d="M 35.773438 27.15625 L 992.699219 27.15625 L 992.699219 683.035156 L 35.773438 683.035156 Z M 35.773438 27.15625 "/>
<path fill-rule="nonzero" fill="rgb(33.333333%, 86.666667%, 100%)" fill-opacity="1" d="M 32.414062 25.910156 L 32.414062 683.058594 L 994.242188 683.058594 L 994.242188 25.910156 Z M 70.886719 56.46875 L 340.199219 56.46875 L 340.199219 553.15625 L 70.886719 553.15625 Z M 369.054688 56.46875 L 494.089844 56.46875 L 494.089844 553.15625 L 369.054688 553.15625 Z M 532.5625 56.46875 L 801.875 56.46875 L 801.875 553.15625 L 532.5625 553.15625 Z M 830.730469 56.46875 L 955.769531 56.46875 L 955.769531 553.15625 L 830.730469 553.15625 Z M 99.742188 155.804688 L 99.742188 178.730469 L 311.34375 178.730469 L 311.34375 155.804688 Z M 397.90625 155.804688 L 397.90625 178.730469 L 465.234375 178.730469 L 465.234375 155.804688 Z M 561.417969 155.804688 L 561.417969 178.730469 L 773.019531 178.730469 L 773.019531 155.804688 Z M 859.585938 155.804688 L 859.585938 178.730469 L 926.914062 178.730469 L 926.914062 155.804688 Z M 99.742188 209.300781 L 99.742188 232.226562 L 311.34375 232.226562 L 311.34375 209.300781 Z M 397.90625 209.300781 L 397.90625 232.226562 L 465.234375 232.226562 L 465.234375 209.300781 Z M 561.417969 209.300781 L 561.417969 232.226562 L 773.019531 232.226562 L 773.019531 209.300781 Z M 859.585938 209.300781 L 859.585938 232.226562 L 926.914062 232.226562 L 926.914062 209.300781 Z M 99.742188 262.789062 L 99.742188 285.714844 L 311.34375 285.714844 L 311.34375 262.789062 Z M 397.90625 262.789062 L 397.90625 285.714844 L 465.234375 285.714844 L 465.234375 262.789062 Z M 561.417969 262.789062 L 561.417969 285.714844 L 773.019531 285.714844 L 773.019531 262.789062 Z M 859.585938 262.789062 L 859.585938 285.714844 L 926.914062 285.714844 L 926.914062 262.789062 Z M 99.742188 316.28125 L 99.742188 339.203125 L 311.34375 339.203125 L 311.34375 316.28125 Z M 397.90625 316.28125 L 397.90625 339.203125 L 465.234375 339.203125 L 465.234375 316.28125 Z M 99.742188 369.769531 L 99.742188 392.691406 L 311.34375 392.691406 L 311.34375 369.769531 Z M 397.90625 369.769531 L 397.90625 392.691406 L 465.234375 392.691406 L 465.234375 369.769531 Z M 70.886719 576.085938 L 494.089844 576.085938 L 494.089844 652.496094 L 70.886719 652.496094 Z M 532.5625 576.085938 L 955.769531 576.085938 L 955.769531 652.496094 L 532.5625 652.496094 Z M 90.125 602.828125 L 90.125 625.753906 L 282.488281 625.753906 L 282.488281 602.828125 Z M 311.34375 602.828125 L 311.34375 625.753906 L 340.199219 625.753906 L 340.199219 602.828125 Z M 369.054688 602.828125 L 369.054688 625.753906 L 455.617188 625.753906 L 455.617188 602.828125 Z M 551.800781 602.828125 L 551.800781 625.753906 L 744.164062 625.753906 L 744.164062 602.828125 Z M 773.019531 602.828125 L 773.019531 625.753906 L 801.875 625.753906 L 801.875 602.828125 Z M 830.730469 602.828125 L 830.730469 625.753906 L 917.292969 625.753906 L 917.292969 602.828125 Z M 830.730469 602.828125 "/>
<path fill-rule="nonzero" fill="rgb(100%, 100%, 0%)" fill-opacity="1" d="M 600.808594 79.394531 L 600.808594 102.324219 L 754.34375 102.324219 L 754.34375 79.394531 Z M 140.203125 79.40625 L 140.203125 102.328125 L 293.738281 102.328125 L 293.738281 79.40625 Z M 399.292969 79.40625 L 399.292969 102.328125 L 476.0625 102.328125 L 476.0625 79.40625 Z M 859.898438 79.40625 L 859.898438 102.328125 L 936.664062 102.328125 L 936.664062 79.40625 Z M 859.898438 79.40625 "/>
</svg>
