<svg xmlns="http://www.w3.org/2000/svg" width="1024" height="1024">
    <path d="M0 953.15h128v128H0Z" style="fill:#00c;fill-opacity:1;stroke-width:1.28" transform="matrix(8 0 0 8 0 -7625.2)"/>
    <path d="M0 1063.23v17.92h128v-17.92z" style="fill:#2b0000;fill-opacity:1;stroke-width:1.28" transform="matrix(8 0 0 8 0 -7625.2)"/>
    <path d="M30.72 1072.099v9.05H51.2v-9.05zm25.6 0v9.05H76.8v-9.05zm25.6 0v9.05h20.48v-9.05zm-76.8.092v8.959H25.6v-8.96H5.12Zm102.4 0v8.959H128v-8.96h-20.48z" style="fill:teal;fill-opacity:1;stroke-width:1.28" transform="matrix(8 0 0 8 0 -7625.2)"/>
    <path d="M0 1063.23v8.96h10.24v-4.48H5.12v-4.48z" style="fill:#e6e6e6;fill-opacity:1;stroke-width:1.28" transform="matrix(8 0 0 8 0 -7625.2)"/>
    <path d="M0 953.15v110.079h128V953.15Zm5.12 5.119h35.84v83.2H5.12Zm39.68 0h16.64v83.2H44.8Zm21.76 0h35.84v83.2H66.56Zm39.68 0h16.64v83.2h-16.64zm-97.28 16.64v3.84h28.16v-3.84zm39.68 0v3.84h8.96v-3.84zm21.76 0v3.84h28.16v-3.84zm39.68 0v3.84h8.96v-3.84zM8.96 983.87v3.84h28.16v-3.84zm39.68 0v3.84h8.96v-3.84zm21.76 0v3.84h28.16v-3.84zm39.68 0v3.84h8.96v-3.84zM8.96 992.83v3.84h28.16v-3.84zm39.68 0v3.84h8.96v-3.84zm21.76 0v3.84h28.16v-3.84zm39.68 0v3.84h8.96v-3.84zm-101.12 8.96v3.84h28.16v-3.84zm39.68 0v3.84h8.96v-3.84zm-39.68 8.96v3.84h28.16v-3.84zm39.68 0v3.84h8.96v-3.84zm-43.52 34.56h56.32v12.8H5.12Zm61.44 0h56.32v12.8H66.56Zm-58.88 4.48v3.84h25.6v-3.84zm29.44 0v3.84h3.84v-3.84zm7.68 0v3.84h11.52v-3.84zm24.32 0v3.84h25.6v-3.84zm29.44 0v3.84h3.84v-3.84zm7.68 0v3.84h11.52v-3.84z" style="fill:#5df;fill-opacity:1;stroke-width:1.28" transform="matrix(8 0 0 8 0 -7625.2)"/>
    <path d="M75.52 962.109v3.841H96v-3.841zm-61.44.002v3.84h20.48v-3.84zm34.56 0v3.84h10.24v-3.84zm61.44 0v3.84h10.24v-3.84z" style="fill:#ff0;fill-opacity:1;stroke-width:1.28" transform="matrix(8 0 0 8 0 -7625.2)"/>
    <g style="clip-rule:evenodd;fill-rule:evenodd;image-rendering:optimizeQuality;shape-rendering:geometricPrecision;text-rendering:geometricPrecision">
        <path d="M205.96 15.509c-58.833.166-117.657.662-176.463 1.492-6.648 3.314-11.148 8.48-13.5 15.5a49726.54 49726.54 0 0 0 0 445.998c2.834 8.167 8.338 13.67 16.504 16.504 116.667.667 233.332.667 349.998 0 8.167-2.833 13.671-8.337 16.504-16.504a9599.42 9599.42 0 0 0 0-196c-1.539-3.02-4.04-4.353-7.5-4-3.59.045-6.091 1.716-7.501 5.005-.333 63.667-.672 127.329-1.005 190.996A6.977 6.977 0 0 1 380.5 478a19452.499 19452.499 0 0 1-341.005 1.502c-3.59-.044-6.08-1.714-7.491-5.003-.5-131-.674-262.005-.507-393.004 120.168-.333 240.174.005 360.006 1.004 3.287-.555 5.787-2.226 7.5-5.004.667-15 .667-29.996 0-44.996-2.833-8.166-8.337-13.67-16.503-16.503-58.862-.497-117.707-.655-176.54-.488Zm231.553 57.988c-5.334 0-10.677 1.836-16.016 5.502a1246.688 1246.688 0 0 1-29.994 29.506 27866.43 27866.43 0 0 1-242.508 244c-1.75 1.99-2.745 4.316-2.994 6.993a2871.497 2871.497 0 0 1-16.504 72.005c.438 5.208 3.276 7.873 8.505 7.999a1035.432 1035.432 0 0 0 78.501-18.504 43153.258 43153.258 0 0 1 175-174.501 13937.14 13937.14 0 0 0 99.501-98.995c6-10.333 6-20.666 0-30.999L453.5 79c-5.327-3.666-10.654-5.502-15.987-5.502zm-194.01 49.005c-58-.167-116.005-.002-174.004.497-6.247 4.514-6.575 9.516-.995 15.002 81.333.5 162.666.665 244 .498 5.905-2.687 7.401-7.022 4.496-13.002a29.468 29.468 0 0 0-4.496-2.498c-22.998-.5-46-.664-69.001-.497zm21 46.995c-65.333-.167-130.667.007-196 .508-5.779 5.876-5.112 10.868 2 14.992 26.332.5 52.664.674 79 .507 38.334.167 76.669-.007 115-.507 5.446-2.11 7.27-5.944 5.492-11.5-1.45-1.964-3.275-3.297-5.491-4zm-122.502 46c-24.5.084-48.998.248-73.497.498-4.253 3.42-5.093 7.592-2.507 12.505a6.976 6.976 0 0 0 3.502 2.497c12.996.5 25.993.674 38.997.507 36.002.167 72.01-.007 108.007-.507 5.424-2.017 7.26-5.85 5.502-11.5-1.638-2.234-3.811-3.566-6.506-4-24.5-.083-48.998-.082-73.498 0zm-58.065 45.858a86.603 86.603 0 0 0-16.437 1.646c-4.425 5.44-3.76 10.105 2 13.997 35.332.5 70.663.664 105.998.497 6.74-2.153 8.574-6.478 5.501-12.992-1.17-1.393-2.667-2.234-4.496-2.507-28.998-.5-57.996-.665-86.997-.498a89.397 89.397 0 0 0-5.569-.143zm19.068 46.144c-11.166 0-22.338.164-33.505.497-1.593.95-2.926 2.117-4 3.502-.84 1.88-1.169 3.878-.994 5.999.728 2.235 2.06 4.07 3.999 5.501 23.333.667 46.663.667 69.996 0 5.83-6.006 5.163-11.008-2-15.002-11.166-.333-22.33-.497-33.496-.497z" style="display:inline;opacity:.997" transform="matrix(1.6333 0 0 1.63313 -25.312 214.777)"/>
        <path fill="#f68b1d" d="M601.062 279.286c-181.299-.273-362.596 0-543.892.816-16.822 8.898-22.811 22.78-17.966 41.645H26.137c-.272-15.796 0-31.583.817-47.36 1.36-3.54 3.81-5.989 7.35-7.35a47762.759 47762.759 0 0 1 558.591 0c5.372 2.303 8.095 6.386 8.167 12.249z"/>
        <path fill="#fbb54c" d="M601.062 279.286v42.461H39.204C34.359 302.882 40.348 289 57.17 280.102a90563.34 90563.34 0 0 1 543.892-.816z"/>
        <path fill="#dedede" d="M614.129 349.51v11.432c-84.812.08-165.39 18.045-241.73 53.894-94.734-.273-189.466 0-284.196.816C78 423.024 77.455 431.19 86.57 440.15c132.842.817 265.683 1.09 398.527.817a8638.506 8638.506 0 0 1-168.23 2.45 438.781 438.781 0 0 0-63.7 45.727c51.454.275 102.63 1.091 153.531 2.45-106.71-.273-213.421 0-320.128.817-9.44 9.596-8.351 17.762 3.266 24.497a5095.07 5095.07 0 0 0 129.032.816 1784.084 1784.084 0 0 0-44.1 46.545 7037.52 7037.52 0 0 1 151.898 2.45 17640.5 17640.5 0 0 0-240.096.816c-6.947 5.585-8.308 12.39-4.084 20.414 1.474 1.961 3.38 3.323 5.717 4.083 21.226.816 42.459 1.09 63.699.816a575.06 575.06 0 0 0-31.033 48.994c-12.164-.7-24.141.116-35.933 2.45-7.228 8.886-6.14 16.508 3.267 22.864 57.708.817 115.418 1.09 173.13.817a7500.596 7500.596 0 0 1-156.797 2.45c-10.375 17.136-17.997 34.827-22.866 53.076-1.375 3.069-1.919 6.335-1.634 9.799-1.254-1.246-2.07-2.88-2.45-4.9-31.763 87.04-44.557 176.862-38.382 269.468-5.864-.072-9.947-2.795-12.25-8.166-.817-213.94-1.09-427.881-.817-641.822 196.272-.543 392.269.001 587.992 1.633z"/>
        <path fill="#ededed" d="M614.129 360.942v31.03A45510.803 45510.803 0 0 1 218.05 790.457c-2.86 3.25-4.493 7.06-4.9 11.432a4688.458 4688.458 0 0 1-26.95 117.585c.716 8.506 5.343 12.86 13.884 13.065a1691.249 1691.249 0 0 0 128.214-30.213 70477.477 70477.477 0 0 1 285.83-284.982v52.26c-5.864.073-9.947 2.795-12.25 8.166L600.245 989.7c-.76 2.337-2.121 4.241-4.083 5.716a31774.513 31774.513 0 0 1-556.958 2.45c-6.175-92.606 6.62-182.428 38.382-269.468.38 2.02 1.196 3.654 2.45 4.9 1.19 3.65 3.367 6.643 6.534 8.982 38.11 1.09 76.221 1.09 114.331 0 9.522-9.808 8.433-17.974-3.266-24.497a1832.671 1832.671 0 0 0-109.432 0c-2.602 1.55-4.78 3.454-6.533 5.716 4.869-18.249 12.49-35.94 22.866-53.077a7500.596 7500.596 0 0 0 156.798-2.45c11.007-3.516 14.002-10.592 8.983-21.23-1.913-2.275-4.363-3.637-7.35-4.083a6179.132 6179.132 0 0 0-142.098-.817 575.06 575.06 0 0 1 31.033-48.994c58.802.273 117.601 0 176.397-.816 8.86-3.294 11.855-9.554 8.984-18.781-2.676-3.649-6.215-5.826-10.617-6.533a7037.52 7037.52 0 0 0-151.898-2.45 1784.084 1784.084 0 0 1 44.1-46.544c62.613.273 125.222 0 187.83-.816 8.894-3.446 11.887-9.708 8.983-18.781-2.37-3.208-5.363-5.385-8.983-6.533a7190.067 7190.067 0 0 0-153.53-2.45 438.781 438.781 0 0 1 63.698-45.727c56.353-.275 112.43-1.091 168.231-2.45 9.645-4.388 12.095-11.465 7.35-21.23a48.211 48.211 0 0 0-7.35-4.084c-37.563-.816-75.129-1.089-112.698-.816 76.34-35.85 156.918-53.814 241.73-53.894z"/>
        <path fill="#d71b60" d="M756.226 434.433c-1.97-4.57-5.236-8.108-9.8-10.615-36.873-19.843-73.894-20.386-111.064-1.633-5.619 3.335-10.519 7.418-14.7 12.248-2.896-1.329-3.713-3.508-2.45-6.532l64.516-64.509a26.543 26.543 0 0 1 13.066 0l61.25 61.243c1.288 3.612 1.015 6.878-.818 9.798z"/>
        <path fill="#ea4078" d="M756.226 434.433a993.084 993.084 0 0 1-66.965 68.592 2039.503 2039.503 0 0 1-68.6-68.592c4.182-4.83 9.082-8.913 14.7-12.248 37.171-18.753 74.192-18.21 111.066 1.633 4.563 2.507 7.83 6.046 9.8 10.615z"/>
        <path fill="#f9a528" d="M666.394 525.889a462.002 462.002 0 0 1-32.666 32.663 2039.503 2039.503 0 0 1-68.599-68.592c17.831-9.12 36.341-10.48 55.533-4.083 17.494 10.682 32.738 24.02 45.732 40.012z"/>
        <path fill="#f17a1f" d="M540.63 504.658c10.646 8.72 19.629 18.518 26.95 29.397L273.582 828.019l-26.132-26.13c-1.09-1.09-1.09-2.177 0-3.267A74568.75 74568.75 0 0 0 540.63 504.658z"/>
        <path fill="#f38a1d" d="M584.729 552.019a8.06 8.06 0 0 1 4.9.817l23.683 23.68c1.09 1.09 1.09 2.177 0 3.266L319.316 873.746l-26.133-26.13c-1.09-1.089-1.09-2.177 0-3.266A73852.093 73852.093 0 0 0 584.73 552.019z"/>
        <path fill="#202020" d="M285.833 886.811c-4.731-3.72-10.175-6.17-16.333-7.349-18.394-3.568-34.727.515-49 12.249a798.152 798.152 0 0 1 12.25-57.16c.32-2.917 1.681-5.094 4.084-6.532a1334.642 1334.642 0 0 1 55.533 55.526 26.676 26.676 0 0 1-6.534 3.266z"/>
        <path fill="#424242" d="M285.833 886.811a1752.59 1752.59 0 0 0-65.332 14.699c-1.09-.544-2.177-1.09-3.267-1.633 1.101-2.769 2.19-5.491 3.267-8.166 14.272-11.734 30.605-15.817 49-12.249 6.157 1.18 11.6 3.63 16.332 7.35z"/>
    </g>
</svg>
