<?xml version="1.0" encoding="UTF-8"?>
<svg xmlns="http://www.w3.org/2000/svg" xmlns:xlink="http://www.w3.org/1999/xlink" width="1024" height="1024" viewBox="0 0 1024 1024">
<defs>
<filter id="filter-remove-color" x="0%" y="0%" width="100%" height="100%">
<feColorMatrix color-interpolation-filters="sRGB" values="0 0 0 0 1 0 0 0 0 1 0 0 0 0 1 0 0 0 1 0" />
</filter>
<clipPath id="clip-0">
<rect x="0" y="0" width="1024" height="1024"/>
</clipPath>
<g id="source-12" clip-path="url(#clip-0)">
<path fill-rule="evenodd" fill="rgb(0%, 0%, 0%)" fill-opacity="1" d="M 524.421875 139.132812 C 377.636719 137.875 230.644531 137.457031 83.449219 137.875 C 83.246094 302.542969 83.449219 467.207031 84.0625 631.871094 C 85.789062 636.007812 88.851562 638.101562 93.25 638.15625 C 232.582031 638.78125 371.8125 638.152344 510.949219 636.273438 C 512.417969 635.136719 513.441406 633.671875 514.011719 631.871094 C 514.417969 551.84375 514.828125 471.816406 515.234375 391.789062 C 516.960938 387.652344 520.023438 385.558594 524.421875 385.503906 C 528.660156 385.058594 531.722656 386.734375 533.609375 390.53125 C 534.425781 472.652344 534.425781 554.777344 533.609375 636.902344 C 530.140625 647.167969 523.402344 654.078125 513.398438 657.640625 C 370.488281 658.480469 227.582031 658.480469 84.675781 657.640625 C 74.671875 654.078125 67.933594 647.167969 64.464844 636.902344 C 63.648438 450.027344 63.648438 263.15625 64.464844 76.285156 C 67.34375 67.460938 72.855469 60.964844 81 56.800781 C 225.0625 54.710938 369.195312 54.292969 513.398438 55.542969 C 523.402344 59.105469 530.140625 66.019531 533.609375 76.285156 C 534.425781 95.136719 534.425781 113.992188 533.609375 132.847656 C 531.511719 136.339844 528.449219 138.433594 524.421875 139.132812 Z M 524.421875 139.132812 "/>
</g>
<mask id="mask-0">
<g filter="url(#filter-remove-color)">
<rect x="-102.4" y="-102.4" width="1228.8" height="1228.8" fill="rgb(0%, 0%, 0%)" fill-opacity="0.99"/>
</g>
</mask>
<clipPath id="clip-1">
<rect x="0" y="0" width="1024" height="1024"/>
</clipPath>
<g id="source-18" clip-path="url(#clip-1)">
<path fill-rule="evenodd" fill="rgb(1.568627%, 0.784314%, 0.784314%)" fill-opacity="1" d="M 524.421875 345.277344 C 452.808594 418.140625 381.351562 491.253906 310.058594 564.625 C 278.339844 573.648438 246.289062 581.398438 213.902344 587.878906 C 207.5 587.71875 204.027344 584.367188 203.492188 577.820312 C 210.605469 547.746094 217.34375 517.578125 223.703125 487.320312 C 224.007812 483.953125 225.234375 481.019531 227.378906 478.519531 C 327.109375 376.808594 426.121094 274.574219 524.421875 171.816406 C 536.832031 159.707031 549.082031 147.347656 561.167969 134.734375 C 574.25 125.519531 587.316406 125.519531 600.367188 134.734375 C 615.679688 150.445312 630.992188 166.160156 646.300781 181.871094 C 653.652344 194.859375 653.652344 207.847656 646.300781 220.835938 C 605.835938 262.570312 565.210938 304.050781 524.421875 345.277344 Z M 524.421875 345.277344 "/>
</g>
</defs>
<path fill-rule="nonzero" fill="rgb(60.784314%, 78.823529%, 100%)" fill-opacity="1" d="M 1006.933594 597.332031 L 1006.933594 665.597656 C 1006.878906 684.425781 991.625 699.675781 972.800781 699.734375 L 682.667969 699.734375 C 626.117188 699.734375 580.265625 745.582031 580.265625 802.132812 C 580.351562 858.648438 626.148438 904.449219 682.667969 904.53125 L 716.800781 1006.933594 L 307.199219 1006.933594 L 341.332031 904.53125 C 397.851562 904.445312 443.648438 858.648438 443.734375 802.132812 C 443.734375 745.582031 397.882812 699.734375 341.332031 699.734375 L 51.199219 699.734375 C 32.375 699.675781 17.125 684.425781 17.066406 665.597656 L 17.066406 597.332031 Z M 1006.933594 597.332031 "/>
<path fill-rule="nonzero" fill="rgb(0%, 100%, 0%)" fill-opacity="1" d="M 492.386719 740.632812 L 492.386719 777.320312 L 531.613281 777.320312 L 531.613281 740.632812 Z M 506.597656 742.777344 L 506.714844 742.777344 L 506.714844 775.175781 L 506.597656 775.175781 Z M 517.398438 742.777344 L 517.402344 742.777344 L 517.402344 775.175781 L 517.398438 775.175781 Z M 517.398438 742.777344 "/>
<path fill-rule="nonzero" fill="rgb(12.54902%, 47.843137%, 82.745098%)" fill-opacity="1" d="M 972.800781 0 L 51.199219 0 C 22.925781 0 0 22.925781 0 51.199219 L 0 665.597656 C 0 693.875 22.925781 716.800781 51.199219 716.800781 L 341.332031 716.800781 C 388.441406 716.859375 426.609375 755.023438 426.667969 802.132812 C 426.582031 849.222656 388.425781 887.382812 341.332031 887.464844 C 341.089844 887.464844 340.910156 887.582031 340.667969 887.597656 C 339.425781 887.699219 338.199219 887.949219 337.015625 888.332031 C 336.066406 888.515625 335.140625 888.773438 334.234375 889.109375 C 333.25 889.640625 332.316406 890.265625 331.449219 890.984375 C 330.566406 891.550781 329.734375 892.199219 328.957031 892.910156 C 328.324219 893.675781 327.757812 894.492188 327.25 895.351562 C 326.523438 896.359375 325.898438 897.433594 325.410156 898.574219 C 325.410156 898.785156 325.175781 898.917969 325.101562 899.140625 L 290.964844 1001.542969 C 289.234375 1006.75 290.109375 1012.476562 293.324219 1016.933594 C 296.542969 1021.382812 301.707031 1024.007812 307.199219 1024 L 716.800781 1024 C 722.285156 1024 727.433594 1021.359375 730.632812 1016.910156 C 733.839844 1012.457031 734.707031 1006.742188 732.984375 1001.542969 L 698.851562 899.140625 C 698.851562 898.917969 698.609375 898.785156 698.542969 898.574219 C 698.042969 897.441406 697.425781 896.367188 696.691406 895.367188 C 696.199219 894.5 695.625 893.683594 694.992188 892.910156 C 694.214844 892.199219 693.382812 891.550781 692.5 890.984375 C 691.632812 890.265625 690.699219 889.640625 689.714844 889.109375 C 688.808594 888.777344 687.875 888.515625 686.933594 888.332031 C 685.75 887.949219 684.523438 887.699219 683.285156 887.597656 C 683.042969 887.597656 682.859375 887.464844 682.617188 887.464844 C 635.523438 887.378906 597.367188 849.222656 597.285156 802.132812 C 597.34375 755.023438 635.507812 716.859375 682.617188 716.800781 L 972.800781 716.800781 C 1001.074219 716.800781 1024 693.875 1024 665.597656 L 1024 51.199219 C 1024 22.925781 1001.074219 0 972.800781 0 Z M 563.199219 802.132812 C 563.28125 863.234375 609.382812 914.449219 670.140625 920.933594 L 693.109375 989.867188 L 330.890625 989.867188 L 353.859375 920.933594 C 414.617188 914.449219 460.714844 863.234375 460.800781 802.132812 C 460.808594 769.992188 447.816406 739.207031 424.773438 716.800781 L 599.226562 716.800781 C 576.183594 739.207031 563.191406 769.992188 563.199219 802.132812 Z M 989.867188 665.597656 C 989.867188 675.023438 982.226562 682.667969 972.800781 682.667969 L 51.199219 682.667969 C 41.773438 682.667969 34.132812 675.023438 34.132812 665.597656 L 34.132812 614.398438 L 989.867188 614.398438 Z M 34.132812 580.265625 L 34.132812 51.199219 C 34.132812 41.773438 41.773438 34.132812 51.199219 34.132812 L 972.800781 34.132812 C 982.226562 34.132812 989.867188 41.773438 989.867188 51.199219 L 989.867188 580.265625 Z M 34.132812 580.265625 "/>
<path fill-rule="nonzero" fill="rgb(0%, 0%, 75.294118%)" fill-opacity="1" d="M 35.773438 27.15625 L 992.699219 27.15625 L 992.699219 683.035156 L 35.773438 683.035156 Z M 35.773438 27.15625 "/>
<path fill-rule="nonzero" fill="rgb(33.333333%, 86.666667%, 100%)" fill-opacity="1" d="M 32.414062 25.910156 L 32.414062 683.058594 L 994.242188 683.058594 L 994.242188 25.910156 Z M 70.886719 56.46875 L 340.199219 56.46875 L 340.199219 553.15625 L 70.886719 553.15625 Z M 369.054688 56.46875 L 494.089844 56.46875 L 494.089844 553.15625 L 369.054688 553.15625 Z M 532.5625 56.46875 L 801.875 56.46875 L 801.875 553.15625 L 532.5625 553.15625 Z M 830.730469 56.46875 L 955.769531 56.46875 L 955.769531 553.15625 L 830.730469 553.15625 Z M 99.742188 155.804688 L 99.742188 178.730469 L 311.34375 178.730469 L 311.34375 155.804688 Z M 397.90625 155.804688 L 397.90625 178.730469 L 465.234375 178.730469 L 465.234375 155.804688 Z M 561.417969 155.804688 L 561.417969 178.730469 L 773.019531 178.730469 L 773.019531 155.804688 Z M 859.585938 155.804688 L 859.585938 178.730469 L 926.914062 178.730469 L 926.914062 155.804688 Z M 99.742188 209.300781 L 99.742188 232.226562 L 311.34375 232.226562 L 311.34375 209.300781 Z M 397.90625 209.300781 L 397.90625 232.226562 L 465.234375 232.226562 L 465.234375 209.300781 Z M 561.417969 209.300781 L 561.417969 232.226562 L 773.019531 232.226562 L 773.019531 209.300781 Z M 859.585938 209.300781 L 859.585938 232.226562 L 926.914062 232.226562 L 926.914062 209.300781 Z M 99.742188 262.789062 L 99.742188 285.714844 L 311.34375 285.714844 L 311.34375 262.789062 Z M 397.90625 262.789062 L 397.90625 285.714844 L 465.234375 285.714844 L 465.234375 262.789062 Z M 561.417969 262.789062 L 561.417969 285.714844 L 773.019531 285.714844 L 773.019531 262.789062 Z M 859.585938 262.789062 L 859.585938 285.714844 L 926.914062 285.714844 L 926.914062 262.789062 Z M 99.742188 316.28125 L 99.742188 339.203125 L 311.34375 339.203125 L 311.34375 316.28125 Z M 397.90625 316.28125 L 397.90625 339.203125 L 465.234375 339.203125 L 465.234375 316.28125 Z M 99.742188 369.769531 L 99.742188 392.691406 L 311.34375 392.691406 L 311.34375 369.769531 Z M 397.90625 369.769531 L 397.90625 392.691406 L 465.234375 392.691406 L 465.234375 369.769531 Z M 70.886719 576.085938 L 494.089844 576.085938 L 494.089844 652.496094 L 70.886719 652.496094 Z M 532.5625 576.085938 L 955.769531 576.085938 L 955.769531 652.496094 L 532.5625 652.496094 Z M 90.125 602.828125 L 90.125 625.753906 L 282.488281 625.753906 L 282.488281 602.828125 Z M 311.34375 602.828125 L 311.34375 625.753906 L 340.199219 625.753906 L 340.199219 602.828125 Z M 369.054688 602.828125 L 369.054688 625.753906 L 455.617188 625.753906 L 455.617188 602.828125 Z M 551.800781 602.828125 L 551.800781 625.753906 L 744.164062 625.753906 L 744.164062 602.828125 Z M 773.019531 602.828125 L 773.019531 625.753906 L 801.875 625.753906 L 801.875 602.828125 Z M 830.730469 602.828125 L 830.730469 625.753906 L 917.292969 625.753906 L 917.292969 602.828125 Z M 830.730469 602.828125 "/>
<path fill-rule="nonzero" fill="rgb(100%, 100%, 0%)" fill-opacity="1" d="M 600.808594 79.394531 L 600.808594 102.324219 L 754.34375 102.324219 L 754.34375 79.394531 Z M 140.203125 79.40625 L 140.203125 102.328125 L 293.738281 102.328125 L 293.738281 79.40625 Z M 399.292969 79.40625 L 399.292969 102.328125 L 476.0625 102.328125 L 476.0625 79.40625 Z M 859.898438 79.40625 L 859.898438 102.328125 L 936.664062 102.328125 L 936.664062 79.40625 Z M 859.898438 79.40625 "/>
<use xlink:href="#source-12"/>
<path fill-rule="evenodd" fill="rgb(96.470588%, 54.509804%, 11.372549%)" fill-opacity="1" d="M 514.621094 85.082031 C 378.65625 84.871094 242.6875 85.082031 106.722656 85.710938 C 94.105469 92.558594 89.617188 103.242188 93.25 117.765625 C 89.980469 117.765625 86.714844 117.765625 83.449219 117.765625 C 83.246094 105.605469 83.449219 93.457031 84.0625 81.3125 C 85.082031 78.589844 86.921875 76.703125 89.574219 75.65625 C 229.214844 74.816406 368.855469 74.816406 508.496094 75.65625 C 512.527344 77.429688 514.570312 80.570312 514.621094 85.082031 Z M 514.621094 85.082031 "/>
<path fill-rule="evenodd" fill="rgb(98.431373%, 70.980392%, 29.803922%)" fill-opacity="1" d="M 514.621094 85.082031 C 514.621094 95.976562 514.621094 106.871094 514.621094 117.765625 C 374.164062 117.765625 233.707031 117.765625 93.25 117.765625 C 89.617188 103.242188 94.105469 92.558594 106.722656 85.710938 C 242.6875 85.082031 378.65625 84.871094 514.621094 85.082031 Z M 514.621094 85.082031 "/>
<g mask="url(#mask-0)">
<use xlink:href="#source-18"/>
</g>
<path fill-rule="evenodd" fill="rgb(87.058824%, 87.058824%, 87.058824%)" fill-opacity="1" d="M 524.421875 139.132812 C 524.421875 142.066406 524.421875 145 524.421875 147.933594 C 460.816406 147.992188 400.386719 161.820312 343.132812 189.414062 C 272.085938 189.203125 201.039062 189.414062 129.996094 190.042969 C 122.34375 195.714844 121.9375 202 128.773438 208.894531 C 228.398438 209.523438 328.023438 209.734375 427.652344 209.523438 C 385.804688 210.570312 343.75 211.199219 301.484375 211.410156 C 284.535156 221.679688 268.613281 233.414062 253.714844 246.605469 C 292.300781 246.816406 330.683594 247.445312 368.855469 248.492188 C 288.828125 248.28125 208.796875 248.492188 128.773438 249.121094 C 121.691406 256.503906 122.507812 262.789062 131.222656 267.972656 C 163.476562 268.601562 195.730469 268.8125 227.992188 268.601562 C 216.769531 280.328125 205.746094 292.269531 194.917969 304.425781 C 233.097656 304.636719 271.070312 305.265625 308.835938 306.3125 C 248.8125 306.101562 188.792969 306.3125 128.773438 306.941406 C 123.5625 311.238281 122.542969 316.476562 125.710938 322.652344 C 126.816406 324.164062 128.242188 325.210938 129.996094 325.796875 C 145.914062 326.425781 161.839844 326.632812 177.769531 326.425781 C 169.386719 338.605469 161.628906 351.175781 154.496094 364.132812 C 145.371094 363.59375 136.390625 364.222656 127.546875 366.019531 C 122.125 372.859375 122.941406 378.726562 129.996094 383.617188 C 173.277344 384.246094 216.554688 384.457031 259.839844 384.246094 C 220.847656 385.292969 181.648438 385.921875 142.246094 386.132812 C 134.464844 399.320312 128.75 412.9375 125.097656 426.984375 C 124.066406 429.34375 123.65625 431.859375 123.871094 434.523438 C 122.929688 433.566406 122.320312 432.308594 122.035156 430.753906 C 98.214844 497.746094 88.617188 566.882812 93.25 638.15625 C 88.851562 638.101562 85.789062 636.007812 84.0625 631.871094 C 83.449219 467.207031 83.246094 302.542969 83.449219 137.875 C 230.644531 137.457031 377.636719 137.875 524.421875 139.132812 Z M 524.421875 139.132812 "/>
<path fill-rule="evenodd" fill="rgb(92.941176%, 92.941176%, 92.941176%)" fill-opacity="1" d="M 524.421875 147.933594 C 524.421875 155.894531 524.421875 163.855469 524.421875 171.816406 C 426.121094 274.574219 327.109375 376.808594 227.378906 478.519531 C 225.234375 481.019531 224.007812 483.953125 223.703125 487.320312 C 217.34375 517.578125 210.605469 547.746094 203.492188 577.820312 C 204.027344 584.367188 207.5 587.71875 213.902344 587.878906 C 246.289062 581.398438 278.339844 573.648438 310.058594 564.625 C 381.351562 491.253906 452.808594 418.140625 524.421875 345.277344 C 524.421875 358.6875 524.421875 372.09375 524.421875 385.503906 C 520.023438 385.558594 516.960938 387.652344 515.234375 391.789062 C 514.828125 471.816406 514.417969 551.84375 514.011719 631.871094 C 513.441406 633.671875 512.417969 635.136719 510.949219 636.273438 C 371.8125 638.152344 232.582031 638.78125 93.25 638.15625 C 88.617188 566.882812 98.214844 497.746094 122.035156 430.753906 C 122.320312 432.308594 122.929688 433.566406 123.871094 434.523438 C 124.761719 437.335938 126.398438 439.640625 128.773438 441.4375 C 157.351562 442.277344 185.933594 442.277344 214.515625 441.4375 C 221.65625 433.890625 220.839844 427.605469 212.066406 422.585938 C 184.710938 421.746094 157.351562 421.746094 129.996094 422.585938 C 128.046875 423.777344 126.410156 425.242188 125.097656 426.984375 C 128.75 412.9375 134.464844 399.320312 142.246094 386.132812 C 181.648438 385.921875 220.847656 385.292969 259.839844 384.246094 C 268.09375 381.539062 270.339844 376.09375 266.574219 367.90625 C 265.140625 366.152344 263.304688 365.105469 261.0625 364.761719 C 225.542969 364.132812 190.019531 363.925781 154.496094 364.132812 C 161.628906 351.175781 169.386719 338.605469 177.769531 326.425781 C 221.867188 326.632812 265.964844 326.425781 310.058594 325.796875 C 316.703125 323.261719 318.949219 318.441406 316.796875 311.339844 C 314.789062 308.53125 312.136719 306.855469 308.835938 306.3125 C 271.070312 305.265625 233.097656 304.636719 194.917969 304.425781 C 205.746094 292.269531 216.769531 280.328125 227.992188 268.601562 C 274.949219 268.8125 321.902344 268.601562 368.855469 267.972656 C 375.527344 265.320312 377.773438 260.503906 375.59375 253.519531 C 373.816406 251.050781 371.570312 249.375 368.855469 248.492188 C 330.683594 247.445312 292.300781 246.816406 253.714844 246.605469 C 268.613281 233.414062 284.535156 221.679688 301.484375 211.410156 C 343.75 211.199219 385.804688 210.570312 427.652344 209.523438 C 434.886719 206.148438 436.722656 200.699219 433.164062 193.183594 C 431.425781 191.976562 429.589844 190.929688 427.652344 190.042969 C 399.480469 189.414062 371.308594 189.203125 343.132812 189.414062 C 400.386719 161.820312 460.816406 147.992188 524.421875 147.933594 Z M 524.421875 147.933594 "/>
<path fill-rule="evenodd" fill="rgb(84.313725%, 10.588235%, 37.647059%)" fill-opacity="1" d="M 630.992188 204.496094 C 629.511719 200.980469 627.0625 198.253906 623.640625 196.324219 C 595.988281 181.054688 568.222656 180.636719 540.347656 195.070312 C 536.132812 197.636719 532.457031 200.777344 529.320312 204.496094 C 527.148438 203.472656 526.539062 201.796875 527.484375 199.46875 C 543.613281 182.917969 559.738281 166.367188 575.867188 149.816406 C 579.136719 148.980469 582.402344 148.980469 585.667969 149.816406 C 600.980469 165.53125 616.292969 181.242188 631.601562 196.953125 C 632.570312 199.734375 632.363281 202.25 630.992188 204.496094 Z M 630.992188 204.496094 "/>
<path fill-rule="evenodd" fill="rgb(91.764706%, 25.098039%, 47.058824%)" fill-opacity="1" d="M 630.992188 204.496094 C 615.15625 222.839844 598.414062 240.4375 580.769531 257.289062 C 563.1875 240.085938 546.035156 222.488281 529.320312 204.496094 C 532.457031 200.777344 536.132812 197.636719 540.347656 195.070312 C 568.222656 180.636719 595.988281 181.054688 623.640625 196.324219 C 627.0625 198.253906 629.511719 200.980469 630.992188 204.496094 Z M 630.992188 204.496094 "/>
<path fill-rule="evenodd" fill="rgb(2.745098%, 2.745098%, 2.745098%)" fill-opacity="1" d="M 343.132812 189.414062 C 371.308594 189.203125 399.480469 189.414062 427.652344 190.042969 C 429.589844 190.929688 431.425781 191.976562 433.164062 193.183594 C 436.722656 200.699219 434.886719 206.148438 427.652344 209.523438 C 328.023438 209.734375 228.398438 209.523438 128.773438 208.894531 C 121.9375 202 122.34375 195.714844 129.996094 190.042969 C 201.039062 189.414062 272.085938 189.203125 343.132812 189.414062 Z M 343.132812 189.414062 "/>
<path fill-rule="evenodd" fill="rgb(94.901961%, 54.117647%, 11.372549%)" fill-opacity="1" d="M 563.621094 274.886719 C 553.875 262.578125 542.441406 252.3125 529.320312 244.089844 C 514.929688 239.167969 501.046875 240.214844 487.675781 247.234375 C 486.292969 246.453125 485.070312 245.40625 484 244.089844 C 493.203125 234.4375 502.59375 225.007812 512.171875 215.808594 C 530.734375 234.226562 549.109375 252.871094 567.292969 271.746094 C 566.226562 273.058594 565 274.105469 563.621094 274.886719 Z M 563.621094 274.886719 "/>
<path fill-rule="evenodd" fill="rgb(97.647059%, 64.705882%, 15.686275%)" fill-opacity="1" d="M 563.621094 274.886719 C 555.886719 283.660156 547.722656 292.039062 539.121094 300.027344 C 521.539062 282.820312 504.390625 265.222656 487.675781 247.234375 C 501.046875 240.214844 514.929688 239.167969 529.320312 244.089844 C 542.441406 252.3125 553.875 262.578125 563.621094 274.886719 Z M 563.621094 274.886719 "/>
<path fill-rule="evenodd" fill="rgb(3.137255%, 3.137255%, 3.137255%)" fill-opacity="1" d="M 368.855469 248.492188 C 371.570312 249.375 373.816406 251.050781 375.59375 253.519531 C 377.773438 260.503906 375.527344 265.320312 368.855469 267.972656 C 321.902344 268.601562 274.949219 268.8125 227.992188 268.601562 C 195.730469 268.8125 163.476562 268.601562 131.222656 267.972656 C 122.507812 262.789062 121.691406 256.503906 128.773438 249.121094 C 208.796875 248.492188 288.828125 248.28125 368.855469 248.492188 Z M 368.855469 248.492188 "/>
<path fill-rule="evenodd" fill="rgb(94.509804%, 47.843137%, 12.156863%)" fill-opacity="1" d="M 469.300781 258.546875 C 477.285156 265.257812 484.023438 272.800781 489.511719 281.171875 C 416.015625 356.59375 342.519531 432.011719 269.027344 507.429688 C 262.492188 500.726562 255.960938 494.023438 249.425781 487.320312 C 248.609375 486.480469 248.609375 485.644531 249.425781 484.804688 C 322.964844 409.550781 396.253906 334.132812 469.300781 258.546875 Z M 469.300781 258.546875 "/>
<path fill-rule="evenodd" fill="rgb(95.294118%, 54.117647%, 11.372549%)" fill-opacity="1" d="M 502.375 295 C 503.660156 294.8125 504.886719 295.019531 506.046875 295.628906 C 511.96875 301.703125 517.890625 307.78125 523.808594 313.855469 C 524.625 314.691406 524.625 315.53125 523.808594 316.367188 C 450.3125 391.789062 376.820312 467.207031 303.324219 542.625 C 296.789062 535.921875 290.257812 529.21875 283.722656 522.515625 C 282.90625 521.675781 282.90625 520.839844 283.722656 520 C 356.855469 445.164062 429.738281 370.167969 502.375 295 Z M 502.375 295 "/>
<path fill-rule="evenodd" fill="rgb(1.568627%, 1.568627%, 1.568627%)" fill-opacity="1" d="M 308.835938 306.3125 C 312.136719 306.855469 314.789062 308.53125 316.796875 311.339844 C 318.949219 318.441406 316.703125 323.261719 310.058594 325.796875 C 265.964844 326.425781 221.867188 326.632812 177.769531 326.425781 C 161.839844 326.632812 145.914062 326.425781 129.996094 325.796875 C 128.242188 325.210938 126.816406 324.164062 125.710938 322.652344 C 122.542969 316.476562 123.5625 311.238281 128.773438 306.941406 C 188.792969 306.3125 248.8125 306.101562 308.835938 306.3125 Z M 308.835938 306.3125 "/>
<path fill-rule="evenodd" fill="rgb(0.392157%, 0.392157%, 0.392157%)" fill-opacity="1" d="M 154.496094 364.132812 C 190.019531 363.925781 225.542969 364.132812 261.0625 364.761719 C 263.304688 365.105469 265.140625 366.152344 266.574219 367.90625 C 270.339844 376.09375 268.09375 381.539062 259.839844 384.246094 C 216.554688 384.457031 173.277344 384.246094 129.996094 383.617188 C 122.941406 378.726562 122.125 372.859375 127.546875 366.019531 C 136.390625 364.222656 145.371094 363.59375 154.496094 364.132812 Z M 154.496094 364.132812 "/>
<path fill-rule="evenodd" fill="rgb(2.745098%, 2.745098%, 2.745098%)" fill-opacity="1" d="M 123.871094 434.523438 C 123.65625 431.859375 124.066406 429.34375 125.097656 426.984375 C 126.410156 425.242188 128.046875 423.777344 129.996094 422.585938 C 157.351562 421.746094 184.710938 421.746094 212.066406 422.585938 C 220.839844 427.605469 221.65625 433.890625 214.515625 441.4375 C 185.933594 442.277344 157.351562 442.277344 128.773438 441.4375 C 126.398438 439.640625 124.761719 437.335938 123.871094 434.523438 Z M 123.871094 434.523438 "/>
<path fill-rule="evenodd" fill="rgb(12.54902%, 12.54902%, 12.54902%)" fill-opacity="1" d="M 278.210938 552.683594 C 274.664062 549.820312 270.582031 547.933594 265.964844 547.027344 C 252.167969 544.28125 239.917969 547.421875 229.214844 556.453125 C 231.75 541.695312 234.8125 527.03125 238.402344 512.457031 C 238.640625 510.214844 239.664062 508.539062 241.464844 507.429688 C 255.753906 521.257812 269.636719 535.503906 283.113281 550.167969 C 281.5625 551.25 279.929688 552.089844 278.210938 552.683594 Z M 278.210938 552.683594 "/>
<path fill-rule="evenodd" fill="rgb(25.882353%, 25.882353%, 25.882353%)" fill-opacity="1" d="M 278.210938 552.683594 C 261.828125 556.128906 245.496094 559.898438 229.214844 563.996094 C 228.398438 563.578125 227.582031 563.15625 226.765625 562.738281 C 227.589844 560.609375 228.40625 558.511719 229.214844 556.453125 C 239.917969 547.421875 252.167969 544.28125 265.964844 547.027344 C 270.582031 547.933594 274.664062 549.820312 278.210938 552.683594 Z M 278.210938 552.683594 "/>
</svg>
