<?xml version="1.0" encoding="UTF-8"?>
<svg xmlns="http://www.w3.org/2000/svg" xmlns:xlink="http://www.w3.org/1999/xlink" width="256" height="256" viewBox="0 0 256 256">
<defs>
<filter id="filter-remove-color" x="0%" y="0%" width="100%" height="100%">
<feColorMatrix color-interpolation-filters="sRGB" values="0 0 0 0 1 0 0 0 0 1 0 0 0 0 1 0 0 0 1 0" />
</filter>
<clipPath id="clip-0">
<rect x="0" y="0" width="256" height="256"/>
</clipPath>
<g id="source-12" clip-path="url(#clip-0)">
<path fill-rule="evenodd" fill="rgb(0%, 0%, 0%)" fill-opacity="1" d="M 131.105469 34.785156 C 94.410156 34.46875 57.660156 34.363281 20.863281 34.46875 C 20.8125 75.636719 20.863281 116.800781 21.015625 157.96875 C 21.449219 159 22.214844 159.527344 23.3125 159.539062 C 58.144531 159.695312 92.953125 159.539062 127.738281 159.066406 C 128.105469 158.785156 128.359375 158.417969 128.503906 157.96875 C 128.605469 137.960938 128.707031 117.953125 128.808594 97.945312 C 129.242188 96.914062 130.007812 96.390625 131.105469 96.375 C 132.164062 96.265625 132.929688 96.683594 133.402344 97.632812 C 133.605469 118.164062 133.605469 138.695312 133.402344 159.226562 C 132.535156 161.792969 130.851562 163.519531 128.347656 164.410156 C 92.621094 164.621094 56.894531 164.621094 21.167969 164.410156 C 18.667969 163.519531 16.984375 161.792969 16.117188 159.226562 C 15.910156 112.507812 15.910156 65.789062 16.117188 19.070312 C 16.835938 16.863281 18.214844 15.242188 20.25 14.199219 C 56.265625 13.679688 92.300781 13.574219 128.347656 13.886719 C 130.851562 14.777344 132.535156 16.503906 133.402344 19.070312 C 133.605469 23.785156 133.605469 28.5 133.402344 33.210938 C 132.878906 34.085938 132.113281 34.609375 131.105469 34.785156 Z M 131.105469 34.785156 "/>
</g>
<mask id="mask-0">
<g filter="url(#filter-remove-color)">
<rect x="-25.6" y="-25.6" width="307.2" height="307.2" fill="rgb(0%, 0%, 0%)" fill-opacity="0.99"/>
</g>
</mask>
<clipPath id="clip-1">
<rect x="0" y="0" width="256" height="256"/>
</clipPath>
<g id="source-18" clip-path="url(#clip-1)">
<path fill-rule="evenodd" fill="rgb(1.568627%, 0.784314%, 0.784314%)" fill-opacity="1" d="M 131.105469 86.320312 C 113.203125 104.535156 95.339844 122.8125 77.515625 141.15625 C 69.585938 143.410156 61.570312 145.351562 53.476562 146.96875 C 51.875 146.929688 51.007812 146.09375 50.871094 144.457031 C 52.652344 136.9375 54.335938 129.394531 55.925781 121.828125 C 56.003906 120.988281 56.308594 120.253906 56.84375 119.628906 C 81.777344 94.203125 106.53125 68.644531 131.105469 42.953125 C 134.207031 39.925781 137.269531 36.835938 140.292969 33.683594 C 143.5625 31.378906 146.828125 31.378906 150.09375 33.683594 C 153.917969 37.613281 157.746094 41.539062 161.574219 45.46875 C 163.414062 48.714844 163.414062 51.960938 161.574219 55.210938 C 151.460938 65.644531 141.300781 76.011719 131.105469 86.320312 Z M 131.105469 86.320312 "/>
</g>
</defs>
<path fill-rule="nonzero" fill="rgb(60.784314%, 78.823529%, 100%)" fill-opacity="1" d="M 251.734375 149.332031 L 251.734375 166.398438 C 251.71875 171.105469 247.90625 174.917969 243.199219 174.933594 L 170.667969 174.933594 C 156.527344 174.933594 145.066406 186.394531 145.066406 200.53125 C 145.085938 214.664062 156.539062 226.113281 170.667969 226.132812 L 179.199219 251.734375 L 76.800781 251.734375 L 85.332031 226.132812 C 99.460938 226.113281 110.914062 214.664062 110.933594 200.53125 C 110.933594 186.394531 99.472656 174.933594 85.332031 174.933594 L 12.800781 174.933594 C 8.09375 174.917969 4.28125 171.105469 4.265625 166.398438 L 4.265625 149.332031 Z M 251.734375 149.332031 "/>
<path fill-rule="nonzero" fill="rgb(0%, 100%, 0%)" fill-opacity="1" d="M 123.097656 185.15625 L 123.097656 194.332031 L 132.902344 194.332031 L 132.902344 185.15625 Z M 126.648438 185.695312 L 126.679688 185.695312 L 126.679688 193.792969 L 126.648438 193.792969 Z M 129.347656 185.695312 L 129.351562 185.695312 L 129.351562 193.792969 L 129.347656 193.792969 Z M 129.347656 185.695312 "/>
<path fill-rule="nonzero" fill="rgb(12.54902%, 47.843137%, 82.745098%)" fill-opacity="1" d="M 243.199219 0 L 12.800781 0 C 5.730469 0 0 5.730469 0 12.800781 L 0 166.398438 C 0 173.46875 5.730469 179.199219 12.800781 179.199219 L 85.332031 179.199219 C 97.109375 179.214844 106.652344 188.757812 106.667969 200.53125 C 106.644531 212.304688 97.105469 221.84375 85.332031 221.867188 C 85.273438 221.867188 85.226562 221.894531 85.167969 221.898438 C 84.855469 221.925781 84.550781 221.988281 84.253906 222.082031 C 84.015625 222.128906 83.785156 222.195312 83.558594 222.277344 C 83.3125 222.410156 83.078125 222.566406 82.863281 222.746094 C 82.640625 222.886719 82.433594 223.050781 82.238281 223.226562 C 82.082031 223.417969 81.941406 223.621094 81.8125 223.835938 C 81.632812 224.089844 81.476562 224.359375 81.351562 224.644531 C 81.351562 224.695312 81.292969 224.730469 81.273438 224.785156 L 72.742188 250.386719 C 72.308594 251.6875 72.527344 253.117188 73.332031 254.234375 C 74.136719 255.347656 75.425781 256.003906 76.800781 256 L 179.199219 256 C 180.570312 256 181.859375 255.339844 182.660156 254.226562 C 183.460938 253.113281 183.675781 251.683594 183.246094 250.386719 L 174.710938 224.785156 C 174.710938 224.730469 174.652344 224.695312 174.636719 224.644531 C 174.511719 224.359375 174.355469 224.089844 174.171875 223.839844 C 174.050781 223.625 173.90625 223.421875 173.746094 223.226562 C 173.554688 223.050781 173.347656 222.886719 173.125 222.746094 C 172.910156 222.566406 172.675781 222.410156 172.429688 222.277344 C 172.203125 222.195312 171.96875 222.128906 171.734375 222.082031 C 171.4375 221.988281 171.132812 221.925781 170.820312 221.898438 C 170.761719 221.898438 170.714844 221.867188 170.652344 221.867188 C 158.882812 221.84375 149.339844 212.304688 149.320312 200.53125 C 149.335938 188.757812 158.878906 179.214844 170.652344 179.199219 L 243.199219 179.199219 C 250.269531 179.199219 256 173.46875 256 166.398438 L 256 12.800781 C 256 5.730469 250.269531 0 243.199219 0 Z M 140.800781 200.53125 C 140.820312 215.808594 152.347656 228.613281 167.535156 230.234375 L 173.277344 247.464844 L 82.722656 247.464844 L 88.464844 230.234375 C 103.652344 228.613281 115.179688 215.808594 115.199219 200.53125 C 115.203125 192.496094 111.953125 184.800781 106.195312 179.199219 L 149.804688 179.199219 C 144.046875 184.800781 140.796875 192.496094 140.800781 200.53125 Z M 247.464844 166.398438 C 247.464844 168.757812 245.554688 170.667969 243.199219 170.667969 L 12.800781 170.667969 C 10.445312 170.667969 8.535156 168.757812 8.535156 166.398438 L 8.535156 153.601562 L 247.464844 153.601562 Z M 8.535156 145.066406 L 8.535156 12.800781 C 8.535156 10.445312 10.445312 8.535156 12.800781 8.535156 L 243.199219 8.535156 C 245.554688 8.535156 247.464844 10.445312 247.464844 12.800781 L 247.464844 145.066406 Z M 8.535156 145.066406 "/>
<path fill-rule="nonzero" fill="rgb(0%, 0%, 75.294118%)" fill-opacity="1" d="M 8.941406 6.789062 L 248.175781 6.789062 L 248.175781 170.757812 L 8.941406 170.757812 Z M 8.941406 6.789062 "/>
<path fill-rule="nonzero" fill="rgb(33.333333%, 86.666667%, 100%)" fill-opacity="1" d="M 8.101562 6.476562 L 8.101562 170.765625 L 248.558594 170.765625 L 248.558594 6.476562 Z M 17.722656 14.117188 L 85.050781 14.117188 L 85.050781 138.289062 L 17.722656 138.289062 Z M 92.261719 14.117188 L 123.523438 14.117188 L 123.523438 138.289062 L 92.261719 138.289062 Z M 133.140625 14.117188 L 200.46875 14.117188 L 200.46875 138.289062 L 133.140625 138.289062 Z M 207.683594 14.117188 L 238.941406 14.117188 L 238.941406 138.289062 L 207.683594 138.289062 Z M 24.933594 38.953125 L 24.933594 44.683594 L 77.835938 44.683594 L 77.835938 38.953125 Z M 99.476562 38.953125 L 99.476562 44.683594 L 116.308594 44.683594 L 116.308594 38.953125 Z M 140.355469 38.953125 L 140.355469 44.683594 L 193.253906 44.683594 L 193.253906 38.953125 Z M 214.894531 38.953125 L 214.894531 44.683594 L 231.726562 44.683594 L 231.726562 38.953125 Z M 24.933594 52.324219 L 24.933594 58.054688 L 77.835938 58.054688 L 77.835938 52.324219 Z M 99.476562 52.324219 L 99.476562 58.054688 L 116.308594 58.054688 L 116.308594 52.324219 Z M 140.355469 52.324219 L 140.355469 58.054688 L 193.253906 58.054688 L 193.253906 52.324219 Z M 214.894531 52.324219 L 214.894531 58.054688 L 231.726562 58.054688 L 231.726562 52.324219 Z M 24.933594 65.699219 L 24.933594 71.429688 L 77.835938 71.429688 L 77.835938 65.699219 Z M 99.476562 65.699219 L 99.476562 71.429688 L 116.308594 71.429688 L 116.308594 65.699219 Z M 140.355469 65.699219 L 140.355469 71.429688 L 193.253906 71.429688 L 193.253906 65.699219 Z M 214.894531 65.699219 L 214.894531 71.429688 L 231.726562 71.429688 L 231.726562 65.699219 Z M 24.933594 79.070312 L 24.933594 84.800781 L 77.835938 84.800781 L 77.835938 79.070312 Z M 99.476562 79.070312 L 99.476562 84.800781 L 116.308594 84.800781 L 116.308594 79.070312 Z M 24.933594 92.441406 L 24.933594 98.171875 L 77.835938 98.171875 L 77.835938 92.441406 Z M 99.476562 92.441406 L 99.476562 98.171875 L 116.308594 98.171875 L 116.308594 92.441406 Z M 17.722656 144.019531 L 123.523438 144.019531 L 123.523438 163.125 L 17.722656 163.125 Z M 133.140625 144.019531 L 238.941406 144.019531 L 238.941406 163.125 L 133.140625 163.125 Z M 22.53125 150.707031 L 22.53125 156.4375 L 70.621094 156.4375 L 70.621094 150.707031 Z M 77.835938 150.707031 L 77.835938 156.4375 L 85.050781 156.4375 L 85.050781 150.707031 Z M 92.261719 150.707031 L 92.261719 156.4375 L 113.90625 156.4375 L 113.90625 150.707031 Z M 137.949219 150.707031 L 137.949219 156.4375 L 186.042969 156.4375 L 186.042969 150.707031 Z M 193.253906 150.707031 L 193.253906 156.4375 L 200.46875 156.4375 L 200.46875 150.707031 Z M 207.683594 150.707031 L 207.683594 156.4375 L 229.324219 156.4375 L 229.324219 150.707031 Z M 207.683594 150.707031 "/>
<path fill-rule="nonzero" fill="rgb(100%, 100%, 0%)" fill-opacity="1" d="M 150.203125 19.847656 L 150.203125 25.582031 L 188.585938 25.582031 L 188.585938 19.847656 Z M 35.050781 19.851562 L 35.050781 25.582031 L 73.433594 25.582031 L 73.433594 19.851562 Z M 99.824219 19.851562 L 99.824219 25.582031 L 119.015625 25.582031 L 119.015625 19.851562 Z M 214.972656 19.851562 L 214.972656 25.582031 L 234.167969 25.582031 L 234.167969 19.851562 Z M 214.972656 19.851562 "/>
<use xlink:href="#source-12"/>
<path fill-rule="evenodd" fill="rgb(96.470588%, 54.509804%, 11.372549%)" fill-opacity="1" d="M 128.65625 21.269531 C 94.664062 21.21875 60.671875 21.269531 26.679688 21.429688 C 23.527344 23.140625 22.402344 25.8125 23.3125 29.441406 C 22.496094 29.441406 21.679688 29.441406 20.863281 29.441406 C 20.8125 26.402344 20.863281 23.363281 21.015625 20.328125 C 21.269531 19.648438 21.730469 19.175781 22.394531 18.914062 C 57.304688 18.703125 92.214844 18.703125 127.125 18.914062 C 128.132812 19.355469 128.640625 20.140625 128.65625 21.269531 Z M 128.65625 21.269531 "/>
<path fill-rule="evenodd" fill="rgb(98.431373%, 70.980392%, 29.803922%)" fill-opacity="1" d="M 128.65625 21.269531 C 128.65625 23.992188 128.65625 26.71875 128.65625 29.441406 C 93.542969 29.441406 58.425781 29.441406 23.3125 29.441406 C 22.402344 25.8125 23.527344 23.140625 26.679688 21.429688 C 60.671875 21.269531 94.664062 21.21875 128.65625 21.269531 Z M 128.65625 21.269531 "/>
<g mask="url(#mask-0)">
<use xlink:href="#source-18"/>
</g>
<path fill-rule="evenodd" fill="rgb(87.058824%, 87.058824%, 87.058824%)" fill-opacity="1" d="M 131.105469 34.785156 C 131.105469 35.515625 131.105469 36.25 131.105469 36.984375 C 115.203125 37 100.097656 40.457031 85.785156 47.351562 C 68.023438 47.300781 50.261719 47.351562 32.5 47.511719 C 30.585938 48.929688 30.484375 50.5 32.191406 52.222656 C 57.097656 52.382812 82.007812 52.433594 106.914062 52.382812 C 96.453125 52.640625 85.9375 52.800781 75.371094 52.851562 C 71.132812 55.417969 67.152344 58.351562 63.429688 61.652344 C 73.074219 61.703125 82.671875 61.859375 92.214844 62.121094 C 72.207031 62.070312 52.199219 62.121094 32.191406 62.28125 C 30.421875 64.125 30.628906 65.699219 32.804688 66.992188 C 40.867188 67.152344 48.933594 67.203125 56.996094 67.152344 C 54.191406 70.082031 51.4375 73.066406 48.730469 76.105469 C 58.273438 76.160156 67.765625 76.316406 77.207031 76.578125 C 62.203125 76.527344 47.199219 76.578125 32.191406 76.734375 C 30.890625 77.808594 30.636719 79.121094 31.425781 80.664062 C 31.703125 81.039062 32.0625 81.304688 32.5 81.449219 C 36.480469 81.605469 40.460938 81.660156 44.441406 81.605469 C 42.347656 84.652344 40.40625 87.792969 38.625 91.035156 C 36.34375 90.898438 34.097656 91.054688 31.886719 91.503906 C 30.53125 93.214844 30.734375 94.679688 32.5 95.90625 C 43.320312 96.0625 54.140625 96.113281 64.960938 96.0625 C 55.210938 96.324219 45.414062 96.480469 35.5625 96.53125 C 33.617188 99.832031 32.1875 103.234375 31.273438 106.746094 C 31.015625 107.335938 30.914062 107.964844 30.96875 108.632812 C 30.734375 108.390625 30.578125 108.078125 30.507812 107.6875 C 24.554688 124.4375 22.15625 141.71875 23.3125 159.539062 C 22.214844 159.527344 21.449219 159 21.015625 157.96875 C 20.863281 116.800781 20.8125 75.636719 20.863281 34.46875 C 57.660156 34.363281 94.410156 34.46875 131.105469 34.785156 Z M 131.105469 34.785156 "/>
<path fill-rule="evenodd" fill="rgb(92.941176%, 92.941176%, 92.941176%)" fill-opacity="1" d="M 131.105469 36.984375 C 131.105469 38.972656 131.105469 40.964844 131.105469 42.953125 C 106.53125 68.644531 81.777344 94.203125 56.84375 119.628906 C 56.308594 120.253906 56.003906 120.988281 55.925781 121.828125 C 54.335938 129.394531 52.652344 136.9375 50.871094 144.457031 C 51.007812 146.09375 51.875 146.929688 53.476562 146.96875 C 61.570312 145.351562 69.585938 143.410156 77.515625 141.15625 C 95.339844 122.8125 113.203125 104.535156 131.105469 86.320312 C 131.105469 89.671875 131.105469 93.023438 131.105469 96.375 C 130.007812 96.390625 129.242188 96.914062 128.808594 97.945312 C 128.707031 117.953125 128.605469 137.960938 128.503906 157.96875 C 128.359375 158.417969 128.105469 158.785156 127.738281 159.066406 C 92.953125 159.539062 58.144531 159.695312 23.3125 159.539062 C 22.15625 141.71875 24.554688 124.4375 30.507812 107.6875 C 30.578125 108.078125 30.734375 108.390625 30.96875 108.632812 C 31.191406 109.332031 31.597656 109.910156 32.191406 110.359375 C 39.339844 110.570312 46.484375 110.570312 53.628906 110.359375 C 55.414062 108.472656 55.210938 106.902344 53.015625 105.644531 C 46.175781 105.4375 39.339844 105.4375 32.5 105.644531 C 32.011719 105.945312 31.601562 106.3125 31.273438 106.746094 C 32.1875 103.234375 33.617188 99.832031 35.5625 96.53125 C 45.414062 96.480469 55.210938 96.324219 64.960938 96.0625 C 67.023438 95.386719 67.585938 94.023438 66.644531 91.976562 C 66.285156 91.539062 65.824219 91.277344 65.265625 91.191406 C 56.386719 91.035156 47.503906 90.980469 38.625 91.035156 C 40.40625 87.792969 42.347656 84.652344 44.441406 81.605469 C 55.46875 81.660156 66.492188 81.605469 77.515625 81.449219 C 79.175781 80.816406 79.738281 79.609375 79.199219 77.835938 C 78.699219 77.132812 78.035156 76.714844 77.207031 76.578125 C 67.765625 76.316406 58.273438 76.160156 48.730469 76.105469 C 51.4375 73.066406 54.191406 70.082031 56.996094 67.152344 C 68.738281 67.203125 80.476562 67.152344 92.214844 66.992188 C 93.882812 66.332031 94.441406 65.125 93.898438 63.378906 C 93.453125 62.761719 92.894531 62.34375 92.214844 62.121094 C 82.671875 61.859375 73.074219 61.703125 63.429688 61.652344 C 67.152344 58.351562 71.132812 55.417969 75.371094 52.851562 C 85.9375 52.800781 96.453125 52.640625 106.914062 52.382812 C 108.722656 51.535156 109.179688 50.175781 108.292969 48.296875 C 107.855469 47.996094 107.398438 47.734375 106.914062 47.511719 C 99.871094 47.351562 92.828125 47.300781 85.785156 47.351562 C 100.097656 40.457031 115.203125 37 131.105469 36.984375 Z M 131.105469 36.984375 "/>
<path fill-rule="evenodd" fill="rgb(84.313725%, 10.588235%, 37.647059%)" fill-opacity="1" d="M 157.746094 51.125 C 157.378906 50.246094 156.765625 49.5625 155.910156 49.082031 C 148.996094 45.261719 142.054688 45.160156 135.085938 48.765625 C 134.03125 49.410156 133.113281 50.195312 132.332031 51.125 C 131.789062 50.867188 131.632812 50.449219 131.871094 49.867188 C 135.902344 45.730469 139.933594 41.59375 143.96875 37.453125 C 144.785156 37.246094 145.601562 37.246094 146.417969 37.453125 C 150.246094 41.382812 154.074219 45.308594 157.902344 49.238281 C 158.140625 49.933594 158.089844 50.5625 157.746094 51.125 Z M 157.746094 51.125 "/>
<path fill-rule="evenodd" fill="rgb(91.764706%, 25.098039%, 47.058824%)" fill-opacity="1" d="M 157.746094 51.125 C 153.789062 55.710938 149.605469 60.109375 145.191406 64.324219 C 140.796875 60.019531 136.507812 55.621094 132.332031 51.125 C 133.113281 50.195312 134.03125 49.410156 135.085938 48.765625 C 142.054688 45.160156 148.996094 45.261719 155.910156 49.082031 C 156.765625 49.5625 157.378906 50.246094 157.746094 51.125 Z M 157.746094 51.125 "/>
<path fill-rule="evenodd" fill="rgb(2.745098%, 2.745098%, 2.745098%)" fill-opacity="1" d="M 85.785156 47.351562 C 92.828125 47.300781 99.871094 47.351562 106.914062 47.511719 C 107.398438 47.734375 107.855469 47.996094 108.292969 48.296875 C 109.179688 50.175781 108.722656 51.535156 106.914062 52.382812 C 82.007812 52.433594 57.097656 52.382812 32.191406 52.222656 C 30.484375 50.5 30.585938 48.929688 32.5 47.511719 C 50.261719 47.351562 68.023438 47.300781 85.785156 47.351562 Z M 85.785156 47.351562 "/>
<path fill-rule="evenodd" fill="rgb(94.901961%, 54.117647%, 11.372549%)" fill-opacity="1" d="M 140.90625 68.722656 C 138.46875 65.644531 135.609375 63.078125 132.332031 61.023438 C 128.730469 59.792969 125.261719 60.054688 121.917969 61.808594 C 121.574219 61.613281 121.265625 61.351562 121 61.023438 C 123.300781 58.609375 125.648438 56.253906 128.042969 53.953125 C 132.683594 58.558594 137.277344 63.21875 141.824219 67.9375 C 141.554688 68.265625 141.25 68.527344 140.90625 68.722656 Z M 140.90625 68.722656 "/>
<path fill-rule="evenodd" fill="rgb(97.647059%, 64.705882%, 15.686275%)" fill-opacity="1" d="M 140.90625 68.722656 C 138.972656 70.914062 136.929688 73.011719 134.78125 75.007812 C 130.382812 70.707031 126.097656 66.304688 121.917969 61.808594 C 125.261719 60.054688 128.730469 59.792969 132.332031 61.023438 C 135.609375 63.078125 138.46875 65.644531 140.90625 68.722656 Z M 140.90625 68.722656 "/>
<path fill-rule="evenodd" fill="rgb(3.137255%, 3.137255%, 3.137255%)" fill-opacity="1" d="M 92.214844 62.121094 C 92.894531 62.34375 93.453125 62.761719 93.898438 63.378906 C 94.441406 65.125 93.882812 66.332031 92.214844 66.992188 C 80.476562 67.152344 68.738281 67.203125 56.996094 67.152344 C 48.933594 67.203125 40.867188 67.152344 32.804688 66.992188 C 30.628906 65.699219 30.421875 64.125 32.191406 62.28125 C 52.199219 62.121094 72.207031 62.070312 92.214844 62.121094 Z M 92.214844 62.121094 "/>
<path fill-rule="evenodd" fill="rgb(94.509804%, 47.843137%, 12.156863%)" fill-opacity="1" d="M 117.324219 64.636719 C 119.320312 66.316406 121.003906 68.199219 122.378906 70.292969 C 104.003906 89.148438 85.628906 108.003906 67.257812 126.859375 C 65.625 125.183594 63.988281 123.503906 62.355469 121.828125 C 62.152344 121.621094 62.152344 121.410156 62.355469 121.203125 C 80.742188 102.386719 99.0625 83.53125 117.324219 64.636719 Z M 117.324219 64.636719 "/>
<path fill-rule="evenodd" fill="rgb(95.294118%, 54.117647%, 11.372549%)" fill-opacity="1" d="M 125.59375 73.75 C 125.914062 73.703125 126.222656 73.753906 126.511719 73.90625 C 127.992188 75.425781 129.472656 76.945312 130.953125 78.464844 C 131.15625 78.671875 131.15625 78.882812 130.953125 79.09375 C 112.578125 97.945312 94.203125 116.800781 75.832031 135.65625 C 74.199219 133.980469 72.5625 132.304688 70.929688 130.628906 C 70.726562 130.417969 70.726562 130.210938 70.929688 130 C 89.214844 111.292969 107.433594 92.542969 125.59375 73.75 Z M 125.59375 73.75 "/>
<path fill-rule="evenodd" fill="rgb(1.568627%, 1.568627%, 1.568627%)" fill-opacity="1" d="M 77.207031 76.578125 C 78.035156 76.714844 78.699219 77.132812 79.199219 77.835938 C 79.738281 79.609375 79.175781 80.816406 77.515625 81.449219 C 66.492188 81.605469 55.46875 81.660156 44.441406 81.605469 C 40.460938 81.660156 36.480469 81.605469 32.5 81.449219 C 32.0625 81.304688 31.703125 81.039062 31.425781 80.664062 C 30.636719 79.121094 30.890625 77.808594 32.191406 76.734375 C 47.199219 76.578125 62.203125 76.527344 77.207031 76.578125 Z M 77.207031 76.578125 "/>
<path fill-rule="evenodd" fill="rgb(0.392157%, 0.392157%, 0.392157%)" fill-opacity="1" d="M 38.625 91.035156 C 47.503906 90.980469 56.386719 91.035156 65.265625 91.191406 C 65.824219 91.277344 66.285156 91.539062 66.644531 91.976562 C 67.585938 94.023438 67.023438 95.386719 64.960938 96.0625 C 54.140625 96.113281 43.320312 96.0625 32.5 95.90625 C 30.734375 94.679688 30.53125 93.214844 31.886719 91.503906 C 34.097656 91.054688 36.34375 90.898438 38.625 91.035156 Z M 38.625 91.035156 "/>
<path fill-rule="evenodd" fill="rgb(2.745098%, 2.745098%, 2.745098%)" fill-opacity="1" d="M 30.96875 108.632812 C 30.914062 107.964844 31.015625 107.335938 31.273438 106.746094 C 31.601562 106.3125 32.011719 105.945312 32.5 105.644531 C 39.339844 105.4375 46.175781 105.4375 53.015625 105.644531 C 55.210938 106.902344 55.414062 108.472656 53.628906 110.359375 C 46.484375 110.570312 39.339844 110.570312 32.191406 110.359375 C 31.597656 109.910156 31.191406 109.332031 30.96875 108.632812 Z M 30.96875 108.632812 "/>
<path fill-rule="evenodd" fill="rgb(12.54902%, 12.54902%, 12.54902%)" fill-opacity="1" d="M 69.554688 138.171875 C 68.664062 137.453125 67.644531 136.984375 66.492188 136.757812 C 63.042969 136.070312 59.980469 136.855469 57.304688 139.113281 C 57.9375 135.421875 58.703125 131.757812 59.601562 128.113281 C 59.660156 127.554688 59.914062 127.132812 60.367188 126.859375 C 63.9375 130.3125 67.410156 133.875 70.777344 137.542969 C 70.390625 137.8125 69.980469 138.023438 69.554688 138.171875 Z M 69.554688 138.171875 "/>
<path fill-rule="evenodd" fill="rgb(25.882353%, 25.882353%, 25.882353%)" fill-opacity="1" d="M 69.554688 138.171875 C 65.457031 139.03125 61.375 139.976562 57.304688 141 C 57.097656 140.894531 56.894531 140.789062 56.691406 140.683594 C 56.898438 140.152344 57.101562 139.628906 57.304688 139.113281 C 59.980469 136.855469 63.042969 136.070312 66.492188 136.757812 C 67.644531 136.984375 68.664062 137.453125 69.554688 138.171875 Z M 69.554688 138.171875 "/>
</svg>
