<svg xmlns="http://www.w3.org/2000/svg" width="256" height="256">
    <path d="M0 953.15h128v128H0Z" style="fill:#00c;fill-opacity:1;stroke-width:1.28" transform="matrix(2 0 0 2 0 -1906.3)"/>
    <path d="M0 1063.23v17.92h128v-17.92z" style="fill:#2b0000;fill-opacity:1;stroke-width:1.28" transform="matrix(2 0 0 2 0 -1906.3)"/>
    <path d="M30.72 1072.099v9.05H51.2v-9.05zm25.6 0v9.05H76.8v-9.05zm25.6 0v9.05h20.48v-9.05zm-76.8.092v8.959H25.6v-8.96H5.12Zm102.4 0v8.959H128v-8.96h-20.48z" style="fill:teal;fill-opacity:1;stroke-width:1.28" transform="matrix(2 0 0 2 0 -1906.3)"/>
    <path d="M0 1063.23v8.96h10.24v-4.48H5.12v-4.48z" style="fill:#e6e6e6;fill-opacity:1;stroke-width:1.28" transform="matrix(2 0 0 2 0 -1906.3)"/>
    <path d="M0 953.15v110.079h128V953.15Zm5.12 5.119h35.84v83.2H5.12Zm39.68 0h16.64v83.2H44.8Zm21.76 0h35.84v83.2H66.56Zm39.68 0h16.64v83.2h-16.64zm-97.28 16.64v3.84h28.16v-3.84zm39.68 0v3.84h8.96v-3.84zm21.76 0v3.84h28.16v-3.84zm39.68 0v3.84h8.96v-3.84zM8.96 983.87v3.84h28.16v-3.84zm39.68 0v3.84h8.96v-3.84zm21.76 0v3.84h28.16v-3.84zm39.68 0v3.84h8.96v-3.84zM8.96 992.83v3.84h28.16v-3.84zm39.68 0v3.84h8.96v-3.84zm21.76 0v3.84h28.16v-3.84zm39.68 0v3.84h8.96v-3.84zm-101.12 8.96v3.84h28.16v-3.84zm39.68 0v3.84h8.96v-3.84zm-39.68 8.96v3.84h28.16v-3.84zm39.68 0v3.84h8.96v-3.84zm-43.52 34.56h56.32v12.8H5.12Zm61.44 0h56.32v12.8H66.56Zm-58.88 4.48v3.84h25.6v-3.84zm29.44 0v3.84h3.84v-3.84zm7.68 0v3.84h11.52v-3.84zm24.32 0v3.84h25.6v-3.84zm29.44 0v3.84h3.84v-3.84zm7.68 0v3.84h11.52v-3.84z" style="fill:#5df;fill-opacity:1;stroke-width:1.28" transform="matrix(2 0 0 2 0 -1906.3)"/>
    <path d="M75.52 962.109v3.841H96v-3.841zm-61.44.002v3.84h20.48v-3.84zm34.56 0v3.84h10.24v-3.84zm61.44 0v3.84h10.24v-3.84z" style="fill:#ff0;fill-opacity:1;stroke-width:1.28" transform="matrix(2 0 0 2 0 -1906.3)"/>
    <g style="clip-rule:evenodd;fill-rule:evenodd;image-rendering:optimizeQuality;shape-rendering:geometricPrecision;text-rendering:geometricPrecision">
        <path d="M205.96 15.509c-58.833.166-117.657.662-176.463 1.492-6.648 3.314-11.148 8.48-13.5 15.5a49726.54 49726.54 0 0 0 0 445.998c2.834 8.167 8.338 13.67 16.504 16.504 116.667.667 233.332.667 349.998 0 8.167-2.833 13.671-8.337 16.504-16.504a9599.42 9599.42 0 0 0 0-196c-1.539-3.02-4.04-4.353-7.5-4-3.59.045-6.091 1.716-7.501 5.005-.333 63.667-.672 127.329-1.005 190.996A6.977 6.977 0 0 1 380.5 478a19452.499 19452.499 0 0 1-341.005 1.502c-3.59-.044-6.08-1.714-7.491-5.003-.5-131-.674-262.005-.507-393.004 120.168-.333 240.174.005 360.006 1.004 3.287-.555 5.787-2.226 7.5-5.004.667-15 .667-29.996 0-44.996-2.833-8.166-8.337-13.67-16.503-16.503-58.862-.497-117.707-.655-176.54-.488Zm231.553 57.988c-5.334 0-10.677 1.836-16.016 5.502a1246.688 1246.688 0 0 1-29.994 29.506 27866.43 27866.43 0 0 1-242.508 244c-1.75 1.99-2.745 4.316-2.994 6.993a2871.497 2871.497 0 0 1-16.504 72.005c.438 5.208 3.276 7.873 8.505 7.999a1035.432 1035.432 0 0 0 78.501-18.504 43153.258 43153.258 0 0 1 175-174.501 13937.14 13937.14 0 0 0 99.501-98.995c6-10.333 6-20.666 0-30.999L453.5 79c-5.327-3.666-10.654-5.502-15.987-5.502zm-194.01 49.005c-58-.167-116.005-.002-174.004.497-6.247 4.514-6.575 9.516-.995 15.002 81.333.5 162.666.665 244 .498 5.905-2.687 7.401-7.022 4.496-13.002a29.468 29.468 0 0 0-4.496-2.498c-22.998-.5-46-.664-69.001-.497zm21 46.995c-65.333-.167-130.667.007-196 .508-5.779 5.876-5.112 10.868 2 14.992 26.332.5 52.664.674 79 .507 38.334.167 76.669-.007 115-.507 5.446-2.11 7.27-5.944 5.492-11.5-1.45-1.964-3.275-3.297-5.491-4zm-122.502 46c-24.5.084-48.998.248-73.497.498-4.253 3.42-5.093 7.592-2.507 12.505a6.976 6.976 0 0 0 3.502 2.497c12.996.5 25.993.674 38.997.507 36.002.167 72.01-.007 108.007-.507 5.424-2.017 7.26-5.85 5.502-11.5-1.638-2.234-3.811-3.566-6.506-4-24.5-.083-48.998-.082-73.498 0zm-58.065 45.858a86.603 86.603 0 0 0-16.437 1.646c-4.425 5.44-3.76 10.105 2 13.997 35.332.5 70.663.664 105.998.497 6.74-2.153 8.574-6.478 5.501-12.992-1.17-1.393-2.667-2.234-4.496-2.507-28.998-.5-57.996-.665-86.997-.498a89.397 89.397 0 0 0-5.569-.143zm19.068 46.144c-11.166 0-22.338.164-33.505.497-1.593.95-2.926 2.117-4 3.502-.84 1.88-1.169 3.878-.994 5.999.728 2.235 2.06 4.07 3.999 5.501 23.333.667 46.663.667 69.996 0 5.83-6.006 5.163-11.008-2-15.002-11.166-.333-22.33-.497-33.496-.497z" style="display:inline;opacity:.997" transform="matrix(.40833 0 0 .40828 -6.328 53.694)"/>
        <path fill="#f68b1d" d="M150.266 69.821c-45.325-.068-90.65 0-135.974.205-4.205 2.224-5.702 5.694-4.491 10.41H6.534c-.068-3.948 0-7.895.204-11.84.34-.884.953-1.496 1.838-1.837 46.55-.272 93.099-.272 139.648 0 1.343.576 2.024 1.597 2.042 3.062z"/>
        <path fill="#fbb54c" d="M150.266 69.821v10.616H9.8c-1.211-4.717.286-8.187 4.491-10.411 45.324-.205 90.649-.273 135.974-.205z"/>
        <path fill="#dedede" d="M153.532 87.378v2.858c-21.203.02-41.347 4.51-60.432 13.473-23.684-.068-47.367 0-71.05.204-2.55 1.843-2.686 3.884-.408 6.124 33.21.204 66.421.273 99.632.204-13.95.34-27.97.544-42.057.613a109.695 109.695 0 0 0-15.925 11.432c12.863.068 25.657.273 38.383.612-26.678-.068-53.356 0-80.033.204-2.36 2.4-2.087 4.44.817 6.125 10.752.204 21.505.272 32.258.204a446.021 446.021 0 0 0-11.025 11.636c12.727.068 25.385.273 37.975.612-20.009-.068-40.017 0-60.025.204-1.736 1.397-2.077 3.098-1.02 5.104.368.49.844.83 1.429 1.02 5.306.205 10.614.273 15.924.205a143.765 143.765 0 0 0-7.758 12.248 35.554 35.554 0 0 0-8.983.613c-1.807 2.221-1.535 4.127.817 5.716 14.427.204 28.854.272 43.282.204-12.997.34-26.064.544-39.199.612-2.594 4.284-4.5 8.707-5.717 13.27a4.911 4.911 0 0 0-.408 2.45c-.313-.312-.518-.72-.612-1.226-7.941 21.76-11.14 44.216-9.596 67.367-1.466-.018-2.487-.698-3.063-2.041-.204-53.485-.272-106.97-.204-160.456 49.068-.136 98.067 0 146.998.409z"/>
        <path fill="#ededed" d="M153.532 90.236v7.757a11377.7 11377.7 0 0 1-99.02 99.621 4.907 4.907 0 0 0-1.224 2.858 1172.114 1172.114 0 0 1-6.738 29.397c.18 2.126 1.336 3.214 3.471 3.266a422.812 422.812 0 0 0 32.054-7.553c23.765-23.831 47.584-47.58 71.457-71.246v13.065c-1.466.018-2.487.699-3.062 2.042l-.409 77.982c-.19.584-.53 1.06-1.02 1.429-46.38.61-92.794.815-139.24.612-1.544-23.151 1.655-45.607 9.596-67.367.094.505.299.914.612 1.225.297.913.842 1.661 1.633 2.246 9.528.272 19.056.272 28.583 0 2.38-2.452 2.108-4.494-.816-6.124a458.168 458.168 0 0 0-27.358 0 5.787 5.787 0 0 0-1.634 1.429c1.218-4.563 3.123-8.986 5.717-13.27 13.135-.068 26.202-.272 39.2-.612 2.751-.88 3.5-2.648 2.245-5.308a2.877 2.877 0 0 0-1.837-1.02c-11.84-.205-23.682-.273-35.525-.205a143.765 143.765 0 0 1 7.758-12.248c14.701.068 29.4 0 44.1-.204 2.215-.824 2.963-2.389 2.246-4.696-.67-.912-1.554-1.456-2.654-1.633a1759.38 1759.38 0 0 0-37.975-.612 446.021 446.021 0 0 1 11.025-11.636c15.653.068 31.306 0 46.958-.204 2.223-.862 2.971-2.427 2.245-4.696-.592-.801-1.34-1.346-2.245-1.633-12.726-.34-25.52-.544-38.383-.612a109.695 109.695 0 0 1 15.925-11.432c14.088-.069 28.107-.273 42.057-.613 2.411-1.097 3.024-2.866 1.838-5.307a12.053 12.053 0 0 0-1.838-1.02 971.727 971.727 0 0 0-28.174-.205c19.085-8.962 39.23-13.454 60.432-13.473z"/>
        <path fill="#d71b60" d="M189.057 108.608c-.493-1.142-1.31-2.027-2.45-2.653-9.219-4.961-18.474-5.097-27.767-.409a14.84 14.84 0 0 0-3.675 3.062c-.724-.332-.928-.877-.612-1.633l16.129-16.127a6.636 6.636 0 0 1 3.266 0l15.313 15.31c.322.904.254 1.72-.204 2.45z"/>
        <path fill="#ea4078" d="M189.057 108.608a248.271 248.271 0 0 1-16.742 17.148 509.876 509.876 0 0 1-17.15-17.148 14.84 14.84 0 0 1 3.675-3.062c9.293-4.688 18.548-4.552 27.767.409 1.14.626 1.957 1.511 2.45 2.653z"/>
        <path fill="#f9a528" d="M166.599 131.472a115.5 115.5 0 0 1-8.167 8.166 509.876 509.876 0 0 1-17.15-17.148c4.458-2.28 9.086-2.62 13.883-1.02a44.544 44.544 0 0 1 11.434 10.002z"/>
        <path fill="#f17a1f" d="M135.157 126.165c2.662 2.18 4.908 4.63 6.738 7.349l-73.5 73.49-6.532-6.532c-.273-.272-.273-.544 0-.816a18642.187 18642.187 0 0 0 73.294-73.491z"/>
        <path fill="#f38a1d" d="M146.182 138.005c.43-.061.838.007 1.225.204l5.921 5.92c.272.272.272.544 0 .817l-73.499 73.49-6.533-6.532c-.273-.272-.273-.544 0-.817a18463.023 18463.023 0 0 0 72.886-73.082z"/>
        <path fill="#202020" d="M71.458 221.703c-1.183-.93-2.544-1.543-4.083-1.837-4.599-.893-8.682.128-12.25 3.062a199.538 199.538 0 0 1 3.063-14.29c.08-.73.42-1.274 1.02-1.633a333.66 333.66 0 0 1 13.884 13.881 6.67 6.67 0 0 1-1.634.817z"/>
        <path fill="#424242" d="M71.458 221.703a438.148 438.148 0 0 0-16.333 3.674l-.816-.408a544.9 544.9 0 0 1 .816-2.041c3.568-2.934 7.651-3.955 12.25-3.062 1.54.294 2.9.907 4.083 1.837z"/>
    </g>
</svg>
