<?xml version="1.0" encoding="UTF-8"?>
<svg xmlns="http://www.w3.org/2000/svg" xmlns:xlink="http://www.w3.org/1999/xlink" width="256" height="256" viewBox="0 0 256 256">
<path fill-rule="nonzero" fill="rgb(60.784314%, 78.823529%, 100%)" fill-opacity="1" d="M 251.734375 149.332031 L 251.734375 166.398438 C 251.71875 171.105469 247.90625 174.917969 243.199219 174.933594 L 170.667969 174.933594 C 156.527344 174.933594 145.066406 186.394531 145.066406 200.53125 C 145.085938 214.664062 156.539062 226.113281 170.667969 226.132812 L 179.199219 251.734375 L 76.800781 251.734375 L 85.332031 226.132812 C 99.460938 226.113281 110.914062 214.664062 110.933594 200.53125 C 110.933594 186.394531 99.472656 174.933594 85.332031 174.933594 L 12.800781 174.933594 C 8.09375 174.917969 4.28125 171.105469 4.265625 166.398438 L 4.265625 149.332031 Z M 251.734375 149.332031 "/>
<path fill-rule="nonzero" fill="rgb(0%, 100%, 0%)" fill-opacity="1" d="M 123.097656 185.15625 L 123.097656 194.332031 L 132.902344 194.332031 L 132.902344 185.15625 Z M 126.648438 185.695312 L 126.679688 185.695312 L 126.679688 193.792969 L 126.648438 193.792969 Z M 129.347656 185.695312 L 129.351562 185.695312 L 129.351562 193.792969 L 129.347656 193.792969 Z M 129.347656 185.695312 "/>
<path fill-rule="nonzero" fill="rgb(12.54902%, 47.843137%, 82.745098%)" fill-opacity="1" d="M 243.199219 0 L 12.800781 0 C 5.730469 0 0 5.730469 0 12.800781 L 0 166.398438 C 0 173.46875 5.730469 179.199219 12.800781 179.199219 L 85.332031 179.199219 C 97.109375 179.214844 106.652344 188.757812 106.667969 200.53125 C 106.644531 212.304688 97.105469 221.84375 85.332031 221.867188 C 85.273438 221.867188 85.226562 221.894531 85.167969 221.898438 C 84.855469 221.925781 84.550781 221.988281 84.253906 222.082031 C 84.015625 222.128906 83.785156 222.195312 83.558594 222.277344 C 83.3125 222.410156 83.078125 222.566406 82.863281 222.746094 C 82.640625 222.886719 82.433594 223.050781 82.238281 223.226562 C 82.082031 223.417969 81.941406 223.621094 81.8125 223.835938 C 81.632812 224.089844 81.476562 224.359375 81.351562 224.644531 C 81.351562 224.695312 81.292969 224.730469 81.273438 224.785156 L 72.742188 250.386719 C 72.308594 251.6875 72.527344 253.117188 73.332031 254.234375 C 74.136719 255.347656 75.425781 256.003906 76.800781 256 L 179.199219 256 C 180.570312 256 181.859375 255.339844 182.660156 254.226562 C 183.460938 253.113281 183.675781 251.683594 183.246094 250.386719 L 174.710938 224.785156 C 174.710938 224.730469 174.652344 224.695312 174.636719 224.644531 C 174.511719 224.359375 174.355469 224.089844 174.171875 223.839844 C 174.050781 223.625 173.90625 223.421875 173.746094 223.226562 C 173.554688 223.050781 173.347656 222.886719 173.125 222.746094 C 172.910156 222.566406 172.675781 222.410156 172.429688 222.277344 C 172.203125 222.195312 171.96875 222.128906 171.734375 222.082031 C 171.4375 221.988281 171.132812 221.925781 170.820312 221.898438 C 170.761719 221.898438 170.714844 221.867188 170.652344 221.867188 C 158.882812 221.84375 149.339844 212.304688 149.320312 200.53125 C 149.335938 188.757812 158.878906 179.214844 170.652344 179.199219 L 243.199219 179.199219 C 250.269531 179.199219 256 173.46875 256 166.398438 L 256 12.800781 C 256 5.730469 250.269531 0 243.199219 0 Z M 140.800781 200.53125 C 140.820312 215.808594 152.347656 228.613281 167.535156 230.234375 L 173.277344 247.464844 L 82.722656 247.464844 L 88.464844 230.234375 C 103.652344 228.613281 115.179688 215.808594 115.199219 200.53125 C 115.203125 192.496094 111.953125 184.800781 106.195312 179.199219 L 149.804688 179.199219 C 144.046875 184.800781 140.796875 192.496094 140.800781 200.53125 Z M 247.464844 166.398438 C 247.464844 168.757812 245.554688 170.667969 243.199219 170.667969 L 12.800781 170.667969 C 10.445312 170.667969 8.535156 168.757812 8.535156 166.398438 L 8.535156 153.601562 L 247.464844 153.601562 Z M 8.535156 145.066406 L 8.535156 12.800781 C 8.535156 10.445312 10.445312 8.535156 12.800781 8.535156 L 243.199219 8.535156 C 245.554688 8.535156 247.464844 10.445312 247.464844 12.800781 L 247.464844 145.066406 Z M 8.535156 145.066406 "/>
<path fill-rule="nonzero" fill="rgb(0%, 0%, 75.294118%)" fill-opacity="1" d="M 8.941406 6.789062 L 248.175781 6.789062 L 248.175781 170.757812 L 8.941406 170.757812 Z M 8.941406 6.789062 "/>
<path fill-rule="nonzero" fill="rgb(33.333333%, 86.666667%, 100%)" fill-opacity="1" d="M 8.101562 6.476562 L 8.101562 170.765625 L 248.558594 170.765625 L 248.558594 6.476562 Z M 17.722656 14.117188 L 85.050781 14.117188 L 85.050781 138.289062 L 17.722656 138.289062 Z M 92.261719 14.117188 L 123.523438 14.117188 L 123.523438 138.289062 L 92.261719 138.289062 Z M 133.140625 14.117188 L 200.46875 14.117188 L 200.46875 138.289062 L 133.140625 138.289062 Z M 207.683594 14.117188 L 238.941406 14.117188 L 238.941406 138.289062 L 207.683594 138.289062 Z M 24.933594 38.953125 L 24.933594 44.683594 L 77.835938 44.683594 L 77.835938 38.953125 Z M 99.476562 38.953125 L 99.476562 44.683594 L 116.308594 44.683594 L 116.308594 38.953125 Z M 140.355469 38.953125 L 140.355469 44.683594 L 193.253906 44.683594 L 193.253906 38.953125 Z M 214.894531 38.953125 L 214.894531 44.683594 L 231.726562 44.683594 L 231.726562 38.953125 Z M 24.933594 52.324219 L 24.933594 58.054688 L 77.835938 58.054688 L 77.835938 52.324219 Z M 99.476562 52.324219 L 99.476562 58.054688 L 116.308594 58.054688 L 116.308594 52.324219 Z M 140.355469 52.324219 L 140.355469 58.054688 L 193.253906 58.054688 L 193.253906 52.324219 Z M 214.894531 52.324219 L 214.894531 58.054688 L 231.726562 58.054688 L 231.726562 52.324219 Z M 24.933594 65.699219 L 24.933594 71.429688 L 77.835938 71.429688 L 77.835938 65.699219 Z M 99.476562 65.699219 L 99.476562 71.429688 L 116.308594 71.429688 L 116.308594 65.699219 Z M 140.355469 65.699219 L 140.355469 71.429688 L 193.253906 71.429688 L 193.253906 65.699219 Z M 214.894531 65.699219 L 214.894531 71.429688 L 231.726562 71.429688 L 231.726562 65.699219 Z M 24.933594 79.070312 L 24.933594 84.800781 L 77.835938 84.800781 L 77.835938 79.070312 Z M 99.476562 79.070312 L 99.476562 84.800781 L 116.308594 84.800781 L 116.308594 79.070312 Z M 24.933594 92.441406 L 24.933594 98.171875 L 77.835938 98.171875 L 77.835938 92.441406 Z M 99.476562 92.441406 L 99.476562 98.171875 L 116.308594 98.171875 L 116.308594 92.441406 Z M 17.722656 144.019531 L 123.523438 144.019531 L 123.523438 163.125 L 17.722656 163.125 Z M 133.140625 144.019531 L 238.941406 144.019531 L 238.941406 163.125 L 133.140625 163.125 Z M 22.53125 150.707031 L 22.53125 156.4375 L 70.621094 156.4375 L 70.621094 150.707031 Z M 77.835938 150.707031 L 77.835938 156.4375 L 85.050781 156.4375 L 85.050781 150.707031 Z M 92.261719 150.707031 L 92.261719 156.4375 L 113.90625 156.4375 L 113.90625 150.707031 Z M 137.949219 150.707031 L 137.949219 156.4375 L 186.042969 156.4375 L 186.042969 150.707031 Z M 193.253906 150.707031 L 193.253906 156.4375 L 200.46875 156.4375 L 200.46875 150.707031 Z M 207.683594 150.707031 L 207.683594 156.4375 L 229.324219 156.4375 L 229.324219 150.707031 Z M 207.683594 150.707031 "/>
<path fill-rule="nonzero" fill="rgb(100%, 100%, 0%)" fill-opacity="1" d="M 150.203125 19.847656 L 150.203125 25.582031 L 188.585938 25.582031 L 188.585938 19.847656 Z M 35.050781 19.851562 L 35.050781 25.582031 L 73.433594 25.582031 L 73.433594 19.851562 Z M 99.824219 19.851562 L 99.824219 25.582031 L 119.015625 25.582031 L 119.015625 19.851562 Z M 214.972656 19.851562 L 214.972656 25.582031 L 234.167969 25.582031 L 234.167969 19.851562 Z M 214.972656 19.851562 "/>
</svg>
