<?xml version="1.0" encoding="UTF-8"?>
<svg xmlns="http://www.w3.org/2000/svg" xmlns:xlink="http://www.w3.org/1999/xlink" width="16" height="16" viewBox="0 0 16 16">
<defs>
<filter id="filter-remove-color" x="0%" y="0%" width="100%" height="100%">
<feColorMatrix color-interpolation-filters="sRGB" values="0 0 0 0 1 0 0 0 0 1 0 0 0 0 1 0 0 0 1 0" />
</filter>
<clipPath id="clip-0">
<rect x="0" y="0" width="16" height="16"/>
</clipPath>
<g id="source-12" clip-path="url(#clip-0)">
<path fill-rule="evenodd" fill="rgb(0%, 0%, 0%)" fill-opacity="1" d="M 8.195312 2.175781 C 5.902344 2.15625 3.605469 2.148438 1.304688 2.15625 C 1.300781 4.726562 1.304688 7.300781 1.3125 9.871094 C 1.339844 9.9375 1.386719 9.96875 1.457031 9.972656 C 3.632812 9.980469 5.808594 9.972656 7.984375 9.941406 C 8.007812 9.925781 8.023438 9.902344 8.03125 9.871094 C 8.039062 8.621094 8.042969 7.371094 8.050781 6.121094 C 8.078125 6.058594 8.125 6.023438 8.195312 6.023438 C 8.261719 6.015625 8.308594 6.042969 8.335938 6.101562 C 8.351562 7.386719 8.351562 8.667969 8.335938 9.953125 C 8.285156 10.113281 8.179688 10.21875 8.023438 10.277344 C 5.789062 10.289062 3.554688 10.289062 1.324219 10.277344 C 1.167969 10.21875 1.0625 10.113281 1.007812 9.953125 C 0.996094 7.03125 0.996094 4.113281 1.007812 1.191406 C 1.050781 1.054688 1.136719 0.953125 1.265625 0.886719 C 3.515625 0.855469 5.769531 0.847656 8.023438 0.867188 C 8.179688 0.921875 8.285156 1.03125 8.335938 1.191406 C 8.351562 1.488281 8.351562 1.78125 8.335938 2.074219 C 8.304688 2.128906 8.257812 2.164062 8.195312 2.175781 Z M 8.195312 2.175781 "/>
</g>
<mask id="mask-0">
<g filter="url(#filter-remove-color)">
<rect x="-1.6" y="-1.6" width="19.2" height="19.2" fill="rgb(0%, 0%, 0%)" fill-opacity="0.99"/>
</g>
</mask>
<clipPath id="clip-1">
<rect x="0" y="0" width="16" height="16"/>
</clipPath>
<g id="source-18" clip-path="url(#clip-1)">
<path fill-rule="evenodd" fill="rgb(1.568627%, 0.784314%, 0.784314%)" fill-opacity="1" d="M 8.195312 5.394531 C 7.074219 6.535156 5.957031 7.675781 4.84375 8.820312 C 4.347656 8.964844 3.847656 9.085938 3.34375 9.1875 C 3.242188 9.183594 3.1875 9.128906 3.179688 9.027344 C 3.289062 8.558594 3.394531 8.085938 3.496094 7.613281 C 3.5 7.5625 3.519531 7.515625 3.554688 7.476562 C 5.109375 5.886719 6.65625 4.289062 8.195312 2.683594 C 8.386719 2.496094 8.578125 2.300781 8.769531 2.105469 C 8.972656 1.960938 9.175781 1.960938 9.378906 2.105469 C 9.621094 2.351562 9.859375 2.597656 10.097656 2.839844 C 10.214844 3.042969 10.214844 3.246094 10.097656 3.449219 C 9.464844 4.101562 8.832031 4.75 8.195312 5.394531 Z M 8.195312 5.394531 "/>
</g>
</defs>
<path fill-rule="nonzero" fill="rgb(60.784314%, 78.823529%, 100%)" fill-opacity="1" d="M 15.734375 9.332031 L 15.734375 10.398438 C 15.734375 10.695312 15.492188 10.933594 15.199219 10.933594 L 10.667969 10.933594 C 9.78125 10.933594 9.066406 11.648438 9.066406 12.535156 C 9.066406 13.417969 9.785156 14.132812 10.667969 14.132812 L 11.199219 15.734375 L 4.800781 15.734375 L 5.332031 14.132812 C 6.214844 14.132812 6.933594 13.417969 6.933594 12.535156 C 6.933594 11.648438 6.21875 10.933594 5.332031 10.933594 L 0.800781 10.933594 C 0.503906 10.933594 0.265625 10.695312 0.265625 10.398438 L 0.265625 9.332031 Z M 15.734375 9.332031 "/>
<path fill-rule="nonzero" fill="rgb(0%, 100%, 0%)" fill-opacity="1" d="M 7.695312 11.574219 L 7.695312 12.144531 L 8.304688 12.144531 L 8.304688 11.574219 Z M 7.914062 11.605469 L 7.917969 11.605469 L 7.917969 12.113281 L 7.914062 12.113281 Z M 8.085938 11.605469 L 8.085938 12.113281 Z M 8.085938 11.605469 "/>
<path fill-rule="nonzero" fill="rgb(12.54902%, 47.843137%, 82.745098%)" fill-opacity="1" d="M 15.199219 0 L 0.800781 0 C 0.359375 0 0 0.359375 0 0.800781 L 0 10.398438 C 0 10.839844 0.359375 11.199219 0.800781 11.199219 L 5.332031 11.199219 C 6.070312 11.199219 6.664062 11.796875 6.667969 12.535156 C 6.664062 13.269531 6.070312 13.867188 5.332031 13.867188 C 5.328125 13.867188 5.328125 13.867188 5.324219 13.867188 C 5.304688 13.871094 5.285156 13.875 5.265625 13.878906 C 5.25 13.882812 5.238281 13.886719 5.222656 13.890625 C 5.207031 13.902344 5.191406 13.910156 5.179688 13.921875 C 5.164062 13.929688 5.152344 13.941406 5.140625 13.953125 C 5.128906 13.964844 5.121094 13.976562 5.113281 13.988281 C 5.101562 14.003906 5.09375 14.023438 5.085938 14.039062 C 5.085938 14.042969 5.082031 14.046875 5.078125 14.050781 L 4.546875 15.648438 C 4.519531 15.730469 4.53125 15.820312 4.582031 15.890625 C 4.632812 15.960938 4.714844 16 4.800781 16 L 11.199219 16 C 11.285156 16 11.367188 15.957031 11.417969 15.890625 C 11.464844 15.820312 11.480469 15.730469 11.453125 15.648438 L 10.917969 14.050781 C 10.917969 14.046875 10.914062 14.042969 10.914062 14.039062 C 10.90625 14.023438 10.898438 14.003906 10.886719 13.988281 C 10.878906 13.976562 10.871094 13.964844 10.859375 13.953125 C 10.847656 13.941406 10.835938 13.929688 10.820312 13.921875 C 10.808594 13.910156 10.792969 13.902344 10.777344 13.890625 C 10.761719 13.886719 10.75 13.882812 10.734375 13.878906 C 10.714844 13.875 10.695312 13.871094 10.675781 13.867188 C 10.671875 13.867188 10.667969 13.867188 10.664062 13.867188 C 9.929688 13.867188 9.332031 13.269531 9.332031 12.535156 C 9.332031 11.796875 9.929688 11.199219 10.664062 11.199219 L 15.199219 11.199219 C 15.640625 11.199219 16 10.839844 16 10.398438 L 16 0.800781 C 16 0.359375 15.640625 0 15.199219 0 Z M 8.800781 12.535156 C 8.800781 13.488281 9.523438 14.289062 10.472656 14.390625 L 10.828125 15.464844 L 5.171875 15.464844 L 5.527344 14.390625 C 6.476562 14.289062 7.199219 13.488281 7.199219 12.535156 C 7.199219 12.03125 6.996094 11.550781 6.636719 11.199219 L 9.363281 11.199219 C 9.003906 11.550781 8.800781 12.03125 8.800781 12.535156 Z M 15.464844 10.398438 C 15.464844 10.546875 15.347656 10.667969 15.199219 10.667969 L 0.800781 10.667969 C 0.652344 10.667969 0.535156 10.546875 0.535156 10.398438 L 0.535156 9.601562 L 15.464844 9.601562 Z M 0.535156 9.066406 L 0.535156 0.800781 C 0.535156 0.652344 0.652344 0.535156 0.800781 0.535156 L 15.199219 0.535156 C 15.347656 0.535156 15.464844 0.652344 15.464844 0.800781 L 15.464844 9.066406 Z M 0.535156 9.066406 "/>
<path fill-rule="nonzero" fill="rgb(0%, 0%, 75.294118%)" fill-opacity="1" d="M 0.558594 0.425781 L 15.511719 0.425781 L 15.511719 10.671875 L 0.558594 10.671875 Z M 0.558594 0.425781 "/>
<path fill-rule="nonzero" fill="rgb(33.333333%, 86.666667%, 100%)" fill-opacity="1" d="M 0.507812 0.40625 L 0.507812 10.671875 L 15.535156 10.671875 L 15.535156 0.40625 Z M 1.109375 0.882812 L 5.316406 0.882812 L 5.316406 8.644531 L 1.109375 8.644531 Z M 5.765625 0.882812 L 7.71875 0.882812 L 7.71875 8.644531 L 5.765625 8.644531 Z M 8.320312 0.882812 L 12.53125 0.882812 L 12.53125 8.644531 L 8.320312 8.644531 Z M 12.980469 0.882812 L 14.933594 0.882812 L 14.933594 8.644531 L 12.980469 8.644531 Z M 1.558594 2.433594 L 1.558594 2.792969 L 4.863281 2.792969 L 4.863281 2.433594 Z M 6.21875 2.433594 L 6.21875 2.792969 L 7.269531 2.792969 L 7.269531 2.433594 Z M 8.773438 2.433594 L 8.773438 2.792969 L 12.078125 2.792969 L 12.078125 2.433594 Z M 13.429688 2.433594 L 13.429688 2.792969 L 14.484375 2.792969 L 14.484375 2.433594 Z M 1.558594 3.269531 L 1.558594 3.628906 L 4.863281 3.628906 L 4.863281 3.269531 Z M 6.21875 3.269531 L 6.21875 3.628906 L 7.269531 3.628906 L 7.269531 3.269531 Z M 8.773438 3.269531 L 8.773438 3.628906 L 12.078125 3.628906 L 12.078125 3.269531 Z M 13.429688 3.269531 L 13.429688 3.628906 L 14.484375 3.628906 L 14.484375 3.269531 Z M 1.558594 4.105469 L 1.558594 4.464844 L 4.863281 4.464844 L 4.863281 4.105469 Z M 6.21875 4.105469 L 6.21875 4.464844 L 7.269531 4.464844 L 7.269531 4.105469 Z M 8.773438 4.105469 L 8.773438 4.464844 L 12.078125 4.464844 L 12.078125 4.105469 Z M 13.429688 4.105469 L 13.429688 4.464844 L 14.484375 4.464844 L 14.484375 4.105469 Z M 1.558594 4.941406 L 1.558594 5.300781 L 4.863281 5.300781 L 4.863281 4.941406 Z M 6.21875 4.941406 L 6.21875 5.300781 L 7.269531 5.300781 L 7.269531 4.941406 Z M 1.558594 5.777344 L 1.558594 6.136719 L 4.863281 6.136719 L 4.863281 5.777344 Z M 6.21875 5.777344 L 6.21875 6.136719 L 7.269531 6.136719 L 7.269531 5.777344 Z M 1.109375 9 L 7.71875 9 L 7.71875 10.195312 L 1.109375 10.195312 Z M 8.320312 9 L 14.933594 9 L 14.933594 10.195312 L 8.320312 10.195312 Z M 1.40625 9.417969 L 1.40625 9.777344 L 4.414062 9.777344 L 4.414062 9.417969 Z M 4.863281 9.417969 L 4.863281 9.777344 L 5.316406 9.777344 L 5.316406 9.417969 Z M 5.765625 9.417969 L 5.765625 9.777344 L 7.117188 9.777344 L 7.117188 9.417969 Z M 8.621094 9.417969 L 8.621094 9.777344 L 11.628906 9.777344 L 11.628906 9.417969 Z M 12.078125 9.417969 L 12.078125 9.777344 L 12.53125 9.777344 L 12.53125 9.417969 Z M 12.980469 9.417969 L 12.980469 9.777344 L 14.332031 9.777344 L 14.332031 9.417969 Z M 12.980469 9.417969 "/>
<path fill-rule="nonzero" fill="rgb(100%, 100%, 0%)" fill-opacity="1" d="M 9.386719 1.242188 L 9.386719 1.597656 L 11.785156 1.597656 L 11.785156 1.242188 Z M 2.191406 1.242188 L 2.191406 1.597656 L 4.589844 1.597656 L 4.589844 1.242188 Z M 6.238281 1.242188 L 6.238281 1.597656 L 7.4375 1.597656 L 7.4375 1.242188 Z M 13.4375 1.242188 L 13.4375 1.597656 L 14.636719 1.597656 L 14.636719 1.242188 Z M 13.4375 1.242188 "/>
<use xlink:href="#source-12"/>
<path fill-rule="evenodd" fill="rgb(96.470588%, 54.509804%, 11.372549%)" fill-opacity="1" d="M 8.039062 1.328125 C 5.917969 1.324219 3.792969 1.328125 1.667969 1.339844 C 1.46875 1.445312 1.398438 1.613281 1.457031 1.839844 C 1.40625 1.839844 1.355469 1.839844 1.304688 1.839844 C 1.300781 1.648438 1.304688 1.460938 1.3125 1.269531 C 1.328125 1.226562 1.359375 1.199219 1.398438 1.183594 C 3.582031 1.167969 5.761719 1.167969 7.945312 1.183594 C 8.007812 1.210938 8.039062 1.257812 8.039062 1.328125 Z M 8.039062 1.328125 "/>
<path fill-rule="evenodd" fill="rgb(98.431373%, 70.980392%, 29.803922%)" fill-opacity="1" d="M 8.039062 1.328125 C 8.039062 1.5 8.039062 1.667969 8.039062 1.839844 C 5.847656 1.839844 3.652344 1.839844 1.457031 1.839844 C 1.398438 1.613281 1.46875 1.445312 1.667969 1.339844 C 3.792969 1.328125 5.917969 1.324219 8.039062 1.328125 Z M 8.039062 1.328125 "/>
<g mask="url(#mask-0)">
<use xlink:href="#source-18"/>
</g>
<path fill-rule="evenodd" fill="rgb(87.058824%, 87.058824%, 87.058824%)" fill-opacity="1" d="M 8.195312 2.175781 C 8.195312 2.21875 8.195312 2.265625 8.195312 2.3125 C 7.199219 2.3125 6.257812 2.527344 5.363281 2.960938 C 4.25 2.957031 3.140625 2.960938 2.03125 2.96875 C 1.910156 3.058594 1.90625 3.15625 2.011719 3.265625 C 3.570312 3.273438 5.125 3.277344 6.683594 3.273438 C 6.027344 3.289062 5.371094 3.300781 4.710938 3.304688 C 4.445312 3.464844 4.195312 3.648438 3.964844 3.851562 C 4.566406 3.855469 5.167969 3.867188 5.761719 3.882812 C 4.511719 3.878906 3.261719 3.882812 2.011719 3.890625 C 1.902344 4.007812 1.914062 4.105469 2.050781 4.1875 C 2.554688 4.195312 3.058594 4.199219 3.5625 4.195312 C 3.386719 4.378906 3.214844 4.566406 3.046875 4.757812 C 3.640625 4.761719 4.234375 4.769531 4.824219 4.785156 C 3.886719 4.78125 2.949219 4.785156 2.011719 4.796875 C 1.929688 4.863281 1.914062 4.945312 1.964844 5.042969 C 1.980469 5.066406 2.003906 5.082031 2.03125 5.089844 C 2.28125 5.101562 2.527344 5.105469 2.777344 5.101562 C 2.648438 5.289062 2.527344 5.488281 2.414062 5.691406 C 2.269531 5.679688 2.132812 5.691406 1.992188 5.71875 C 1.910156 5.824219 1.921875 5.917969 2.03125 5.992188 C 2.707031 6.003906 3.382812 6.007812 4.058594 6.003906 C 3.449219 6.019531 2.839844 6.03125 2.222656 6.035156 C 2.101562 6.238281 2.011719 6.453125 1.953125 6.671875 C 1.9375 6.707031 1.933594 6.746094 1.933594 6.789062 C 1.921875 6.773438 1.910156 6.753906 1.90625 6.730469 C 1.535156 7.777344 1.382812 8.859375 1.457031 9.972656 C 1.386719 9.96875 1.339844 9.9375 1.3125 9.871094 C 1.304688 7.300781 1.300781 4.726562 1.304688 2.15625 C 3.605469 2.148438 5.902344 2.15625 8.195312 2.175781 Z M 8.195312 2.175781 "/>
<path fill-rule="evenodd" fill="rgb(92.941176%, 92.941176%, 92.941176%)" fill-opacity="1" d="M 8.195312 2.3125 C 8.195312 2.4375 8.195312 2.558594 8.195312 2.683594 C 6.65625 4.289062 5.109375 5.886719 3.554688 7.476562 C 3.519531 7.515625 3.5 7.5625 3.496094 7.613281 C 3.394531 8.085938 3.289062 8.558594 3.179688 9.027344 C 3.1875 9.128906 3.242188 9.183594 3.34375 9.1875 C 3.847656 9.085938 4.347656 8.964844 4.84375 8.820312 C 5.957031 7.675781 7.074219 6.535156 8.195312 5.394531 C 8.195312 5.605469 8.195312 5.8125 8.195312 6.023438 C 8.125 6.023438 8.078125 6.058594 8.050781 6.121094 C 8.042969 7.371094 8.039062 8.621094 8.03125 9.871094 C 8.023438 9.902344 8.007812 9.925781 7.984375 9.941406 C 5.808594 9.972656 3.632812 9.980469 1.457031 9.972656 C 1.382812 8.859375 1.535156 7.777344 1.90625 6.730469 C 1.910156 6.753906 1.921875 6.773438 1.933594 6.789062 C 1.949219 6.832031 1.976562 6.871094 2.011719 6.898438 C 2.457031 6.910156 2.90625 6.910156 3.351562 6.898438 C 3.464844 6.78125 3.449219 6.679688 3.3125 6.601562 C 2.886719 6.589844 2.457031 6.589844 2.03125 6.601562 C 2 6.621094 1.976562 6.644531 1.953125 6.671875 C 2.011719 6.453125 2.101562 6.238281 2.222656 6.035156 C 2.839844 6.03125 3.449219 6.019531 4.058594 6.003906 C 4.1875 5.960938 4.222656 5.875 4.164062 5.75 C 4.144531 5.722656 4.113281 5.703125 4.078125 5.699219 C 3.523438 5.691406 2.96875 5.6875 2.414062 5.691406 C 2.527344 5.488281 2.648438 5.289062 2.777344 5.101562 C 3.464844 5.105469 4.15625 5.101562 4.84375 5.089844 C 4.949219 5.050781 4.984375 4.976562 4.949219 4.863281 C 4.917969 4.820312 4.878906 4.792969 4.824219 4.785156 C 4.234375 4.769531 3.640625 4.761719 3.046875 4.757812 C 3.214844 4.566406 3.386719 4.378906 3.5625 4.195312 C 4.296875 4.199219 5.03125 4.195312 5.761719 4.1875 C 5.867188 4.144531 5.902344 4.070312 5.867188 3.960938 C 5.839844 3.921875 5.804688 3.894531 5.761719 3.882812 C 5.167969 3.867188 4.566406 3.855469 3.964844 3.851562 C 4.195312 3.648438 4.445312 3.464844 4.710938 3.304688 C 5.371094 3.300781 6.027344 3.289062 6.683594 3.273438 C 6.796875 3.222656 6.824219 3.136719 6.769531 3.019531 C 6.742188 3 6.710938 2.984375 6.683594 2.96875 C 6.242188 2.960938 5.800781 2.957031 5.363281 2.960938 C 6.257812 2.527344 7.199219 2.3125 8.195312 2.3125 Z M 8.195312 2.3125 "/>
<path fill-rule="evenodd" fill="rgb(84.313725%, 10.588235%, 37.647059%)" fill-opacity="1" d="M 9.859375 3.195312 C 9.835938 3.140625 9.796875 3.097656 9.746094 3.066406 C 9.3125 2.828125 8.878906 2.824219 8.441406 3.046875 C 8.378906 3.089844 8.320312 3.136719 8.269531 3.195312 C 8.238281 3.179688 8.226562 3.152344 8.242188 3.117188 C 8.492188 2.859375 8.746094 2.597656 8.996094 2.339844 C 9.050781 2.328125 9.101562 2.328125 9.152344 2.339844 C 9.390625 2.585938 9.628906 2.832031 9.867188 3.078125 C 9.882812 3.121094 9.878906 3.160156 9.859375 3.195312 Z M 9.859375 3.195312 "/>
<path fill-rule="evenodd" fill="rgb(91.764706%, 25.098039%, 47.058824%)" fill-opacity="1" d="M 9.859375 3.195312 C 9.613281 3.480469 9.351562 3.757812 9.074219 4.019531 C 8.800781 3.75 8.53125 3.476562 8.269531 3.195312 C 8.320312 3.136719 8.378906 3.089844 8.441406 3.046875 C 8.878906 2.824219 9.3125 2.828125 9.746094 3.066406 C 9.796875 3.097656 9.835938 3.140625 9.859375 3.195312 Z M 9.859375 3.195312 "/>
<path fill-rule="evenodd" fill="rgb(2.745098%, 2.745098%, 2.745098%)" fill-opacity="1" d="M 5.363281 2.960938 C 5.800781 2.957031 6.242188 2.960938 6.683594 2.96875 C 6.710938 2.984375 6.742188 3 6.769531 3.019531 C 6.824219 3.136719 6.796875 3.222656 6.683594 3.273438 C 5.125 3.277344 3.570312 3.273438 2.011719 3.265625 C 1.90625 3.15625 1.910156 3.058594 2.03125 2.96875 C 3.140625 2.960938 4.25 2.957031 5.363281 2.960938 Z M 5.363281 2.960938 "/>
<path fill-rule="evenodd" fill="rgb(94.901961%, 54.117647%, 11.372549%)" fill-opacity="1" d="M 8.804688 4.296875 C 8.652344 4.101562 8.476562 3.941406 8.269531 3.8125 C 8.046875 3.738281 7.828125 3.753906 7.621094 3.863281 C 7.597656 3.851562 7.578125 3.835938 7.5625 3.8125 C 7.707031 3.664062 7.851562 3.515625 8.003906 3.371094 C 8.292969 3.660156 8.578125 3.949219 8.863281 4.246094 C 8.847656 4.265625 8.828125 4.28125 8.804688 4.296875 Z M 8.804688 4.296875 "/>
<path fill-rule="evenodd" fill="rgb(97.647059%, 64.705882%, 15.686275%)" fill-opacity="1" d="M 8.804688 4.296875 C 8.6875 4.433594 8.558594 4.5625 8.421875 4.6875 C 8.148438 4.417969 7.882812 4.144531 7.621094 3.863281 C 7.828125 3.753906 8.046875 3.738281 8.269531 3.8125 C 8.476562 3.941406 8.652344 4.101562 8.804688 4.296875 Z M 8.804688 4.296875 "/>
<path fill-rule="evenodd" fill="rgb(3.137255%, 3.137255%, 3.137255%)" fill-opacity="1" d="M 5.761719 3.882812 C 5.804688 3.894531 5.839844 3.921875 5.867188 3.960938 C 5.902344 4.070312 5.867188 4.144531 5.761719 4.1875 C 5.03125 4.195312 4.296875 4.199219 3.5625 4.195312 C 3.058594 4.199219 2.554688 4.195312 2.050781 4.1875 C 1.914062 4.105469 1.902344 4.007812 2.011719 3.890625 C 3.261719 3.882812 4.511719 3.878906 5.761719 3.882812 Z M 5.761719 3.882812 "/>
<path fill-rule="evenodd" fill="rgb(94.509804%, 47.843137%, 12.156863%)" fill-opacity="1" d="M 7.332031 4.039062 C 7.457031 4.144531 7.5625 4.261719 7.648438 4.394531 C 6.5 5.570312 5.351562 6.75 4.203125 7.929688 C 4.101562 7.824219 4 7.71875 3.898438 7.613281 C 3.882812 7.601562 3.882812 7.589844 3.898438 7.574219 C 5.046875 6.398438 6.191406 5.222656 7.332031 4.039062 Z M 7.332031 4.039062 "/>
<path fill-rule="evenodd" fill="rgb(95.294118%, 54.117647%, 11.372549%)" fill-opacity="1" d="M 7.847656 4.609375 C 7.871094 4.605469 7.890625 4.609375 7.90625 4.621094 C 8 4.714844 8.09375 4.808594 8.183594 4.902344 C 8.199219 4.917969 8.199219 4.929688 8.183594 4.941406 C 7.035156 6.121094 5.886719 7.300781 4.738281 8.480469 C 4.636719 8.375 4.535156 8.269531 4.433594 8.164062 C 4.421875 8.152344 4.421875 8.136719 4.433594 8.125 C 5.574219 6.957031 6.714844 5.785156 7.847656 4.609375 Z M 7.847656 4.609375 "/>
<path fill-rule="evenodd" fill="rgb(1.568627%, 1.568627%, 1.568627%)" fill-opacity="1" d="M 4.824219 4.785156 C 4.878906 4.792969 4.917969 4.820312 4.949219 4.863281 C 4.984375 4.976562 4.949219 5.050781 4.84375 5.089844 C 4.15625 5.101562 3.464844 5.105469 2.777344 5.101562 C 2.527344 5.105469 2.28125 5.101562 2.03125 5.089844 C 2.003906 5.082031 1.980469 5.066406 1.964844 5.042969 C 1.914062 4.945312 1.929688 4.863281 2.011719 4.796875 C 2.949219 4.785156 3.886719 4.78125 4.824219 4.785156 Z M 4.824219 4.785156 "/>
<path fill-rule="evenodd" fill="rgb(0.392157%, 0.392157%, 0.392157%)" fill-opacity="1" d="M 2.414062 5.691406 C 2.96875 5.6875 3.523438 5.691406 4.078125 5.699219 C 4.113281 5.703125 4.144531 5.722656 4.164062 5.75 C 4.222656 5.875 4.1875 5.960938 4.058594 6.003906 C 3.382812 6.007812 2.707031 6.003906 2.03125 5.992188 C 1.921875 5.917969 1.910156 5.824219 1.992188 5.71875 C 2.132812 5.691406 2.269531 5.679688 2.414062 5.691406 Z M 2.414062 5.691406 "/>
<path fill-rule="evenodd" fill="rgb(2.745098%, 2.745098%, 2.745098%)" fill-opacity="1" d="M 1.933594 6.789062 C 1.933594 6.746094 1.9375 6.707031 1.953125 6.671875 C 1.976562 6.644531 2 6.621094 2.03125 6.601562 C 2.457031 6.589844 2.886719 6.589844 3.3125 6.601562 C 3.449219 6.679688 3.464844 6.78125 3.351562 6.898438 C 2.90625 6.910156 2.457031 6.910156 2.011719 6.898438 C 1.976562 6.871094 1.949219 6.832031 1.933594 6.789062 Z M 1.933594 6.789062 "/>
<path fill-rule="evenodd" fill="rgb(12.54902%, 12.54902%, 12.54902%)" fill-opacity="1" d="M 4.347656 8.636719 C 4.292969 8.589844 4.226562 8.5625 4.15625 8.546875 C 3.941406 8.503906 3.75 8.554688 3.582031 8.695312 C 3.621094 8.464844 3.667969 8.234375 3.726562 8.007812 C 3.730469 7.972656 3.746094 7.945312 3.773438 7.929688 C 3.996094 8.144531 4.214844 8.367188 4.421875 8.597656 C 4.398438 8.613281 4.375 8.625 4.347656 8.636719 Z M 4.347656 8.636719 "/>
<path fill-rule="evenodd" fill="rgb(25.882353%, 25.882353%, 25.882353%)" fill-opacity="1" d="M 4.347656 8.636719 C 4.089844 8.691406 3.835938 8.75 3.582031 8.8125 C 3.570312 8.804688 3.554688 8.800781 3.542969 8.792969 C 3.554688 8.757812 3.570312 8.726562 3.582031 8.695312 C 3.75 8.554688 3.941406 8.503906 4.15625 8.546875 C 4.226562 8.5625 4.292969 8.589844 4.347656 8.636719 Z M 4.347656 8.636719 "/>
</svg>
