<svg xmlns="http://www.w3.org/2000/svg" width="16" height="16">
    <path d="M0 953.15h128v128H0Z" style="fill:#00c;fill-opacity:1;stroke-width:1.28" transform="matrix(.125 0 0 .125 0 -119.144)"/>
    <path d="M0 1063.23v17.92h128v-17.92z" style="fill:#2b0000;fill-opacity:1;stroke-width:1.28" transform="matrix(.125 0 0 .125 0 -119.144)"/>
    <path d="M30.72 1072.099v9.05H51.2v-9.05zm25.6 0v9.05H76.8v-9.05zm25.6 0v9.05h20.48v-9.05zm-76.8.092v8.959H25.6v-8.96H5.12Zm102.4 0v8.959H128v-8.96h-20.48z" style="fill:teal;fill-opacity:1;stroke-width:1.28" transform="matrix(.125 0 0 .125 0 -119.144)"/>
    <path d="M0 1063.23v8.96h10.24v-4.48H5.12v-4.48z" style="fill:#e6e6e6;fill-opacity:1;stroke-width:1.28" transform="matrix(.125 0 0 .125 0 -119.144)"/>
    <path d="M0 953.15v110.079h128V953.15Zm5.12 5.119h35.84v83.2H5.12Zm39.68 0h16.64v83.2H44.8Zm21.76 0h35.84v83.2H66.56Zm39.68 0h16.64v83.2h-16.64zm-97.28 16.64v3.84h28.16v-3.84zm39.68 0v3.84h8.96v-3.84zm21.76 0v3.84h28.16v-3.84zm39.68 0v3.84h8.96v-3.84zM8.96 983.87v3.84h28.16v-3.84zm39.68 0v3.84h8.96v-3.84zm21.76 0v3.84h28.16v-3.84zm39.68 0v3.84h8.96v-3.84zM8.96 992.83v3.84h28.16v-3.84zm39.68 0v3.84h8.96v-3.84zm21.76 0v3.84h28.16v-3.84zm39.68 0v3.84h8.96v-3.84zm-101.12 8.96v3.84h28.16v-3.84zm39.68 0v3.84h8.96v-3.84zm-39.68 8.96v3.84h28.16v-3.84zm39.68 0v3.84h8.96v-3.84zm-43.52 34.56h56.32v12.8H5.12Zm61.44 0h56.32v12.8H66.56Zm-58.88 4.48v3.84h25.6v-3.84zm29.44 0v3.84h3.84v-3.84zm7.68 0v3.84h11.52v-3.84zm24.32 0v3.84h25.6v-3.84zm29.44 0v3.84h3.84v-3.84zm7.68 0v3.84h11.52v-3.84z" style="fill:#5df;fill-opacity:1;stroke-width:1.28" transform="matrix(.125 0 0 .125 0 -119.144)"/>
    <path d="M75.52 962.109v3.841H96v-3.841zm-61.44.002v3.84h20.48v-3.84zm34.56 0v3.84h10.24v-3.84zm61.44 0v3.84h10.24v-3.84z" style="fill:#ff0;fill-opacity:1;stroke-width:1.28" transform="matrix(.125 0 0 .125 0 -119.144)"/>
    <g style="clip-rule:evenodd;fill-rule:evenodd;image-rendering:optimizeQuality;shape-rendering:geometricPrecision;text-rendering:geometricPrecision">
        <path d="M205.96 15.509c-58.833.166-117.657.662-176.463 1.492-6.648 3.314-11.148 8.48-13.5 15.5a49726.54 49726.54 0 0 0 0 445.998c2.834 8.167 8.338 13.67 16.504 16.504 116.667.667 233.332.667 349.998 0 8.167-2.833 13.671-8.337 16.504-16.504a9599.42 9599.42 0 0 0 0-196c-1.539-3.02-4.04-4.353-7.5-4-3.59.045-6.091 1.716-7.501 5.005-.333 63.667-.672 127.329-1.005 190.996A6.977 6.977 0 0 1 380.5 478a19452.499 19452.499 0 0 1-341.005 1.502c-3.59-.044-6.08-1.714-7.491-5.003-.5-131-.674-262.005-.507-393.004 120.168-.333 240.174.005 360.006 1.004 3.287-.555 5.787-2.226 7.5-5.004.667-15 .667-29.996 0-44.996-2.833-8.166-8.337-13.67-16.503-16.503-58.862-.497-117.707-.655-176.54-.488Zm231.553 57.988c-5.334 0-10.677 1.836-16.016 5.502a1246.688 1246.688 0 0 1-29.994 29.506 27866.43 27866.43 0 0 1-242.508 244c-1.75 1.99-2.745 4.316-2.994 6.993a2871.497 2871.497 0 0 1-16.504 72.005c.438 5.208 3.276 7.873 8.505 7.999a1035.432 1035.432 0 0 0 78.501-18.504 43153.258 43153.258 0 0 1 175-174.501 13937.14 13937.14 0 0 0 99.501-98.995c6-10.333 6-20.666 0-30.999L453.5 79c-5.327-3.666-10.654-5.502-15.987-5.502zm-194.01 49.005c-58-.167-116.005-.002-174.004.497-6.247 4.514-6.575 9.516-.995 15.002 81.333.5 162.666.665 244 .498 5.905-2.687 7.401-7.022 4.496-13.002a29.468 29.468 0 0 0-4.496-2.498c-22.998-.5-46-.664-69.001-.497zm21 46.995c-65.333-.167-130.667.007-196 .508-5.779 5.876-5.112 10.868 2 14.992 26.332.5 52.664.674 79 .507 38.334.167 76.669-.007 115-.507 5.446-2.11 7.27-5.944 5.492-11.5-1.45-1.964-3.275-3.297-5.491-4zm-122.502 46c-24.5.084-48.998.248-73.497.498-4.253 3.42-5.093 7.592-2.507 12.505a6.976 6.976 0 0 0 3.502 2.497c12.996.5 25.993.674 38.997.507 36.002.167 72.01-.007 108.007-.507 5.424-2.017 7.26-5.85 5.502-11.5-1.638-2.234-3.811-3.566-6.506-4-24.5-.083-48.998-.082-73.498 0zm-58.065 45.858a86.603 86.603 0 0 0-16.437 1.646c-4.425 5.44-3.76 10.105 2 13.997 35.332.5 70.663.664 105.998.497 6.74-2.153 8.574-6.478 5.501-12.992-1.17-1.393-2.667-2.234-4.496-2.507-28.998-.5-57.996-.665-86.997-.498a89.397 89.397 0 0 0-5.569-.143zm19.068 46.144c-11.166 0-22.338.164-33.505.497-1.593.95-2.926 2.117-4 3.502-.84 1.88-1.169 3.878-.994 5.999.728 2.235 2.06 4.07 3.999 5.501 23.333.667 46.663.667 69.996 0 5.83-6.006 5.163-11.008-2-15.002-11.166-.333-22.33-.497-33.496-.497z" style="display:inline;opacity:.997" transform="translate(-.396 3.356) scale(.02552)"/>
        <path fill="#f68b1d" d="M9.392 4.364c-2.833-.004-5.666 0-8.499.013-.263.139-.356.356-.28.65H.408c-.004-.247 0-.493.013-.74a.192.192 0 0 1 .115-.115c2.91-.017 5.819-.017 8.728 0 .084.036.126.1.128.192z"/>
        <path fill="#fbb54c" d="M9.392 4.364v.663H.612c-.075-.294.018-.511.281-.65 2.833-.013 5.666-.017 8.499-.013z"/>
        <path fill="#dedede" d="M9.596 5.461v.179a8.8 8.8 0 0 0-3.777.842c-1.48-.004-2.96 0-4.44.013-.16.115-.169.242-.026.382 2.075.013 4.151.017 6.227.013-.872.021-1.748.034-2.629.038a6.856 6.856 0 0 0-.995.715c.804.004 1.603.017 2.399.038-1.668-.004-3.335 0-5.002.013-.148.15-.13.277.05.383a79.61 79.61 0 0 0 2.017.012c-.234.238-.464.48-.69.728.796.004 1.587.017 2.374.038-1.25-.004-2.5 0-3.751.013-.109.087-.13.193-.064.319.023.03.053.052.09.063.33.013.663.018.994.013a8.985 8.985 0 0 0-.484.766c-.19-.011-.378.002-.562.038-.113.139-.096.258.051.357.902.013 1.804.017 2.705.013-.812.021-1.629.034-2.45.038a3.18 3.18 0 0 0-.357.83.307.307 0 0 0-.025.153.142.142 0 0 1-.039-.077 10.176 10.176 0 0 0-.6 4.21.196.196 0 0 1-.19-.127A1970.29 1970.29 0 0 1 .407 5.436c3.067-.009 6.13 0 9.188.025z"/>
        <path fill="#ededed" d="M9.596 5.64v.485a711.106 711.106 0 0 1-6.189 6.226.307.307 0 0 0-.077.179 73.257 73.257 0 0 1-.42 1.837c.01.133.083.2.216.204a26.426 26.426 0 0 0 2.004-.472 1101.21 1101.21 0 0 1 4.466-4.453v.817a.196.196 0 0 0-.192.127l-.025 4.874a.178.178 0 0 1-.064.09c-2.899.038-5.8.05-8.702.038-.097-1.447.103-2.85.6-4.21a.142.142 0 0 0 .038.076.278.278 0 0 0 .102.14c.595.017 1.19.017 1.786 0 .149-.153.132-.28-.051-.383-.57-.017-1.14-.017-1.71 0a.362.362 0 0 0-.102.09 3.18 3.18 0 0 1 .357-.83c.821-.004 1.638-.017 2.45-.038.172-.055.22-.165.14-.332a.18.18 0 0 0-.114-.063c-.74-.013-1.48-.017-2.22-.013.148-.263.31-.518.484-.766.92.005 1.838 0 2.757-.013.138-.051.185-.149.14-.293a.247.247 0 0 0-.166-.102c-.787-.021-1.578-.034-2.373-.038.225-.247.455-.49.689-.728.978.005 1.956 0 2.935-.012.139-.054.185-.152.14-.294a.275.275 0 0 0-.14-.102c-.796-.021-1.595-.034-2.4-.038.311-.268.643-.506.996-.715.88-.004 1.757-.017 2.629-.038.15-.068.189-.179.114-.332a.753.753 0 0 0-.114-.063c-.587-.013-1.174-.017-1.761-.013a8.8 8.8 0 0 1 3.777-.842z"/>
        <path fill="#d71b60" d="M11.816 6.788a.339.339 0 0 0-.153-.166c-.576-.31-1.155-.318-1.735-.025a.927.927 0 0 0-.23.191c-.045-.02-.058-.055-.038-.102l1.008-1.008a.415.415 0 0 1 .204 0l.957.957a.168.168 0 0 1-.013.153z"/>
        <path fill="#ea4078" d="M11.816 6.788c-.33.372-.679.73-1.046 1.072-.367-.35-.724-.707-1.072-1.072a.927.927 0 0 1 .23-.191c.58-.293 1.159-.285 1.735.025.071.04.122.095.153.166z"/>
        <path fill="#f9a528" d="M10.412 8.217a7.219 7.219 0 0 1-.51.51c-.366-.349-.724-.706-1.072-1.071.279-.143.568-.164.868-.064.273.167.511.375.714.625z"/>
        <path fill="#f17a1f" d="M8.447 7.885c.167.137.307.29.421.46l-4.593 4.593-.409-.408c-.017-.018-.017-.035 0-.052C5.4 10.951 6.926 9.42 8.447 7.885z"/>
        <path fill="#f38a1d" d="M9.136 8.625a.126.126 0 0 1 .077.013l.37.37c.017.017.017.034 0 .051l-4.594 4.593-.408-.408c-.017-.017-.017-.034 0-.051 1.524-1.52 3.042-3.042 4.555-4.568z"/>
        <path fill="#202020" d="M4.466 13.856a.584.584 0 0 0-.255-.114.885.885 0 0 0-.766.191c.053-.3.117-.597.192-.893a.129.129 0 0 1 .064-.102c.297.28.587.57.867.867a.417.417 0 0 1-.102.051z"/>
        <path fill="#424242" d="M4.466 13.856c-.341.07-.682.147-1.02.23l-.052-.025.051-.128a.885.885 0 0 1 .766-.191.584.584 0 0 1 .255.114z"/>
    </g>
</svg>
