<?xml version="1.0" encoding="UTF-8"?>
<svg xmlns="http://www.w3.org/2000/svg" xmlns:xlink="http://www.w3.org/1999/xlink" width="16" height="16" viewBox="0 0 16 16">
<path fill-rule="nonzero" fill="rgb(60.784314%, 78.823529%, 100%)" fill-opacity="1" d="M 15.734375 9.332031 L 15.734375 10.398438 C 15.734375 10.695312 15.492188 10.933594 15.199219 10.933594 L 10.667969 10.933594 C 9.78125 10.933594 9.066406 11.648438 9.066406 12.535156 C 9.066406 13.417969 9.785156 14.132812 10.667969 14.132812 L 11.199219 15.734375 L 4.800781 15.734375 L 5.332031 14.132812 C 6.214844 14.132812 6.933594 13.417969 6.933594 12.535156 C 6.933594 11.648438 6.21875 10.933594 5.332031 10.933594 L 0.800781 10.933594 C 0.503906 10.933594 0.265625 10.695312 0.265625 10.398438 L 0.265625 9.332031 Z M 15.734375 9.332031 "/>
<path fill-rule="nonzero" fill="rgb(0%, 100%, 0%)" fill-opacity="1" d="M 7.695312 11.574219 L 7.695312 12.144531 L 8.304688 12.144531 L 8.304688 11.574219 Z M 7.914062 11.605469 L 7.917969 11.605469 L 7.917969 12.113281 L 7.914062 12.113281 Z M 8.085938 11.605469 L 8.085938 12.113281 Z M 8.085938 11.605469 "/>
<path fill-rule="nonzero" fill="rgb(12.54902%, 47.843137%, 82.745098%)" fill-opacity="1" d="M 15.199219 0 L 0.800781 0 C 0.359375 0 0 0.359375 0 0.800781 L 0 10.398438 C 0 10.839844 0.359375 11.199219 0.800781 11.199219 L 5.332031 11.199219 C 6.070312 11.199219 6.664062 11.796875 6.667969 12.535156 C 6.664062 13.269531 6.070312 13.867188 5.332031 13.867188 C 5.328125 13.867188 5.328125 13.867188 5.324219 13.867188 C 5.304688 13.871094 5.285156 13.875 5.265625 13.878906 C 5.25 13.882812 5.238281 13.886719 5.222656 13.890625 C 5.207031 13.902344 5.191406 13.910156 5.179688 13.921875 C 5.164062 13.929688 5.152344 13.941406 5.140625 13.953125 C 5.128906 13.964844 5.121094 13.976562 5.113281 13.988281 C 5.101562 14.003906 5.09375 14.023438 5.085938 14.039062 C 5.085938 14.042969 5.082031 14.046875 5.078125 14.050781 L 4.546875 15.648438 C 4.519531 15.730469 4.53125 15.820312 4.582031 15.890625 C 4.632812 15.960938 4.714844 16 4.800781 16 L 11.199219 16 C 11.285156 16 11.367188 15.957031 11.417969 15.890625 C 11.464844 15.820312 11.480469 15.730469 11.453125 15.648438 L 10.917969 14.050781 C 10.917969 14.046875 10.914062 14.042969 10.914062 14.039062 C 10.90625 14.023438 10.898438 14.003906 10.886719 13.988281 C 10.878906 13.976562 10.871094 13.964844 10.859375 13.953125 C 10.847656 13.941406 10.835938 13.929688 10.820312 13.921875 C 10.808594 13.910156 10.792969 13.902344 10.777344 13.890625 C 10.761719 13.886719 10.75 13.882812 10.734375 13.878906 C 10.714844 13.875 10.695312 13.871094 10.675781 13.867188 C 10.671875 13.867188 10.667969 13.867188 10.664062 13.867188 C 9.929688 13.867188 9.332031 13.269531 9.332031 12.535156 C 9.332031 11.796875 9.929688 11.199219 10.664062 11.199219 L 15.199219 11.199219 C 15.640625 11.199219 16 10.839844 16 10.398438 L 16 0.800781 C 16 0.359375 15.640625 0 15.199219 0 Z M 8.800781 12.535156 C 8.800781 13.488281 9.523438 14.289062 10.472656 14.390625 L 10.828125 15.464844 L 5.171875 15.464844 L 5.527344 14.390625 C 6.476562 14.289062 7.199219 13.488281 7.199219 12.535156 C 7.199219 12.03125 6.996094 11.550781 6.636719 11.199219 L 9.363281 11.199219 C 9.003906 11.550781 8.800781 12.03125 8.800781 12.535156 Z M 15.464844 10.398438 C 15.464844 10.546875 15.347656 10.667969 15.199219 10.667969 L 0.800781 10.667969 C 0.652344 10.667969 0.535156 10.546875 0.535156 10.398438 L 0.535156 9.601562 L 15.464844 9.601562 Z M 0.535156 9.066406 L 0.535156 0.800781 C 0.535156 0.652344 0.652344 0.535156 0.800781 0.535156 L 15.199219 0.535156 C 15.347656 0.535156 15.464844 0.652344 15.464844 0.800781 L 15.464844 9.066406 Z M 0.535156 9.066406 "/>
<path fill-rule="nonzero" fill="rgb(0%, 0%, 75.294118%)" fill-opacity="1" d="M 0.558594 0.425781 L 15.511719 0.425781 L 15.511719 10.671875 L 0.558594 10.671875 Z M 0.558594 0.425781 "/>
<path fill-rule="nonzero" fill="rgb(33.333333%, 86.666667%, 100%)" fill-opacity="1" d="M 0.507812 0.40625 L 0.507812 10.671875 L 15.535156 10.671875 L 15.535156 0.40625 Z M 1.109375 0.882812 L 5.316406 0.882812 L 5.316406 8.644531 L 1.109375 8.644531 Z M 5.765625 0.882812 L 7.71875 0.882812 L 7.71875 8.644531 L 5.765625 8.644531 Z M 8.320312 0.882812 L 12.53125 0.882812 L 12.53125 8.644531 L 8.320312 8.644531 Z M 12.980469 0.882812 L 14.933594 0.882812 L 14.933594 8.644531 L 12.980469 8.644531 Z M 1.558594 2.433594 L 1.558594 2.792969 L 4.863281 2.792969 L 4.863281 2.433594 Z M 6.21875 2.433594 L 6.21875 2.792969 L 7.269531 2.792969 L 7.269531 2.433594 Z M 8.773438 2.433594 L 8.773438 2.792969 L 12.078125 2.792969 L 12.078125 2.433594 Z M 13.429688 2.433594 L 13.429688 2.792969 L 14.484375 2.792969 L 14.484375 2.433594 Z M 1.558594 3.269531 L 1.558594 3.628906 L 4.863281 3.628906 L 4.863281 3.269531 Z M 6.21875 3.269531 L 6.21875 3.628906 L 7.269531 3.628906 L 7.269531 3.269531 Z M 8.773438 3.269531 L 8.773438 3.628906 L 12.078125 3.628906 L 12.078125 3.269531 Z M 13.429688 3.269531 L 13.429688 3.628906 L 14.484375 3.628906 L 14.484375 3.269531 Z M 1.558594 4.105469 L 1.558594 4.464844 L 4.863281 4.464844 L 4.863281 4.105469 Z M 6.21875 4.105469 L 6.21875 4.464844 L 7.269531 4.464844 L 7.269531 4.105469 Z M 8.773438 4.105469 L 8.773438 4.464844 L 12.078125 4.464844 L 12.078125 4.105469 Z M 13.429688 4.105469 L 13.429688 4.464844 L 14.484375 4.464844 L 14.484375 4.105469 Z M 1.558594 4.941406 L 1.558594 5.300781 L 4.863281 5.300781 L 4.863281 4.941406 Z M 6.21875 4.941406 L 6.21875 5.300781 L 7.269531 5.300781 L 7.269531 4.941406 Z M 1.558594 5.777344 L 1.558594 6.136719 L 4.863281 6.136719 L 4.863281 5.777344 Z M 6.21875 5.777344 L 6.21875 6.136719 L 7.269531 6.136719 L 7.269531 5.777344 Z M 1.109375 9 L 7.71875 9 L 7.71875 10.195312 L 1.109375 10.195312 Z M 8.320312 9 L 14.933594 9 L 14.933594 10.195312 L 8.320312 10.195312 Z M 1.40625 9.417969 L 1.40625 9.777344 L 4.414062 9.777344 L 4.414062 9.417969 Z M 4.863281 9.417969 L 4.863281 9.777344 L 5.316406 9.777344 L 5.316406 9.417969 Z M 5.765625 9.417969 L 5.765625 9.777344 L 7.117188 9.777344 L 7.117188 9.417969 Z M 8.621094 9.417969 L 8.621094 9.777344 L 11.628906 9.777344 L 11.628906 9.417969 Z M 12.078125 9.417969 L 12.078125 9.777344 L 12.53125 9.777344 L 12.53125 9.417969 Z M 12.980469 9.417969 L 12.980469 9.777344 L 14.332031 9.777344 L 14.332031 9.417969 Z M 12.980469 9.417969 "/>
<path fill-rule="nonzero" fill="rgb(100%, 100%, 0%)" fill-opacity="1" d="M 9.386719 1.242188 L 9.386719 1.597656 L 11.785156 1.597656 L 11.785156 1.242188 Z M 2.191406 1.242188 L 2.191406 1.597656 L 4.589844 1.597656 L 4.589844 1.242188 Z M 6.238281 1.242188 L 6.238281 1.597656 L 7.4375 1.597656 L 7.4375 1.242188 Z M 13.4375 1.242188 L 13.4375 1.597656 L 14.636719 1.597656 L 14.636719 1.242188 Z M 13.4375 1.242188 "/>
</svg>
