<?xml version="1.0" encoding="UTF-8"?>
<svg xmlns="http://www.w3.org/2000/svg" xmlns:xlink="http://www.w3.org/1999/xlink" width="24" height="24" viewBox="0 0 24 24">
<path fill-rule="nonzero" fill="rgb(60.784314%, 78.823529%, 100%)" fill-opacity="1" d="M 23.601562 14 L 23.601562 15.601562 C 23.597656 16.042969 23.242188 16.398438 22.800781 16.398438 L 16 16.398438 C 14.675781 16.398438 13.601562 17.472656 13.601562 18.800781 C 13.601562 20.125 14.675781 21.199219 16 21.199219 L 16.800781 23.601562 L 7.199219 23.601562 L 8 21.199219 C 9.324219 21.199219 10.398438 20.125 10.398438 18.800781 C 10.398438 17.472656 9.324219 16.398438 8 16.398438 L 1.199219 16.398438 C 0.757812 16.398438 0.402344 16.042969 0.398438 15.601562 L 0.398438 14 Z M 23.601562 14 "/>
<path fill-rule="nonzero" fill="rgb(0%, 100%, 0%)" fill-opacity="1" d="M 11.539062 17.359375 L 11.539062 18.21875 L 12.460938 18.21875 L 12.460938 17.359375 Z M 11.875 17.410156 L 11.875 18.167969 Z M 12.125 17.410156 L 12.125 18.167969 Z M 12.125 17.410156 "/>
<path fill-rule="nonzero" fill="rgb(12.54902%, 47.843137%, 82.745098%)" fill-opacity="1" d="M 22.800781 0 L 1.199219 0 C 0.539062 0 0 0.539062 0 1.199219 L 0 15.601562 C 0 16.261719 0.539062 16.800781 1.199219 16.800781 L 8 16.800781 C 9.105469 16.800781 10 17.695312 10 18.800781 C 10 19.902344 9.105469 20.796875 8 20.800781 C 7.996094 20.800781 7.988281 20.800781 7.984375 20.804688 C 7.957031 20.804688 7.925781 20.8125 7.898438 20.820312 C 7.875 20.824219 7.855469 20.832031 7.832031 20.839844 C 7.808594 20.851562 7.789062 20.867188 7.769531 20.882812 C 7.746094 20.894531 7.726562 20.910156 7.710938 20.925781 C 7.695312 20.945312 7.683594 20.964844 7.667969 20.984375 C 7.652344 21.007812 7.636719 21.035156 7.625 21.058594 C 7.625 21.066406 7.621094 21.070312 7.621094 21.074219 L 6.820312 23.472656 C 6.777344 23.59375 6.800781 23.730469 6.875 23.835938 C 6.949219 23.9375 7.070312 24 7.199219 24 L 16.800781 24 C 16.929688 24 17.050781 23.9375 17.125 23.832031 C 17.199219 23.730469 17.21875 23.59375 17.179688 23.472656 L 16.378906 21.074219 C 16.378906 21.070312 16.375 21.066406 16.371094 21.058594 C 16.359375 21.035156 16.347656 21.007812 16.328125 20.984375 C 16.316406 20.964844 16.304688 20.945312 16.289062 20.925781 C 16.269531 20.910156 16.25 20.894531 16.230469 20.882812 C 16.210938 20.867188 16.1875 20.851562 16.164062 20.839844 C 16.144531 20.832031 16.121094 20.824219 16.101562 20.820312 C 16.074219 20.8125 16.042969 20.804688 16.015625 20.804688 C 16.007812 20.804688 16.003906 20.800781 16 20.800781 C 14.894531 20.796875 14 19.902344 14 18.800781 C 14 17.695312 14.894531 16.800781 16 16.800781 L 22.800781 16.800781 C 23.460938 16.800781 24 16.261719 24 15.601562 L 24 1.199219 C 24 0.539062 23.460938 0 22.800781 0 Z M 13.199219 18.800781 C 13.203125 20.230469 14.28125 21.433594 15.707031 21.585938 L 16.246094 23.199219 L 7.753906 23.199219 L 8.292969 21.585938 C 9.71875 21.433594 10.796875 20.230469 10.800781 18.800781 C 10.800781 18.046875 10.496094 17.324219 9.957031 16.800781 L 14.042969 16.800781 C 13.503906 17.324219 13.199219 18.046875 13.199219 18.800781 Z M 23.199219 15.601562 C 23.199219 15.820312 23.019531 16 22.800781 16 L 1.199219 16 C 0.980469 16 0.800781 15.820312 0.800781 15.601562 L 0.800781 14.398438 L 23.199219 14.398438 Z M 0.800781 13.601562 L 0.800781 1.199219 C 0.800781 0.980469 0.980469 0.800781 1.199219 0.800781 L 22.800781 0.800781 C 23.019531 0.800781 23.199219 0.980469 23.199219 1.199219 L 23.199219 13.601562 Z M 0.800781 13.601562 "/>
<path fill-rule="nonzero" fill="rgb(0%, 0%, 75.294118%)" fill-opacity="1" d="M 0.839844 0.636719 L 23.265625 0.636719 L 23.265625 16.007812 L 0.839844 16.007812 Z M 0.839844 0.636719 "/>
<path fill-rule="nonzero" fill="rgb(33.333333%, 86.666667%, 100%)" fill-opacity="1" d="M 0.757812 0.605469 L 0.757812 16.007812 L 23.300781 16.007812 L 23.300781 0.605469 Z M 1.660156 1.324219 L 7.972656 1.324219 L 7.972656 12.964844 L 1.660156 12.964844 Z M 8.648438 1.324219 L 11.582031 1.324219 L 11.582031 12.964844 L 8.648438 12.964844 Z M 12.480469 1.324219 L 18.792969 1.324219 L 18.792969 12.964844 L 12.480469 12.964844 Z M 19.46875 1.324219 L 22.402344 1.324219 L 22.402344 12.964844 L 19.46875 12.964844 Z M 2.335938 3.652344 L 2.335938 4.1875 L 7.296875 4.1875 L 7.296875 3.652344 Z M 9.324219 3.652344 L 9.324219 4.1875 L 10.902344 4.1875 L 10.902344 3.652344 Z M 13.160156 3.652344 L 13.160156 4.1875 L 18.117188 4.1875 L 18.117188 3.652344 Z M 20.148438 3.652344 L 20.148438 4.1875 L 21.722656 4.1875 L 21.722656 3.652344 Z M 2.335938 4.90625 L 2.335938 5.441406 L 7.296875 5.441406 L 7.296875 4.90625 Z M 9.324219 4.90625 L 9.324219 5.441406 L 10.902344 5.441406 L 10.902344 4.90625 Z M 13.160156 4.90625 L 13.160156 5.441406 L 18.117188 5.441406 L 18.117188 4.90625 Z M 20.148438 4.90625 L 20.148438 5.441406 L 21.722656 5.441406 L 21.722656 4.90625 Z M 2.335938 6.160156 L 2.335938 6.695312 L 7.296875 6.695312 L 7.296875 6.160156 Z M 9.324219 6.160156 L 9.324219 6.695312 L 10.902344 6.695312 L 10.902344 6.160156 Z M 13.160156 6.160156 L 13.160156 6.695312 L 18.117188 6.695312 L 18.117188 6.160156 Z M 20.148438 6.160156 L 20.148438 6.695312 L 21.722656 6.695312 L 21.722656 6.160156 Z M 2.335938 7.414062 L 2.335938 7.949219 L 7.296875 7.949219 L 7.296875 7.414062 Z M 9.324219 7.414062 L 9.324219 7.949219 L 10.902344 7.949219 L 10.902344 7.414062 Z M 2.335938 8.667969 L 2.335938 9.203125 L 7.296875 9.203125 L 7.296875 8.667969 Z M 9.324219 8.667969 L 9.324219 9.203125 L 10.902344 9.203125 L 10.902344 8.667969 Z M 1.660156 13.503906 L 11.582031 13.503906 L 11.582031 15.292969 L 1.660156 15.292969 Z M 12.480469 13.503906 L 22.402344 13.503906 L 22.402344 15.292969 L 12.480469 15.292969 Z M 2.113281 14.128906 L 2.113281 14.667969 L 6.621094 14.667969 L 6.621094 14.128906 Z M 7.296875 14.128906 L 7.296875 14.667969 L 7.972656 14.667969 L 7.972656 14.128906 Z M 8.648438 14.128906 L 8.648438 14.667969 L 10.679688 14.667969 L 10.679688 14.128906 Z M 12.933594 14.128906 L 12.933594 14.667969 L 17.441406 14.667969 L 17.441406 14.128906 Z M 18.117188 14.128906 L 18.117188 14.667969 L 18.792969 14.667969 L 18.792969 14.128906 Z M 19.46875 14.128906 L 19.46875 14.667969 L 21.5 14.667969 L 21.5 14.128906 Z M 19.46875 14.128906 "/>
<path fill-rule="nonzero" fill="rgb(100%, 100%, 0%)" fill-opacity="1" d="M 14.082031 1.859375 L 14.082031 2.398438 L 17.679688 2.398438 L 17.679688 1.859375 Z M 3.285156 1.859375 L 3.285156 2.398438 L 6.882812 2.398438 L 6.882812 1.859375 Z M 9.359375 1.859375 L 9.359375 2.398438 L 11.15625 2.398438 L 11.15625 1.859375 Z M 20.152344 1.859375 L 20.152344 2.398438 L 21.953125 2.398438 L 21.953125 1.859375 Z M 20.152344 1.859375 "/>
</svg>
