<?xml version="1.0" encoding="UTF-8"?>
<svg xmlns="http://www.w3.org/2000/svg" xmlns:xlink="http://www.w3.org/1999/xlink" width="24" height="24" viewBox="0 0 24 24">
<defs>
<filter id="filter-remove-color" x="0%" y="0%" width="100%" height="100%">
<feColorMatrix color-interpolation-filters="sRGB" values="0 0 0 0 1 0 0 0 0 1 0 0 0 0 1 0 0 0 1 0" />
</filter>
<clipPath id="clip-0">
<rect x="0" y="0" width="24" height="24"/>
</clipPath>
<g id="source-12" clip-path="url(#clip-0)">
<path fill-rule="evenodd" fill="rgb(0%, 0%, 0%)" fill-opacity="1" d="M 12.292969 3.261719 C 8.851562 3.230469 5.40625 3.222656 1.957031 3.230469 C 1.949219 7.089844 1.957031 10.949219 1.96875 14.808594 C 2.011719 14.90625 2.082031 14.957031 2.183594 14.957031 C 5.449219 14.972656 8.714844 14.957031 11.976562 14.914062 C 12.011719 14.886719 12.035156 14.851562 12.046875 14.808594 C 12.058594 12.933594 12.066406 11.058594 12.074219 9.183594 C 12.117188 9.085938 12.1875 9.035156 12.292969 9.035156 C 12.390625 9.023438 12.460938 9.0625 12.507812 9.152344 C 12.527344 11.078125 12.527344 13.003906 12.507812 14.925781 C 12.425781 15.167969 12.265625 15.328125 12.03125 15.414062 C 8.683594 15.433594 5.332031 15.433594 1.984375 15.414062 C 1.75 15.328125 1.59375 15.167969 1.511719 14.925781 C 1.492188 10.546875 1.492188 6.167969 1.511719 1.789062 C 1.578125 1.582031 1.707031 1.429688 1.898438 1.332031 C 5.273438 1.28125 8.652344 1.273438 12.03125 1.300781 C 12.265625 1.386719 12.425781 1.546875 12.507812 1.789062 C 12.527344 2.230469 12.527344 2.671875 12.507812 3.113281 C 12.457031 3.195312 12.386719 3.246094 12.292969 3.261719 Z M 12.292969 3.261719 "/>
</g>
<mask id="mask-0">
<g filter="url(#filter-remove-color)">
<rect x="-2.4" y="-2.4" width="28.8" height="28.8" fill="rgb(0%, 0%, 0%)" fill-opacity="0.99"/>
</g>
</mask>
<clipPath id="clip-1">
<rect x="0" y="0" width="24" height="24"/>
</clipPath>
<g id="source-18" clip-path="url(#clip-1)">
<path fill-rule="evenodd" fill="rgb(1.568627%, 0.784314%, 0.784314%)" fill-opacity="1" d="M 12.292969 8.09375 C 10.613281 9.800781 8.9375 11.515625 7.265625 13.234375 C 6.523438 13.445312 5.773438 13.625 5.011719 13.777344 C 4.863281 13.773438 4.78125 13.695312 4.769531 13.542969 C 4.9375 12.835938 5.09375 12.128906 5.242188 11.421875 C 5.25 11.34375 5.277344 11.273438 5.328125 11.214844 C 7.667969 8.832031 9.988281 6.433594 12.292969 4.027344 C 12.582031 3.742188 12.867188 3.453125 13.152344 3.15625 C 13.460938 2.941406 13.765625 2.941406 14.070312 3.15625 C 14.429688 3.527344 14.789062 3.894531 15.148438 4.261719 C 15.320312 4.566406 15.320312 4.871094 15.148438 5.175781 C 14.199219 6.152344 13.246094 7.125 12.292969 8.09375 Z M 12.292969 8.09375 "/>
</g>
</defs>
<path fill-rule="nonzero" fill="rgb(60.784314%, 78.823529%, 100%)" fill-opacity="1" d="M 23.601562 14 L 23.601562 15.601562 C 23.597656 16.042969 23.242188 16.398438 22.800781 16.398438 L 16 16.398438 C 14.675781 16.398438 13.601562 17.472656 13.601562 18.800781 C 13.601562 20.125 14.675781 21.199219 16 21.199219 L 16.800781 23.601562 L 7.199219 23.601562 L 8 21.199219 C 9.324219 21.199219 10.398438 20.125 10.398438 18.800781 C 10.398438 17.472656 9.324219 16.398438 8 16.398438 L 1.199219 16.398438 C 0.757812 16.398438 0.402344 16.042969 0.398438 15.601562 L 0.398438 14 Z M 23.601562 14 "/>
<path fill-rule="nonzero" fill="rgb(0%, 100%, 0%)" fill-opacity="1" d="M 11.539062 17.359375 L 11.539062 18.21875 L 12.460938 18.21875 L 12.460938 17.359375 Z M 11.875 17.410156 L 11.875 18.167969 Z M 12.125 17.410156 L 12.125 18.167969 Z M 12.125 17.410156 "/>
<path fill-rule="nonzero" fill="rgb(12.54902%, 47.843137%, 82.745098%)" fill-opacity="1" d="M 22.800781 0 L 1.199219 0 C 0.539062 0 0 0.539062 0 1.199219 L 0 15.601562 C 0 16.261719 0.539062 16.800781 1.199219 16.800781 L 8 16.800781 C 9.105469 16.800781 10 17.695312 10 18.800781 C 10 19.902344 9.105469 20.796875 8 20.800781 C 7.996094 20.800781 7.988281 20.800781 7.984375 20.804688 C 7.957031 20.804688 7.925781 20.8125 7.898438 20.820312 C 7.875 20.824219 7.855469 20.832031 7.832031 20.839844 C 7.808594 20.851562 7.789062 20.867188 7.769531 20.882812 C 7.746094 20.894531 7.726562 20.910156 7.710938 20.925781 C 7.695312 20.945312 7.683594 20.964844 7.667969 20.984375 C 7.652344 21.007812 7.636719 21.035156 7.625 21.058594 C 7.625 21.066406 7.621094 21.070312 7.621094 21.074219 L 6.820312 23.472656 C 6.777344 23.59375 6.800781 23.730469 6.875 23.835938 C 6.949219 23.9375 7.070312 24 7.199219 24 L 16.800781 24 C 16.929688 24 17.050781 23.9375 17.125 23.832031 C 17.199219 23.730469 17.21875 23.59375 17.179688 23.472656 L 16.378906 21.074219 C 16.378906 21.070312 16.375 21.066406 16.371094 21.058594 C 16.359375 21.035156 16.347656 21.007812 16.328125 20.984375 C 16.316406 20.964844 16.304688 20.945312 16.289062 20.925781 C 16.269531 20.910156 16.25 20.894531 16.230469 20.882812 C 16.210938 20.867188 16.1875 20.851562 16.164062 20.839844 C 16.144531 20.832031 16.121094 20.824219 16.101562 20.820312 C 16.074219 20.8125 16.042969 20.804688 16.015625 20.804688 C 16.007812 20.804688 16.003906 20.800781 16 20.800781 C 14.894531 20.796875 14 19.902344 14 18.800781 C 14 17.695312 14.894531 16.800781 16 16.800781 L 22.800781 16.800781 C 23.460938 16.800781 24 16.261719 24 15.601562 L 24 1.199219 C 24 0.539062 23.460938 0 22.800781 0 Z M 13.199219 18.800781 C 13.203125 20.230469 14.28125 21.433594 15.707031 21.585938 L 16.246094 23.199219 L 7.753906 23.199219 L 8.292969 21.585938 C 9.71875 21.433594 10.796875 20.230469 10.800781 18.800781 C 10.800781 18.046875 10.496094 17.324219 9.957031 16.800781 L 14.042969 16.800781 C 13.503906 17.324219 13.199219 18.046875 13.199219 18.800781 Z M 23.199219 15.601562 C 23.199219 15.820312 23.019531 16 22.800781 16 L 1.199219 16 C 0.980469 16 0.800781 15.820312 0.800781 15.601562 L 0.800781 14.398438 L 23.199219 14.398438 Z M 0.800781 13.601562 L 0.800781 1.199219 C 0.800781 0.980469 0.980469 0.800781 1.199219 0.800781 L 22.800781 0.800781 C 23.019531 0.800781 23.199219 0.980469 23.199219 1.199219 L 23.199219 13.601562 Z M 0.800781 13.601562 "/>
<path fill-rule="nonzero" fill="rgb(0%, 0%, 75.294118%)" fill-opacity="1" d="M 0.839844 0.636719 L 23.265625 0.636719 L 23.265625 16.007812 L 0.839844 16.007812 Z M 0.839844 0.636719 "/>
<path fill-rule="nonzero" fill="rgb(33.333333%, 86.666667%, 100%)" fill-opacity="1" d="M 0.757812 0.605469 L 0.757812 16.007812 L 23.300781 16.007812 L 23.300781 0.605469 Z M 1.660156 1.324219 L 7.972656 1.324219 L 7.972656 12.964844 L 1.660156 12.964844 Z M 8.648438 1.324219 L 11.582031 1.324219 L 11.582031 12.964844 L 8.648438 12.964844 Z M 12.480469 1.324219 L 18.792969 1.324219 L 18.792969 12.964844 L 12.480469 12.964844 Z M 19.46875 1.324219 L 22.402344 1.324219 L 22.402344 12.964844 L 19.46875 12.964844 Z M 2.335938 3.652344 L 2.335938 4.1875 L 7.296875 4.1875 L 7.296875 3.652344 Z M 9.324219 3.652344 L 9.324219 4.1875 L 10.902344 4.1875 L 10.902344 3.652344 Z M 13.160156 3.652344 L 13.160156 4.1875 L 18.117188 4.1875 L 18.117188 3.652344 Z M 20.148438 3.652344 L 20.148438 4.1875 L 21.722656 4.1875 L 21.722656 3.652344 Z M 2.335938 4.90625 L 2.335938 5.441406 L 7.296875 5.441406 L 7.296875 4.90625 Z M 9.324219 4.90625 L 9.324219 5.441406 L 10.902344 5.441406 L 10.902344 4.90625 Z M 13.160156 4.90625 L 13.160156 5.441406 L 18.117188 5.441406 L 18.117188 4.90625 Z M 20.148438 4.90625 L 20.148438 5.441406 L 21.722656 5.441406 L 21.722656 4.90625 Z M 2.335938 6.160156 L 2.335938 6.695312 L 7.296875 6.695312 L 7.296875 6.160156 Z M 9.324219 6.160156 L 9.324219 6.695312 L 10.902344 6.695312 L 10.902344 6.160156 Z M 13.160156 6.160156 L 13.160156 6.695312 L 18.117188 6.695312 L 18.117188 6.160156 Z M 20.148438 6.160156 L 20.148438 6.695312 L 21.722656 6.695312 L 21.722656 6.160156 Z M 2.335938 7.414062 L 2.335938 7.949219 L 7.296875 7.949219 L 7.296875 7.414062 Z M 9.324219 7.414062 L 9.324219 7.949219 L 10.902344 7.949219 L 10.902344 7.414062 Z M 2.335938 8.667969 L 2.335938 9.203125 L 7.296875 9.203125 L 7.296875 8.667969 Z M 9.324219 8.667969 L 9.324219 9.203125 L 10.902344 9.203125 L 10.902344 8.667969 Z M 1.660156 13.503906 L 11.582031 13.503906 L 11.582031 15.292969 L 1.660156 15.292969 Z M 12.480469 13.503906 L 22.402344 13.503906 L 22.402344 15.292969 L 12.480469 15.292969 Z M 2.113281 14.128906 L 2.113281 14.667969 L 6.621094 14.667969 L 6.621094 14.128906 Z M 7.296875 14.128906 L 7.296875 14.667969 L 7.972656 14.667969 L 7.972656 14.128906 Z M 8.648438 14.128906 L 8.648438 14.667969 L 10.679688 14.667969 L 10.679688 14.128906 Z M 12.933594 14.128906 L 12.933594 14.667969 L 17.441406 14.667969 L 17.441406 14.128906 Z M 18.117188 14.128906 L 18.117188 14.667969 L 18.792969 14.667969 L 18.792969 14.128906 Z M 19.46875 14.128906 L 19.46875 14.667969 L 21.5 14.667969 L 21.5 14.128906 Z M 19.46875 14.128906 "/>
<path fill-rule="nonzero" fill="rgb(100%, 100%, 0%)" fill-opacity="1" d="M 14.082031 1.859375 L 14.082031 2.398438 L 17.679688 2.398438 L 17.679688 1.859375 Z M 3.285156 1.859375 L 3.285156 2.398438 L 6.882812 2.398438 L 6.882812 1.859375 Z M 9.359375 1.859375 L 9.359375 2.398438 L 11.15625 2.398438 L 11.15625 1.859375 Z M 20.152344 1.859375 L 20.152344 2.398438 L 21.953125 2.398438 L 21.953125 1.859375 Z M 20.152344 1.859375 "/>
<use xlink:href="#source-12"/>
<path fill-rule="evenodd" fill="rgb(96.470588%, 54.509804%, 11.372549%)" fill-opacity="1" d="M 12.0625 1.992188 C 8.875 1.988281 5.6875 1.992188 2.5 2.007812 C 2.207031 2.167969 2.101562 2.417969 2.183594 2.761719 C 2.109375 2.761719 2.03125 2.761719 1.957031 2.761719 C 1.949219 2.476562 1.957031 2.191406 1.96875 1.90625 C 1.992188 1.84375 2.039062 1.796875 2.097656 1.773438 C 5.371094 1.753906 8.644531 1.753906 11.917969 1.773438 C 12.011719 1.816406 12.058594 1.886719 12.0625 1.992188 Z M 12.0625 1.992188 "/>
<path fill-rule="evenodd" fill="rgb(98.431373%, 70.980392%, 29.803922%)" fill-opacity="1" d="M 12.0625 1.992188 C 12.0625 2.25 12.0625 2.503906 12.0625 2.761719 C 8.769531 2.761719 5.476562 2.761719 2.183594 2.761719 C 2.101562 2.417969 2.207031 2.167969 2.5 2.007812 C 5.6875 1.992188 8.875 1.988281 12.0625 1.992188 Z M 12.0625 1.992188 "/>
<g mask="url(#mask-0)">
<use xlink:href="#source-18"/>
</g>
<path fill-rule="evenodd" fill="rgb(87.058824%, 87.058824%, 87.058824%)" fill-opacity="1" d="M 12.292969 3.261719 C 12.292969 3.328125 12.292969 3.398438 12.292969 3.46875 C 10.800781 3.46875 9.382812 3.792969 8.042969 4.4375 C 6.378906 4.433594 4.710938 4.4375 3.046875 4.453125 C 2.867188 4.585938 2.859375 4.734375 3.019531 4.894531 C 5.351562 4.910156 7.6875 4.914062 10.023438 4.910156 C 9.042969 4.933594 8.054688 4.949219 7.066406 4.953125 C 6.667969 5.195312 6.296875 5.46875 5.945312 5.78125 C 6.851562 5.785156 7.75 5.800781 8.644531 5.824219 C 6.769531 5.820312 4.894531 5.824219 3.019531 5.839844 C 2.851562 6.011719 2.871094 6.160156 3.074219 6.28125 C 3.832031 6.296875 4.585938 6.300781 5.34375 6.296875 C 5.082031 6.570312 4.820312 6.851562 4.570312 7.136719 C 5.464844 7.140625 6.351562 7.15625 7.238281 7.179688 C 5.832031 7.175781 4.425781 7.179688 3.019531 7.195312 C 2.894531 7.292969 2.871094 7.417969 2.945312 7.5625 C 2.972656 7.597656 3.003906 7.621094 3.046875 7.636719 C 3.417969 7.652344 3.792969 7.65625 4.167969 7.652344 C 3.96875 7.9375 3.789062 8.230469 3.621094 8.535156 C 3.40625 8.523438 3.195312 8.535156 2.988281 8.578125 C 2.863281 8.738281 2.882812 8.875 3.046875 8.992188 C 4.0625 9.003906 5.074219 9.011719 6.089844 9.003906 C 5.175781 9.03125 4.257812 9.046875 3.332031 9.050781 C 3.152344 9.359375 3.015625 9.679688 2.933594 10.007812 C 2.90625 10.0625 2.898438 10.121094 2.902344 10.183594 C 2.882812 10.160156 2.867188 10.132812 2.859375 10.097656 C 2.300781 11.664062 2.078125 13.285156 2.183594 14.957031 C 2.082031 14.957031 2.011719 14.90625 1.96875 14.808594 C 1.957031 10.949219 1.949219 7.089844 1.957031 3.230469 C 5.40625 3.222656 8.851562 3.230469 12.292969 3.261719 Z M 12.292969 3.261719 "/>
<path fill-rule="evenodd" fill="rgb(92.941176%, 92.941176%, 92.941176%)" fill-opacity="1" d="M 12.292969 3.46875 C 12.292969 3.652344 12.292969 3.839844 12.292969 4.027344 C 9.988281 6.433594 7.667969 8.832031 5.328125 11.214844 C 5.277344 11.273438 5.25 11.34375 5.242188 11.421875 C 5.09375 12.128906 4.9375 12.835938 4.769531 13.542969 C 4.78125 13.695312 4.863281 13.773438 5.011719 13.777344 C 5.773438 13.625 6.523438 13.445312 7.265625 13.234375 C 8.9375 11.515625 10.613281 9.800781 12.292969 8.09375 C 12.292969 8.40625 12.292969 8.722656 12.292969 9.035156 C 12.1875 9.035156 12.117188 9.085938 12.074219 9.183594 C 12.066406 11.058594 12.058594 12.933594 12.046875 14.808594 C 12.035156 14.851562 12.011719 14.886719 11.976562 14.914062 C 8.714844 14.957031 5.449219 14.972656 2.183594 14.957031 C 2.078125 13.285156 2.300781 11.664062 2.859375 10.097656 C 2.867188 10.132812 2.882812 10.160156 2.902344 10.183594 C 2.925781 10.25 2.960938 10.304688 3.019531 10.347656 C 3.6875 10.367188 4.359375 10.367188 5.027344 10.347656 C 5.195312 10.167969 5.175781 10.023438 4.96875 9.90625 C 4.328125 9.882812 3.6875 9.882812 3.046875 9.90625 C 3 9.933594 2.960938 9.964844 2.933594 10.007812 C 3.015625 9.679688 3.152344 9.359375 3.332031 9.050781 C 4.257812 9.046875 5.175781 9.03125 6.089844 9.003906 C 6.285156 8.941406 6.335938 8.816406 6.246094 8.621094 C 6.214844 8.582031 6.171875 8.558594 6.117188 8.550781 C 5.285156 8.535156 4.453125 8.53125 3.621094 8.535156 C 3.789062 8.230469 3.96875 7.9375 4.167969 7.652344 C 5.199219 7.65625 6.234375 7.652344 7.265625 7.636719 C 7.421875 7.578125 7.476562 7.464844 7.425781 7.296875 C 7.378906 7.230469 7.316406 7.191406 7.238281 7.179688 C 6.351562 7.15625 5.464844 7.140625 4.570312 7.136719 C 4.820312 6.851562 5.082031 6.570312 5.34375 6.296875 C 6.445312 6.300781 7.542969 6.296875 8.644531 6.28125 C 8.800781 6.21875 8.855469 6.105469 8.804688 5.941406 C 8.761719 5.882812 8.707031 5.84375 8.644531 5.824219 C 7.75 5.800781 6.851562 5.785156 5.945312 5.78125 C 6.296875 5.46875 6.667969 5.195312 7.066406 4.953125 C 8.054688 4.949219 9.042969 4.933594 10.023438 4.910156 C 10.191406 4.832031 10.234375 4.703125 10.152344 4.527344 C 10.113281 4.5 10.070312 4.476562 10.023438 4.453125 C 9.363281 4.4375 8.703125 4.433594 8.042969 4.4375 C 9.382812 3.792969 10.800781 3.46875 12.292969 3.46875 Z M 12.292969 3.46875 "/>
<path fill-rule="evenodd" fill="rgb(84.313725%, 10.588235%, 37.647059%)" fill-opacity="1" d="M 14.789062 4.792969 C 14.753906 4.710938 14.695312 4.648438 14.617188 4.601562 C 13.96875 4.242188 13.316406 4.234375 12.664062 4.570312 C 12.566406 4.632812 12.480469 4.707031 12.40625 4.792969 C 12.355469 4.769531 12.339844 4.730469 12.363281 4.675781 C 12.742188 4.289062 13.117188 3.898438 13.496094 3.511719 C 13.574219 3.492188 13.648438 3.492188 13.726562 3.511719 C 14.085938 3.878906 14.445312 4.246094 14.804688 4.617188 C 14.824219 4.679688 14.820312 4.738281 14.789062 4.792969 Z M 14.789062 4.792969 "/>
<path fill-rule="evenodd" fill="rgb(91.764706%, 25.098039%, 47.058824%)" fill-opacity="1" d="M 14.789062 4.792969 C 14.417969 5.222656 14.023438 5.636719 13.613281 6.03125 C 13.199219 5.628906 12.796875 5.214844 12.40625 4.792969 C 12.480469 4.707031 12.566406 4.632812 12.664062 4.570312 C 13.316406 4.234375 13.96875 4.242188 14.617188 4.601562 C 14.695312 4.648438 14.753906 4.710938 14.789062 4.792969 Z M 14.789062 4.792969 "/>
<path fill-rule="evenodd" fill="rgb(2.745098%, 2.745098%, 2.745098%)" fill-opacity="1" d="M 8.042969 4.4375 C 8.703125 4.433594 9.363281 4.4375 10.023438 4.453125 C 10.070312 4.476562 10.113281 4.5 10.152344 4.527344 C 10.234375 4.703125 10.191406 4.832031 10.023438 4.910156 C 7.6875 4.914062 5.351562 4.910156 3.019531 4.894531 C 2.859375 4.734375 2.867188 4.585938 3.046875 4.453125 C 4.710938 4.4375 6.378906 4.433594 8.042969 4.4375 Z M 8.042969 4.4375 "/>
<path fill-rule="evenodd" fill="rgb(94.901961%, 54.117647%, 11.372549%)" fill-opacity="1" d="M 13.210938 6.441406 C 12.980469 6.152344 12.714844 5.914062 12.40625 5.722656 C 12.070312 5.605469 11.742188 5.628906 11.429688 5.792969 C 11.398438 5.777344 11.367188 5.75 11.34375 5.722656 C 11.558594 5.496094 11.78125 5.273438 12.003906 5.058594 C 12.4375 5.488281 12.871094 5.925781 13.296875 6.367188 C 13.269531 6.398438 13.242188 6.425781 13.210938 6.441406 Z M 13.210938 6.441406 "/>
<path fill-rule="evenodd" fill="rgb(97.647059%, 64.705882%, 15.686275%)" fill-opacity="1" d="M 13.210938 6.441406 C 13.027344 6.648438 12.835938 6.84375 12.636719 7.03125 C 12.222656 6.628906 11.820312 6.214844 11.429688 5.792969 C 11.742188 5.628906 12.070312 5.605469 12.40625 5.722656 C 12.714844 5.914062 12.980469 6.152344 13.210938 6.441406 Z M 13.210938 6.441406 "/>
<path fill-rule="evenodd" fill="rgb(3.137255%, 3.137255%, 3.137255%)" fill-opacity="1" d="M 8.644531 5.824219 C 8.707031 5.84375 8.761719 5.882812 8.804688 5.941406 C 8.855469 6.105469 8.800781 6.21875 8.644531 6.28125 C 7.542969 6.296875 6.445312 6.300781 5.34375 6.296875 C 4.585938 6.300781 3.832031 6.296875 3.074219 6.28125 C 2.871094 6.160156 2.851562 6.011719 3.019531 5.839844 C 4.894531 5.824219 6.769531 5.820312 8.644531 5.824219 Z M 8.644531 5.824219 "/>
<path fill-rule="evenodd" fill="rgb(94.509804%, 47.843137%, 12.156863%)" fill-opacity="1" d="M 11 6.058594 C 11.1875 6.21875 11.34375 6.394531 11.472656 6.589844 C 9.75 8.359375 8.027344 10.125 6.304688 11.894531 C 6.152344 11.734375 6 11.578125 5.847656 11.421875 C 5.828125 11.402344 5.828125 11.382812 5.847656 11.363281 C 7.570312 9.597656 9.289062 7.832031 11 6.058594 Z M 11 6.058594 "/>
<path fill-rule="evenodd" fill="rgb(95.294118%, 54.117647%, 11.372549%)" fill-opacity="1" d="M 11.773438 6.914062 C 11.804688 6.910156 11.832031 6.914062 11.859375 6.929688 C 12 7.070312 12.136719 7.214844 12.277344 7.355469 C 12.296875 7.375 12.296875 7.394531 12.277344 7.414062 C 10.554688 9.183594 8.832031 10.949219 7.109375 12.71875 C 6.957031 12.5625 6.804688 12.402344 6.648438 12.246094 C 6.628906 12.226562 6.628906 12.207031 6.648438 12.1875 C 8.363281 10.433594 10.070312 8.675781 11.773438 6.914062 Z M 11.773438 6.914062 "/>
<path fill-rule="evenodd" fill="rgb(1.568627%, 1.568627%, 1.568627%)" fill-opacity="1" d="M 7.238281 7.179688 C 7.316406 7.191406 7.378906 7.230469 7.425781 7.296875 C 7.476562 7.464844 7.421875 7.578125 7.265625 7.636719 C 6.234375 7.652344 5.199219 7.65625 4.167969 7.652344 C 3.792969 7.65625 3.417969 7.652344 3.046875 7.636719 C 3.003906 7.621094 2.972656 7.597656 2.945312 7.5625 C 2.871094 7.417969 2.894531 7.292969 3.019531 7.195312 C 4.425781 7.179688 5.832031 7.175781 7.238281 7.179688 Z M 7.238281 7.179688 "/>
<path fill-rule="evenodd" fill="rgb(0.392157%, 0.392157%, 0.392157%)" fill-opacity="1" d="M 3.621094 8.535156 C 4.453125 8.53125 5.285156 8.535156 6.117188 8.550781 C 6.171875 8.558594 6.214844 8.582031 6.246094 8.621094 C 6.335938 8.816406 6.285156 8.941406 6.089844 9.003906 C 5.074219 9.011719 4.0625 9.003906 3.046875 8.992188 C 2.882812 8.875 2.863281 8.738281 2.988281 8.578125 C 3.195312 8.535156 3.40625 8.523438 3.621094 8.535156 Z M 3.621094 8.535156 "/>
<path fill-rule="evenodd" fill="rgb(2.745098%, 2.745098%, 2.745098%)" fill-opacity="1" d="M 2.902344 10.183594 C 2.898438 10.121094 2.90625 10.0625 2.933594 10.007812 C 2.960938 9.964844 3 9.933594 3.046875 9.90625 C 3.6875 9.882812 4.328125 9.882812 4.96875 9.90625 C 5.175781 10.023438 5.195312 10.167969 5.027344 10.347656 C 4.359375 10.367188 3.6875 10.367188 3.019531 10.347656 C 2.960938 10.304688 2.925781 10.25 2.902344 10.183594 Z M 2.902344 10.183594 "/>
<path fill-rule="evenodd" fill="rgb(12.54902%, 12.54902%, 12.54902%)" fill-opacity="1" d="M 6.519531 12.953125 C 6.4375 12.886719 6.339844 12.84375 6.234375 12.820312 C 5.910156 12.757812 5.625 12.832031 5.371094 13.042969 C 5.429688 12.695312 5.503906 12.351562 5.585938 12.011719 C 5.59375 11.957031 5.617188 11.917969 5.660156 11.894531 C 5.996094 12.21875 6.320312 12.550781 6.636719 12.894531 C 6.597656 12.921875 6.5625 12.941406 6.519531 12.953125 Z M 6.519531 12.953125 "/>
<path fill-rule="evenodd" fill="rgb(25.882353%, 25.882353%, 25.882353%)" fill-opacity="1" d="M 6.519531 12.953125 C 6.136719 13.035156 5.753906 13.121094 5.371094 13.21875 C 5.351562 13.207031 5.332031 13.199219 5.316406 13.1875 C 5.335938 13.140625 5.351562 13.089844 5.371094 13.042969 C 5.625 12.832031 5.910156 12.757812 6.234375 12.820312 C 6.339844 12.84375 6.4375 12.886719 6.519531 12.953125 Z M 6.519531 12.953125 "/>
</svg>
