<svg xmlns="http://www.w3.org/2000/svg" width="24" height="24">
    <path d="M0 953.15h128v128H0Z" style="fill:#00c;fill-opacity:1;stroke-width:1.28" transform="translate(0 -178.716) scale(.1875)"/>
    <path d="M0 1063.23v17.92h128v-17.92z" style="fill:#2b0000;fill-opacity:1;stroke-width:1.28" transform="translate(0 -178.716) scale(.1875)"/>
    <path d="M30.72 1072.099v9.05H51.2v-9.05zm25.6 0v9.05H76.8v-9.05zm25.6 0v9.05h20.48v-9.05zm-76.8.092v8.959H25.6v-8.96H5.12Zm102.4 0v8.959H128v-8.96h-20.48z" style="fill:teal;fill-opacity:1;stroke-width:1.28" transform="translate(0 -178.716) scale(.1875)"/>
    <path d="M0 1063.23v8.96h10.24v-4.48H5.12v-4.48z" style="fill:#e6e6e6;fill-opacity:1;stroke-width:1.28" transform="translate(0 -178.716) scale(.1875)"/>
    <path d="M0 953.15v110.079h128V953.15Zm5.12 5.119h35.84v83.2H5.12Zm39.68 0h16.64v83.2H44.8Zm21.76 0h35.84v83.2H66.56Zm39.68 0h16.64v83.2h-16.64zm-97.28 16.64v3.84h28.16v-3.84zm39.68 0v3.84h8.96v-3.84zm21.76 0v3.84h28.16v-3.84zm39.68 0v3.84h8.96v-3.84zM8.96 983.87v3.84h28.16v-3.84zm39.68 0v3.84h8.96v-3.84zm21.76 0v3.84h28.16v-3.84zm39.68 0v3.84h8.96v-3.84zM8.96 992.83v3.84h28.16v-3.84zm39.68 0v3.84h8.96v-3.84zm21.76 0v3.84h28.16v-3.84zm39.68 0v3.84h8.96v-3.84zm-101.12 8.96v3.84h28.16v-3.84zm39.68 0v3.84h8.96v-3.84zm-39.68 8.96v3.84h28.16v-3.84zm39.68 0v3.84h8.96v-3.84zm-43.52 34.56h56.32v12.8H5.12Zm61.44 0h56.32v12.8H66.56Zm-58.88 4.48v3.84h25.6v-3.84zm29.44 0v3.84h3.84v-3.84zm7.68 0v3.84h11.52v-3.84zm24.32 0v3.84h25.6v-3.84zm29.44 0v3.84h3.84v-3.84zm7.68 0v3.84h11.52v-3.84z" style="fill:#5df;fill-opacity:1;stroke-width:1.28" transform="translate(0 -178.716) scale(.1875)"/>
    <path d="M75.52 962.109v3.841H96v-3.841zm-61.44.002v3.84h20.48v-3.84zm34.56 0v3.84h10.24v-3.84zm61.44 0v3.84h10.24v-3.84z" style="fill:#ff0;fill-opacity:1;stroke-width:1.28" transform="translate(0 -178.716) scale(.1875)"/>
    <g style="clip-rule:evenodd;fill-rule:evenodd;image-rendering:optimizeQuality;shape-rendering:geometricPrecision;text-rendering:geometricPrecision">
        <path d="M205.96 15.509c-58.833.166-117.657.662-176.463 1.492-6.648 3.314-11.148 8.48-13.5 15.5a49726.54 49726.54 0 0 0 0 445.998c2.834 8.167 8.338 13.67 16.504 16.504 116.667.667 233.332.667 349.998 0 8.167-2.833 13.671-8.337 16.504-16.504a9599.42 9599.42 0 0 0 0-196c-1.539-3.02-4.04-4.353-7.5-4-3.59.045-6.091 1.716-7.501 5.005-.333 63.667-.672 127.329-1.005 190.996A6.977 6.977 0 0 1 380.5 478a19452.499 19452.499 0 0 1-341.005 1.502c-3.59-.044-6.08-1.714-7.491-5.003-.5-131-.674-262.005-.507-393.004 120.168-.333 240.174.005 360.006 1.004 3.287-.555 5.787-2.226 7.5-5.004.667-15 .667-29.996 0-44.996-2.833-8.166-8.337-13.67-16.503-16.503-58.862-.497-117.707-.655-176.54-.488Zm231.553 57.988c-5.334 0-10.677 1.836-16.016 5.502a1246.688 1246.688 0 0 1-29.994 29.506 27866.43 27866.43 0 0 1-242.508 244c-1.75 1.99-2.745 4.316-2.994 6.993a2871.497 2871.497 0 0 1-16.504 72.005c.438 5.208 3.276 7.873 8.505 7.999a1035.432 1035.432 0 0 0 78.501-18.504 43153.258 43153.258 0 0 1 175-174.501 13937.14 13937.14 0 0 0 99.501-98.995c6-10.333 6-20.666 0-30.999L453.5 79c-5.327-3.666-10.654-5.502-15.987-5.502zm-194.01 49.005c-58-.167-116.005-.002-174.004.497-6.247 4.514-6.575 9.516-.995 15.002 81.333.5 162.666.665 244 .498 5.905-2.687 7.401-7.022 4.496-13.002a29.468 29.468 0 0 0-4.496-2.498c-22.998-.5-46-.664-69.001-.497zm21 46.995c-65.333-.167-130.667.007-196 .508-5.779 5.876-5.112 10.868 2 14.992 26.332.5 52.664.674 79 .507 38.334.167 76.669-.007 115-.507 5.446-2.11 7.27-5.944 5.492-11.5-1.45-1.964-3.275-3.297-5.491-4zm-122.502 46c-24.5.084-48.998.248-73.497.498-4.253 3.42-5.093 7.592-2.507 12.505a6.976 6.976 0 0 0 3.502 2.497c12.996.5 25.993.674 38.997.507 36.002.167 72.01-.007 108.007-.507 5.424-2.017 7.26-5.85 5.502-11.5-1.638-2.234-3.811-3.566-6.506-4-24.5-.083-48.998-.082-73.498 0zm-58.065 45.858a86.603 86.603 0 0 0-16.437 1.646c-4.425 5.44-3.76 10.105 2 13.997 35.332.5 70.663.664 105.998.497 6.74-2.153 8.574-6.478 5.501-12.992-1.17-1.393-2.667-2.234-4.496-2.507-28.998-.5-57.996-.665-86.997-.498a89.397 89.397 0 0 0-5.569-.143zm19.068 46.144c-11.166 0-22.338.164-33.505.497-1.593.95-2.926 2.117-4 3.502-.84 1.88-1.169 3.878-.994 5.999.728 2.235 2.06 4.07 3.999 5.501 23.333.667 46.663.667 69.996 0 5.83-6.006 5.163-11.008-2-15.002-11.166-.333-22.33-.497-33.496-.497z" style="display:inline;opacity:.997" transform="translate(-.593 5.034) scale(.03828)"/>
        <path fill="#f68b1d" d="M14.087 6.546c-4.249-.007-8.498 0-12.747.019-.394.208-.535.534-.421.976H.613c-.007-.37 0-.74.019-1.11a.288.288 0 0 1 .172-.172c4.364-.026 8.728-.026 13.092 0 .126.054.19.15.191.287z"/>
        <path fill="#fbb54c" d="M14.087 6.546v.995H.92c-.114-.442.027-.768.42-.976 4.25-.02 8.5-.026 12.748-.02z"/>
        <path fill="#dedede" d="M14.394 8.192v.268a13.2 13.2 0 0 0-5.666 1.263c-2.22-.007-4.44 0-6.66.019-.24.173-.253.364-.039.574 3.113.02 6.227.026 9.34.02-1.307.031-2.622.05-3.942.057-.53.312-1.028.67-1.493 1.071 1.206.007 2.405.026 3.598.058-2.501-.007-5.002 0-7.503.019-.221.225-.196.416.077.574 1.008.02 2.016.026 3.024.02-.351.356-.696.72-1.034 1.09 1.193.006 2.38.026 3.56.057-1.876-.006-3.751 0-5.627.02-.163.13-.195.29-.096.478.035.046.08.078.134.096.498.019.995.025 1.493.019-.262.37-.504.754-.727 1.148a3.333 3.333 0 0 0-.842.058c-.17.208-.144.386.076.535 1.353.02 2.705.026 4.058.02-1.219.031-2.443.05-3.675.057a4.77 4.77 0 0 0-.536 1.244.46.46 0 0 0-.038.23.212.212 0 0 1-.058-.115 15.264 15.264 0 0 0-.9 6.315.293.293 0 0 1-.286-.19c-.02-5.015-.026-10.03-.02-15.044 4.6-.012 9.194 0 13.782.039z"/>
        <path fill="#ededed" d="M14.394 8.46v.727a1066.66 1066.66 0 0 1-9.283 9.34.46.46 0 0 0-.115.267c-.199.922-.41 1.84-.632 2.756.017.2.125.302.325.306a39.639 39.639 0 0 0 3.006-.708c2.227-2.234 4.46-4.46 6.699-6.679v1.225a.293.293 0 0 0-.287.191l-.039 7.311a.267.267 0 0 1-.095.134c-4.349.057-8.7.076-13.054.057-.145-2.17.155-4.275.9-6.315a.212.212 0 0 0 .057.115.417.417 0 0 0 .153.21c.893.026 1.786.026 2.68 0 .223-.23.197-.421-.077-.574a42.953 42.953 0 0 0-2.565 0 .543.543 0 0 0-.153.134 4.77 4.77 0 0 1 .536-1.244c1.232-.006 2.456-.026 3.675-.057.258-.083.328-.249.21-.498a.27.27 0 0 0-.172-.096c-1.11-.019-2.22-.025-3.33-.019.223-.394.465-.777.727-1.148 1.378.006 2.756 0 4.135-.02.207-.076.277-.223.21-.44a.371.371 0 0 0-.249-.153c-1.18-.031-2.367-.05-3.56-.057.338-.37.683-.734 1.034-1.09 1.467.006 2.935 0 4.402-.02.208-.08.279-.228.21-.44a.412.412 0 0 0-.21-.153 168.517 168.517 0 0 0-3.598-.058c.465-.401.963-.759 1.493-1.071 1.32-.007 2.635-.026 3.942-.058.227-.103.284-.269.173-.497a1.13 1.13 0 0 0-.173-.096c-.88-.02-1.76-.026-2.64-.02a13.2 13.2 0 0 1 5.665-1.262z"/>
        <path fill="#d71b60" d="M17.724 10.182a.508.508 0 0 0-.23-.249c-.864-.465-1.732-.478-2.603-.038a1.391 1.391 0 0 0-.344.287c-.068-.031-.087-.082-.058-.153l1.512-1.512a.622.622 0 0 1 .307 0l1.435 1.435a.252.252 0 0 1-.019.23z"/>
        <path fill="#ea4078" d="M17.724 10.182a23.275 23.275 0 0 1-1.57 1.608 47.8 47.8 0 0 1-1.607-1.608c.098-.113.213-.209.344-.287.871-.44 1.74-.427 2.603.038a.508.508 0 0 1 .23.249z"/>
        <path fill="#f9a528" d="M15.619 12.326c-.242.267-.497.522-.766.765a47.8 47.8 0 0 1-1.608-1.608 1.624 1.624 0 0 1 1.302-.095c.41.25.767.563 1.072.938z"/>
        <path fill="#f17a1f" d="M12.671 11.828c.25.204.46.434.632.689l-6.89 6.89-.613-.613c-.026-.025-.026-.05 0-.076 2.298-2.292 4.588-4.588 6.871-6.89z"/>
        <path fill="#f38a1d" d="M13.705 12.938c.04-.006.078 0 .114.02l.555.554c.026.026.026.051 0 .077l-6.89 6.89-.613-.613c-.025-.026-.025-.051 0-.077 2.286-2.278 4.564-4.562 6.834-6.851z"/>
        <path fill="#202020" d="M6.7 20.785a.876.876 0 0 0-.384-.173 1.327 1.327 0 0 0-1.148.287c.08-.449.175-.896.287-1.34a.193.193 0 0 1 .096-.152c.446.42.88.855 1.301 1.301a.625.625 0 0 1-.153.077z"/>
        <path fill="#424242" d="M6.7 20.785c-.513.105-1.023.22-1.532.344l-.077-.038.077-.192c.334-.275.717-.37 1.148-.287a.876.876 0 0 1 .383.173z"/>
    </g>
</svg>
