<svg xmlns="http://www.w3.org/2000/svg" width="192" height="192">
    <path d="M0 953.15h128v128H0Z" style="fill:#00c;fill-opacity:1;stroke-width:1.28" transform="matrix(1.5 0 0 1.5 0 -1429.725)"/>
    <path d="M0 1063.23v17.92h128v-17.92z" style="fill:#2b0000;fill-opacity:1;stroke-width:1.28" transform="matrix(1.5 0 0 1.5 0 -1429.725)"/>
    <path d="M30.72 1072.099v9.05H51.2v-9.05zm25.6 0v9.05H76.8v-9.05zm25.6 0v9.05h20.48v-9.05zm-76.8.092v8.959H25.6v-8.96H5.12Zm102.4 0v8.959H128v-8.96h-20.48z" style="fill:teal;fill-opacity:1;stroke-width:1.28" transform="matrix(1.5 0 0 1.5 0 -1429.725)"/>
    <path d="M0 1063.23v8.96h10.24v-4.48H5.12v-4.48z" style="fill:#e6e6e6;fill-opacity:1;stroke-width:1.28" transform="matrix(1.5 0 0 1.5 0 -1429.725)"/>
    <path d="M0 953.15v110.079h128V953.15Zm5.12 5.119h35.84v83.2H5.12Zm39.68 0h16.64v83.2H44.8Zm21.76 0h35.84v83.2H66.56Zm39.68 0h16.64v83.2h-16.64zm-97.28 16.64v3.84h28.16v-3.84zm39.68 0v3.84h8.96v-3.84zm21.76 0v3.84h28.16v-3.84zm39.68 0v3.84h8.96v-3.84zM8.96 983.87v3.84h28.16v-3.84zm39.68 0v3.84h8.96v-3.84zm21.76 0v3.84h28.16v-3.84zm39.68 0v3.84h8.96v-3.84zM8.96 992.83v3.84h28.16v-3.84zm39.68 0v3.84h8.96v-3.84zm21.76 0v3.84h28.16v-3.84zm39.68 0v3.84h8.96v-3.84zm-101.12 8.96v3.84h28.16v-3.84zm39.68 0v3.84h8.96v-3.84zm-39.68 8.96v3.84h28.16v-3.84zm39.68 0v3.84h8.96v-3.84zm-43.52 34.56h56.32v12.8H5.12Zm61.44 0h56.32v12.8H66.56Zm-58.88 4.48v3.84h25.6v-3.84zm29.44 0v3.84h3.84v-3.84zm7.68 0v3.84h11.52v-3.84zm24.32 0v3.84h25.6v-3.84zm29.44 0v3.84h3.84v-3.84zm7.68 0v3.84h11.52v-3.84z" style="fill:#5df;fill-opacity:1;stroke-width:1.28" transform="matrix(1.5 0 0 1.5 0 -1429.725)"/>
    <path d="M75.52 962.109v3.841H96v-3.841zm-61.44.002v3.84h20.48v-3.84zm34.56 0v3.84h10.24v-3.84zm61.44 0v3.84h10.24v-3.84z" style="fill:#ff0;fill-opacity:1;stroke-width:1.28" transform="matrix(1.5 0 0 1.5 0 -1429.725)"/>
    <g style="clip-rule:evenodd;fill-rule:evenodd;image-rendering:optimizeQuality;shape-rendering:geometricPrecision;text-rendering:geometricPrecision">
        <path d="M205.96 15.509c-58.833.166-117.657.662-176.463 1.492-6.648 3.314-11.148 8.48-13.5 15.5a49726.54 49726.54 0 0 0 0 445.998c2.834 8.167 8.338 13.67 16.504 16.504 116.667.667 233.332.667 349.998 0 8.167-2.833 13.671-8.337 16.504-16.504a9599.42 9599.42 0 0 0 0-196c-1.539-3.02-4.04-4.353-7.5-4-3.59.045-6.091 1.716-7.501 5.005-.333 63.667-.672 127.329-1.005 190.996A6.977 6.977 0 0 1 380.5 478a19452.499 19452.499 0 0 1-341.005 1.502c-3.59-.044-6.08-1.714-7.491-5.003-.5-131-.674-262.005-.507-393.004 120.168-.333 240.174.005 360.006 1.004 3.287-.555 5.787-2.226 7.5-5.004.667-15 .667-29.996 0-44.996-2.833-8.166-8.337-13.67-16.503-16.503-58.862-.497-117.707-.655-176.54-.488Zm231.553 57.988c-5.334 0-10.677 1.836-16.016 5.502a1246.688 1246.688 0 0 1-29.994 29.506 27866.43 27866.43 0 0 1-242.508 244c-1.75 1.99-2.745 4.316-2.994 6.993a2871.497 2871.497 0 0 1-16.504 72.005c.438 5.208 3.276 7.873 8.505 7.999a1035.432 1035.432 0 0 0 78.501-18.504 43153.258 43153.258 0 0 1 175-174.501 13937.14 13937.14 0 0 0 99.501-98.995c6-10.333 6-20.666 0-30.999L453.5 79c-5.327-3.666-10.654-5.502-15.987-5.502zm-194.01 49.005c-58-.167-116.005-.002-174.004.497-6.247 4.514-6.575 9.516-.995 15.002 81.333.5 162.666.665 244 .498 5.905-2.687 7.401-7.022 4.496-13.002a29.468 29.468 0 0 0-4.496-2.498c-22.998-.5-46-.664-69.001-.497zm21 46.995c-65.333-.167-130.667.007-196 .508-5.779 5.876-5.112 10.868 2 14.992 26.332.5 52.664.674 79 .507 38.334.167 76.669-.007 115-.507 5.446-2.11 7.27-5.944 5.492-11.5-1.45-1.964-3.275-3.297-5.491-4zm-122.502 46c-24.5.084-48.998.248-73.497.498-4.253 3.42-5.093 7.592-2.507 12.505a6.976 6.976 0 0 0 3.502 2.497c12.996.5 25.993.674 38.997.507 36.002.167 72.01-.007 108.007-.507 5.424-2.017 7.26-5.85 5.502-11.5-1.638-2.234-3.811-3.566-6.506-4-24.5-.083-48.998-.082-73.498 0zm-58.065 45.858a86.603 86.603 0 0 0-16.437 1.646c-4.425 5.44-3.76 10.105 2 13.997 35.332.5 70.663.664 105.998.497 6.74-2.153 8.574-6.478 5.501-12.992-1.17-1.393-2.667-2.234-4.496-2.507-28.998-.5-57.996-.665-86.997-.498a89.397 89.397 0 0 0-5.569-.143zm19.068 46.144c-11.166 0-22.338.164-33.505.497-1.593.95-2.926 2.117-4 3.502-.84 1.88-1.169 3.878-.994 5.999.728 2.235 2.06 4.07 3.999 5.501 23.333.667 46.663.667 69.996 0 5.83-6.006 5.163-11.008-2-15.002-11.166-.333-22.33-.497-33.496-.497z" style="display:inline;opacity:.997" transform="matrix(.30625 0 0 .30621 -4.746 40.27)"/>
        <path fill="#f68b1d" d="M112.7 52.366c-33.994-.051-67.988 0-101.98.153-3.155 1.669-4.278 4.271-3.37 7.809H4.9c-.05-2.962 0-5.922.154-8.88a2.3 2.3 0 0 1 1.378-1.379c34.912-.204 69.824-.204 104.736 0 1.007.432 1.518 1.198 1.531 2.297z"/>
        <path fill="#fbb54c" d="M112.7 52.366v7.962H7.35c-.908-3.538.215-6.14 3.37-7.809 33.992-.153 67.986-.204 101.98-.153z"/>
        <path fill="#dedede" d="M115.15 65.533v2.144c-15.903.015-31.011 3.383-45.325 10.105-17.763-.051-35.525 0-53.287.153-1.913 1.382-2.015 2.913-.306 4.593 24.908.153 49.816.204 74.724.153a1619.72 1619.72 0 0 1-31.544.46 82.271 82.271 0 0 0-11.943 8.573c9.647.052 19.243.205 28.787.46-20.008-.051-40.017 0-60.024.153-1.77 1.8-1.566 3.33.612 4.593 8.064.153 16.129.204 24.194.153a334.516 334.516 0 0 0-8.269 8.727c9.545.052 19.039.205 28.48.46-15.005-.052-30.011 0-45.017.153-1.303 1.047-1.558 2.323-.766 3.827.277.368.634.623 1.072.766 3.98.153 7.961.204 11.944.153a107.824 107.824 0 0 0-5.82 9.186 26.665 26.665 0 0 0-6.736.46c-1.356 1.666-1.152 3.095.612 4.287 10.82.153 21.64.204 32.462.153-9.748.254-19.548.408-29.4.459-1.945 3.213-3.374 6.53-4.287 9.952a3.683 3.683 0 0 0-.306 1.837c-.235-.233-.388-.54-.46-.918-5.955 16.32-8.354 33.161-7.196 50.525-1.1-.014-1.865-.524-2.297-1.531C4.9 145.455 4.85 105.34 4.9 65.227c36.8-.102 73.55 0 110.248.306z"/>
        <path fill="#ededed" d="M115.15 67.677v5.818a8533.275 8533.275 0 0 1-74.265 74.716 3.68 3.68 0 0 0-.92 2.143 879.086 879.086 0 0 1-5.052 22.047c.134 1.595 1.001 2.412 2.603 2.45a317.11 317.11 0 0 0 24.04-5.665 13214.527 13214.527 0 0 1 53.593-53.434v9.799c-1.1.013-1.865.524-2.297 1.53l-.306 58.488a2.137 2.137 0 0 1-.766 1.071c-34.785.458-69.595.611-104.43.46-1.157-17.364 1.242-34.206 7.197-50.525.072.378.225.685.46.918a3.335 3.335 0 0 0 1.225 1.684 375.08 375.08 0 0 0 21.437 0c1.785-1.839 1.581-3.37-.613-4.593a343.626 343.626 0 0 0-20.518 0 4.34 4.34 0 0 0-1.225 1.072c.913-3.422 2.342-6.739 4.287-9.952 9.852-.051 19.652-.205 29.4-.46 2.064-.659 2.626-1.985 1.684-3.98a2.158 2.158 0 0 0-1.378-.766c-8.88-.153-17.761-.204-26.643-.153a107.824 107.824 0 0 1 5.819-9.186c11.025.051 22.05 0 33.074-.153 1.661-.618 2.223-1.792 1.684-3.522-.501-.684-1.165-1.092-1.99-1.225-9.442-.254-18.936-.407-28.481-.459a334.516 334.516 0 0 1 8.269-8.727c11.74.051 23.479 0 35.218-.153 1.667-.646 2.229-1.82 1.684-3.521a3.296 3.296 0 0 0-1.684-1.225c-9.544-.255-19.14-.408-28.787-.46a82.271 82.271 0 0 1 11.943-8.574 1619.72 1619.72 0 0 0 31.544-.459c1.808-.823 2.267-2.15 1.378-3.98a9.04 9.04 0 0 0-1.378-.766 728.796 728.796 0 0 0-21.131-.153c14.314-6.722 29.422-10.09 45.324-10.105z"/>
        <path fill="#d71b60" d="M141.792 81.456c-.369-.857-.981-1.52-1.837-1.99-6.914-3.72-13.855-3.823-20.825-.306a11.13 11.13 0 0 0-2.756 2.296c-.543-.249-.696-.657-.46-1.225l12.097-12.095a4.977 4.977 0 0 1 2.45 0l11.485 11.483c.241.677.19 1.29-.154 1.837z"/>
        <path fill="#ea4078" d="M141.792 81.456a186.203 186.203 0 0 1-12.556 12.861 382.407 382.407 0 0 1-12.862-12.86 11.13 11.13 0 0 1 2.756-2.297c6.97-3.517 13.911-3.415 20.825.306.856.47 1.468 1.133 1.837 1.99z"/>
        <path fill="#f9a528" d="M124.949 98.604a86.625 86.625 0 0 1-6.125 6.124 382.407 382.407 0 0 1-12.862-12.86c3.343-1.71 6.814-1.965 10.412-.766a33.408 33.408 0 0 1 8.575 7.502z"/>
        <path fill="#f17a1f" d="M101.368 94.623c1.996 1.635 3.68 3.473 5.053 5.512l-55.124 55.118-4.9-4.899c-.204-.204-.204-.408 0-.612a13981.64 13981.64 0 0 0 54.971-55.119z"/>
        <path fill="#f38a1d" d="M109.637 103.504c.322-.046.628.005.918.153l4.441 4.44c.204.204.204.408 0 .612l-55.124 55.118-4.9-4.899c-.204-.204-.204-.408 0-.612 18.283-18.23 36.505-36.501 54.665-54.812z"/>
        <path fill="#202020" d="M53.594 166.277a7.009 7.009 0 0 0-3.063-1.378c-3.449-.669-6.511.097-9.187 2.297.634-3.595 1.4-7.168 2.297-10.718.06-.547.315-.955.765-1.225a250.245 250.245 0 0 1 10.413 10.412 5.002 5.002 0 0 1-1.225.612z"/>
        <path fill="#424242" d="M53.594 166.277a328.61 328.61 0 0 0-12.25 2.756l-.613-.306c.207-.52.411-1.03.613-1.531 2.676-2.2 5.738-2.966 9.187-2.297a7.009 7.009 0 0 1 3.063 1.378z"/>
    </g>
</svg>
