<?xml version="1.0" encoding="UTF-8"?>
<svg xmlns="http://www.w3.org/2000/svg" xmlns:xlink="http://www.w3.org/1999/xlink" width="192" height="192" viewBox="0 0 192 192">
<defs>
<filter id="filter-remove-color" x="0%" y="0%" width="100%" height="100%">
<feColorMatrix color-interpolation-filters="sRGB" values="0 0 0 0 1 0 0 0 0 1 0 0 0 0 1 0 0 0 1 0" />
</filter>
<clipPath id="clip-0">
<rect x="0" y="0" width="192" height="192"/>
</clipPath>
<g id="source-12" clip-path="url(#clip-0)">
<path fill-rule="evenodd" fill="rgb(0%, 0%, 0%)" fill-opacity="1" d="M 98.328125 26.085938 C 70.808594 25.851562 43.246094 25.773438 15.648438 25.851562 C 15.609375 56.726562 15.648438 87.601562 15.761719 118.476562 C 16.085938 119.25 16.660156 119.644531 17.484375 119.65625 C 43.609375 119.769531 69.714844 119.652344 95.800781 119.300781 C 96.078125 119.089844 96.269531 118.8125 96.375 118.476562 C 96.453125 103.472656 96.53125 88.464844 96.605469 73.460938 C 96.929688 72.683594 97.503906 72.292969 98.328125 72.28125 C 99.125 72.199219 99.699219 72.511719 100.050781 73.222656 C 100.203125 88.621094 100.203125 104.019531 100.050781 119.417969 C 99.402344 121.34375 98.136719 122.640625 96.261719 123.308594 C 69.464844 123.464844 42.671875 123.464844 15.875 123.308594 C 14 122.640625 12.738281 121.34375 12.085938 119.417969 C 11.933594 84.378906 11.933594 49.34375 12.085938 14.304688 C 12.625 12.648438 13.660156 11.429688 15.1875 10.648438 C 42.199219 10.257812 69.222656 10.179688 96.261719 10.414062 C 98.136719 11.082031 99.402344 12.378906 100.050781 14.304688 C 100.203125 17.839844 100.203125 21.375 100.050781 24.910156 C 99.660156 25.5625 99.085938 25.957031 98.328125 26.085938 Z M 98.328125 26.085938 "/>
</g>
<mask id="mask-0">
<g filter="url(#filter-remove-color)">
<rect x="-19.2" y="-19.2" width="230.4" height="230.4" fill="rgb(0%, 0%, 0%)" fill-opacity="0.99"/>
</g>
</mask>
<clipPath id="clip-1">
<rect x="0" y="0" width="192" height="192"/>
</clipPath>
<g id="source-18" clip-path="url(#clip-1)">
<path fill-rule="evenodd" fill="rgb(1.568627%, 0.784314%, 0.784314%)" fill-opacity="1" d="M 98.328125 64.738281 C 84.902344 78.402344 71.503906 92.109375 58.136719 105.867188 C 52.1875 107.558594 46.179688 109.011719 40.105469 110.226562 C 38.90625 110.199219 38.253906 109.570312 38.15625 108.339844 C 39.488281 102.703125 40.75 97.046875 41.945312 91.371094 C 42 90.742188 42.230469 90.191406 42.632812 89.722656 C 61.332031 70.652344 79.898438 51.484375 98.328125 32.214844 C 100.65625 29.945312 102.953125 27.628906 105.21875 25.261719 C 107.671875 23.535156 110.121094 23.535156 112.570312 25.261719 C 115.441406 28.207031 118.3125 31.15625 121.179688 34.101562 C 122.558594 36.535156 122.558594 38.972656 121.179688 41.40625 C 113.59375 49.230469 105.976562 57.007812 98.328125 64.738281 Z M 98.328125 64.738281 "/>
</g>
</defs>
<path fill-rule="nonzero" fill="rgb(60.784314%, 78.823529%, 100%)" fill-opacity="1" d="M 188.800781 112 L 188.800781 124.800781 C 188.789062 128.328125 185.929688 131.1875 182.398438 131.199219 L 128 131.199219 C 117.398438 131.199219 108.800781 139.796875 108.800781 150.398438 C 108.816406 160.996094 117.402344 169.585938 128 169.601562 L 134.398438 188.800781 L 57.601562 188.800781 L 64 169.601562 C 74.597656 169.582031 83.183594 160.996094 83.199219 150.398438 C 83.199219 139.796875 74.601562 131.199219 64 131.199219 L 9.601562 131.199219 C 6.070312 131.1875 3.210938 128.328125 3.199219 124.800781 L 3.199219 112 Z M 188.800781 112 "/>
<path fill-rule="nonzero" fill="rgb(0%, 100%, 0%)" fill-opacity="1" d="M 92.324219 138.867188 L 92.324219 145.746094 L 99.675781 145.746094 L 99.675781 138.867188 Z M 94.988281 139.269531 L 95.007812 139.269531 L 95.007812 145.347656 L 94.988281 145.347656 Z M 97.011719 139.269531 L 97.011719 145.347656 Z M 97.011719 139.269531 "/>
<path fill-rule="nonzero" fill="rgb(12.54902%, 47.843137%, 82.745098%)" fill-opacity="1" d="M 182.398438 0 L 9.601562 0 C 4.296875 0 0 4.296875 0 9.601562 L 0 124.800781 C 0 130.101562 4.296875 134.398438 9.601562 134.398438 L 64 134.398438 C 72.832031 134.410156 79.988281 141.566406 80 150.398438 C 79.984375 159.230469 72.828125 166.382812 64 166.398438 C 63.953125 166.398438 63.921875 166.421875 63.875 166.425781 C 63.640625 166.445312 63.414062 166.492188 63.191406 166.5625 C 63.011719 166.597656 62.839844 166.644531 62.667969 166.707031 C 62.484375 166.808594 62.308594 166.925781 62.148438 167.058594 C 61.980469 167.164062 61.824219 167.289062 61.679688 167.421875 C 61.5625 167.5625 61.453125 167.71875 61.359375 167.878906 C 61.222656 168.066406 61.105469 168.269531 61.015625 168.484375 C 61.015625 168.523438 60.96875 168.546875 60.957031 168.589844 L 54.554688 187.789062 C 54.230469 188.765625 54.394531 189.839844 55 190.675781 C 55.601562 191.507812 56.570312 192 57.601562 192 L 134.398438 192 C 135.429688 192 136.394531 191.503906 136.992188 190.671875 C 137.59375 189.835938 137.757812 188.765625 137.433594 187.789062 L 131.035156 168.589844 C 131.035156 168.546875 130.988281 168.523438 130.976562 168.484375 C 130.882812 168.269531 130.765625 168.070312 130.628906 167.882812 C 130.539062 167.71875 130.429688 167.566406 130.3125 167.421875 C 130.164062 167.289062 130.007812 167.164062 129.84375 167.058594 C 129.679688 166.925781 129.507812 166.808594 129.320312 166.707031 C 129.152344 166.644531 128.976562 166.597656 128.800781 166.5625 C 128.578125 166.492188 128.347656 166.445312 128.117188 166.425781 C 128.070312 166.425781 128.035156 166.398438 127.992188 166.398438 C 119.160156 166.382812 112.007812 159.230469 111.992188 150.398438 C 112 141.566406 119.15625 134.410156 127.992188 134.398438 L 182.398438 134.398438 C 187.703125 134.398438 192 130.101562 192 124.800781 L 192 9.601562 C 192 4.296875 187.703125 0 182.398438 0 Z M 105.601562 150.398438 C 105.617188 161.855469 114.257812 171.460938 125.652344 172.675781 L 129.957031 185.601562 L 62.042969 185.601562 L 66.347656 172.675781 C 77.742188 171.460938 86.382812 161.855469 86.398438 150.398438 C 86.402344 144.375 83.964844 138.601562 79.644531 134.398438 L 112.355469 134.398438 C 108.035156 138.601562 105.597656 144.375 105.601562 150.398438 Z M 185.601562 124.800781 C 185.601562 126.566406 184.167969 128 182.398438 128 L 9.601562 128 C 7.832031 128 6.398438 126.566406 6.398438 124.800781 L 6.398438 115.199219 L 185.601562 115.199219 Z M 6.398438 108.800781 L 6.398438 9.601562 C 6.398438 7.832031 7.832031 6.398438 9.601562 6.398438 L 182.398438 6.398438 C 184.167969 6.398438 185.601562 7.832031 185.601562 9.601562 L 185.601562 108.800781 Z M 6.398438 108.800781 "/>
<path fill-rule="nonzero" fill="rgb(0%, 0%, 75.294118%)" fill-opacity="1" d="M 6.707031 5.089844 L 186.132812 5.089844 L 186.132812 128.070312 L 6.707031 128.070312 Z M 6.707031 5.089844 "/>
<path fill-rule="nonzero" fill="rgb(33.333333%, 86.666667%, 100%)" fill-opacity="1" d="M 6.078125 4.859375 L 6.078125 128.074219 L 186.421875 128.074219 L 186.421875 4.859375 Z M 13.292969 10.589844 L 63.789062 10.589844 L 63.789062 103.714844 L 13.292969 103.714844 Z M 69.199219 10.589844 L 92.640625 10.589844 L 92.640625 103.714844 L 69.199219 103.714844 Z M 99.855469 10.589844 L 150.351562 10.589844 L 150.351562 103.714844 L 99.855469 103.714844 Z M 155.761719 10.589844 L 179.207031 10.589844 L 179.207031 103.714844 L 155.761719 103.714844 Z M 18.703125 29.214844 L 18.703125 33.511719 L 58.375 33.511719 L 58.375 29.214844 Z M 74.609375 29.214844 L 74.609375 33.511719 L 87.230469 33.511719 L 87.230469 29.214844 Z M 105.265625 29.214844 L 105.265625 33.511719 L 144.941406 33.511719 L 144.941406 29.214844 Z M 161.171875 29.214844 L 161.171875 33.511719 L 173.796875 33.511719 L 173.796875 29.214844 Z M 18.703125 39.242188 L 18.703125 43.542969 L 58.375 43.542969 L 58.375 39.242188 Z M 74.609375 39.242188 L 74.609375 43.542969 L 87.230469 43.542969 L 87.230469 39.242188 Z M 105.265625 39.242188 L 105.265625 43.542969 L 144.941406 43.542969 L 144.941406 39.242188 Z M 161.171875 39.242188 L 161.171875 43.542969 L 173.796875 43.542969 L 173.796875 39.242188 Z M 18.703125 49.273438 L 18.703125 53.570312 L 58.375 53.570312 L 58.375 49.273438 Z M 74.609375 49.273438 L 74.609375 53.570312 L 87.230469 53.570312 L 87.230469 49.273438 Z M 105.265625 49.273438 L 105.265625 53.570312 L 144.941406 53.570312 L 144.941406 49.273438 Z M 161.171875 49.273438 L 161.171875 53.570312 L 173.796875 53.570312 L 173.796875 49.273438 Z M 18.703125 59.300781 L 18.703125 63.601562 L 58.375 63.601562 L 58.375 59.300781 Z M 74.609375 59.300781 L 74.609375 63.601562 L 87.230469 63.601562 L 87.230469 59.300781 Z M 18.703125 69.332031 L 18.703125 73.628906 L 58.375 73.628906 L 58.375 69.332031 Z M 74.609375 69.332031 L 74.609375 73.628906 L 87.230469 73.628906 L 87.230469 69.332031 Z M 13.292969 108.015625 L 92.640625 108.015625 L 92.640625 122.34375 L 13.292969 122.34375 Z M 99.855469 108.015625 L 179.207031 108.015625 L 179.207031 122.34375 L 99.855469 122.34375 Z M 16.898438 113.03125 L 16.898438 117.328125 L 52.964844 117.328125 L 52.964844 113.03125 Z M 58.375 113.03125 L 58.375 117.328125 L 63.789062 117.328125 L 63.789062 113.03125 Z M 69.199219 113.03125 L 69.199219 117.328125 L 85.429688 117.328125 L 85.429688 113.03125 Z M 103.460938 113.03125 L 103.460938 117.328125 L 139.53125 117.328125 L 139.53125 113.03125 Z M 144.941406 113.03125 L 144.941406 117.328125 L 150.351562 117.328125 L 150.351562 113.03125 Z M 155.761719 113.03125 L 155.761719 117.328125 L 171.992188 117.328125 L 171.992188 113.03125 Z M 155.761719 113.03125 "/>
<path fill-rule="nonzero" fill="rgb(100%, 100%, 0%)" fill-opacity="1" d="M 112.652344 14.886719 L 112.652344 19.1875 L 141.4375 19.1875 L 141.4375 14.886719 Z M 26.289062 14.886719 L 26.289062 19.1875 L 55.074219 19.1875 L 55.074219 14.886719 Z M 74.867188 14.886719 L 74.867188 19.1875 L 89.261719 19.1875 L 89.261719 14.886719 Z M 161.230469 14.886719 L 161.230469 19.1875 L 175.625 19.1875 L 175.625 14.886719 Z M 161.230469 14.886719 "/>
<use xlink:href="#source-12"/>
<path fill-rule="evenodd" fill="rgb(96.470588%, 54.509804%, 11.372549%)" fill-opacity="1" d="M 96.492188 15.953125 C 70.996094 15.914062 45.503906 15.953125 20.011719 16.070312 C 17.644531 17.355469 16.804688 19.359375 17.484375 22.082031 C 16.871094 22.082031 16.257812 22.082031 15.648438 22.082031 C 15.609375 19.800781 15.648438 17.523438 15.761719 15.246094 C 15.953125 14.734375 16.296875 14.382812 16.796875 14.183594 C 42.976562 14.027344 69.160156 14.027344 95.34375 14.183594 C 96.097656 14.519531 96.480469 15.105469 96.492188 15.953125 Z M 96.492188 15.953125 "/>
<path fill-rule="evenodd" fill="rgb(98.431373%, 70.980392%, 29.803922%)" fill-opacity="1" d="M 96.492188 15.953125 C 96.492188 17.996094 96.492188 20.039062 96.492188 22.082031 C 70.15625 22.082031 43.820312 22.082031 17.484375 22.082031 C 16.804688 19.359375 17.644531 17.355469 20.011719 16.070312 C 45.503906 15.953125 70.996094 15.914062 96.492188 15.953125 Z M 96.492188 15.953125 "/>
<g mask="url(#mask-0)">
<use xlink:href="#source-18"/>
</g>
<path fill-rule="evenodd" fill="rgb(87.058824%, 87.058824%, 87.058824%)" fill-opacity="1" d="M 98.328125 26.085938 C 98.328125 26.636719 98.328125 27.1875 98.328125 27.738281 C 86.402344 27.75 75.074219 30.339844 64.335938 35.515625 C 51.015625 35.476562 37.695312 35.515625 24.375 35.632812 C 22.941406 36.695312 22.863281 37.875 24.144531 39.167969 C 42.824219 39.285156 61.503906 39.324219 80.183594 39.285156 C 72.339844 39.480469 64.453125 39.601562 56.527344 39.640625 C 53.351562 41.566406 50.363281 43.765625 47.570312 46.238281 C 54.808594 46.277344 62.003906 46.394531 69.160156 46.59375 C 54.15625 46.550781 39.148438 46.59375 24.144531 46.710938 C 22.816406 48.09375 22.96875 49.273438 24.605469 50.246094 C 30.652344 50.363281 36.699219 50.402344 42.75 50.363281 C 40.644531 52.5625 38.578125 54.800781 36.546875 57.078125 C 43.707031 57.121094 50.824219 57.238281 57.90625 57.433594 C 46.652344 57.394531 35.398438 57.433594 24.144531 57.550781 C 23.167969 58.359375 22.976562 59.339844 23.570312 60.496094 C 23.777344 60.78125 24.046875 60.976562 24.375 61.085938 C 27.359375 61.203125 30.34375 61.242188 33.332031 61.203125 C 31.757812 63.488281 30.304688 65.84375 28.96875 68.273438 C 27.257812 68.175781 25.574219 68.292969 23.914062 68.628906 C 22.898438 69.910156 23.050781 71.011719 24.375 71.929688 C 32.488281 72.046875 40.605469 72.085938 48.71875 72.046875 C 41.410156 72.242188 34.058594 72.359375 26.671875 72.398438 C 25.210938 74.871094 24.140625 77.425781 23.457031 80.058594 C 23.261719 80.503906 23.1875 80.972656 23.226562 81.472656 C 23.050781 81.292969 22.933594 81.058594 22.882812 80.765625 C 18.414062 93.328125 16.617188 106.289062 17.484375 119.65625 C 16.660156 119.644531 16.085938 119.25 15.761719 118.476562 C 15.648438 87.601562 15.609375 56.726562 15.648438 25.851562 C 43.246094 25.773438 70.808594 25.851562 98.328125 26.085938 Z M 98.328125 26.085938 "/>
<path fill-rule="evenodd" fill="rgb(92.941176%, 92.941176%, 92.941176%)" fill-opacity="1" d="M 98.328125 27.738281 C 98.328125 29.230469 98.328125 30.722656 98.328125 32.214844 C 79.898438 51.484375 61.332031 70.652344 42.632812 89.722656 C 42.230469 90.191406 42 90.742188 41.945312 91.371094 C 40.75 97.046875 39.488281 102.703125 38.15625 108.339844 C 38.253906 109.570312 38.90625 110.199219 40.105469 110.226562 C 46.179688 109.011719 52.1875 107.558594 58.136719 105.867188 C 71.503906 92.109375 84.902344 78.402344 98.328125 64.738281 C 98.328125 67.253906 98.328125 69.769531 98.328125 72.28125 C 97.503906 72.292969 96.929688 72.683594 96.605469 73.460938 C 96.53125 88.464844 96.453125 103.472656 96.375 118.476562 C 96.269531 118.8125 96.078125 119.089844 95.800781 119.300781 C 69.714844 119.652344 43.609375 119.769531 17.484375 119.65625 C 16.617188 106.289062 18.414062 93.328125 22.882812 80.765625 C 22.933594 81.058594 23.050781 81.292969 23.226562 81.472656 C 23.394531 82 23.699219 82.433594 24.144531 82.769531 C 29.503906 82.925781 34.863281 82.925781 40.222656 82.769531 C 41.5625 81.355469 41.40625 80.175781 39.761719 79.234375 C 34.632812 79.078125 29.503906 79.078125 24.375 79.234375 C 24.007812 79.457031 23.703125 79.734375 23.457031 80.058594 C 24.140625 77.425781 25.210938 74.871094 26.671875 72.398438 C 34.058594 72.359375 41.410156 72.242188 48.71875 72.046875 C 50.265625 71.539062 50.6875 70.515625 49.984375 68.980469 C 49.714844 68.652344 49.371094 68.457031 48.949219 68.394531 C 42.289062 68.273438 35.628906 68.234375 28.96875 68.273438 C 30.304688 65.84375 31.757812 63.488281 33.332031 61.203125 C 41.601562 61.242188 49.867188 61.203125 58.136719 61.085938 C 59.382812 60.613281 59.804688 59.707031 59.398438 58.375 C 59.023438 57.851562 58.527344 57.535156 57.90625 57.433594 C 50.824219 57.238281 43.707031 57.121094 36.546875 57.078125 C 38.578125 54.800781 40.644531 52.5625 42.75 50.363281 C 51.550781 50.402344 60.355469 50.363281 69.160156 50.246094 C 70.410156 49.746094 70.832031 48.84375 70.425781 47.535156 C 70.089844 47.070312 69.667969 46.757812 69.160156 46.59375 C 62.003906 46.394531 54.808594 46.277344 47.570312 46.238281 C 50.363281 43.765625 53.351562 41.566406 56.527344 39.640625 C 64.453125 39.601562 72.339844 39.480469 80.183594 39.285156 C 81.542969 38.652344 81.886719 37.632812 81.21875 36.222656 C 80.890625 35.996094 80.546875 35.800781 80.183594 35.632812 C 74.902344 35.515625 69.621094 35.476562 64.335938 35.515625 C 75.074219 30.339844 86.402344 27.75 98.328125 27.738281 Z M 98.328125 27.738281 "/>
<path fill-rule="evenodd" fill="rgb(84.313725%, 10.588235%, 37.647059%)" fill-opacity="1" d="M 118.3125 38.34375 C 118.035156 37.683594 117.574219 37.171875 116.933594 36.8125 C 111.746094 33.949219 106.542969 33.867188 101.316406 36.574219 C 100.523438 37.058594 99.835938 37.644531 99.246094 38.34375 C 98.839844 38.152344 98.726562 37.835938 98.902344 37.398438 C 101.925781 34.296875 104.953125 31.195312 107.976562 28.089844 C 108.589844 27.933594 109.199219 27.933594 109.8125 28.089844 C 112.683594 31.035156 115.554688 33.984375 118.425781 36.929688 C 118.605469 37.449219 118.570312 37.921875 118.3125 38.34375 Z M 118.3125 38.34375 "/>
<path fill-rule="evenodd" fill="rgb(91.764706%, 25.098039%, 47.058824%)" fill-opacity="1" d="M 118.3125 38.34375 C 115.34375 41.78125 112.203125 45.082031 108.894531 48.242188 C 105.597656 45.015625 102.382812 41.714844 99.246094 38.34375 C 99.835938 37.644531 100.523438 37.058594 101.316406 36.574219 C 106.542969 33.867188 111.746094 33.949219 116.933594 36.8125 C 117.574219 37.171875 118.035156 37.683594 118.3125 38.34375 Z M 118.3125 38.34375 "/>
<path fill-rule="evenodd" fill="rgb(2.745098%, 2.745098%, 2.745098%)" fill-opacity="1" d="M 64.335938 35.515625 C 69.621094 35.476562 74.902344 35.515625 80.183594 35.632812 C 80.546875 35.800781 80.890625 35.996094 81.21875 36.222656 C 81.886719 37.632812 81.542969 38.652344 80.183594 39.285156 C 61.503906 39.324219 42.824219 39.285156 24.144531 39.167969 C 22.863281 37.875 22.941406 36.695312 24.375 35.632812 C 37.695312 35.515625 51.015625 35.476562 64.335938 35.515625 Z M 64.335938 35.515625 "/>
<path fill-rule="evenodd" fill="rgb(94.901961%, 54.117647%, 11.372549%)" fill-opacity="1" d="M 105.679688 51.542969 C 103.851562 49.234375 101.707031 47.308594 99.246094 45.765625 C 96.550781 44.84375 93.945312 45.039062 91.4375 46.355469 C 91.179688 46.210938 90.949219 46.011719 90.75 45.765625 C 92.476562 43.957031 94.238281 42.1875 96.03125 40.464844 C 99.511719 43.917969 102.957031 47.414062 106.367188 50.953125 C 106.167969 51.199219 105.9375 51.394531 105.679688 51.542969 Z M 105.679688 51.542969 "/>
<path fill-rule="evenodd" fill="rgb(97.647059%, 64.705882%, 15.686275%)" fill-opacity="1" d="M 105.679688 51.542969 C 104.230469 53.1875 102.699219 54.757812 101.085938 56.253906 C 97.789062 53.027344 94.574219 49.730469 91.4375 46.355469 C 93.945312 45.039062 96.550781 44.84375 99.246094 45.765625 C 101.707031 47.308594 103.851562 49.234375 105.679688 51.542969 Z M 105.679688 51.542969 "/>
<path fill-rule="evenodd" fill="rgb(3.137255%, 3.137255%, 3.137255%)" fill-opacity="1" d="M 69.160156 46.59375 C 69.667969 46.757812 70.089844 47.070312 70.425781 47.535156 C 70.832031 48.84375 70.410156 49.746094 69.160156 50.246094 C 60.355469 50.363281 51.550781 50.402344 42.75 50.363281 C 36.699219 50.402344 30.652344 50.363281 24.605469 50.246094 C 22.96875 49.273438 22.816406 48.09375 24.144531 46.710938 C 39.148438 46.59375 54.15625 46.550781 69.160156 46.59375 Z M 69.160156 46.59375 "/>
<path fill-rule="evenodd" fill="rgb(94.509804%, 47.843137%, 12.156863%)" fill-opacity="1" d="M 87.992188 48.476562 C 89.492188 49.734375 90.753906 51.148438 91.785156 52.71875 C 78.003906 66.859375 64.222656 81.003906 50.441406 95.144531 C 49.21875 93.886719 47.992188 92.628906 46.765625 91.371094 C 46.613281 91.214844 46.613281 91.058594 46.765625 90.902344 C 60.554688 76.789062 74.296875 62.648438 87.992188 48.476562 Z M 87.992188 48.476562 "/>
<path fill-rule="evenodd" fill="rgb(95.294118%, 54.117647%, 11.372549%)" fill-opacity="1" d="M 94.195312 55.3125 C 94.4375 55.277344 94.667969 55.316406 94.882812 55.429688 C 95.992188 56.570312 97.105469 57.707031 98.214844 58.847656 C 98.367188 59.003906 98.367188 59.160156 98.214844 59.320312 C 84.433594 73.460938 70.652344 87.601562 56.875 101.742188 C 55.648438 100.484375 54.421875 99.226562 53.199219 97.972656 C 53.046875 97.8125 53.046875 97.65625 53.199219 97.5 C 66.910156 83.46875 80.574219 69.40625 94.195312 55.3125 Z M 94.195312 55.3125 "/>
<path fill-rule="evenodd" fill="rgb(1.568627%, 1.568627%, 1.568627%)" fill-opacity="1" d="M 57.90625 57.433594 C 58.527344 57.535156 59.023438 57.851562 59.398438 58.375 C 59.804688 59.707031 59.382812 60.613281 58.136719 61.085938 C 49.867188 61.203125 41.601562 61.242188 33.332031 61.203125 C 30.34375 61.242188 27.359375 61.203125 24.375 61.085938 C 24.046875 60.976562 23.777344 60.78125 23.570312 60.496094 C 22.976562 59.339844 23.167969 58.359375 24.144531 57.550781 C 35.398438 57.433594 46.652344 57.394531 57.90625 57.433594 Z M 57.90625 57.433594 "/>
<path fill-rule="evenodd" fill="rgb(0.392157%, 0.392157%, 0.392157%)" fill-opacity="1" d="M 28.96875 68.273438 C 35.628906 68.234375 42.289062 68.273438 48.949219 68.394531 C 49.371094 68.457031 49.714844 68.652344 49.984375 68.980469 C 50.6875 70.515625 50.265625 71.539062 48.71875 72.046875 C 40.605469 72.085938 32.488281 72.046875 24.375 71.929688 C 23.050781 71.011719 22.898438 69.910156 23.914062 68.628906 C 25.574219 68.292969 27.257812 68.175781 28.96875 68.273438 Z M 28.96875 68.273438 "/>
<path fill-rule="evenodd" fill="rgb(2.745098%, 2.745098%, 2.745098%)" fill-opacity="1" d="M 23.226562 81.472656 C 23.1875 80.972656 23.261719 80.503906 23.457031 80.058594 C 23.703125 79.734375 24.007812 79.457031 24.375 79.234375 C 29.503906 79.078125 34.632812 79.078125 39.761719 79.234375 C 41.40625 80.175781 41.5625 81.355469 40.222656 82.769531 C 34.863281 82.925781 29.503906 82.925781 24.144531 82.769531 C 23.699219 82.433594 23.394531 82 23.226562 81.472656 Z M 23.226562 81.472656 "/>
<path fill-rule="evenodd" fill="rgb(12.54902%, 12.54902%, 12.54902%)" fill-opacity="1" d="M 52.164062 103.628906 C 51.5 103.089844 50.734375 102.738281 49.867188 102.566406 C 47.28125 102.050781 44.984375 102.640625 42.976562 104.335938 C 43.453125 101.566406 44.027344 98.816406 44.699219 96.085938 C 44.746094 95.664062 44.9375 95.351562 45.273438 95.144531 C 47.953125 97.734375 50.558594 100.40625 53.082031 103.15625 C 52.792969 103.359375 52.488281 103.515625 52.164062 103.628906 Z M 52.164062 103.628906 "/>
<path fill-rule="evenodd" fill="rgb(25.882353%, 25.882353%, 25.882353%)" fill-opacity="1" d="M 52.164062 103.628906 C 49.09375 104.273438 46.03125 104.980469 42.976562 105.75 C 42.824219 105.671875 42.671875 105.59375 42.519531 105.511719 C 42.671875 105.113281 42.828125 104.722656 42.976562 104.335938 C 44.984375 102.640625 47.28125 102.050781 49.867188 102.566406 C 50.734375 102.738281 51.5 103.089844 52.164062 103.628906 Z M 52.164062 103.628906 "/>
</svg>
