<?xml version="1.0" encoding="UTF-8"?>
<svg xmlns="http://www.w3.org/2000/svg" xmlns:xlink="http://www.w3.org/1999/xlink" width="192" height="192" viewBox="0 0 192 192">
<path fill-rule="nonzero" fill="rgb(60.784314%, 78.823529%, 100%)" fill-opacity="1" d="M 188.800781 112 L 188.800781 124.800781 C 188.789062 128.328125 185.929688 131.1875 182.398438 131.199219 L 128 131.199219 C 117.398438 131.199219 108.800781 139.796875 108.800781 150.398438 C 108.816406 160.996094 117.402344 169.585938 128 169.601562 L 134.398438 188.800781 L 57.601562 188.800781 L 64 169.601562 C 74.597656 169.582031 83.183594 160.996094 83.199219 150.398438 C 83.199219 139.796875 74.601562 131.199219 64 131.199219 L 9.601562 131.199219 C 6.070312 131.1875 3.210938 128.328125 3.199219 124.800781 L 3.199219 112 Z M 188.800781 112 "/>
<path fill-rule="nonzero" fill="rgb(0%, 100%, 0%)" fill-opacity="1" d="M 92.324219 138.867188 L 92.324219 145.746094 L 99.675781 145.746094 L 99.675781 138.867188 Z M 94.988281 139.269531 L 95.007812 139.269531 L 95.007812 145.347656 L 94.988281 145.347656 Z M 97.011719 139.269531 L 97.011719 145.347656 Z M 97.011719 139.269531 "/>
<path fill-rule="nonzero" fill="rgb(12.54902%, 47.843137%, 82.745098%)" fill-opacity="1" d="M 182.398438 0 L 9.601562 0 C 4.296875 0 0 4.296875 0 9.601562 L 0 124.800781 C 0 130.101562 4.296875 134.398438 9.601562 134.398438 L 64 134.398438 C 72.832031 134.410156 79.988281 141.566406 80 150.398438 C 79.984375 159.230469 72.828125 166.382812 64 166.398438 C 63.953125 166.398438 63.921875 166.421875 63.875 166.425781 C 63.640625 166.445312 63.414062 166.492188 63.191406 166.5625 C 63.011719 166.597656 62.839844 166.644531 62.667969 166.707031 C 62.484375 166.808594 62.308594 166.925781 62.148438 167.058594 C 61.980469 167.164062 61.824219 167.289062 61.679688 167.421875 C 61.5625 167.5625 61.453125 167.71875 61.359375 167.878906 C 61.222656 168.066406 61.105469 168.269531 61.015625 168.484375 C 61.015625 168.523438 60.96875 168.546875 60.957031 168.589844 L 54.554688 187.789062 C 54.230469 188.765625 54.394531 189.839844 55 190.675781 C 55.601562 191.507812 56.570312 192 57.601562 192 L 134.398438 192 C 135.429688 192 136.394531 191.503906 136.992188 190.671875 C 137.59375 189.835938 137.757812 188.765625 137.433594 187.789062 L 131.035156 168.589844 C 131.035156 168.546875 130.988281 168.523438 130.976562 168.484375 C 130.882812 168.269531 130.765625 168.070312 130.628906 167.882812 C 130.539062 167.71875 130.429688 167.566406 130.3125 167.421875 C 130.164062 167.289062 130.007812 167.164062 129.84375 167.058594 C 129.679688 166.925781 129.507812 166.808594 129.320312 166.707031 C 129.152344 166.644531 128.976562 166.597656 128.800781 166.5625 C 128.578125 166.492188 128.347656 166.445312 128.117188 166.425781 C 128.070312 166.425781 128.035156 166.398438 127.992188 166.398438 C 119.160156 166.382812 112.007812 159.230469 111.992188 150.398438 C 112 141.566406 119.15625 134.410156 127.992188 134.398438 L 182.398438 134.398438 C 187.703125 134.398438 192 130.101562 192 124.800781 L 192 9.601562 C 192 4.296875 187.703125 0 182.398438 0 Z M 105.601562 150.398438 C 105.617188 161.855469 114.257812 171.460938 125.652344 172.675781 L 129.957031 185.601562 L 62.042969 185.601562 L 66.347656 172.675781 C 77.742188 171.460938 86.382812 161.855469 86.398438 150.398438 C 86.402344 144.375 83.964844 138.601562 79.644531 134.398438 L 112.355469 134.398438 C 108.035156 138.601562 105.597656 144.375 105.601562 150.398438 Z M 185.601562 124.800781 C 185.601562 126.566406 184.167969 128 182.398438 128 L 9.601562 128 C 7.832031 128 6.398438 126.566406 6.398438 124.800781 L 6.398438 115.199219 L 185.601562 115.199219 Z M 6.398438 108.800781 L 6.398438 9.601562 C 6.398438 7.832031 7.832031 6.398438 9.601562 6.398438 L 182.398438 6.398438 C 184.167969 6.398438 185.601562 7.832031 185.601562 9.601562 L 185.601562 108.800781 Z M 6.398438 108.800781 "/>
<path fill-rule="nonzero" fill="rgb(0%, 0%, 75.294118%)" fill-opacity="1" d="M 6.707031 5.089844 L 186.132812 5.089844 L 186.132812 128.070312 L 6.707031 128.070312 Z M 6.707031 5.089844 "/>
<path fill-rule="nonzero" fill="rgb(33.333333%, 86.666667%, 100%)" fill-opacity="1" d="M 6.078125 4.859375 L 6.078125 128.074219 L 186.421875 128.074219 L 186.421875 4.859375 Z M 13.292969 10.589844 L 63.789062 10.589844 L 63.789062 103.714844 L 13.292969 103.714844 Z M 69.199219 10.589844 L 92.640625 10.589844 L 92.640625 103.714844 L 69.199219 103.714844 Z M 99.855469 10.589844 L 150.351562 10.589844 L 150.351562 103.714844 L 99.855469 103.714844 Z M 155.761719 10.589844 L 179.207031 10.589844 L 179.207031 103.714844 L 155.761719 103.714844 Z M 18.703125 29.214844 L 18.703125 33.511719 L 58.375 33.511719 L 58.375 29.214844 Z M 74.609375 29.214844 L 74.609375 33.511719 L 87.230469 33.511719 L 87.230469 29.214844 Z M 105.265625 29.214844 L 105.265625 33.511719 L 144.941406 33.511719 L 144.941406 29.214844 Z M 161.171875 29.214844 L 161.171875 33.511719 L 173.796875 33.511719 L 173.796875 29.214844 Z M 18.703125 39.242188 L 18.703125 43.542969 L 58.375 43.542969 L 58.375 39.242188 Z M 74.609375 39.242188 L 74.609375 43.542969 L 87.230469 43.542969 L 87.230469 39.242188 Z M 105.265625 39.242188 L 105.265625 43.542969 L 144.941406 43.542969 L 144.941406 39.242188 Z M 161.171875 39.242188 L 161.171875 43.542969 L 173.796875 43.542969 L 173.796875 39.242188 Z M 18.703125 49.273438 L 18.703125 53.570312 L 58.375 53.570312 L 58.375 49.273438 Z M 74.609375 49.273438 L 74.609375 53.570312 L 87.230469 53.570312 L 87.230469 49.273438 Z M 105.265625 49.273438 L 105.265625 53.570312 L 144.941406 53.570312 L 144.941406 49.273438 Z M 161.171875 49.273438 L 161.171875 53.570312 L 173.796875 53.570312 L 173.796875 49.273438 Z M 18.703125 59.300781 L 18.703125 63.601562 L 58.375 63.601562 L 58.375 59.300781 Z M 74.609375 59.300781 L 74.609375 63.601562 L 87.230469 63.601562 L 87.230469 59.300781 Z M 18.703125 69.332031 L 18.703125 73.628906 L 58.375 73.628906 L 58.375 69.332031 Z M 74.609375 69.332031 L 74.609375 73.628906 L 87.230469 73.628906 L 87.230469 69.332031 Z M 13.292969 108.015625 L 92.640625 108.015625 L 92.640625 122.34375 L 13.292969 122.34375 Z M 99.855469 108.015625 L 179.207031 108.015625 L 179.207031 122.34375 L 99.855469 122.34375 Z M 16.898438 113.03125 L 16.898438 117.328125 L 52.964844 117.328125 L 52.964844 113.03125 Z M 58.375 113.03125 L 58.375 117.328125 L 63.789062 117.328125 L 63.789062 113.03125 Z M 69.199219 113.03125 L 69.199219 117.328125 L 85.429688 117.328125 L 85.429688 113.03125 Z M 103.460938 113.03125 L 103.460938 117.328125 L 139.53125 117.328125 L 139.53125 113.03125 Z M 144.941406 113.03125 L 144.941406 117.328125 L 150.351562 117.328125 L 150.351562 113.03125 Z M 155.761719 113.03125 L 155.761719 117.328125 L 171.992188 117.328125 L 171.992188 113.03125 Z M 155.761719 113.03125 "/>
<path fill-rule="nonzero" fill="rgb(100%, 100%, 0%)" fill-opacity="1" d="M 112.652344 14.886719 L 112.652344 19.1875 L 141.4375 19.1875 L 141.4375 14.886719 Z M 26.289062 14.886719 L 26.289062 19.1875 L 55.074219 19.1875 L 55.074219 14.886719 Z M 74.867188 14.886719 L 74.867188 19.1875 L 89.261719 19.1875 L 89.261719 14.886719 Z M 161.230469 14.886719 L 161.230469 19.1875 L 175.625 19.1875 L 175.625 14.886719 Z M 161.230469 14.886719 "/>
</svg>
