<svg xmlns="http://www.w3.org/2000/svg" width="512" height="512">
    <path d="M0 953.15h128v128H0Z" style="fill:#00c;fill-opacity:1;stroke-width:1.28" transform="matrix(4 0 0 4 0 -3812.6)"/>
    <path d="M0 1063.23v17.92h128v-17.92z" style="fill:#2b0000;fill-opacity:1;stroke-width:1.28" transform="matrix(4 0 0 4 0 -3812.6)"/>
    <path d="M30.72 1072.099v9.05H51.2v-9.05zm25.6 0v9.05H76.8v-9.05zm25.6 0v9.05h20.48v-9.05zm-76.8.092v8.959H25.6v-8.96H5.12Zm102.4 0v8.959H128v-8.96h-20.48z" style="fill:teal;fill-opacity:1;stroke-width:1.28" transform="matrix(4 0 0 4 0 -3812.6)"/>
    <path d="M0 1063.23v8.96h10.24v-4.48H5.12v-4.48z" style="fill:#e6e6e6;fill-opacity:1;stroke-width:1.28" transform="matrix(4 0 0 4 0 -3812.6)"/>
    <path d="M0 953.15v110.079h128V953.15Zm5.12 5.119h35.84v83.2H5.12Zm39.68 0h16.64v83.2H44.8Zm21.76 0h35.84v83.2H66.56Zm39.68 0h16.64v83.2h-16.64zm-97.28 16.64v3.84h28.16v-3.84zm39.68 0v3.84h8.96v-3.84zm21.76 0v3.84h28.16v-3.84zm39.68 0v3.84h8.96v-3.84zM8.96 983.87v3.84h28.16v-3.84zm39.68 0v3.84h8.96v-3.84zm21.76 0v3.84h28.16v-3.84zm39.68 0v3.84h8.96v-3.84zM8.96 992.83v3.84h28.16v-3.84zm39.68 0v3.84h8.96v-3.84zm21.76 0v3.84h28.16v-3.84zm39.68 0v3.84h8.96v-3.84zm-101.12 8.96v3.84h28.16v-3.84zm39.68 0v3.84h8.96v-3.84zm-39.68 8.96v3.84h28.16v-3.84zm39.68 0v3.84h8.96v-3.84zm-43.52 34.56h56.32v12.8H5.12Zm61.44 0h56.32v12.8H66.56Zm-58.88 4.48v3.84h25.6v-3.84zm29.44 0v3.84h3.84v-3.84zm7.68 0v3.84h11.52v-3.84zm24.32 0v3.84h25.6v-3.84zm29.44 0v3.84h3.84v-3.84zm7.68 0v3.84h11.52v-3.84z" style="fill:#5df;fill-opacity:1;stroke-width:1.28" transform="matrix(4 0 0 4 0 -3812.6)"/>
    <path d="M75.52 962.109v3.841H96v-3.841zm-61.44.002v3.84h20.48v-3.84zm34.56 0v3.84h10.24v-3.84zm61.44 0v3.84h10.24v-3.84z" style="fill:#ff0;fill-opacity:1;stroke-width:1.28" transform="matrix(4 0 0 4 0 -3812.6)"/>
    <g style="clip-rule:evenodd;fill-rule:evenodd;image-rendering:optimizeQuality;shape-rendering:geometricPrecision;text-rendering:geometricPrecision">
        <path d="M205.96 15.509c-58.833.166-117.657.662-176.463 1.492-6.648 3.314-11.148 8.48-13.5 15.5a49726.54 49726.54 0 0 0 0 445.998c2.834 8.167 8.338 13.67 16.504 16.504 116.667.667 233.332.667 349.998 0 8.167-2.833 13.671-8.337 16.504-16.504a9599.42 9599.42 0 0 0 0-196c-1.539-3.02-4.04-4.353-7.5-4-3.59.045-6.091 1.716-7.501 5.005-.333 63.667-.672 127.329-1.005 190.996A6.977 6.977 0 0 1 380.5 478a19452.499 19452.499 0 0 1-341.005 1.502c-3.59-.044-6.08-1.714-7.491-5.003-.5-131-.674-262.005-.507-393.004 120.168-.333 240.174.005 360.006 1.004 3.287-.555 5.787-2.226 7.5-5.004.667-15 .667-29.996 0-44.996-2.833-8.166-8.337-13.67-16.503-16.503-58.862-.497-117.707-.655-176.54-.488Zm231.553 57.988c-5.334 0-10.677 1.836-16.016 5.502a1246.688 1246.688 0 0 1-29.994 29.506 27866.43 27866.43 0 0 1-242.508 244c-1.75 1.99-2.745 4.316-2.994 6.993a2871.497 2871.497 0 0 1-16.504 72.005c.438 5.208 3.276 7.873 8.505 7.999a1035.432 1035.432 0 0 0 78.501-18.504 43153.258 43153.258 0 0 1 175-174.501 13937.14 13937.14 0 0 0 99.501-98.995c6-10.333 6-20.666 0-30.999L453.5 79c-5.327-3.666-10.654-5.502-15.987-5.502zm-194.01 49.005c-58-.167-116.005-.002-174.004.497-6.247 4.514-6.575 9.516-.995 15.002 81.333.5 162.666.665 244 .498 5.905-2.687 7.401-7.022 4.496-13.002a29.468 29.468 0 0 0-4.496-2.498c-22.998-.5-46-.664-69.001-.497zm21 46.995c-65.333-.167-130.667.007-196 .508-5.779 5.876-5.112 10.868 2 14.992 26.332.5 52.664.674 79 .507 38.334.167 76.669-.007 115-.507 5.446-2.11 7.27-5.944 5.492-11.5-1.45-1.964-3.275-3.297-5.491-4zm-122.502 46c-24.5.084-48.998.248-73.497.498-4.253 3.42-5.093 7.592-2.507 12.505a6.976 6.976 0 0 0 3.502 2.497c12.996.5 25.993.674 38.997.507 36.002.167 72.01-.007 108.007-.507 5.424-2.017 7.26-5.85 5.502-11.5-1.638-2.234-3.811-3.566-6.506-4-24.5-.083-48.998-.082-73.498 0zm-58.065 45.858a86.603 86.603 0 0 0-16.437 1.646c-4.425 5.44-3.76 10.105 2 13.997 35.332.5 70.663.664 105.998.497 6.74-2.153 8.574-6.478 5.501-12.992-1.17-1.393-2.667-2.234-4.496-2.507-28.998-.5-57.996-.665-86.997-.498a89.397 89.397 0 0 0-5.569-.143zm19.068 46.144c-11.166 0-22.338.164-33.505.497-1.593.95-2.926 2.117-4 3.502-.84 1.88-1.169 3.878-.994 5.999.728 2.235 2.06 4.07 3.999 5.501 23.333.667 46.663.667 69.996 0 5.83-6.006 5.163-11.008-2-15.002-11.166-.333-22.33-.497-33.496-.497z" style="display:inline;opacity:.997" transform="matrix(.81665 0 0 .81657 -12.656 107.388)"/>
        <path fill="#f68b1d" d="M300.531 139.643c-90.65-.136-181.298 0-271.946.408-8.411 4.45-11.406 11.39-8.983 20.823h-6.533c-.136-7.899 0-15.792.408-23.68.68-1.77 1.905-2.995 3.675-3.675a23881.38 23881.38 0 0 1 279.296 0c2.686 1.151 4.047 3.193 4.083 6.124z"/>
        <path fill="#fbb54c" d="M300.531 139.643v21.23H19.601c-2.422-9.432.573-16.373 8.984-20.822a45281.67 45281.67 0 0 1 271.946-.408z"/>
        <path fill="#dedede" d="M307.064 174.755v5.716c-42.405.04-82.694 9.022-120.865 26.947-47.366-.136-94.732 0-142.098.408-5.101 3.686-5.373 7.769-.816 12.249 66.42.408 132.842.544 199.264.408-27.9.68-55.94 1.088-84.116 1.225a219.39 219.39 0 0 0-31.85 22.864c25.728.137 51.316.545 76.766 1.225-53.355-.137-106.71 0-160.064.408-4.72 4.798-4.176 8.88 1.633 12.248 21.504.409 43.01.545 64.516.409a892.042 892.042 0 0 0-22.05 23.272c25.454.137 50.77.545 75.949 1.225-40.017-.137-80.033 0-120.048.408-3.474 2.793-4.154 6.195-2.042 10.207a5.697 5.697 0 0 0 2.858 2.041c10.613.409 21.23.545 31.85.409a287.53 287.53 0 0 0-15.516 24.497 71.107 71.107 0 0 0-17.967 1.225c-3.614 4.442-3.07 8.253 1.633 11.431 28.854.409 57.71.545 86.566.409-25.995.68-52.128 1.087-78.399 1.225-5.188 8.568-8.999 17.414-11.433 26.538-.687 1.534-.96 3.168-.817 4.9-.627-.624-1.035-1.44-1.225-2.45-15.881 43.52-22.278 88.43-19.191 134.733-2.932-.036-4.973-1.397-6.125-4.083-.408-106.97-.545-213.94-.408-320.91 98.135-.272 196.134 0 293.995.816z"/>
        <path fill="#ededed" d="M307.064 180.471v15.515a22755.402 22755.402 0 0 1-198.039 199.242c-1.43 1.625-2.246 3.53-2.45 5.716a2344.229 2344.229 0 0 1-13.474 58.793c.357 4.253 2.671 6.43 6.941 6.533a845.624 845.624 0 0 0 64.108-15.107 35238.738 35238.738 0 0 1 142.914-142.49v26.13c-2.932.035-4.973 1.396-6.125 4.082l-.816 155.964a5.698 5.698 0 0 1-2.042 2.858c-92.76 1.222-185.586 1.63-278.48 1.225-3.086-46.302 3.31-91.214 19.192-134.733.19 1.01.598 1.826 1.225 2.45.595 1.824 1.683 3.321 3.267 4.49 19.055.545 38.11.545 57.166 0 4.76-4.904 4.216-8.987-1.634-12.248a916.336 916.336 0 0 0-54.716 0c-1.3.775-2.39 1.727-3.266 2.858 2.434-9.124 6.245-17.97 11.433-26.538 26.27-.138 52.404-.546 78.399-1.225 5.503-1.758 7.001-5.296 4.491-10.616-.956-1.137-2.18-1.818-3.675-2.041a3089.566 3089.566 0 0 0-71.048-.408 287.53 287.53 0 0 1 15.516-24.497c29.401.136 58.8 0 88.199-.409 4.43-1.647 5.927-4.777 4.491-9.39-1.337-1.824-3.107-2.913-5.308-3.266a3518.76 3518.76 0 0 0-75.949-1.225 892.042 892.042 0 0 1 22.05-23.272c31.306.136 62.611 0 93.915-.409 4.447-1.723 5.944-4.853 4.492-9.39-1.185-1.604-2.682-2.692-4.492-3.266-25.45-.68-51.038-1.088-76.765-1.225a219.39 219.39 0 0 1 31.85-22.864c28.175-.137 56.214-.546 84.115-1.225 4.822-2.194 6.047-5.732 3.674-10.615a24.106 24.106 0 0 0-3.674-2.042c-18.782-.408-37.565-.544-56.35-.408 38.17-17.925 78.46-26.907 120.865-26.947z"/>
        <path fill="#d71b60" d="M378.113 217.217c-.985-2.285-2.618-4.055-4.9-5.308-18.437-9.921-36.947-10.193-55.532-.817a29.68 29.68 0 0 0-7.35 6.125c-1.448-.665-1.856-1.754-1.225-3.267l32.258-32.254a13.271 13.271 0 0 1 6.533 0l30.625 30.621c.644 1.807.508 3.44-.409 4.9z"/>
        <path fill="#ea4078" d="M378.113 217.217a496.542 496.542 0 0 1-33.483 34.296 1019.752 1019.752 0 0 1-34.3-34.296 29.68 29.68 0 0 1 7.35-6.125c18.586-9.376 37.096-9.104 55.533.817 2.282 1.253 3.915 3.023 4.9 5.308z"/>
        <path fill="#f9a528" d="M333.197 262.944a231 231 0 0 1-16.333 16.332 1019.752 1019.752 0 0 1-34.3-34.296c8.916-4.56 18.171-5.24 27.767-2.041 8.747 5.34 16.369 12.01 22.866 20.005z"/>
        <path fill="#f17a1f" d="M270.315 252.33c5.323 4.359 9.814 9.258 13.475 14.697L136.792 414.01l-13.067-13.065c-.544-.544-.544-1.088 0-1.633 49.028-48.886 97.891-97.88 146.59-146.982z"/>
        <path fill="#f38a1d" d="M292.364 276.01a4.03 4.03 0 0 1 2.45.408l11.842 11.84c.545.545.545 1.089 0 1.633L159.658 436.873l-13.066-13.065c-.545-.545-.545-1.088 0-1.633A36926.046 36926.046 0 0 0 292.364 276.01z"/>
        <path fill="#202020" d="M142.917 443.406c-2.366-1.86-5.088-3.085-8.167-3.675-9.197-1.784-17.364.257-24.5 6.124a399.076 399.076 0 0 1 6.125-28.58c.16-1.458.84-2.546 2.042-3.266a667.321 667.321 0 0 1 27.766 27.764 13.338 13.338 0 0 1-3.266 1.633z"/>
        <path fill="#424242" d="M142.917 443.406a876.295 876.295 0 0 0-32.667 7.349l-1.633-.817a1089.8 1089.8 0 0 1 1.633-4.083c7.136-5.867 15.303-7.908 24.5-6.124 3.079.59 5.8 1.815 8.167 3.675z"/>
    </g>
</svg>
