<?xml version="1.0" encoding="UTF-8"?>
<svg xmlns="http://www.w3.org/2000/svg" xmlns:xlink="http://www.w3.org/1999/xlink" width="512" height="512" viewBox="0 0 512 512">
<defs>
<filter id="filter-remove-color" x="0%" y="0%" width="100%" height="100%">
<feColorMatrix color-interpolation-filters="sRGB" values="0 0 0 0 1 0 0 0 0 1 0 0 0 0 1 0 0 0 1 0" />
</filter>
<clipPath id="clip-0">
<rect x="0" y="0" width="512" height="512"/>
</clipPath>
<g id="source-12" clip-path="url(#clip-0)">
<path fill-rule="evenodd" fill="rgb(0%, 0%, 0%)" fill-opacity="1" d="M 262.210938 69.566406 C 188.820312 68.9375 115.324219 68.730469 41.726562 68.9375 C 41.621094 151.269531 41.726562 233.605469 42.03125 315.9375 C 42.894531 318.003906 44.425781 319.050781 46.625 319.078125 C 116.289062 319.390625 185.90625 319.078125 255.472656 318.136719 C 256.210938 317.570312 256.71875 316.835938 257.003906 315.9375 C 257.210938 275.921875 257.414062 235.910156 257.617188 195.894531 C 258.480469 193.828125 260.011719 192.777344 262.210938 192.75 C 264.332031 192.527344 265.863281 193.367188 266.804688 195.265625 C 267.214844 236.328125 267.214844 277.390625 266.804688 318.449219 C 265.070312 323.582031 261.699219 327.039062 256.699219 328.820312 C 185.246094 329.238281 113.792969 329.238281 42.335938 328.820312 C 37.335938 327.039062 33.96875 323.582031 32.230469 318.449219 C 31.824219 225.015625 31.824219 131.578125 32.230469 38.140625 C 33.671875 33.730469 36.429688 30.484375 40.5 28.398438 C 112.53125 27.355469 184.597656 27.148438 256.699219 27.773438 C 261.699219 29.550781 265.070312 33.007812 266.804688 38.140625 C 267.214844 47.570312 267.214844 56.996094 266.804688 66.425781 C 265.753906 68.171875 264.222656 69.21875 262.210938 69.566406 Z M 262.210938 69.566406 "/>
</g>
<mask id="mask-0">
<g filter="url(#filter-remove-color)">
<rect x="-51.2" y="-51.2" width="614.4" height="614.4" fill="rgb(0%, 0%, 0%)" fill-opacity="0.99"/>
</g>
</mask>
<clipPath id="clip-1">
<rect x="0" y="0" width="512" height="512"/>
</clipPath>
<g id="source-18" clip-path="url(#clip-1)">
<path fill-rule="evenodd" fill="rgb(1.568627%, 0.784314%, 0.784314%)" fill-opacity="1" d="M 262.210938 172.640625 C 226.402344 209.070312 190.675781 245.628906 155.03125 282.3125 C 139.167969 286.824219 123.144531 290.699219 106.953125 293.9375 C 103.75 293.859375 102.015625 292.183594 101.746094 288.910156 C 105.304688 273.875 108.671875 258.789062 111.851562 243.660156 C 112.003906 241.976562 112.617188 240.511719 113.6875 239.261719 C 163.554688 188.40625 213.0625 137.285156 262.210938 85.90625 C 268.417969 79.855469 274.542969 73.675781 280.585938 67.367188 C 287.125 62.757812 293.660156 62.757812 300.183594 67.367188 C 307.839844 75.222656 315.496094 83.078125 323.152344 90.933594 C 326.824219 97.429688 326.824219 103.925781 323.152344 110.417969 C 302.917969 131.285156 282.605469 152.027344 262.210938 172.640625 Z M 262.210938 172.640625 "/>
</g>
</defs>
<path fill-rule="nonzero" fill="rgb(60.784314%, 78.823529%, 100%)" fill-opacity="1" d="M 503.464844 298.667969 L 503.464844 332.800781 C 503.441406 342.210938 495.8125 349.835938 486.398438 349.867188 L 341.332031 349.867188 C 313.058594 349.867188 290.132812 372.792969 290.132812 401.066406 C 290.175781 429.324219 313.074219 452.222656 341.332031 452.265625 L 358.398438 503.464844 L 153.601562 503.464844 L 170.667969 452.265625 C 198.925781 452.222656 221.824219 429.324219 221.867188 401.066406 C 221.867188 372.792969 198.941406 349.867188 170.667969 349.867188 L 25.601562 349.867188 C 16.1875 349.835938 8.5625 342.210938 8.535156 332.800781 L 8.535156 298.667969 Z M 503.464844 298.667969 "/>
<path fill-rule="nonzero" fill="rgb(0%, 100%, 0%)" fill-opacity="1" d="M 246.195312 370.316406 L 246.195312 388.660156 L 265.804688 388.660156 L 265.804688 370.316406 Z M 253.300781 371.386719 L 253.359375 371.386719 L 253.359375 387.589844 L 253.300781 387.589844 Z M 258.699219 371.386719 L 258.699219 387.589844 Z M 258.699219 371.386719 "/>
<path fill-rule="nonzero" fill="rgb(12.54902%, 47.843137%, 82.745098%)" fill-opacity="1" d="M 486.398438 0 L 25.601562 0 C 11.460938 0 0 11.460938 0 25.601562 L 0 332.800781 C 0 346.9375 11.460938 358.398438 25.601562 358.398438 L 170.667969 358.398438 C 194.222656 358.429688 213.304688 377.511719 213.332031 401.066406 C 213.292969 424.613281 194.210938 443.691406 170.667969 443.734375 C 170.546875 443.734375 170.453125 443.792969 170.332031 443.800781 C 169.710938 443.851562 169.101562 443.976562 168.507812 444.167969 C 168.035156 444.257812 167.570312 444.386719 167.117188 444.554688 C 166.625 444.820312 166.160156 445.132812 165.726562 445.492188 C 165.285156 445.773438 164.867188 446.101562 164.480469 446.453125 C 164.164062 446.835938 163.878906 447.246094 163.625 447.675781 C 163.261719 448.179688 162.949219 448.714844 162.703125 449.289062 C 162.703125 449.390625 162.585938 449.457031 162.550781 449.570312 L 145.484375 500.769531 C 144.617188 503.375 145.054688 506.238281 146.664062 508.464844 C 148.269531 510.691406 150.855469 512.003906 153.601562 512 L 358.398438 512 C 361.140625 512 363.714844 510.679688 365.316406 508.453125 C 366.921875 506.230469 367.355469 503.371094 366.492188 500.769531 L 349.425781 449.570312 C 349.425781 449.457031 349.304688 449.390625 349.269531 449.289062 C 349.019531 448.722656 348.710938 448.183594 348.347656 447.683594 C 348.101562 447.25 347.8125 446.839844 347.496094 446.453125 C 347.109375 446.101562 346.691406 445.773438 346.25 445.492188 C 345.816406 445.132812 345.351562 444.820312 344.859375 444.554688 C 344.402344 444.386719 343.9375 444.257812 343.464844 444.167969 C 342.875 443.976562 342.261719 443.851562 341.640625 443.800781 C 341.519531 443.800781 341.429688 443.734375 341.308594 443.734375 C 317.761719 443.691406 298.683594 424.613281 298.640625 401.066406 C 298.671875 377.511719 317.753906 358.429688 341.308594 358.398438 L 486.398438 358.398438 C 500.539062 358.398438 512 346.9375 512 332.800781 L 512 25.601562 C 512 11.460938 500.539062 0 486.398438 0 Z M 281.601562 401.066406 C 281.640625 431.617188 304.691406 457.222656 335.070312 460.464844 L 346.554688 494.933594 L 165.445312 494.933594 L 176.929688 460.464844 C 207.308594 457.222656 230.359375 431.617188 230.398438 401.066406 C 230.402344 384.996094 223.910156 369.605469 212.386719 358.398438 L 299.613281 358.398438 C 288.089844 369.605469 281.597656 384.996094 281.601562 401.066406 Z M 494.933594 332.800781 C 494.933594 337.511719 491.113281 341.332031 486.398438 341.332031 L 25.601562 341.332031 C 20.886719 341.332031 17.066406 337.511719 17.066406 332.800781 L 17.066406 307.199219 L 494.933594 307.199219 Z M 17.066406 290.132812 L 17.066406 25.601562 C 17.066406 20.886719 20.886719 17.066406 25.601562 17.066406 L 486.398438 17.066406 C 491.113281 17.066406 494.933594 20.886719 494.933594 25.601562 L 494.933594 290.132812 Z M 17.066406 290.132812 "/>
<path fill-rule="nonzero" fill="rgb(0%, 0%, 75.294118%)" fill-opacity="1" d="M 17.886719 13.578125 L 496.347656 13.578125 L 496.347656 341.519531 L 17.886719 341.519531 Z M 17.886719 13.578125 "/>
<path fill-rule="nonzero" fill="rgb(33.333333%, 86.666667%, 100%)" fill-opacity="1" d="M 16.207031 12.957031 L 16.207031 341.527344 L 497.121094 341.527344 L 497.121094 12.957031 Z M 35.445312 28.234375 L 170.097656 28.234375 L 170.097656 276.578125 L 35.445312 276.578125 Z M 184.527344 28.234375 L 247.046875 28.234375 L 247.046875 276.578125 L 184.527344 276.578125 Z M 266.28125 28.234375 L 400.9375 28.234375 L 400.9375 276.578125 L 266.28125 276.578125 Z M 415.363281 28.234375 L 477.882812 28.234375 L 477.882812 276.578125 L 415.363281 276.578125 Z M 49.871094 77.902344 L 49.871094 89.367188 L 155.671875 89.367188 L 155.671875 77.902344 Z M 198.953125 77.902344 L 198.953125 89.367188 L 232.617188 89.367188 L 232.617188 77.902344 Z M 280.710938 77.902344 L 280.710938 89.367188 L 386.511719 89.367188 L 386.511719 77.902344 Z M 429.792969 77.902344 L 429.792969 89.367188 L 463.457031 89.367188 L 463.457031 77.902344 Z M 49.871094 104.652344 L 49.871094 116.113281 L 155.671875 116.113281 L 155.671875 104.652344 Z M 198.953125 104.652344 L 198.953125 116.113281 L 232.617188 116.113281 L 232.617188 104.652344 Z M 280.710938 104.652344 L 280.710938 116.113281 L 386.511719 116.113281 L 386.511719 104.652344 Z M 429.792969 104.652344 L 429.792969 116.113281 L 463.457031 116.113281 L 463.457031 104.652344 Z M 49.871094 131.394531 L 49.871094 142.859375 L 155.671875 142.859375 L 155.671875 131.394531 Z M 198.953125 131.394531 L 198.953125 142.859375 L 232.617188 142.859375 L 232.617188 131.394531 Z M 280.710938 131.394531 L 280.710938 142.859375 L 386.511719 142.859375 L 386.511719 131.394531 Z M 429.792969 131.394531 L 429.792969 142.859375 L 463.457031 142.859375 L 463.457031 131.394531 Z M 49.871094 158.140625 L 49.871094 169.601562 L 155.671875 169.601562 L 155.671875 158.140625 Z M 198.953125 158.140625 L 198.953125 169.601562 L 232.617188 169.601562 L 232.617188 158.140625 Z M 49.871094 184.882812 L 49.871094 196.347656 L 155.671875 196.347656 L 155.671875 184.882812 Z M 198.953125 184.882812 L 198.953125 196.347656 L 232.617188 196.347656 L 232.617188 184.882812 Z M 35.445312 288.042969 L 247.046875 288.042969 L 247.046875 326.25 L 35.445312 326.25 Z M 266.28125 288.042969 L 477.882812 288.042969 L 477.882812 326.25 L 266.28125 326.25 Z M 45.0625 301.414062 L 45.0625 312.875 L 141.246094 312.875 L 141.246094 301.414062 Z M 155.671875 301.414062 L 155.671875 312.875 L 170.097656 312.875 L 170.097656 301.414062 Z M 184.527344 301.414062 L 184.527344 312.875 L 227.808594 312.875 L 227.808594 301.414062 Z M 275.898438 301.414062 L 275.898438 312.875 L 372.082031 312.875 L 372.082031 301.414062 Z M 386.511719 301.414062 L 386.511719 312.875 L 400.9375 312.875 L 400.9375 301.414062 Z M 415.363281 301.414062 L 415.363281 312.875 L 458.648438 312.875 L 458.648438 301.414062 Z M 415.363281 301.414062 "/>
<path fill-rule="nonzero" fill="rgb(100%, 100%, 0%)" fill-opacity="1" d="M 300.402344 39.695312 L 300.402344 51.160156 L 377.171875 51.160156 L 377.171875 39.695312 Z M 70.101562 39.703125 L 70.101562 51.164062 L 146.871094 51.164062 L 146.871094 39.703125 Z M 199.648438 39.703125 L 199.648438 51.164062 L 238.03125 51.164062 L 238.03125 39.703125 Z M 429.949219 39.703125 L 429.949219 51.164062 L 468.332031 51.164062 L 468.332031 39.703125 Z M 429.949219 39.703125 "/>
<use xlink:href="#source-12"/>
<path fill-rule="evenodd" fill="rgb(96.470588%, 54.509804%, 11.372549%)" fill-opacity="1" d="M 257.3125 42.542969 C 189.328125 42.4375 121.34375 42.542969 53.363281 42.855469 C 47.054688 46.28125 44.808594 51.621094 46.625 58.882812 C 44.992188 58.882812 43.359375 58.882812 41.726562 58.882812 C 41.621094 52.804688 41.726562 46.726562 42.03125 40.65625 C 42.542969 39.292969 43.460938 38.351562 44.785156 37.828125 C 114.609375 37.410156 184.429688 37.410156 254.25 37.828125 C 256.261719 38.714844 257.285156 40.285156 257.3125 42.542969 Z M 257.3125 42.542969 "/>
<path fill-rule="evenodd" fill="rgb(98.431373%, 70.980392%, 29.803922%)" fill-opacity="1" d="M 257.3125 42.542969 C 257.3125 47.988281 257.3125 53.433594 257.3125 58.882812 C 187.082031 58.882812 116.855469 58.882812 46.625 58.882812 C 44.808594 51.621094 47.054688 46.28125 53.363281 42.855469 C 121.34375 42.542969 189.328125 42.4375 257.3125 42.542969 Z M 257.3125 42.542969 "/>
<g mask="url(#mask-0)">
<use xlink:href="#source-18"/>
</g>
<path fill-rule="evenodd" fill="rgb(87.058824%, 87.058824%, 87.058824%)" fill-opacity="1" d="M 262.210938 69.566406 C 262.210938 71.03125 262.210938 72.5 262.210938 73.964844 C 230.410156 73.996094 200.191406 80.910156 171.566406 94.707031 C 136.042969 94.601562 100.519531 94.707031 65 95.019531 C 61.171875 97.859375 60.96875 101 64.386719 104.449219 C 114.199219 104.761719 164.011719 104.867188 213.828125 104.761719 C 192.902344 105.285156 171.875 105.597656 150.742188 105.703125 C 142.269531 110.839844 134.304688 116.707031 126.855469 123.304688 C 146.152344 123.410156 165.339844 123.722656 184.429688 124.246094 C 144.414062 124.140625 104.398438 124.246094 64.386719 124.558594 C 60.847656 128.253906 61.253906 131.394531 65.609375 133.988281 C 81.738281 134.300781 97.867188 134.40625 113.996094 134.300781 C 108.382812 140.164062 102.871094 146.132812 97.457031 152.214844 C 116.546875 152.320312 135.535156 152.632812 154.417969 153.15625 C 124.40625 153.050781 94.394531 153.15625 64.386719 153.46875 C 61.78125 155.621094 61.269531 158.238281 62.855469 161.328125 C 63.40625 162.082031 64.121094 162.605469 65 162.898438 C 72.957031 163.210938 80.917969 163.316406 88.882812 163.210938 C 84.691406 169.300781 80.8125 175.585938 77.246094 182.066406 C 72.6875 181.796875 68.195312 182.113281 63.773438 183.007812 C 61.0625 186.429688 61.472656 189.363281 65 191.808594 C 86.636719 192.121094 108.277344 192.226562 129.917969 192.121094 C 110.425781 192.644531 90.824219 192.960938 71.121094 193.066406 C 67.230469 199.660156 64.375 206.46875 62.546875 213.492188 C 62.03125 214.671875 61.828125 215.929688 61.9375 217.261719 C 61.464844 216.78125 61.160156 216.15625 61.015625 215.378906 C 49.105469 248.875 44.308594 283.441406 46.625 319.078125 C 44.425781 319.050781 42.894531 318.003906 42.03125 315.9375 C 41.726562 233.605469 41.621094 151.269531 41.726562 68.9375 C 115.324219 68.730469 188.820312 68.9375 262.210938 69.566406 Z M 262.210938 69.566406 "/>
<path fill-rule="evenodd" fill="rgb(92.941176%, 92.941176%, 92.941176%)" fill-opacity="1" d="M 262.210938 73.964844 C 262.210938 77.945312 262.210938 81.925781 262.210938 85.90625 C 213.0625 137.285156 163.554688 188.40625 113.6875 239.261719 C 112.617188 240.511719 112.003906 241.976562 111.851562 243.660156 C 108.671875 258.789062 105.304688 273.875 101.746094 288.910156 C 102.015625 292.183594 103.75 293.859375 106.953125 293.9375 C 123.144531 290.699219 139.167969 286.824219 155.03125 282.3125 C 190.675781 245.628906 226.402344 209.070312 262.210938 172.640625 C 262.210938 179.34375 262.210938 186.046875 262.210938 192.75 C 260.011719 192.777344 258.480469 193.828125 257.617188 195.894531 C 257.414062 235.910156 257.210938 275.921875 257.003906 315.9375 C 256.71875 316.835938 256.210938 317.570312 255.472656 318.136719 C 185.90625 319.078125 116.289062 319.390625 46.625 319.078125 C 44.308594 283.441406 49.105469 248.875 61.015625 215.378906 C 61.160156 216.15625 61.464844 216.78125 61.9375 217.261719 C 62.382812 218.667969 63.199219 219.820312 64.386719 220.71875 C 78.675781 221.136719 92.96875 221.136719 107.257812 220.71875 C 110.828125 216.945312 110.421875 213.800781 106.035156 211.292969 C 92.355469 210.871094 78.675781 210.871094 65 211.292969 C 64.023438 211.886719 63.207031 212.621094 62.546875 213.492188 C 64.375 206.46875 67.230469 199.660156 71.121094 193.066406 C 90.824219 192.960938 110.425781 192.644531 129.917969 192.121094 C 134.046875 190.769531 135.167969 188.046875 133.289062 183.953125 C 132.570312 183.078125 131.652344 182.554688 130.53125 182.382812 C 112.773438 182.066406 95.011719 181.960938 77.246094 182.066406 C 80.8125 175.585938 84.691406 169.300781 88.882812 163.210938 C 110.933594 163.316406 132.984375 163.210938 155.03125 162.898438 C 158.351562 161.628906 159.476562 159.222656 158.398438 155.671875 C 157.394531 154.265625 156.066406 153.429688 154.417969 153.15625 C 135.535156 152.632812 116.546875 152.320312 97.457031 152.214844 C 102.871094 146.132812 108.382812 140.164062 113.996094 134.300781 C 137.472656 134.40625 160.953125 134.300781 184.429688 133.988281 C 187.761719 132.660156 188.886719 130.25 187.796875 126.757812 C 186.90625 125.523438 185.785156 124.6875 184.429688 124.246094 C 165.339844 123.722656 146.152344 123.410156 126.855469 123.304688 C 134.304688 116.707031 142.269531 110.839844 150.742188 105.703125 C 171.875 105.597656 192.902344 105.285156 213.828125 104.761719 C 217.441406 103.074219 218.363281 100.351562 216.582031 96.589844 C 215.714844 95.988281 214.792969 95.464844 213.828125 95.019531 C 199.742188 94.707031 185.65625 94.601562 171.566406 94.707031 C 200.191406 80.910156 230.410156 73.996094 262.210938 73.964844 Z M 262.210938 73.964844 "/>
<path fill-rule="evenodd" fill="rgb(84.313725%, 10.588235%, 37.647059%)" fill-opacity="1" d="M 315.496094 102.25 C 314.757812 100.488281 313.53125 99.128906 311.820312 98.164062 C 297.992188 90.527344 284.113281 90.316406 270.171875 97.535156 C 268.066406 98.816406 266.230469 100.390625 264.660156 102.25 C 263.574219 101.738281 263.269531 100.898438 263.742188 99.734375 C 271.804688 91.457031 279.871094 83.183594 287.933594 74.910156 C 289.566406 74.488281 291.199219 74.488281 292.835938 74.910156 C 300.488281 82.765625 308.144531 90.621094 315.800781 98.476562 C 316.285156 99.867188 316.183594 101.125 315.496094 102.25 Z M 315.496094 102.25 "/>
<path fill-rule="evenodd" fill="rgb(91.764706%, 25.098039%, 47.058824%)" fill-opacity="1" d="M 315.496094 102.25 C 307.578125 111.421875 299.207031 120.21875 290.382812 128.644531 C 281.59375 120.042969 273.019531 111.242188 264.660156 102.25 C 266.230469 100.390625 268.066406 98.816406 270.171875 97.535156 C 284.113281 90.316406 297.992188 90.527344 311.820312 98.164062 C 313.53125 99.128906 314.757812 100.488281 315.496094 102.25 Z M 315.496094 102.25 "/>
<path fill-rule="evenodd" fill="rgb(2.745098%, 2.745098%, 2.745098%)" fill-opacity="1" d="M 171.566406 94.707031 C 185.65625 94.601562 199.742188 94.707031 213.828125 95.019531 C 214.792969 95.464844 215.714844 95.988281 216.582031 96.589844 C 218.363281 100.351562 217.441406 103.074219 213.828125 104.761719 C 164.011719 104.867188 114.199219 104.761719 64.386719 104.449219 C 60.96875 101 61.171875 97.859375 65 95.019531 C 100.519531 94.707031 136.042969 94.601562 171.566406 94.707031 Z M 171.566406 94.707031 "/>
<path fill-rule="evenodd" fill="rgb(94.901961%, 54.117647%, 11.372549%)" fill-opacity="1" d="M 281.808594 137.445312 C 276.9375 131.289062 271.222656 126.15625 264.660156 122.046875 C 257.464844 119.582031 250.523438 120.109375 243.835938 123.617188 C 243.148438 123.226562 242.535156 122.703125 242 122.046875 C 246.601562 117.21875 251.296875 112.503906 256.085938 107.90625 C 265.367188 117.113281 274.554688 126.4375 283.648438 135.871094 C 283.113281 136.53125 282.5 137.054688 281.808594 137.445312 Z M 281.808594 137.445312 "/>
<path fill-rule="evenodd" fill="rgb(97.647059%, 64.705882%, 15.686275%)" fill-opacity="1" d="M 281.808594 137.445312 C 277.945312 141.832031 273.859375 146.019531 269.558594 150.015625 C 260.769531 141.410156 252.195312 132.613281 243.835938 123.617188 C 250.523438 120.109375 257.464844 119.582031 264.660156 122.046875 C 271.222656 126.15625 276.9375 131.289062 281.808594 137.445312 Z M 281.808594 137.445312 "/>
<path fill-rule="evenodd" fill="rgb(3.137255%, 3.137255%, 3.137255%)" fill-opacity="1" d="M 184.429688 124.246094 C 185.785156 124.6875 186.90625 125.523438 187.796875 126.757812 C 188.886719 130.25 187.761719 132.660156 184.429688 133.988281 C 160.953125 134.300781 137.472656 134.40625 113.996094 134.300781 C 97.867188 134.40625 81.738281 134.300781 65.609375 133.988281 C 61.253906 131.394531 60.847656 128.253906 64.386719 124.558594 C 104.398438 124.246094 144.414062 124.140625 184.429688 124.246094 Z M 184.429688 124.246094 "/>
<path fill-rule="evenodd" fill="rgb(94.509804%, 47.843137%, 12.156863%)" fill-opacity="1" d="M 234.648438 129.273438 C 238.640625 132.628906 242.011719 136.398438 244.753906 140.585938 C 208.007812 178.296875 171.261719 216.003906 134.511719 253.714844 C 131.246094 250.363281 127.980469 247.011719 124.714844 243.660156 C 124.304688 243.242188 124.304688 242.820312 124.714844 242.402344 C 161.484375 204.777344 198.128906 167.066406 234.648438 129.273438 Z M 234.648438 129.273438 "/>
<path fill-rule="evenodd" fill="rgb(95.294118%, 54.117647%, 11.372549%)" fill-opacity="1" d="M 251.1875 147.5 C 251.832031 147.40625 252.445312 147.511719 253.023438 147.8125 C 255.984375 150.851562 258.945312 153.890625 261.90625 156.925781 C 262.3125 157.347656 262.3125 157.765625 261.90625 158.183594 C 225.15625 195.894531 188.410156 233.605469 151.660156 271.3125 C 148.394531 267.960938 145.128906 264.609375 141.863281 261.257812 C 141.453125 260.839844 141.453125 260.417969 141.863281 260 C 178.425781 222.582031 214.867188 185.082031 251.1875 147.5 Z M 251.1875 147.5 "/>
<path fill-rule="evenodd" fill="rgb(1.568627%, 1.568627%, 1.568627%)" fill-opacity="1" d="M 154.417969 153.15625 C 156.066406 153.429688 157.394531 154.265625 158.398438 155.671875 C 159.476562 159.222656 158.351562 161.628906 155.03125 162.898438 C 132.984375 163.210938 110.933594 163.316406 88.882812 163.210938 C 80.917969 163.316406 72.957031 163.210938 65 162.898438 C 64.121094 162.605469 63.40625 162.082031 62.855469 161.328125 C 61.269531 158.238281 61.78125 155.621094 64.386719 153.46875 C 94.394531 153.15625 124.40625 153.050781 154.417969 153.15625 Z M 154.417969 153.15625 "/>
<path fill-rule="evenodd" fill="rgb(0.392157%, 0.392157%, 0.392157%)" fill-opacity="1" d="M 77.246094 182.066406 C 95.011719 181.960938 112.773438 182.066406 130.53125 182.382812 C 131.652344 182.554688 132.570312 183.078125 133.289062 183.953125 C 135.167969 188.046875 134.046875 190.769531 129.917969 192.121094 C 108.277344 192.226562 86.636719 192.121094 65 191.808594 C 61.472656 189.363281 61.0625 186.429688 63.773438 183.007812 C 68.195312 182.113281 72.6875 181.796875 77.246094 182.066406 Z M 77.246094 182.066406 "/>
<path fill-rule="evenodd" fill="rgb(2.745098%, 2.745098%, 2.745098%)" fill-opacity="1" d="M 61.9375 217.261719 C 61.828125 215.929688 62.03125 214.671875 62.546875 213.492188 C 63.207031 212.621094 64.023438 211.886719 65 211.292969 C 78.675781 210.871094 92.355469 210.871094 106.035156 211.292969 C 110.421875 213.800781 110.828125 216.945312 107.257812 220.71875 C 92.96875 221.136719 78.675781 221.136719 64.386719 220.71875 C 63.199219 219.820312 62.382812 218.667969 61.9375 217.261719 Z M 61.9375 217.261719 "/>
<path fill-rule="evenodd" fill="rgb(12.54902%, 12.54902%, 12.54902%)" fill-opacity="1" d="M 139.105469 276.339844 C 137.332031 274.910156 135.289062 273.964844 132.980469 273.511719 C 126.085938 272.140625 119.960938 273.710938 114.609375 278.226562 C 115.875 270.847656 117.40625 263.515625 119.199219 256.230469 C 119.320312 255.105469 119.832031 254.269531 120.730469 253.714844 C 127.878906 260.628906 134.820312 267.75 141.554688 275.085938 C 140.78125 275.625 139.964844 276.046875 139.105469 276.339844 Z M 139.105469 276.339844 "/>
<path fill-rule="evenodd" fill="rgb(25.882353%, 25.882353%, 25.882353%)" fill-opacity="1" d="M 139.105469 276.339844 C 130.914062 278.066406 122.746094 279.949219 114.609375 281.996094 C 114.199219 281.789062 113.792969 281.578125 113.382812 281.367188 C 113.796875 280.304688 114.203125 279.257812 114.609375 278.226562 C 119.960938 273.710938 126.085938 272.140625 132.980469 273.511719 C 135.289062 273.964844 137.332031 274.910156 139.105469 276.339844 Z M 139.105469 276.339844 "/>
</svg>
