<?xml version="1.0" encoding="UTF-8"?>
<svg xmlns="http://www.w3.org/2000/svg" xmlns:xlink="http://www.w3.org/1999/xlink" width="512" height="512" viewBox="0 0 512 512">
<path fill-rule="nonzero" fill="rgb(60.784314%, 78.823529%, 100%)" fill-opacity="1" d="M 503.464844 298.667969 L 503.464844 332.800781 C 503.441406 342.210938 495.8125 349.835938 486.398438 349.867188 L 341.332031 349.867188 C 313.058594 349.867188 290.132812 372.792969 290.132812 401.066406 C 290.175781 429.324219 313.074219 452.222656 341.332031 452.265625 L 358.398438 503.464844 L 153.601562 503.464844 L 170.667969 452.265625 C 198.925781 452.222656 221.824219 429.324219 221.867188 401.066406 C 221.867188 372.792969 198.941406 349.867188 170.667969 349.867188 L 25.601562 349.867188 C 16.1875 349.835938 8.5625 342.210938 8.535156 332.800781 L 8.535156 298.667969 Z M 503.464844 298.667969 "/>
<path fill-rule="nonzero" fill="rgb(0%, 100%, 0%)" fill-opacity="1" d="M 246.195312 370.316406 L 246.195312 388.660156 L 265.804688 388.660156 L 265.804688 370.316406 Z M 253.300781 371.386719 L 253.359375 371.386719 L 253.359375 387.589844 L 253.300781 387.589844 Z M 258.699219 371.386719 L 258.699219 387.589844 Z M 258.699219 371.386719 "/>
<path fill-rule="nonzero" fill="rgb(12.54902%, 47.843137%, 82.745098%)" fill-opacity="1" d="M 486.398438 0 L 25.601562 0 C 11.460938 0 0 11.460938 0 25.601562 L 0 332.800781 C 0 346.9375 11.460938 358.398438 25.601562 358.398438 L 170.667969 358.398438 C 194.222656 358.429688 213.304688 377.511719 213.332031 401.066406 C 213.292969 424.613281 194.210938 443.691406 170.667969 443.734375 C 170.546875 443.734375 170.453125 443.792969 170.332031 443.800781 C 169.710938 443.851562 169.101562 443.976562 168.507812 444.167969 C 168.035156 444.257812 167.570312 444.386719 167.117188 444.554688 C 166.625 444.820312 166.160156 445.132812 165.726562 445.492188 C 165.285156 445.773438 164.867188 446.101562 164.480469 446.453125 C 164.164062 446.835938 163.878906 447.246094 163.625 447.675781 C 163.261719 448.179688 162.949219 448.714844 162.703125 449.289062 C 162.703125 449.390625 162.585938 449.457031 162.550781 449.570312 L 145.484375 500.769531 C 144.617188 503.375 145.054688 506.238281 146.664062 508.464844 C 148.269531 510.691406 150.855469 512.003906 153.601562 512 L 358.398438 512 C 361.140625 512 363.714844 510.679688 365.316406 508.453125 C 366.921875 506.230469 367.355469 503.371094 366.492188 500.769531 L 349.425781 449.570312 C 349.425781 449.457031 349.304688 449.390625 349.269531 449.289062 C 349.019531 448.722656 348.710938 448.183594 348.347656 447.683594 C 348.101562 447.25 347.8125 446.839844 347.496094 446.453125 C 347.109375 446.101562 346.691406 445.773438 346.25 445.492188 C 345.816406 445.132812 345.351562 444.820312 344.859375 444.554688 C 344.402344 444.386719 343.9375 444.257812 343.464844 444.167969 C 342.875 443.976562 342.261719 443.851562 341.640625 443.800781 C 341.519531 443.800781 341.429688 443.734375 341.308594 443.734375 C 317.761719 443.691406 298.683594 424.613281 298.640625 401.066406 C 298.671875 377.511719 317.753906 358.429688 341.308594 358.398438 L 486.398438 358.398438 C 500.539062 358.398438 512 346.9375 512 332.800781 L 512 25.601562 C 512 11.460938 500.539062 0 486.398438 0 Z M 281.601562 401.066406 C 281.640625 431.617188 304.691406 457.222656 335.070312 460.464844 L 346.554688 494.933594 L 165.445312 494.933594 L 176.929688 460.464844 C 207.308594 457.222656 230.359375 431.617188 230.398438 401.066406 C 230.402344 384.996094 223.910156 369.605469 212.386719 358.398438 L 299.613281 358.398438 C 288.089844 369.605469 281.597656 384.996094 281.601562 401.066406 Z M 494.933594 332.800781 C 494.933594 337.511719 491.113281 341.332031 486.398438 341.332031 L 25.601562 341.332031 C 20.886719 341.332031 17.066406 337.511719 17.066406 332.800781 L 17.066406 307.199219 L 494.933594 307.199219 Z M 17.066406 290.132812 L 17.066406 25.601562 C 17.066406 20.886719 20.886719 17.066406 25.601562 17.066406 L 486.398438 17.066406 C 491.113281 17.066406 494.933594 20.886719 494.933594 25.601562 L 494.933594 290.132812 Z M 17.066406 290.132812 "/>
<path fill-rule="nonzero" fill="rgb(0%, 0%, 75.294118%)" fill-opacity="1" d="M 17.886719 13.578125 L 496.347656 13.578125 L 496.347656 341.519531 L 17.886719 341.519531 Z M 17.886719 13.578125 "/>
<path fill-rule="nonzero" fill="rgb(33.333333%, 86.666667%, 100%)" fill-opacity="1" d="M 16.207031 12.957031 L 16.207031 341.527344 L 497.121094 341.527344 L 497.121094 12.957031 Z M 35.445312 28.234375 L 170.097656 28.234375 L 170.097656 276.578125 L 35.445312 276.578125 Z M 184.527344 28.234375 L 247.046875 28.234375 L 247.046875 276.578125 L 184.527344 276.578125 Z M 266.28125 28.234375 L 400.9375 28.234375 L 400.9375 276.578125 L 266.28125 276.578125 Z M 415.363281 28.234375 L 477.882812 28.234375 L 477.882812 276.578125 L 415.363281 276.578125 Z M 49.871094 77.902344 L 49.871094 89.367188 L 155.671875 89.367188 L 155.671875 77.902344 Z M 198.953125 77.902344 L 198.953125 89.367188 L 232.617188 89.367188 L 232.617188 77.902344 Z M 280.710938 77.902344 L 280.710938 89.367188 L 386.511719 89.367188 L 386.511719 77.902344 Z M 429.792969 77.902344 L 429.792969 89.367188 L 463.457031 89.367188 L 463.457031 77.902344 Z M 49.871094 104.652344 L 49.871094 116.113281 L 155.671875 116.113281 L 155.671875 104.652344 Z M 198.953125 104.652344 L 198.953125 116.113281 L 232.617188 116.113281 L 232.617188 104.652344 Z M 280.710938 104.652344 L 280.710938 116.113281 L 386.511719 116.113281 L 386.511719 104.652344 Z M 429.792969 104.652344 L 429.792969 116.113281 L 463.457031 116.113281 L 463.457031 104.652344 Z M 49.871094 131.394531 L 49.871094 142.859375 L 155.671875 142.859375 L 155.671875 131.394531 Z M 198.953125 131.394531 L 198.953125 142.859375 L 232.617188 142.859375 L 232.617188 131.394531 Z M 280.710938 131.394531 L 280.710938 142.859375 L 386.511719 142.859375 L 386.511719 131.394531 Z M 429.792969 131.394531 L 429.792969 142.859375 L 463.457031 142.859375 L 463.457031 131.394531 Z M 49.871094 158.140625 L 49.871094 169.601562 L 155.671875 169.601562 L 155.671875 158.140625 Z M 198.953125 158.140625 L 198.953125 169.601562 L 232.617188 169.601562 L 232.617188 158.140625 Z M 49.871094 184.882812 L 49.871094 196.347656 L 155.671875 196.347656 L 155.671875 184.882812 Z M 198.953125 184.882812 L 198.953125 196.347656 L 232.617188 196.347656 L 232.617188 184.882812 Z M 35.445312 288.042969 L 247.046875 288.042969 L 247.046875 326.25 L 35.445312 326.25 Z M 266.28125 288.042969 L 477.882812 288.042969 L 477.882812 326.25 L 266.28125 326.25 Z M 45.0625 301.414062 L 45.0625 312.875 L 141.246094 312.875 L 141.246094 301.414062 Z M 155.671875 301.414062 L 155.671875 312.875 L 170.097656 312.875 L 170.097656 301.414062 Z M 184.527344 301.414062 L 184.527344 312.875 L 227.808594 312.875 L 227.808594 301.414062 Z M 275.898438 301.414062 L 275.898438 312.875 L 372.082031 312.875 L 372.082031 301.414062 Z M 386.511719 301.414062 L 386.511719 312.875 L 400.9375 312.875 L 400.9375 301.414062 Z M 415.363281 301.414062 L 415.363281 312.875 L 458.648438 312.875 L 458.648438 301.414062 Z M 415.363281 301.414062 "/>
<path fill-rule="nonzero" fill="rgb(100%, 100%, 0%)" fill-opacity="1" d="M 300.402344 39.695312 L 300.402344 51.160156 L 377.171875 51.160156 L 377.171875 39.695312 Z M 70.101562 39.703125 L 70.101562 51.164062 L 146.871094 51.164062 L 146.871094 39.703125 Z M 199.648438 39.703125 L 199.648438 51.164062 L 238.03125 51.164062 L 238.03125 39.703125 Z M 429.949219 39.703125 L 429.949219 51.164062 L 468.332031 51.164062 L 468.332031 39.703125 Z M 429.949219 39.703125 "/>
</svg>
