<?xml version="1.0" encoding="UTF-8"?>
<svg xmlns="http://www.w3.org/2000/svg" xmlns:xlink="http://www.w3.org/1999/xlink" width="96" height="96" viewBox="0 0 96 96">
<path fill-rule="nonzero" fill="rgb(60.784314%, 78.823529%, 100%)" fill-opacity="1" d="M 94.398438 56 L 94.398438 62.398438 C 94.394531 64.164062 92.964844 65.59375 91.199219 65.601562 L 64 65.601562 C 58.699219 65.601562 54.398438 69.898438 54.398438 75.199219 C 54.40625 80.5 58.703125 84.792969 64 84.800781 L 67.199219 94.398438 L 28.800781 94.398438 L 32 84.800781 C 37.296875 84.792969 41.59375 80.5 41.601562 75.199219 C 41.601562 69.898438 37.300781 65.601562 32 65.601562 L 4.800781 65.601562 C 3.035156 65.59375 1.605469 64.164062 1.601562 62.398438 L 1.601562 56 Z M 94.398438 56 "/>
<path fill-rule="nonzero" fill="rgb(0%, 100%, 0%)" fill-opacity="1" d="M 46.160156 69.433594 L 46.160156 72.875 L 49.839844 72.875 L 49.839844 69.433594 Z M 47.492188 69.636719 L 47.503906 69.636719 L 47.503906 72.671875 L 47.492188 72.671875 Z M 48.507812 69.636719 L 48.507812 72.671875 Z M 48.507812 69.636719 "/>
<path fill-rule="nonzero" fill="rgb(12.54902%, 47.843137%, 82.745098%)" fill-opacity="1" d="M 91.199219 0 L 4.800781 0 C 2.148438 0 0 2.148438 0 4.800781 L 0 62.398438 C 0 65.050781 2.148438 67.199219 4.800781 67.199219 L 32 67.199219 C 36.417969 67.207031 39.996094 70.785156 40 75.199219 C 39.992188 79.613281 36.414062 83.191406 32 83.199219 C 31.976562 83.199219 31.960938 83.210938 31.9375 83.210938 C 31.820312 83.222656 31.707031 83.246094 31.59375 83.28125 C 31.507812 83.296875 31.417969 83.324219 31.335938 83.355469 C 31.242188 83.402344 31.15625 83.460938 31.074219 83.53125 C 30.992188 83.582031 30.914062 83.644531 30.839844 83.710938 C 30.78125 83.78125 30.726562 83.859375 30.679688 83.9375 C 30.613281 84.035156 30.554688 84.132812 30.507812 84.242188 C 30.507812 84.261719 30.484375 84.273438 30.476562 84.292969 L 27.277344 93.894531 C 27.117188 94.382812 27.199219 94.917969 27.5 95.335938 C 27.800781 95.753906 28.285156 96 28.800781 96 L 67.199219 96 C 67.714844 96 68.195312 95.753906 68.496094 95.335938 C 68.796875 94.917969 68.878906 94.382812 68.71875 93.894531 L 65.515625 84.292969 C 65.515625 84.273438 65.496094 84.261719 65.488281 84.242188 C 65.441406 84.136719 65.382812 84.035156 65.316406 83.941406 C 65.269531 83.859375 65.214844 83.78125 65.15625 83.710938 C 65.082031 83.644531 65.003906 83.582031 64.921875 83.53125 C 64.839844 83.460938 64.753906 83.402344 64.660156 83.355469 C 64.574219 83.324219 64.488281 83.296875 64.398438 83.28125 C 64.289062 83.246094 64.175781 83.222656 64.058594 83.210938 C 64.035156 83.210938 64.019531 83.199219 63.996094 83.199219 C 59.582031 83.191406 56.003906 79.613281 55.996094 75.199219 C 56 70.785156 59.578125 67.207031 63.996094 67.199219 L 91.199219 67.199219 C 93.851562 67.199219 96 65.050781 96 62.398438 L 96 4.800781 C 96 2.148438 93.851562 0 91.199219 0 Z M 52.800781 75.199219 C 52.808594 80.929688 57.128906 85.730469 62.824219 86.335938 L 64.980469 92.800781 L 31.019531 92.800781 L 33.175781 86.335938 C 38.871094 85.730469 43.191406 80.929688 43.199219 75.199219 C 43.199219 72.1875 41.984375 69.300781 39.824219 67.199219 L 56.175781 67.199219 C 54.015625 69.300781 52.800781 72.1875 52.800781 75.199219 Z M 92.800781 62.398438 C 92.800781 63.285156 92.082031 64 91.199219 64 L 4.800781 64 C 3.917969 64 3.199219 63.285156 3.199219 62.398438 L 3.199219 57.601562 L 92.800781 57.601562 Z M 3.199219 54.398438 L 3.199219 4.800781 C 3.199219 3.917969 3.917969 3.199219 4.800781 3.199219 L 91.199219 3.199219 C 92.082031 3.199219 92.800781 3.917969 92.800781 4.800781 L 92.800781 54.398438 Z M 3.199219 54.398438 "/>
<path fill-rule="nonzero" fill="rgb(0%, 0%, 75.294118%)" fill-opacity="1" d="M 3.355469 2.546875 L 93.066406 2.546875 L 93.066406 64.035156 L 3.355469 64.035156 Z M 3.355469 2.546875 "/>
<path fill-rule="nonzero" fill="rgb(33.333333%, 86.666667%, 100%)" fill-opacity="1" d="M 3.039062 2.429688 L 3.039062 64.035156 L 93.210938 64.035156 L 93.210938 2.429688 Z M 6.644531 5.292969 L 31.894531 5.292969 L 31.894531 51.859375 L 6.644531 51.859375 Z M 34.597656 5.292969 L 46.320312 5.292969 L 46.320312 51.859375 L 34.597656 51.859375 Z M 49.929688 5.292969 L 75.175781 5.292969 L 75.175781 51.859375 L 49.929688 51.859375 Z M 77.882812 5.292969 L 89.601562 5.292969 L 89.601562 51.859375 L 77.882812 51.859375 Z M 9.351562 14.605469 L 9.351562 16.757812 L 29.1875 16.757812 L 29.1875 14.605469 Z M 37.304688 14.605469 L 37.304688 16.757812 L 43.617188 16.757812 L 43.617188 14.605469 Z M 52.632812 14.605469 L 52.632812 16.757812 L 72.46875 16.757812 L 72.46875 14.605469 Z M 80.585938 14.605469 L 80.585938 16.757812 L 86.898438 16.757812 L 86.898438 14.605469 Z M 9.351562 19.621094 L 9.351562 21.769531 L 29.1875 21.769531 L 29.1875 19.621094 Z M 37.304688 19.621094 L 37.304688 21.769531 L 43.617188 21.769531 L 43.617188 19.621094 Z M 52.632812 19.621094 L 52.632812 21.769531 L 72.46875 21.769531 L 72.46875 19.621094 Z M 80.585938 19.621094 L 80.585938 21.769531 L 86.898438 21.769531 L 86.898438 19.621094 Z M 9.351562 24.636719 L 9.351562 26.785156 L 29.1875 26.785156 L 29.1875 24.636719 Z M 37.304688 24.636719 L 37.304688 26.785156 L 43.617188 26.785156 L 43.617188 24.636719 Z M 52.632812 24.636719 L 52.632812 26.785156 L 72.46875 26.785156 L 72.46875 24.636719 Z M 80.585938 24.636719 L 80.585938 26.785156 L 86.898438 26.785156 L 86.898438 24.636719 Z M 9.351562 29.652344 L 9.351562 31.800781 L 29.1875 31.800781 L 29.1875 29.652344 Z M 37.304688 29.652344 L 37.304688 31.800781 L 43.617188 31.800781 L 43.617188 29.652344 Z M 9.351562 34.664062 L 9.351562 36.816406 L 29.1875 36.816406 L 29.1875 34.664062 Z M 37.304688 34.664062 L 37.304688 36.816406 L 43.617188 36.816406 L 43.617188 34.664062 Z M 6.644531 54.007812 L 46.320312 54.007812 L 46.320312 61.171875 L 6.644531 61.171875 Z M 49.929688 54.007812 L 89.601562 54.007812 L 89.601562 61.171875 L 49.929688 61.171875 Z M 8.449219 56.515625 L 8.449219 58.664062 L 26.484375 58.664062 L 26.484375 56.515625 Z M 29.1875 56.515625 L 29.1875 58.664062 L 31.894531 58.664062 L 31.894531 56.515625 Z M 34.597656 56.515625 L 34.597656 58.664062 L 42.714844 58.664062 L 42.714844 56.515625 Z M 51.730469 56.515625 L 51.730469 58.664062 L 69.765625 58.664062 L 69.765625 56.515625 Z M 72.46875 56.515625 L 72.46875 58.664062 L 75.175781 58.664062 L 75.175781 56.515625 Z M 77.882812 56.515625 L 77.882812 58.664062 L 85.996094 58.664062 L 85.996094 56.515625 Z M 77.882812 56.515625 "/>
<path fill-rule="nonzero" fill="rgb(100%, 100%, 0%)" fill-opacity="1" d="M 56.324219 7.441406 L 56.324219 9.59375 L 70.71875 9.59375 L 70.71875 7.441406 Z M 13.144531 7.445312 L 13.144531 9.59375 L 27.539062 9.59375 L 27.539062 7.445312 Z M 37.433594 7.445312 L 37.433594 9.59375 L 44.628906 9.59375 L 44.628906 7.445312 Z M 80.617188 7.445312 L 80.617188 9.59375 L 87.8125 9.59375 L 87.8125 7.445312 Z M 80.617188 7.445312 "/>
</svg>
