<svg xmlns="http://www.w3.org/2000/svg" width="96" height="96">
    <path d="M0 953.15h128v128H0Z" style="fill:#00c;fill-opacity:1;stroke-width:1.28" transform="matrix(.75 0 0 .75 0 -714.862)"/>
    <path d="M0 1063.23v17.92h128v-17.92z" style="fill:#2b0000;fill-opacity:1;stroke-width:1.28" transform="matrix(.75 0 0 .75 0 -714.862)"/>
    <path d="M30.72 1072.099v9.05H51.2v-9.05zm25.6 0v9.05H76.8v-9.05zm25.6 0v9.05h20.48v-9.05zm-76.8.092v8.959H25.6v-8.96H5.12Zm102.4 0v8.959H128v-8.96h-20.48z" style="fill:teal;fill-opacity:1;stroke-width:1.28" transform="matrix(.75 0 0 .75 0 -714.862)"/>
    <path d="M0 1063.23v8.96h10.24v-4.48H5.12v-4.48z" style="fill:#e6e6e6;fill-opacity:1;stroke-width:1.28" transform="matrix(.75 0 0 .75 0 -714.862)"/>
    <path d="M0 953.15v110.079h128V953.15Zm5.12 5.119h35.84v83.2H5.12Zm39.68 0h16.64v83.2H44.8Zm21.76 0h35.84v83.2H66.56Zm39.68 0h16.64v83.2h-16.64zm-97.28 16.64v3.84h28.16v-3.84zm39.68 0v3.84h8.96v-3.84zm21.76 0v3.84h28.16v-3.84zm39.68 0v3.84h8.96v-3.84zM8.96 983.87v3.84h28.16v-3.84zm39.68 0v3.84h8.96v-3.84zm21.76 0v3.84h28.16v-3.84zm39.68 0v3.84h8.96v-3.84zM8.96 992.83v3.84h28.16v-3.84zm39.68 0v3.84h8.96v-3.84zm21.76 0v3.84h28.16v-3.84zm39.68 0v3.84h8.96v-3.84zm-101.12 8.96v3.84h28.16v-3.84zm39.68 0v3.84h8.96v-3.84zm-39.68 8.96v3.84h28.16v-3.84zm39.68 0v3.84h8.96v-3.84zm-43.52 34.56h56.32v12.8H5.12Zm61.44 0h56.32v12.8H66.56Zm-58.88 4.48v3.84h25.6v-3.84zm29.44 0v3.84h3.84v-3.84zm7.68 0v3.84h11.52v-3.84zm24.32 0v3.84h25.6v-3.84zm29.44 0v3.84h3.84v-3.84zm7.68 0v3.84h11.52v-3.84z" style="fill:#5df;fill-opacity:1;stroke-width:1.28" transform="matrix(.75 0 0 .75 0 -714.862)"/>
    <path d="M75.52 962.109v3.841H96v-3.841zm-61.44.002v3.84h20.48v-3.84zm34.56 0v3.84h10.24v-3.84zm61.44 0v3.84h10.24v-3.84z" style="fill:#ff0;fill-opacity:1;stroke-width:1.28" transform="matrix(.75 0 0 .75 0 -714.862)"/>
    <g style="clip-rule:evenodd;fill-rule:evenodd;image-rendering:optimizeQuality;shape-rendering:geometricPrecision;text-rendering:geometricPrecision">
        <path d="M205.96 15.509c-58.833.166-117.657.662-176.463 1.492-6.648 3.314-11.148 8.48-13.5 15.5a49726.54 49726.54 0 0 0 0 445.998c2.834 8.167 8.338 13.67 16.504 16.504 116.667.667 233.332.667 349.998 0 8.167-2.833 13.671-8.337 16.504-16.504a9599.42 9599.42 0 0 0 0-196c-1.539-3.02-4.04-4.353-7.5-4-3.59.045-6.091 1.716-7.501 5.005-.333 63.667-.672 127.329-1.005 190.996A6.977 6.977 0 0 1 380.5 478a19452.499 19452.499 0 0 1-341.005 1.502c-3.59-.044-6.08-1.714-7.491-5.003-.5-131-.674-262.005-.507-393.004 120.168-.333 240.174.005 360.006 1.004 3.287-.555 5.787-2.226 7.5-5.004.667-15 .667-29.996 0-44.996-2.833-8.166-8.337-13.67-16.503-16.503-58.862-.497-117.707-.655-176.54-.488Zm231.553 57.988c-5.334 0-10.677 1.836-16.016 5.502a1246.688 1246.688 0 0 1-29.994 29.506 27866.43 27866.43 0 0 1-242.508 244c-1.75 1.99-2.745 4.316-2.994 6.993a2871.497 2871.497 0 0 1-16.504 72.005c.438 5.208 3.276 7.873 8.505 7.999a1035.432 1035.432 0 0 0 78.501-18.504 43153.258 43153.258 0 0 1 175-174.501 13937.14 13937.14 0 0 0 99.501-98.995c6-10.333 6-20.666 0-30.999L453.5 79c-5.327-3.666-10.654-5.502-15.987-5.502zm-194.01 49.005c-58-.167-116.005-.002-174.004.497-6.247 4.514-6.575 9.516-.995 15.002 81.333.5 162.666.665 244 .498 5.905-2.687 7.401-7.022 4.496-13.002a29.468 29.468 0 0 0-4.496-2.498c-22.998-.5-46-.664-69.001-.497zm21 46.995c-65.333-.167-130.667.007-196 .508-5.779 5.876-5.112 10.868 2 14.992 26.332.5 52.664.674 79 .507 38.334.167 76.669-.007 115-.507 5.446-2.11 7.27-5.944 5.492-11.5-1.45-1.964-3.275-3.297-5.491-4zm-122.502 46c-24.5.084-48.998.248-73.497.498-4.253 3.42-5.093 7.592-2.507 12.505a6.976 6.976 0 0 0 3.502 2.497c12.996.5 25.993.674 38.997.507 36.002.167 72.01-.007 108.007-.507 5.424-2.017 7.26-5.85 5.502-11.5-1.638-2.234-3.811-3.566-6.506-4-24.5-.083-48.998-.082-73.498 0zm-58.065 45.858a86.603 86.603 0 0 0-16.437 1.646c-4.425 5.44-3.76 10.105 2 13.997 35.332.5 70.663.664 105.998.497 6.74-2.153 8.574-6.478 5.501-12.992-1.17-1.393-2.667-2.234-4.496-2.507-28.998-.5-57.996-.665-86.997-.498a89.397 89.397 0 0 0-5.569-.143zm19.068 46.144c-11.166 0-22.338.164-33.505.497-1.593.95-2.926 2.117-4 3.502-.84 1.88-1.169 3.878-.994 5.999.728 2.235 2.06 4.07 3.999 5.501 23.333.667 46.663.667 69.996 0 5.83-6.006 5.163-11.008-2-15.002-11.166-.333-22.33-.497-33.496-.497z" style="display:inline;opacity:.997" transform="matrix(.15312 0 0 .1531 -2.373 20.135)"/>
        <path fill="#f68b1d" d="M56.35 26.183c-16.997-.025-33.994 0-50.99.077-1.577.834-2.139 2.135-1.685 3.904H2.45c-.025-1.481 0-2.961.077-4.44a1.15 1.15 0 0 1 .689-.69c17.456-.101 34.912-.101 52.368 0 .504.217.759.6.766 1.149z"/>
        <path fill="#fbb54c" d="M56.35 26.183v3.98H3.675c-.454-1.768.108-3.07 1.685-3.903 16.996-.077 33.993-.102 50.99-.077z"/>
        <path fill="#dedede" d="M57.575 32.767v1.071c-7.952.008-15.506 1.692-22.663 5.053-8.88-.026-17.762 0-26.643.076-.957.692-1.008 1.457-.153 2.297 12.454.077 24.908.102 37.362.077a809.86 809.86 0 0 1-15.772.23 41.136 41.136 0 0 0-5.972 4.286c4.824.026 9.622.102 14.394.23-10.004-.026-20.008 0-30.012.076-.885.9-.783 1.666.306 2.297 4.032.077 8.064.102 12.097.077a167.258 167.258 0 0 0-4.134 4.363c4.772.026 9.519.102 14.24.23-7.503-.026-15.006 0-22.51.076-.65.524-.778 1.162-.382 1.914.138.184.317.312.536.383 1.99.076 3.98.102 5.972.076a53.912 53.912 0 0 0-2.91 4.594c-1.14-.066-2.263.01-3.368.23-.678.832-.576 1.547.306 2.143 5.41.076 10.82.102 16.231.076a703.18 703.18 0 0 1-14.7.23 19.08 19.08 0 0 0-2.143 4.976c-.13.288-.18.594-.154.919a.85.85 0 0 1-.23-.46c-2.977 8.16-4.177 16.581-3.598 25.263-.55-.007-.932-.262-1.148-.766-.077-20.057-.102-40.114-.077-60.17 18.4-.051 36.776 0 55.125.153z"/>
        <path fill="#ededed" d="M57.575 33.838v2.91a4266.638 4266.638 0 0 1-37.133 37.357 1.84 1.84 0 0 0-.46 1.072 439.543 439.543 0 0 1-2.526 11.024c.067.797.501 1.205 1.302 1.225 4.048-.79 8.055-1.734 12.02-2.833a6607.263 6607.263 0 0 1 26.797-26.717v4.9c-.55.006-.933.261-1.149.765-.05 9.748-.102 19.495-.153 29.243-.071.22-.199.398-.383.536a2978.86 2978.86 0 0 1-52.215.23c-.579-8.682.62-17.103 3.599-25.263a.85.85 0 0 0 .23.46c.11.342.315.622.612.842 3.573.102 7.146.102 10.718 0 .893-.92.791-1.685-.306-2.297-3.42-.102-6.84-.102-10.259 0a2.17 2.17 0 0 0-.612.536A19.08 19.08 0 0 1 9.8 62.852a703.18 703.18 0 0 0 14.7-.23c1.032-.33 1.313-.993.842-1.99a1.079 1.079 0 0 0-.689-.383c-4.44-.076-8.88-.102-13.322-.076a53.912 53.912 0 0 1 2.91-4.594c5.513.026 11.025 0 16.537-.076.83-.309 1.111-.896.842-1.76a1.484 1.484 0 0 0-.995-.613c-4.721-.128-9.468-.204-14.24-.23a167.258 167.258 0 0 1 4.134-4.363c5.87.025 11.74 0 17.609-.077.834-.323 1.114-.91.842-1.76a1.648 1.648 0 0 0-.842-.613c-4.772-.128-9.57-.204-14.394-.23a41.136 41.136 0 0 1 5.972-4.287 809.86 809.86 0 0 0 15.772-.23c.904-.41 1.134-1.074.689-1.99a4.52 4.52 0 0 0-.69-.383 364.398 364.398 0 0 0-10.565-.076c7.157-3.361 14.711-5.045 22.663-5.053z"/>
        <path fill="#d71b60" d="M70.896 40.728a2.031 2.031 0 0 0-.919-.995c-3.456-1.86-6.927-1.911-10.412-.153a5.565 5.565 0 0 0-1.378 1.148c-.271-.124-.348-.329-.23-.612l6.049-6.048a2.488 2.488 0 0 1 1.225 0l5.742 5.741c.12.34.095.645-.077.92z"/>
        <path fill="#ea4078" d="M70.896 40.728a93.102 93.102 0 0 1-6.278 6.43 191.203 191.203 0 0 1-6.431-6.43 5.565 5.565 0 0 1 1.378-1.148c3.485-1.758 6.956-1.707 10.412.153.428.235.735.567.92.995z"/>
        <path fill="#f9a528" d="M62.474 49.302a43.313 43.313 0 0 1-3.062 3.062 191.203 191.203 0 0 1-6.431-6.43c1.672-.855 3.407-.983 5.206-.383a16.704 16.704 0 0 1 4.287 3.751z"/>
        <path fill="#f17a1f" d="M50.684 47.312c.998.817 1.84 1.736 2.527 2.756L25.648 77.627l-2.45-2.45c-.102-.102-.102-.204 0-.306a6990.82 6990.82 0 0 0 27.486-27.56z"/>
        <path fill="#f38a1d" d="M54.818 51.752a.756.756 0 0 1 .46.076l2.22 2.22c.102.102.102.204 0 .307L29.936 81.914l-2.45-2.45c-.102-.102-.102-.204 0-.306a6923.633 6923.633 0 0 0 27.332-27.406z"/>
        <path fill="#202020" d="M26.797 83.139a3.504 3.504 0 0 0-1.531-.69c-1.725-.334-3.256.049-4.594 1.149.317-1.798.7-3.584 1.148-5.359a.772.772 0 0 1 .383-.612 125.123 125.123 0 0 1 5.206 5.205 2.5 2.5 0 0 1-.612.307z"/>
        <path fill="#424242" d="M26.797 83.139c-2.048.42-4.09.879-6.125 1.378l-.306-.154.306-.765c1.338-1.1 2.87-1.483 4.594-1.148.577.11 1.087.34 1.53.689z"/>
    </g>
</svg>
