<?xml version="1.0" encoding="UTF-8"?>
<svg xmlns="http://www.w3.org/2000/svg" xmlns:xlink="http://www.w3.org/1999/xlink" width="96" height="96" viewBox="0 0 96 96">
<defs>
<filter id="filter-remove-color" x="0%" y="0%" width="100%" height="100%">
<feColorMatrix color-interpolation-filters="sRGB" values="0 0 0 0 1 0 0 0 0 1 0 0 0 0 1 0 0 0 1 0" />
</filter>
<clipPath id="clip-0">
<rect x="0" y="0" width="96" height="96"/>
</clipPath>
<g id="source-12" clip-path="url(#clip-0)">
<path fill-rule="evenodd" fill="rgb(0%, 0%, 0%)" fill-opacity="1" d="M 49.164062 13.042969 C 35.402344 12.925781 21.625 12.886719 7.824219 12.925781 C 7.804688 28.363281 7.824219 43.800781 7.878906 59.238281 C 8.042969 59.625 8.328125 59.820312 8.742188 59.828125 C 21.804688 59.886719 34.859375 59.828125 47.902344 59.652344 C 48.039062 59.542969 48.136719 59.40625 48.1875 59.238281 C 48.226562 51.734375 48.265625 44.234375 48.304688 36.730469 C 48.464844 36.34375 48.753906 36.144531 49.164062 36.140625 C 49.5625 36.097656 49.847656 36.257812 50.027344 36.613281 C 50.101562 44.3125 50.101562 52.011719 50.027344 59.710938 C 49.699219 60.671875 49.070312 61.320312 48.132812 61.652344 C 34.734375 61.734375 21.335938 61.734375 7.9375 61.652344 C 7 61.320312 6.367188 60.671875 6.042969 59.710938 C 5.96875 42.191406 5.96875 24.671875 6.042969 7.152344 C 6.3125 6.324219 6.832031 5.714844 7.59375 5.324219 C 21.101562 5.128906 34.613281 5.089844 48.132812 5.207031 C 49.070312 5.542969 49.699219 6.1875 50.027344 7.152344 C 50.101562 8.917969 50.101562 10.6875 50.027344 12.453125 C 49.828125 12.78125 49.542969 12.976562 49.164062 13.042969 Z M 49.164062 13.042969 "/>
</g>
<mask id="mask-0">
<g filter="url(#filter-remove-color)">
<rect x="-9.6" y="-9.6" width="115.2" height="115.2" fill="rgb(0%, 0%, 0%)" fill-opacity="0.99"/>
</g>
</mask>
<clipPath id="clip-1">
<rect x="0" y="0" width="96" height="96"/>
</clipPath>
<g id="source-18" clip-path="url(#clip-1)">
<path fill-rule="evenodd" fill="rgb(1.568627%, 0.784314%, 0.784314%)" fill-opacity="1" d="M 49.164062 32.371094 C 42.449219 39.199219 35.75 46.054688 29.066406 52.933594 C 26.09375 53.78125 23.089844 54.507812 20.054688 55.113281 C 19.453125 55.097656 19.128906 54.785156 19.078125 54.171875 C 19.746094 51.351562 20.375 48.523438 20.972656 45.6875 C 21 45.371094 21.117188 45.097656 21.316406 44.859375 C 30.667969 35.324219 39.949219 25.742188 49.164062 16.109375 C 50.328125 14.972656 51.476562 13.8125 52.609375 12.632812 C 53.835938 11.765625 55.0625 11.765625 56.285156 12.632812 C 57.71875 14.105469 59.15625 15.578125 60.589844 17.050781 C 61.28125 18.269531 61.28125 19.484375 60.589844 20.703125 C 56.796875 24.617188 52.988281 28.503906 49.164062 32.371094 Z M 49.164062 32.371094 "/>
</g>
</defs>
<path fill-rule="nonzero" fill="rgb(60.784314%, 78.823529%, 100%)" fill-opacity="1" d="M 94.398438 56 L 94.398438 62.398438 C 94.394531 64.164062 92.964844 65.59375 91.199219 65.601562 L 64 65.601562 C 58.699219 65.601562 54.398438 69.898438 54.398438 75.199219 C 54.40625 80.5 58.703125 84.792969 64 84.800781 L 67.199219 94.398438 L 28.800781 94.398438 L 32 84.800781 C 37.296875 84.792969 41.59375 80.5 41.601562 75.199219 C 41.601562 69.898438 37.300781 65.601562 32 65.601562 L 4.800781 65.601562 C 3.035156 65.59375 1.605469 64.164062 1.601562 62.398438 L 1.601562 56 Z M 94.398438 56 "/>
<path fill-rule="nonzero" fill="rgb(0%, 100%, 0%)" fill-opacity="1" d="M 46.160156 69.433594 L 46.160156 72.875 L 49.839844 72.875 L 49.839844 69.433594 Z M 47.492188 69.636719 L 47.503906 69.636719 L 47.503906 72.671875 L 47.492188 72.671875 Z M 48.507812 69.636719 L 48.507812 72.671875 Z M 48.507812 69.636719 "/>
<path fill-rule="nonzero" fill="rgb(12.54902%, 47.843137%, 82.745098%)" fill-opacity="1" d="M 91.199219 0 L 4.800781 0 C 2.148438 0 0 2.148438 0 4.800781 L 0 62.398438 C 0 65.050781 2.148438 67.199219 4.800781 67.199219 L 32 67.199219 C 36.417969 67.207031 39.996094 70.785156 40 75.199219 C 39.992188 79.613281 36.414062 83.191406 32 83.199219 C 31.976562 83.199219 31.960938 83.210938 31.9375 83.210938 C 31.820312 83.222656 31.707031 83.246094 31.59375 83.28125 C 31.507812 83.296875 31.417969 83.324219 31.335938 83.355469 C 31.242188 83.402344 31.15625 83.460938 31.074219 83.53125 C 30.992188 83.582031 30.914062 83.644531 30.839844 83.710938 C 30.78125 83.78125 30.726562 83.859375 30.679688 83.9375 C 30.613281 84.035156 30.554688 84.132812 30.507812 84.242188 C 30.507812 84.261719 30.484375 84.273438 30.476562 84.292969 L 27.277344 93.894531 C 27.117188 94.382812 27.199219 94.917969 27.5 95.335938 C 27.800781 95.753906 28.285156 96 28.800781 96 L 67.199219 96 C 67.714844 96 68.195312 95.753906 68.496094 95.335938 C 68.796875 94.917969 68.878906 94.382812 68.71875 93.894531 L 65.515625 84.292969 C 65.515625 84.273438 65.496094 84.261719 65.488281 84.242188 C 65.441406 84.136719 65.382812 84.035156 65.316406 83.941406 C 65.269531 83.859375 65.214844 83.78125 65.15625 83.710938 C 65.082031 83.644531 65.003906 83.582031 64.921875 83.53125 C 64.839844 83.460938 64.753906 83.402344 64.660156 83.355469 C 64.574219 83.324219 64.488281 83.296875 64.398438 83.28125 C 64.289062 83.246094 64.175781 83.222656 64.058594 83.210938 C 64.035156 83.210938 64.019531 83.199219 63.996094 83.199219 C 59.582031 83.191406 56.003906 79.613281 55.996094 75.199219 C 56 70.785156 59.578125 67.207031 63.996094 67.199219 L 91.199219 67.199219 C 93.851562 67.199219 96 65.050781 96 62.398438 L 96 4.800781 C 96 2.148438 93.851562 0 91.199219 0 Z M 52.800781 75.199219 C 52.808594 80.929688 57.128906 85.730469 62.824219 86.335938 L 64.980469 92.800781 L 31.019531 92.800781 L 33.175781 86.335938 C 38.871094 85.730469 43.191406 80.929688 43.199219 75.199219 C 43.199219 72.1875 41.984375 69.300781 39.824219 67.199219 L 56.175781 67.199219 C 54.015625 69.300781 52.800781 72.1875 52.800781 75.199219 Z M 92.800781 62.398438 C 92.800781 63.285156 92.082031 64 91.199219 64 L 4.800781 64 C 3.917969 64 3.199219 63.285156 3.199219 62.398438 L 3.199219 57.601562 L 92.800781 57.601562 Z M 3.199219 54.398438 L 3.199219 4.800781 C 3.199219 3.917969 3.917969 3.199219 4.800781 3.199219 L 91.199219 3.199219 C 92.082031 3.199219 92.800781 3.917969 92.800781 4.800781 L 92.800781 54.398438 Z M 3.199219 54.398438 "/>
<path fill-rule="nonzero" fill="rgb(0%, 0%, 75.294118%)" fill-opacity="1" d="M 3.355469 2.546875 L 93.066406 2.546875 L 93.066406 64.035156 L 3.355469 64.035156 Z M 3.355469 2.546875 "/>
<path fill-rule="nonzero" fill="rgb(33.333333%, 86.666667%, 100%)" fill-opacity="1" d="M 3.039062 2.429688 L 3.039062 64.035156 L 93.210938 64.035156 L 93.210938 2.429688 Z M 6.644531 5.292969 L 31.894531 5.292969 L 31.894531 51.859375 L 6.644531 51.859375 Z M 34.597656 5.292969 L 46.320312 5.292969 L 46.320312 51.859375 L 34.597656 51.859375 Z M 49.929688 5.292969 L 75.175781 5.292969 L 75.175781 51.859375 L 49.929688 51.859375 Z M 77.882812 5.292969 L 89.601562 5.292969 L 89.601562 51.859375 L 77.882812 51.859375 Z M 9.351562 14.605469 L 9.351562 16.757812 L 29.1875 16.757812 L 29.1875 14.605469 Z M 37.304688 14.605469 L 37.304688 16.757812 L 43.617188 16.757812 L 43.617188 14.605469 Z M 52.632812 14.605469 L 52.632812 16.757812 L 72.46875 16.757812 L 72.46875 14.605469 Z M 80.585938 14.605469 L 80.585938 16.757812 L 86.898438 16.757812 L 86.898438 14.605469 Z M 9.351562 19.621094 L 9.351562 21.769531 L 29.1875 21.769531 L 29.1875 19.621094 Z M 37.304688 19.621094 L 37.304688 21.769531 L 43.617188 21.769531 L 43.617188 19.621094 Z M 52.632812 19.621094 L 52.632812 21.769531 L 72.46875 21.769531 L 72.46875 19.621094 Z M 80.585938 19.621094 L 80.585938 21.769531 L 86.898438 21.769531 L 86.898438 19.621094 Z M 9.351562 24.636719 L 9.351562 26.785156 L 29.1875 26.785156 L 29.1875 24.636719 Z M 37.304688 24.636719 L 37.304688 26.785156 L 43.617188 26.785156 L 43.617188 24.636719 Z M 52.632812 24.636719 L 52.632812 26.785156 L 72.46875 26.785156 L 72.46875 24.636719 Z M 80.585938 24.636719 L 80.585938 26.785156 L 86.898438 26.785156 L 86.898438 24.636719 Z M 9.351562 29.652344 L 9.351562 31.800781 L 29.1875 31.800781 L 29.1875 29.652344 Z M 37.304688 29.652344 L 37.304688 31.800781 L 43.617188 31.800781 L 43.617188 29.652344 Z M 9.351562 34.664062 L 9.351562 36.816406 L 29.1875 36.816406 L 29.1875 34.664062 Z M 37.304688 34.664062 L 37.304688 36.816406 L 43.617188 36.816406 L 43.617188 34.664062 Z M 6.644531 54.007812 L 46.320312 54.007812 L 46.320312 61.171875 L 6.644531 61.171875 Z M 49.929688 54.007812 L 89.601562 54.007812 L 89.601562 61.171875 L 49.929688 61.171875 Z M 8.449219 56.515625 L 8.449219 58.664062 L 26.484375 58.664062 L 26.484375 56.515625 Z M 29.1875 56.515625 L 29.1875 58.664062 L 31.894531 58.664062 L 31.894531 56.515625 Z M 34.597656 56.515625 L 34.597656 58.664062 L 42.714844 58.664062 L 42.714844 56.515625 Z M 51.730469 56.515625 L 51.730469 58.664062 L 69.765625 58.664062 L 69.765625 56.515625 Z M 72.46875 56.515625 L 72.46875 58.664062 L 75.175781 58.664062 L 75.175781 56.515625 Z M 77.882812 56.515625 L 77.882812 58.664062 L 85.996094 58.664062 L 85.996094 56.515625 Z M 77.882812 56.515625 "/>
<path fill-rule="nonzero" fill="rgb(100%, 100%, 0%)" fill-opacity="1" d="M 56.324219 7.441406 L 56.324219 9.59375 L 70.71875 9.59375 L 70.71875 7.441406 Z M 13.144531 7.445312 L 13.144531 9.59375 L 27.539062 9.59375 L 27.539062 7.445312 Z M 37.433594 7.445312 L 37.433594 9.59375 L 44.628906 9.59375 L 44.628906 7.445312 Z M 80.617188 7.445312 L 80.617188 9.59375 L 87.8125 9.59375 L 87.8125 7.445312 Z M 80.617188 7.445312 "/>
<use xlink:href="#source-12"/>
<path fill-rule="evenodd" fill="rgb(96.470588%, 54.509804%, 11.372549%)" fill-opacity="1" d="M 48.246094 7.976562 C 35.5 7.957031 22.753906 7.976562 10.003906 8.035156 C 8.824219 8.675781 8.402344 9.679688 8.742188 11.039062 C 8.4375 11.039062 8.128906 11.039062 7.824219 11.039062 C 7.804688 9.902344 7.824219 8.761719 7.878906 7.621094 C 7.976562 7.367188 8.148438 7.191406 8.398438 7.09375 C 21.488281 7.015625 34.582031 7.015625 47.671875 7.09375 C 48.050781 7.257812 48.242188 7.554688 48.246094 7.976562 Z M 48.246094 7.976562 "/>
<path fill-rule="evenodd" fill="rgb(98.431373%, 70.980392%, 29.803922%)" fill-opacity="1" d="M 48.246094 7.976562 C 48.246094 8.996094 48.246094 10.019531 48.246094 11.039062 C 35.078125 11.039062 21.910156 11.039062 8.742188 11.039062 C 8.402344 9.679688 8.824219 8.675781 10.003906 8.035156 C 22.753906 7.976562 35.5 7.957031 48.246094 7.976562 Z M 48.246094 7.976562 "/>
<g mask="url(#mask-0)">
<use xlink:href="#source-18"/>
</g>
<path fill-rule="evenodd" fill="rgb(87.058824%, 87.058824%, 87.058824%)" fill-opacity="1" d="M 49.164062 13.042969 C 49.164062 13.320312 49.164062 13.59375 49.164062 13.867188 C 43.203125 13.875 37.535156 15.171875 32.167969 17.757812 C 25.507812 17.738281 18.847656 17.757812 12.1875 17.816406 C 11.46875 18.347656 11.429688 18.9375 12.074219 19.585938 C 21.414062 19.644531 30.753906 19.664062 40.09375 19.644531 C 36.167969 19.742188 32.226562 19.800781 28.265625 19.820312 C 26.675781 20.78125 25.183594 21.882812 23.785156 23.121094 C 27.402344 23.140625 31 23.199219 34.582031 23.296875 C 27.078125 23.277344 19.574219 23.296875 12.074219 23.355469 C 11.410156 24.046875 11.484375 24.636719 12.300781 25.121094 C 15.324219 25.179688 18.351562 25.203125 21.375 25.179688 C 20.320312 26.28125 19.289062 27.398438 18.273438 28.539062 C 21.851562 28.558594 25.414062 28.617188 28.953125 28.71875 C 23.328125 28.695312 17.699219 28.71875 12.074219 28.777344 C 11.582031 29.179688 11.488281 29.667969 11.785156 30.25 C 11.890625 30.390625 12.023438 30.488281 12.1875 30.542969 C 13.679688 30.601562 15.171875 30.621094 16.664062 30.601562 C 15.878906 31.746094 15.152344 32.921875 14.484375 34.136719 C 13.628906 34.085938 12.785156 34.144531 11.957031 34.3125 C 11.449219 34.957031 11.527344 35.503906 12.1875 35.964844 C 16.246094 36.023438 20.300781 36.042969 24.359375 36.023438 C 20.703125 36.121094 17.03125 36.179688 13.335938 36.199219 C 12.605469 37.4375 12.070312 38.714844 11.726562 40.03125 C 11.632812 40.25 11.59375 40.488281 11.613281 40.738281 C 11.523438 40.648438 11.46875 40.527344 11.441406 40.382812 C 9.207031 46.664062 8.308594 53.144531 8.742188 59.828125 C 8.328125 59.820312 8.042969 59.625 7.878906 59.238281 C 7.824219 43.800781 7.804688 28.363281 7.824219 12.925781 C 21.625 12.886719 35.402344 12.925781 49.164062 13.042969 Z M 49.164062 13.042969 "/>
<path fill-rule="evenodd" fill="rgb(92.941176%, 92.941176%, 92.941176%)" fill-opacity="1" d="M 49.164062 13.867188 C 49.164062 14.613281 49.164062 15.363281 49.164062 16.109375 C 39.949219 25.742188 30.667969 35.324219 21.316406 44.859375 C 21.117188 45.097656 21 45.371094 20.972656 45.6875 C 20.375 48.523438 19.746094 51.351562 19.078125 54.171875 C 19.128906 54.785156 19.453125 55.097656 20.054688 55.113281 C 23.089844 54.507812 26.09375 53.78125 29.066406 52.933594 C 35.75 46.054688 42.449219 39.199219 49.164062 32.371094 C 49.164062 33.625 49.164062 34.882812 49.164062 36.140625 C 48.753906 36.144531 48.464844 36.34375 48.304688 36.730469 C 48.265625 44.234375 48.226562 51.734375 48.1875 59.238281 C 48.136719 59.40625 48.039062 59.542969 47.902344 59.652344 C 34.859375 59.828125 21.804688 59.886719 8.742188 59.828125 C 8.308594 53.144531 9.207031 46.664062 11.441406 40.382812 C 11.46875 40.527344 11.523438 40.648438 11.613281 40.738281 C 11.695312 41 11.851562 41.214844 12.074219 41.386719 C 14.75 41.464844 17.429688 41.464844 20.109375 41.386719 C 20.78125 40.675781 20.703125 40.089844 19.882812 39.617188 C 17.316406 39.539062 14.75 39.539062 12.1875 39.617188 C 12.003906 39.730469 11.851562 39.867188 11.726562 40.03125 C 12.070312 38.714844 12.605469 37.4375 13.335938 36.199219 C 17.03125 36.179688 20.703125 36.121094 24.359375 36.023438 C 25.132812 35.769531 25.34375 35.257812 24.992188 34.492188 C 24.855469 34.328125 24.683594 34.230469 24.476562 34.195312 C 21.144531 34.136719 17.8125 34.117188 14.484375 34.136719 C 15.152344 32.921875 15.878906 31.746094 16.664062 30.601562 C 20.800781 30.621094 24.933594 30.601562 29.066406 30.542969 C 29.691406 30.304688 29.902344 29.855469 29.699219 29.1875 C 29.511719 28.925781 29.261719 28.769531 28.953125 28.71875 C 25.414062 28.617188 21.851562 28.558594 18.273438 28.539062 C 19.289062 27.398438 20.320312 26.28125 21.375 25.179688 C 25.777344 25.203125 30.179688 25.179688 34.582031 25.121094 C 35.207031 24.875 35.417969 24.421875 35.210938 23.765625 C 35.046875 23.535156 34.835938 23.378906 34.582031 23.296875 C 31 23.199219 27.402344 23.140625 23.785156 23.121094 C 25.183594 21.882812 26.675781 20.78125 28.265625 19.820312 C 32.226562 19.800781 36.167969 19.742188 40.09375 19.644531 C 40.769531 19.328125 40.941406 18.816406 40.609375 18.109375 C 40.445312 17.996094 40.273438 17.898438 40.09375 17.816406 C 37.453125 17.757812 34.808594 17.738281 32.167969 17.757812 C 37.535156 15.171875 43.203125 13.875 49.164062 13.867188 Z M 49.164062 13.867188 "/>
<path fill-rule="evenodd" fill="rgb(84.313725%, 10.588235%, 37.647059%)" fill-opacity="1" d="M 59.15625 19.171875 C 59.015625 18.84375 58.789062 18.585938 58.464844 18.40625 C 55.875 16.972656 53.269531 16.933594 50.65625 18.289062 C 50.261719 18.527344 49.917969 18.824219 49.625 19.171875 C 49.421875 19.074219 49.363281 18.917969 49.453125 18.699219 C 50.964844 17.148438 52.476562 15.597656 53.988281 14.046875 C 54.292969 13.96875 54.601562 13.96875 54.90625 14.046875 C 56.34375 15.519531 57.777344 16.992188 59.210938 18.464844 C 59.304688 18.726562 59.285156 18.960938 59.15625 19.171875 Z M 59.15625 19.171875 "/>
<path fill-rule="evenodd" fill="rgb(91.764706%, 25.098039%, 47.058824%)" fill-opacity="1" d="M 59.15625 19.171875 C 57.671875 20.890625 56.101562 22.542969 54.445312 24.121094 C 52.796875 22.507812 51.191406 20.859375 49.625 19.171875 C 49.917969 18.824219 50.261719 18.527344 50.65625 18.289062 C 53.269531 16.933594 55.875 16.972656 58.464844 18.40625 C 58.789062 18.585938 59.015625 18.84375 59.15625 19.171875 Z M 59.15625 19.171875 "/>
<path fill-rule="evenodd" fill="rgb(2.745098%, 2.745098%, 2.745098%)" fill-opacity="1" d="M 32.167969 17.757812 C 34.808594 17.738281 37.453125 17.757812 40.09375 17.816406 C 40.273438 17.898438 40.445312 17.996094 40.609375 18.109375 C 40.941406 18.816406 40.769531 19.328125 40.09375 19.644531 C 30.753906 19.664062 21.414062 19.644531 12.074219 19.585938 C 11.429688 18.9375 11.46875 18.347656 12.1875 17.816406 C 18.847656 17.757812 25.507812 17.738281 32.167969 17.757812 Z M 32.167969 17.757812 "/>
<path fill-rule="evenodd" fill="rgb(94.901961%, 54.117647%, 11.372549%)" fill-opacity="1" d="M 52.839844 25.769531 C 51.925781 24.617188 50.855469 23.65625 49.625 22.882812 C 48.273438 22.421875 46.972656 22.519531 45.71875 23.179688 C 45.589844 23.105469 45.476562 23.007812 45.375 22.882812 C 46.238281 21.976562 47.117188 21.09375 48.015625 20.230469 C 49.757812 21.957031 51.480469 23.707031 53.183594 25.476562 C 53.082031 25.597656 52.96875 25.699219 52.839844 25.769531 Z M 52.839844 25.769531 "/>
<path fill-rule="evenodd" fill="rgb(97.647059%, 64.705882%, 15.686275%)" fill-opacity="1" d="M 52.839844 25.769531 C 52.113281 26.59375 51.347656 27.378906 50.542969 28.128906 C 48.894531 26.515625 47.285156 24.863281 45.71875 23.179688 C 46.972656 22.519531 48.273438 22.421875 49.625 22.882812 C 50.855469 23.65625 51.925781 24.617188 52.839844 25.769531 Z M 52.839844 25.769531 "/>
<path fill-rule="evenodd" fill="rgb(3.137255%, 3.137255%, 3.137255%)" fill-opacity="1" d="M 34.582031 23.296875 C 34.835938 23.378906 35.046875 23.535156 35.210938 23.765625 C 35.417969 24.421875 35.207031 24.875 34.582031 25.121094 C 30.179688 25.179688 25.777344 25.203125 21.375 25.179688 C 18.351562 25.203125 15.324219 25.179688 12.300781 25.121094 C 11.484375 24.636719 11.410156 24.046875 12.074219 23.355469 C 19.574219 23.296875 27.078125 23.277344 34.582031 23.296875 Z M 34.582031 23.296875 "/>
<path fill-rule="evenodd" fill="rgb(94.509804%, 47.843137%, 12.156863%)" fill-opacity="1" d="M 43.996094 24.238281 C 44.746094 24.867188 45.378906 25.574219 45.890625 26.359375 C 39 33.429688 32.109375 40.5 25.222656 47.570312 C 24.609375 46.941406 23.996094 46.316406 23.382812 45.6875 C 23.308594 45.609375 23.308594 45.527344 23.382812 45.449219 C 30.277344 38.394531 37.148438 31.324219 43.996094 24.238281 Z M 43.996094 24.238281 "/>
<path fill-rule="evenodd" fill="rgb(95.294118%, 54.117647%, 11.372549%)" fill-opacity="1" d="M 47.097656 27.65625 C 47.21875 27.636719 47.332031 27.660156 47.441406 27.714844 C 47.996094 28.285156 48.550781 28.855469 49.105469 29.425781 C 49.183594 29.503906 49.183594 29.582031 49.105469 29.660156 C 42.21875 36.730469 35.328125 43.800781 28.4375 50.871094 C 27.824219 50.242188 27.210938 49.613281 26.597656 48.984375 C 26.523438 48.90625 26.523438 48.828125 26.597656 48.75 C 33.453125 41.734375 40.289062 34.703125 47.097656 27.65625 Z M 47.097656 27.65625 "/>
<path fill-rule="evenodd" fill="rgb(1.568627%, 1.568627%, 1.568627%)" fill-opacity="1" d="M 28.953125 28.71875 C 29.261719 28.769531 29.511719 28.925781 29.699219 29.1875 C 29.902344 29.855469 29.691406 30.304688 29.066406 30.542969 C 24.933594 30.601562 20.800781 30.621094 16.664062 30.601562 C 15.171875 30.621094 13.679688 30.601562 12.1875 30.542969 C 12.023438 30.488281 11.890625 30.390625 11.785156 30.25 C 11.488281 29.667969 11.582031 29.179688 12.074219 28.777344 C 17.699219 28.71875 23.328125 28.695312 28.953125 28.71875 Z M 28.953125 28.71875 "/>
<path fill-rule="evenodd" fill="rgb(0.392157%, 0.392157%, 0.392157%)" fill-opacity="1" d="M 14.484375 34.136719 C 17.8125 34.117188 21.144531 34.136719 24.476562 34.195312 C 24.683594 34.230469 24.855469 34.328125 24.992188 34.492188 C 25.34375 35.257812 25.132812 35.769531 24.359375 36.023438 C 20.300781 36.042969 16.246094 36.023438 12.1875 35.964844 C 11.527344 35.503906 11.449219 34.957031 11.957031 34.3125 C 12.785156 34.144531 13.628906 34.085938 14.484375 34.136719 Z M 14.484375 34.136719 "/>
<path fill-rule="evenodd" fill="rgb(2.745098%, 2.745098%, 2.745098%)" fill-opacity="1" d="M 11.613281 40.738281 C 11.59375 40.488281 11.632812 40.25 11.726562 40.03125 C 11.851562 39.867188 12.003906 39.730469 12.1875 39.617188 C 14.75 39.539062 17.316406 39.539062 19.882812 39.617188 C 20.703125 40.089844 20.78125 40.675781 20.109375 41.386719 C 17.429688 41.464844 14.75 41.464844 12.074219 41.386719 C 11.851562 41.214844 11.695312 41 11.613281 40.738281 Z M 11.613281 40.738281 "/>
<path fill-rule="evenodd" fill="rgb(12.54902%, 12.54902%, 12.54902%)" fill-opacity="1" d="M 26.082031 51.8125 C 25.75 51.546875 25.367188 51.367188 24.933594 51.285156 C 23.640625 51.027344 22.492188 51.320312 21.488281 52.167969 C 21.726562 50.785156 22.011719 49.410156 22.351562 48.042969 C 22.371094 47.832031 22.46875 47.675781 22.636719 47.570312 C 23.976562 48.867188 25.277344 50.203125 26.542969 51.578125 C 26.394531 51.679688 26.242188 51.757812 26.082031 51.8125 Z M 26.082031 51.8125 "/>
<path fill-rule="evenodd" fill="rgb(25.882353%, 25.882353%, 25.882353%)" fill-opacity="1" d="M 26.082031 51.8125 C 24.546875 52.136719 23.015625 52.492188 21.488281 52.875 C 21.414062 52.835938 21.335938 52.796875 21.257812 52.757812 C 21.335938 52.558594 21.414062 52.359375 21.488281 52.167969 C 22.492188 51.320312 23.640625 51.027344 24.933594 51.285156 C 25.367188 51.367188 25.75 51.546875 26.082031 51.8125 Z M 26.082031 51.8125 "/>
</svg>
