<?xml version="1.0" encoding="UTF-8"?>
<svg xmlns="http://www.w3.org/2000/svg" xmlns:xlink="http://www.w3.org/1999/xlink" width="48" height="48" viewBox="0 0 48 48">
<defs>
<filter id="filter-remove-color" x="0%" y="0%" width="100%" height="100%">
<feColorMatrix color-interpolation-filters="sRGB" values="0 0 0 0 1 0 0 0 0 1 0 0 0 0 1 0 0 0 1 0" />
</filter>
<clipPath id="clip-0">
<rect x="0" y="0" width="48" height="48"/>
</clipPath>
<g id="source-12" clip-path="url(#clip-0)">
<path fill-rule="evenodd" fill="rgb(0%, 0%, 0%)" fill-opacity="1" d="M 24.582031 6.523438 C 17.703125 6.464844 10.8125 6.441406 3.910156 6.464844 C 3.902344 14.179688 3.910156 21.898438 3.941406 29.617188 C 4.019531 29.8125 4.164062 29.910156 4.371094 29.914062 C 10.902344 29.941406 17.429688 29.914062 23.949219 29.824219 C 24.019531 29.773438 24.066406 29.703125 24.09375 29.617188 C 24.113281 25.867188 24.132812 22.117188 24.152344 18.363281 C 24.234375 18.171875 24.375 18.074219 24.582031 18.070312 C 24.78125 18.050781 24.925781 18.128906 25.011719 18.304688 C 25.050781 22.15625 25.050781 26.003906 25.011719 29.855469 C 24.851562 30.335938 24.535156 30.660156 24.066406 30.828125 C 17.367188 30.867188 10.667969 30.867188 3.96875 30.828125 C 3.5 30.660156 3.183594 30.335938 3.023438 29.855469 C 2.984375 21.09375 2.984375 12.335938 3.023438 3.574219 C 3.15625 3.164062 3.414062 2.859375 3.796875 2.664062 C 10.550781 2.566406 17.304688 2.546875 24.066406 2.605469 C 24.535156 2.769531 24.851562 3.09375 25.011719 3.574219 C 25.050781 4.460938 25.050781 5.34375 25.011719 6.226562 C 24.914062 6.390625 24.769531 6.488281 24.582031 6.523438 Z M 24.582031 6.523438 "/>
</g>
<mask id="mask-0">
<g filter="url(#filter-remove-color)">
<rect x="-4.8" y="-4.8" width="57.6" height="57.6" fill="rgb(0%, 0%, 0%)" fill-opacity="0.99"/>
</g>
</mask>
<clipPath id="clip-1">
<rect x="0" y="0" width="48" height="48"/>
</clipPath>
<g id="source-18" clip-path="url(#clip-1)">
<path fill-rule="evenodd" fill="rgb(1.568627%, 0.784314%, 0.784314%)" fill-opacity="1" d="M 24.582031 16.183594 C 21.226562 19.601562 17.875 23.027344 14.535156 26.464844 C 13.046875 26.890625 11.542969 27.253906 10.027344 27.558594 C 9.726562 27.550781 9.5625 27.390625 9.539062 27.085938 C 9.871094 25.675781 10.1875 24.261719 10.484375 22.84375 C 10.5 22.683594 10.558594 22.546875 10.660156 22.429688 C 15.332031 17.664062 19.972656 12.871094 24.582031 8.054688 C 25.164062 7.488281 25.738281 6.90625 26.304688 6.316406 C 26.917969 5.882812 27.53125 5.882812 28.140625 6.316406 C 28.859375 7.050781 29.578125 7.789062 30.296875 8.523438 C 30.640625 9.132812 30.640625 9.742188 30.296875 10.351562 C 28.398438 12.308594 26.496094 14.253906 24.582031 16.183594 Z M 24.582031 16.183594 "/>
</g>
</defs>
<path fill-rule="nonzero" fill="rgb(60.784314%, 78.823529%, 100%)" fill-opacity="1" d="M 47.199219 28 L 47.199219 31.199219 C 47.199219 32.082031 46.484375 32.796875 45.601562 32.800781 L 32 32.800781 C 29.347656 32.800781 27.199219 34.949219 27.199219 37.601562 C 27.203125 40.25 29.351562 42.394531 32 42.398438 L 33.601562 47.199219 L 14.398438 47.199219 L 16 42.398438 C 18.648438 42.394531 20.796875 40.25 20.800781 37.601562 C 20.800781 34.949219 18.652344 32.800781 16 32.800781 L 2.398438 32.800781 C 1.515625 32.796875 0.800781 32.082031 0.800781 31.199219 L 0.800781 28 Z M 47.199219 28 "/>
<path fill-rule="nonzero" fill="rgb(0%, 100%, 0%)" fill-opacity="1" d="M 23.082031 34.71875 L 23.082031 36.4375 L 24.917969 36.4375 L 24.917969 34.71875 Z M 23.746094 34.816406 L 23.753906 34.816406 L 23.753906 36.335938 L 23.746094 36.335938 Z M 24.253906 34.816406 L 24.253906 36.335938 Z M 24.253906 34.816406 "/>
<path fill-rule="nonzero" fill="rgb(12.54902%, 47.843137%, 82.745098%)" fill-opacity="1" d="M 45.601562 0 L 2.398438 0 C 1.074219 0 0 1.074219 0 2.398438 L 0 31.199219 C 0 32.523438 1.074219 33.601562 2.398438 33.601562 L 16 33.601562 C 18.207031 33.601562 19.996094 35.390625 20 37.601562 C 19.996094 39.808594 18.207031 41.597656 16 41.601562 C 15.988281 41.601562 15.980469 41.605469 15.96875 41.605469 C 15.910156 41.609375 15.851562 41.621094 15.796875 41.640625 C 15.753906 41.648438 15.710938 41.660156 15.667969 41.675781 C 15.621094 41.703125 15.578125 41.730469 15.535156 41.765625 C 15.496094 41.792969 15.457031 41.820312 15.421875 41.855469 C 15.390625 41.890625 15.363281 41.929688 15.339844 41.96875 C 15.304688 42.015625 15.277344 42.066406 15.253906 42.121094 C 15.253906 42.128906 15.242188 42.136719 15.238281 42.148438 L 13.640625 46.949219 C 13.558594 47.191406 13.597656 47.460938 13.75 47.667969 C 13.902344 47.878906 14.144531 48 14.398438 48 L 33.601562 48 C 33.855469 48 34.097656 47.875 34.25 47.667969 C 34.398438 47.457031 34.441406 47.191406 34.359375 46.949219 L 32.757812 42.148438 C 32.757812 42.136719 32.746094 42.128906 32.746094 42.121094 C 32.71875 42.066406 32.691406 42.015625 32.65625 41.96875 C 32.632812 41.929688 32.609375 41.890625 32.578125 41.855469 C 32.542969 41.820312 32.503906 41.792969 32.460938 41.765625 C 32.421875 41.730469 32.375 41.703125 32.332031 41.675781 C 32.289062 41.660156 32.246094 41.648438 32.199219 41.640625 C 32.144531 41.621094 32.085938 41.609375 32.027344 41.605469 C 32.019531 41.605469 32.007812 41.601562 31.996094 41.601562 C 29.789062 41.597656 28 39.808594 27.996094 37.601562 C 28 35.390625 29.789062 33.601562 31.996094 33.601562 L 45.601562 33.601562 C 46.925781 33.601562 48 32.523438 48 31.199219 L 48 2.398438 C 48 1.074219 46.925781 0 45.601562 0 Z M 26.398438 37.601562 C 26.402344 40.464844 28.566406 42.863281 31.414062 43.167969 L 32.488281 46.398438 L 15.511719 46.398438 L 16.585938 43.167969 C 19.433594 42.863281 21.597656 40.464844 21.601562 37.601562 C 21.601562 36.09375 20.992188 34.648438 19.910156 33.601562 L 28.089844 33.601562 C 27.007812 34.648438 26.398438 36.09375 26.398438 37.601562 Z M 46.398438 31.199219 C 46.398438 31.640625 46.042969 32 45.601562 32 L 2.398438 32 C 1.957031 32 1.601562 31.640625 1.601562 31.199219 L 1.601562 28.800781 L 46.398438 28.800781 Z M 1.601562 27.199219 L 1.601562 2.398438 C 1.601562 1.957031 1.957031 1.601562 2.398438 1.601562 L 45.601562 1.601562 C 46.042969 1.601562 46.398438 1.957031 46.398438 2.398438 L 46.398438 27.199219 Z M 1.601562 27.199219 "/>
<path fill-rule="nonzero" fill="rgb(0%, 0%, 75.294118%)" fill-opacity="1" d="M 1.675781 1.273438 L 46.53125 1.273438 L 46.53125 32.015625 L 1.675781 32.015625 Z M 1.675781 1.273438 "/>
<path fill-rule="nonzero" fill="rgb(33.333333%, 86.666667%, 100%)" fill-opacity="1" d="M 1.519531 1.214844 L 1.519531 32.019531 L 46.605469 32.019531 L 46.605469 1.214844 Z M 3.324219 2.648438 L 15.945312 2.648438 L 15.945312 25.929688 L 3.324219 25.929688 Z M 17.300781 2.648438 L 23.160156 2.648438 L 23.160156 25.929688 L 17.300781 25.929688 Z M 24.964844 2.648438 L 37.589844 2.648438 L 37.589844 25.929688 L 24.964844 25.929688 Z M 38.941406 2.648438 L 44.800781 2.648438 L 44.800781 25.929688 L 38.941406 25.929688 Z M 4.675781 7.304688 L 4.675781 8.378906 L 14.59375 8.378906 L 14.59375 7.304688 Z M 18.652344 7.304688 L 18.652344 8.378906 L 21.808594 8.378906 L 21.808594 7.304688 Z M 26.316406 7.304688 L 26.316406 8.378906 L 36.234375 8.378906 L 36.234375 7.304688 Z M 40.292969 7.304688 L 40.292969 8.378906 L 43.449219 8.378906 L 43.449219 7.304688 Z M 4.675781 9.8125 L 4.675781 10.886719 L 14.59375 10.886719 L 14.59375 9.8125 Z M 18.652344 9.8125 L 18.652344 10.886719 L 21.808594 10.886719 L 21.808594 9.8125 Z M 26.316406 9.8125 L 26.316406 10.886719 L 36.234375 10.886719 L 36.234375 9.8125 Z M 40.292969 9.8125 L 40.292969 10.886719 L 43.449219 10.886719 L 43.449219 9.8125 Z M 4.675781 12.316406 L 4.675781 13.394531 L 14.59375 13.394531 L 14.59375 12.316406 Z M 18.652344 12.316406 L 18.652344 13.394531 L 21.808594 13.394531 L 21.808594 12.316406 Z M 26.316406 12.316406 L 26.316406 13.394531 L 36.234375 13.394531 L 36.234375 12.316406 Z M 40.292969 12.316406 L 40.292969 13.394531 L 43.449219 13.394531 L 43.449219 12.316406 Z M 4.675781 14.824219 L 4.675781 15.898438 L 14.59375 15.898438 L 14.59375 14.824219 Z M 18.652344 14.824219 L 18.652344 15.898438 L 21.808594 15.898438 L 21.808594 14.824219 Z M 4.675781 17.332031 L 4.675781 18.40625 L 14.59375 18.40625 L 14.59375 17.332031 Z M 18.652344 17.332031 L 18.652344 18.40625 L 21.808594 18.40625 L 21.808594 17.332031 Z M 3.324219 27.003906 L 23.160156 27.003906 L 23.160156 30.585938 L 3.324219 30.585938 Z M 24.964844 27.003906 L 44.800781 27.003906 L 44.800781 30.585938 L 24.964844 30.585938 Z M 4.222656 28.257812 L 4.222656 29.332031 L 13.242188 29.332031 L 13.242188 28.257812 Z M 14.59375 28.257812 L 14.59375 29.332031 L 15.945312 29.332031 L 15.945312 28.257812 Z M 17.300781 28.257812 L 17.300781 29.332031 L 21.355469 29.332031 L 21.355469 28.257812 Z M 25.867188 28.257812 L 25.867188 29.332031 L 34.882812 29.332031 L 34.882812 28.257812 Z M 36.234375 28.257812 L 36.234375 29.332031 L 37.589844 29.332031 L 37.589844 28.257812 Z M 38.941406 28.257812 L 38.941406 29.332031 L 43 29.332031 L 43 28.257812 Z M 38.941406 28.257812 "/>
<path fill-rule="nonzero" fill="rgb(100%, 100%, 0%)" fill-opacity="1" d="M 28.164062 3.722656 L 28.164062 4.796875 L 35.359375 4.796875 L 35.359375 3.722656 Z M 6.570312 3.722656 L 6.570312 4.796875 L 13.769531 4.796875 L 13.769531 3.722656 Z M 18.71875 3.722656 L 18.71875 4.796875 L 22.316406 4.796875 L 22.316406 3.722656 Z M 40.308594 3.722656 L 40.308594 4.796875 L 43.90625 4.796875 L 43.90625 3.722656 Z M 40.308594 3.722656 "/>
<use xlink:href="#source-12"/>
<path fill-rule="evenodd" fill="rgb(96.470588%, 54.509804%, 11.372549%)" fill-opacity="1" d="M 24.121094 3.988281 C 17.75 3.976562 11.375 3.988281 5.003906 4.019531 C 4.410156 4.339844 4.199219 4.839844 4.371094 5.519531 C 4.21875 5.519531 4.066406 5.519531 3.910156 5.519531 C 3.902344 4.949219 3.910156 4.378906 3.941406 3.8125 C 3.988281 3.683594 4.074219 3.59375 4.199219 3.546875 C 10.746094 3.507812 17.289062 3.507812 23.835938 3.546875 C 24.023438 3.628906 24.121094 3.777344 24.121094 3.988281 Z M 24.121094 3.988281 "/>
<path fill-rule="evenodd" fill="rgb(98.431373%, 70.980392%, 29.803922%)" fill-opacity="1" d="M 24.121094 3.988281 C 24.121094 4.5 24.121094 5.007812 24.121094 5.519531 C 17.539062 5.519531 10.953125 5.519531 4.371094 5.519531 C 4.199219 4.839844 4.410156 4.339844 5.003906 4.019531 C 11.375 3.988281 17.75 3.976562 24.121094 3.988281 Z M 24.121094 3.988281 "/>
<g mask="url(#mask-0)">
<use xlink:href="#source-18"/>
</g>
<path fill-rule="evenodd" fill="rgb(87.058824%, 87.058824%, 87.058824%)" fill-opacity="1" d="M 24.582031 6.523438 C 24.582031 6.660156 24.582031 6.796875 24.582031 6.933594 C 21.601562 6.9375 18.769531 7.585938 16.085938 8.878906 C 12.753906 8.867188 9.421875 8.878906 6.09375 8.90625 C 5.734375 9.175781 5.714844 9.46875 6.035156 9.792969 C 10.707031 9.820312 15.375 9.832031 20.046875 9.820312 C 18.085938 9.871094 16.113281 9.898438 14.132812 9.910156 C 13.335938 10.390625 12.589844 10.941406 11.894531 11.558594 C 13.703125 11.570312 15.5 11.597656 17.289062 11.648438 C 13.539062 11.636719 9.789062 11.648438 6.035156 11.675781 C 5.703125 12.023438 5.742188 12.316406 6.152344 12.5625 C 7.664062 12.589844 9.175781 12.601562 10.6875 12.589844 C 10.160156 13.140625 9.644531 13.699219 9.136719 14.269531 C 10.925781 14.28125 12.707031 14.308594 14.476562 14.359375 C 11.664062 14.347656 8.851562 14.359375 6.035156 14.386719 C 5.792969 14.589844 5.742188 14.835938 5.894531 15.125 C 5.945312 15.195312 6.011719 15.246094 6.09375 15.273438 C 6.839844 15.300781 7.585938 15.3125 8.332031 15.300781 C 7.941406 15.871094 7.578125 16.460938 7.242188 17.070312 C 6.8125 17.042969 6.394531 17.074219 5.980469 17.15625 C 5.726562 17.476562 5.761719 17.753906 6.09375 17.980469 C 8.121094 18.011719 10.152344 18.019531 12.179688 18.011719 C 10.351562 18.058594 8.515625 18.089844 6.667969 18.101562 C 6.304688 18.71875 6.035156 19.355469 5.863281 20.015625 C 5.816406 20.125 5.796875 20.242188 5.804688 20.367188 C 5.761719 20.324219 5.734375 20.265625 5.71875 20.191406 C 4.605469 23.332031 4.152344 26.574219 4.371094 29.914062 C 4.164062 29.910156 4.019531 29.8125 3.941406 29.617188 C 3.910156 21.898438 3.902344 14.179688 3.910156 6.464844 C 10.8125 6.441406 17.703125 6.464844 24.582031 6.523438 Z M 24.582031 6.523438 "/>
<path fill-rule="evenodd" fill="rgb(92.941176%, 92.941176%, 92.941176%)" fill-opacity="1" d="M 24.582031 6.933594 C 24.582031 7.308594 24.582031 7.679688 24.582031 8.054688 C 19.972656 12.871094 15.332031 17.664062 10.660156 22.429688 C 10.558594 22.546875 10.5 22.683594 10.484375 22.84375 C 10.1875 24.261719 9.871094 25.675781 9.539062 27.085938 C 9.5625 27.390625 9.726562 27.550781 10.027344 27.558594 C 11.542969 27.253906 13.046875 26.890625 14.535156 26.464844 C 17.875 23.027344 21.226562 19.601562 24.582031 16.183594 C 24.582031 16.8125 24.582031 17.441406 24.582031 18.070312 C 24.375 18.074219 24.234375 18.171875 24.152344 18.363281 C 24.132812 22.117188 24.113281 25.867188 24.09375 29.617188 C 24.066406 29.703125 24.019531 29.773438 23.949219 29.824219 C 17.429688 29.914062 10.902344 29.941406 4.371094 29.914062 C 4.152344 26.574219 4.605469 23.332031 5.71875 20.191406 C 5.734375 20.265625 5.761719 20.324219 5.804688 20.367188 C 5.847656 20.5 5.925781 20.609375 6.035156 20.691406 C 7.375 20.730469 8.714844 20.730469 10.054688 20.691406 C 10.390625 20.339844 10.351562 20.042969 9.941406 19.808594 C 8.660156 19.769531 7.375 19.769531 6.09375 19.808594 C 6.003906 19.863281 5.925781 19.933594 5.863281 20.015625 C 6.035156 19.355469 6.304688 18.71875 6.667969 18.101562 C 8.515625 18.089844 10.351562 18.058594 12.179688 18.011719 C 12.566406 17.882812 12.671875 17.628906 12.496094 17.246094 C 12.429688 17.164062 12.34375 17.113281 12.238281 17.097656 C 10.574219 17.070312 8.90625 17.058594 7.242188 17.070312 C 7.578125 16.460938 7.941406 15.871094 8.332031 15.300781 C 10.398438 15.3125 12.46875 15.300781 14.535156 15.273438 C 14.84375 15.152344 14.949219 14.925781 14.851562 14.59375 C 14.753906 14.460938 14.632812 14.382812 14.476562 14.359375 C 12.707031 14.308594 10.925781 14.28125 9.136719 14.269531 C 9.644531 13.699219 10.160156 13.140625 10.6875 12.589844 C 12.886719 12.601562 15.089844 12.589844 17.289062 12.5625 C 17.601562 12.4375 17.707031 12.210938 17.605469 11.882812 C 17.523438 11.769531 17.417969 11.6875 17.289062 11.648438 C 15.5 11.597656 13.703125 11.570312 11.894531 11.558594 C 12.589844 10.941406 13.335938 10.390625 14.132812 9.910156 C 16.113281 9.898438 18.085938 9.871094 20.046875 9.820312 C 20.386719 9.664062 20.472656 9.40625 20.304688 9.054688 C 20.222656 9 20.136719 8.949219 20.046875 8.90625 C 18.726562 8.878906 17.40625 8.867188 16.085938 8.878906 C 18.769531 7.585938 21.601562 6.9375 24.582031 6.933594 Z M 24.582031 6.933594 "/>
<path fill-rule="evenodd" fill="rgb(84.313725%, 10.588235%, 37.647059%)" fill-opacity="1" d="M 29.578125 9.585938 C 29.507812 9.421875 29.394531 9.292969 29.234375 9.203125 C 27.9375 8.488281 26.636719 8.46875 25.328125 9.144531 C 25.132812 9.265625 24.957031 9.410156 24.8125 9.585938 C 24.710938 9.539062 24.679688 9.460938 24.726562 9.351562 C 25.480469 8.574219 26.238281 7.796875 26.992188 7.023438 C 27.148438 6.984375 27.300781 6.984375 27.453125 7.023438 C 28.171875 7.757812 28.886719 8.496094 29.605469 9.230469 C 29.652344 9.363281 29.640625 9.480469 29.578125 9.585938 Z M 29.578125 9.585938 "/>
<path fill-rule="evenodd" fill="rgb(91.764706%, 25.098039%, 47.058824%)" fill-opacity="1" d="M 29.578125 9.585938 C 28.835938 10.445312 28.050781 11.269531 27.222656 12.058594 C 26.398438 11.253906 25.59375 10.429688 24.8125 9.585938 C 24.957031 9.410156 25.132812 9.265625 25.328125 9.144531 C 26.636719 8.46875 27.9375 8.488281 29.234375 9.203125 C 29.394531 9.292969 29.507812 9.421875 29.578125 9.585938 Z M 29.578125 9.585938 "/>
<path fill-rule="evenodd" fill="rgb(2.745098%, 2.745098%, 2.745098%)" fill-opacity="1" d="M 16.085938 8.878906 C 17.40625 8.867188 18.726562 8.878906 20.046875 8.90625 C 20.136719 8.949219 20.222656 9 20.304688 9.054688 C 20.472656 9.40625 20.386719 9.664062 20.046875 9.820312 C 15.375 9.832031 10.707031 9.820312 6.035156 9.792969 C 5.714844 9.46875 5.734375 9.175781 6.09375 8.90625 C 9.421875 8.878906 12.753906 8.867188 16.085938 8.878906 Z M 16.085938 8.878906 "/>
<path fill-rule="evenodd" fill="rgb(94.901961%, 54.117647%, 11.372549%)" fill-opacity="1" d="M 26.417969 12.886719 C 25.960938 12.308594 25.425781 11.828125 24.8125 11.441406 C 24.136719 11.210938 23.488281 11.261719 22.859375 11.589844 C 22.796875 11.550781 22.738281 11.503906 22.6875 11.441406 C 23.117188 10.988281 23.558594 10.546875 24.007812 10.117188 C 24.878906 10.980469 25.738281 11.851562 26.59375 12.738281 C 26.542969 12.800781 26.484375 12.847656 26.417969 12.886719 Z M 26.417969 12.886719 "/>
<path fill-rule="evenodd" fill="rgb(97.647059%, 64.705882%, 15.686275%)" fill-opacity="1" d="M 26.417969 12.886719 C 26.058594 13.296875 25.675781 13.6875 25.269531 14.0625 C 24.445312 13.257812 23.644531 12.433594 22.859375 11.589844 C 23.488281 11.261719 24.136719 11.210938 24.8125 11.441406 C 25.425781 11.828125 25.960938 12.308594 26.417969 12.886719 Z M 26.417969 12.886719 "/>
<path fill-rule="evenodd" fill="rgb(3.137255%, 3.137255%, 3.137255%)" fill-opacity="1" d="M 17.289062 11.648438 C 17.417969 11.6875 17.523438 11.769531 17.605469 11.882812 C 17.707031 12.210938 17.601562 12.4375 17.289062 12.5625 C 15.089844 12.589844 12.886719 12.601562 10.6875 12.589844 C 9.175781 12.601562 7.664062 12.589844 6.152344 12.5625 C 5.742188 12.316406 5.703125 12.023438 6.035156 11.675781 C 9.789062 11.648438 13.539062 11.636719 17.289062 11.648438 Z M 17.289062 11.648438 "/>
<path fill-rule="evenodd" fill="rgb(94.509804%, 47.843137%, 12.156863%)" fill-opacity="1" d="M 22 12.121094 C 22.371094 12.433594 22.6875 12.789062 22.945312 13.179688 C 19.5 16.714844 16.054688 20.25 12.609375 23.785156 C 12.304688 23.472656 12 23.15625 11.691406 22.84375 C 11.652344 22.804688 11.652344 22.765625 11.691406 22.726562 C 15.140625 19.199219 18.574219 15.664062 22 12.121094 Z M 22 12.121094 "/>
<path fill-rule="evenodd" fill="rgb(95.294118%, 54.117647%, 11.372549%)" fill-opacity="1" d="M 23.546875 13.828125 C 23.609375 13.820312 23.667969 13.828125 23.722656 13.859375 C 24 14.140625 24.277344 14.425781 24.554688 14.710938 C 24.59375 14.75 24.59375 14.789062 24.554688 14.828125 C 21.109375 18.363281 17.664062 21.898438 14.21875 25.4375 C 13.910156 25.121094 13.605469 24.808594 13.300781 24.492188 C 13.261719 24.453125 13.261719 24.414062 13.300781 24.375 C 16.726562 20.867188 20.144531 17.351562 23.546875 13.828125 Z M 23.546875 13.828125 "/>
<path fill-rule="evenodd" fill="rgb(1.568627%, 1.568627%, 1.568627%)" fill-opacity="1" d="M 14.476562 14.359375 C 14.632812 14.382812 14.753906 14.460938 14.851562 14.59375 C 14.949219 14.925781 14.84375 15.152344 14.535156 15.273438 C 12.46875 15.300781 10.398438 15.3125 8.332031 15.300781 C 7.585938 15.3125 6.839844 15.300781 6.09375 15.273438 C 6.011719 15.246094 5.945312 15.195312 5.894531 15.125 C 5.742188 14.835938 5.792969 14.589844 6.035156 14.386719 C 8.851562 14.359375 11.664062 14.347656 14.476562 14.359375 Z M 14.476562 14.359375 "/>
<path fill-rule="evenodd" fill="rgb(0.392157%, 0.392157%, 0.392157%)" fill-opacity="1" d="M 7.242188 17.070312 C 8.90625 17.058594 10.574219 17.070312 12.238281 17.097656 C 12.34375 17.113281 12.429688 17.164062 12.496094 17.246094 C 12.671875 17.628906 12.566406 17.882812 12.179688 18.011719 C 10.152344 18.019531 8.121094 18.011719 6.09375 17.980469 C 5.761719 17.753906 5.726562 17.476562 5.980469 17.15625 C 6.394531 17.074219 6.8125 17.042969 7.242188 17.070312 Z M 7.242188 17.070312 "/>
<path fill-rule="evenodd" fill="rgb(2.745098%, 2.745098%, 2.745098%)" fill-opacity="1" d="M 5.804688 20.367188 C 5.796875 20.242188 5.816406 20.125 5.863281 20.015625 C 5.925781 19.933594 6.003906 19.863281 6.09375 19.808594 C 7.375 19.769531 8.660156 19.769531 9.941406 19.808594 C 10.351562 20.042969 10.390625 20.339844 10.054688 20.691406 C 8.714844 20.730469 7.375 20.730469 6.035156 20.691406 C 5.925781 20.609375 5.847656 20.5 5.804688 20.367188 Z M 5.804688 20.367188 "/>
<path fill-rule="evenodd" fill="rgb(12.54902%, 12.54902%, 12.54902%)" fill-opacity="1" d="M 13.042969 25.90625 C 12.875 25.773438 12.683594 25.683594 12.46875 25.640625 C 11.820312 25.511719 11.246094 25.660156 10.746094 26.082031 C 10.863281 25.390625 11.007812 24.703125 11.175781 24.023438 C 11.1875 23.917969 11.234375 23.835938 11.320312 23.785156 C 11.988281 24.433594 12.640625 25.101562 13.269531 25.789062 C 13.199219 25.839844 13.121094 25.878906 13.042969 25.90625 Z M 13.042969 25.90625 "/>
<path fill-rule="evenodd" fill="rgb(25.882353%, 25.882353%, 25.882353%)" fill-opacity="1" d="M 13.042969 25.90625 C 12.273438 26.070312 11.507812 26.246094 10.746094 26.4375 C 10.707031 26.417969 10.667969 26.398438 10.628906 26.378906 C 10.667969 26.277344 10.707031 26.179688 10.746094 26.082031 C 11.246094 25.660156 11.820312 25.511719 12.46875 25.640625 C 12.683594 25.683594 12.875 25.773438 13.042969 25.90625 Z M 13.042969 25.90625 "/>
</svg>
