<svg xmlns="http://www.w3.org/2000/svg" width="48" height="48">
    <path d="M0 953.15h128v128H0Z" style="fill:#00c;fill-opacity:1;stroke-width:1.28" transform="matrix(.375 0 0 .375 0 -357.431)"/>
    <path d="M0 1063.23v17.92h128v-17.92z" style="fill:#2b0000;fill-opacity:1;stroke-width:1.28" transform="matrix(.375 0 0 .375 0 -357.431)"/>
    <path d="M30.72 1072.099v9.05H51.2v-9.05zm25.6 0v9.05H76.8v-9.05zm25.6 0v9.05h20.48v-9.05zm-76.8.092v8.959H25.6v-8.96H5.12Zm102.4 0v8.959H128v-8.96h-20.48z" style="fill:teal;fill-opacity:1;stroke-width:1.28" transform="matrix(.375 0 0 .375 0 -357.431)"/>
    <path d="M0 1063.23v8.96h10.24v-4.48H5.12v-4.48z" style="fill:#e6e6e6;fill-opacity:1;stroke-width:1.28" transform="matrix(.375 0 0 .375 0 -357.431)"/>
    <path d="M0 953.15v110.079h128V953.15Zm5.12 5.119h35.84v83.2H5.12Zm39.68 0h16.64v83.2H44.8Zm21.76 0h35.84v83.2H66.56Zm39.68 0h16.64v83.2h-16.64zm-97.28 16.64v3.84h28.16v-3.84zm39.68 0v3.84h8.96v-3.84zm21.76 0v3.84h28.16v-3.84zm39.68 0v3.84h8.96v-3.84zM8.96 983.87v3.84h28.16v-3.84zm39.68 0v3.84h8.96v-3.84zm21.76 0v3.84h28.16v-3.84zm39.68 0v3.84h8.96v-3.84zM8.96 992.83v3.84h28.16v-3.84zm39.68 0v3.84h8.96v-3.84zm21.76 0v3.84h28.16v-3.84zm39.68 0v3.84h8.96v-3.84zm-101.12 8.96v3.84h28.16v-3.84zm39.68 0v3.84h8.96v-3.84zm-39.68 8.96v3.84h28.16v-3.84zm39.68 0v3.84h8.96v-3.84zm-43.52 34.56h56.32v12.8H5.12Zm61.44 0h56.32v12.8H66.56Zm-58.88 4.48v3.84h25.6v-3.84zm29.44 0v3.84h3.84v-3.84zm7.68 0v3.84h11.52v-3.84zm24.32 0v3.84h25.6v-3.84zm29.44 0v3.84h3.84v-3.84zm7.68 0v3.84h11.52v-3.84z" style="fill:#5df;fill-opacity:1;stroke-width:1.28" transform="matrix(.375 0 0 .375 0 -357.431)"/>
    <path d="M75.52 962.109v3.841H96v-3.841zm-61.44.002v3.84h20.48v-3.84zm34.56 0v3.84h10.24v-3.84zm61.44 0v3.84h10.24v-3.84z" style="fill:#ff0;fill-opacity:1;stroke-width:1.28" transform="matrix(.375 0 0 .375 0 -357.431)"/>
    <g style="clip-rule:evenodd;fill-rule:evenodd;image-rendering:optimizeQuality;shape-rendering:geometricPrecision;text-rendering:geometricPrecision">
        <path d="M205.96 15.509c-58.833.166-117.657.662-176.463 1.492-6.648 3.314-11.148 8.48-13.5 15.5a49726.54 49726.54 0 0 0 0 445.998c2.834 8.167 8.338 13.67 16.504 16.504 116.667.667 233.332.667 349.998 0 8.167-2.833 13.671-8.337 16.504-16.504a9599.42 9599.42 0 0 0 0-196c-1.539-3.02-4.04-4.353-7.5-4-3.59.045-6.091 1.716-7.501 5.005-.333 63.667-.672 127.329-1.005 190.996A6.977 6.977 0 0 1 380.5 478a19452.499 19452.499 0 0 1-341.005 1.502c-3.59-.044-6.08-1.714-7.491-5.003-.5-131-.674-262.005-.507-393.004 120.168-.333 240.174.005 360.006 1.004 3.287-.555 5.787-2.226 7.5-5.004.667-15 .667-29.996 0-44.996-2.833-8.166-8.337-13.67-16.503-16.503-58.862-.497-117.707-.655-176.54-.488Zm231.553 57.988c-5.334 0-10.677 1.836-16.016 5.502a1246.688 1246.688 0 0 1-29.994 29.506 27866.43 27866.43 0 0 1-242.508 244c-1.75 1.99-2.745 4.316-2.994 6.993a2871.497 2871.497 0 0 1-16.504 72.005c.438 5.208 3.276 7.873 8.505 7.999a1035.432 1035.432 0 0 0 78.501-18.504 43153.258 43153.258 0 0 1 175-174.501 13937.14 13937.14 0 0 0 99.501-98.995c6-10.333 6-20.666 0-30.999L453.5 79c-5.327-3.666-10.654-5.502-15.987-5.502zm-194.01 49.005c-58-.167-116.005-.002-174.004.497-6.247 4.514-6.575 9.516-.995 15.002 81.333.5 162.666.665 244 .498 5.905-2.687 7.401-7.022 4.496-13.002a29.468 29.468 0 0 0-4.496-2.498c-22.998-.5-46-.664-69.001-.497zm21 46.995c-65.333-.167-130.667.007-196 .508-5.779 5.876-5.112 10.868 2 14.992 26.332.5 52.664.674 79 .507 38.334.167 76.669-.007 115-.507 5.446-2.11 7.27-5.944 5.492-11.5-1.45-1.964-3.275-3.297-5.491-4zm-122.502 46c-24.5.084-48.998.248-73.497.498-4.253 3.42-5.093 7.592-2.507 12.505a6.976 6.976 0 0 0 3.502 2.497c12.996.5 25.993.674 38.997.507 36.002.167 72.01-.007 108.007-.507 5.424-2.017 7.26-5.85 5.502-11.5-1.638-2.234-3.811-3.566-6.506-4-24.5-.083-48.998-.082-73.498 0zm-58.065 45.858a86.603 86.603 0 0 0-16.437 1.646c-4.425 5.44-3.76 10.105 2 13.997 35.332.5 70.663.664 105.998.497 6.74-2.153 8.574-6.478 5.501-12.992-1.17-1.393-2.667-2.234-4.496-2.507-28.998-.5-57.996-.665-86.997-.498a89.397 89.397 0 0 0-5.569-.143zm19.068 46.144c-11.166 0-22.338.164-33.505.497-1.593.95-2.926 2.117-4 3.502-.84 1.88-1.169 3.878-.994 5.999.728 2.235 2.06 4.07 3.999 5.501 23.333.667 46.663.667 69.996 0 5.83-6.006 5.163-11.008-2-15.002-11.166-.333-22.33-.497-33.496-.497z" style="display:inline;opacity:.997" transform="matrix(.07656 0 0 .07655 -1.187 10.068)"/>
        <path fill="#f68b1d" d="M28.175 13.092c-8.499-.013-16.997 0-25.495.038-.789.417-1.07 1.068-.842 1.952h-.613c-.013-.74 0-1.48.038-2.22a.575.575 0 0 1 .345-.345 2238.88 2238.88 0 0 1 26.184 0c.252.108.38.3.383.575z"/>
        <path fill="#fbb54c" d="M28.175 13.092v1.99H1.838c-.227-.884.053-1.535.842-1.952 8.498-.038 16.996-.051 25.495-.038z"/>
        <path fill="#dedede" d="M28.787 16.383v.536a26.398 26.398 0 0 0-11.33 2.526c-4.441-.012-8.882 0-13.322.039-.479.345-.504.728-.077 1.148 6.227.038 12.454.051 18.68.038a404.93 404.93 0 0 1-7.885.115 20.568 20.568 0 0 0-2.986 2.144c2.412.012 4.811.05 7.197.114-5.002-.012-10.004 0-15.006.039-.443.45-.392.832.153 1.148 2.016.038 4.032.051 6.048.038a83.629 83.629 0 0 0-2.067 2.182c2.387.013 4.76.051 7.12.115-3.751-.013-7.503 0-11.254.038-.326.262-.39.581-.191.957.069.092.158.156.268.191.994.039 1.99.052 2.985.039a26.956 26.956 0 0 0-1.454 2.296 6.666 6.666 0 0 0-1.685.115c-.338.417-.287.774.154 1.072 2.705.038 5.41.05 8.115.038a351.59 351.59 0 0 1-7.35.115 9.54 9.54 0 0 0-1.072 2.488.92.92 0 0 0-.076.46.425.425 0 0 1-.115-.23 30.527 30.527 0 0 0-1.8 12.63.587.587 0 0 1-.574-.382c-.038-10.028-.05-20.057-.038-30.085 9.2-.026 18.388 0 27.562.076z"/>
        <path fill="#ededed" d="M28.787 16.92v1.454a2133.319 2133.319 0 0 1-18.566 18.679.92.92 0 0 0-.23.536c-.397 1.842-.818 3.68-1.263 5.511.034.399.25.603.651.613a79.277 79.277 0 0 0 6.01-1.416c4.456-4.469 8.922-8.922 13.398-13.359v2.45a.587.587 0 0 0-.574.382l-.076 14.622a.534.534 0 0 1-.192.268c-8.696.115-17.399.153-26.107.115-.29-4.341.31-8.551 1.799-12.631a.425.425 0 0 0 .115.23.834.834 0 0 0 .306.42 93.77 93.77 0 0 0 5.36 0c.446-.46.395-.842-.154-1.148a85.906 85.906 0 0 0-5.13 0 1.085 1.085 0 0 0-.306.268A9.54 9.54 0 0 1 4.9 31.426a351.59 351.59 0 0 0 7.35-.115c.516-.165.656-.496.421-.995a.54.54 0 0 0-.344-.191c-2.22-.039-4.44-.051-6.661-.039.446-.789.93-1.554 1.454-2.296 2.757.013 5.513 0 8.269-.039.415-.154.556-.447.421-.88a.742.742 0 0 0-.498-.306c-2.36-.064-4.733-.102-7.12-.115a83.629 83.629 0 0 1 2.067-2.182c2.935.013 5.87 0 8.805-.038.417-.162.557-.455.421-.88a.824.824 0 0 0-.421-.307 337.034 337.034 0 0 0-7.197-.114 20.568 20.568 0 0 1 2.986-2.144 404.93 404.93 0 0 0 7.886-.115c.452-.205.567-.537.344-.995a2.26 2.26 0 0 0-.344-.191c-1.76-.039-3.522-.051-5.283-.039a26.398 26.398 0 0 1 11.331-2.526z"/>
        <path fill="#d71b60" d="M35.448 20.364a1.016 1.016 0 0 0-.46-.498c-1.728-.93-3.463-.955-5.205-.076a2.782 2.782 0 0 0-.69.574c-.135-.062-.174-.164-.114-.306l3.024-3.024c.204-.051.408-.051.612 0l2.871 2.87c.06.17.048.323-.038.46z"/>
        <path fill="#ea4078" d="M35.448 20.364a46.55 46.55 0 0 1-3.139 3.215 95.602 95.602 0 0 1-3.215-3.215c.196-.226.425-.418.689-.574 1.742-.88 3.477-.854 5.206.076.214.118.367.284.46.498z"/>
        <path fill="#f9a528" d="M31.237 24.651a21.656 21.656 0 0 1-1.531 1.531 95.602 95.602 0 0 1-3.216-3.215c.836-.428 1.704-.491 2.604-.192.82.501 1.534 1.126 2.143 1.876z"/>
        <path fill="#f17a1f" d="M25.342 23.656c.499.409.92.868 1.263 1.378l-13.78 13.78-1.226-1.225c-.05-.052-.05-.103 0-.154a3495.41 3495.41 0 0 0 13.743-13.78z"/>
        <path fill="#f38a1d" d="M27.41 25.876a.378.378 0 0 1 .229.038l1.11 1.11c.051.051.051.102 0 .153l-13.781 13.78-1.225-1.225c-.051-.051-.051-.102 0-.153 4.57-4.558 9.126-9.125 13.666-13.703z"/>
        <path fill="#202020" d="M13.398 41.57a1.752 1.752 0 0 0-.765-.345c-.862-.167-1.628.024-2.297.574.158-.899.35-1.792.574-2.68a.386.386 0 0 1 .192-.306c.893.842 1.76 1.71 2.603 2.603a1.25 1.25 0 0 1-.307.153z"/>
        <path fill="#424242" d="M13.398 41.57c-1.024.21-2.045.439-3.062.688l-.153-.076.153-.383c.669-.55 1.435-.741 2.297-.574.288.055.544.17.765.344z"/>
    </g>
</svg>
