<?xml version="1.0" encoding="UTF-8"?>
<svg xmlns="http://www.w3.org/2000/svg" xmlns:xlink="http://www.w3.org/1999/xlink" width="48" height="48" viewBox="0 0 48 48">
<path fill-rule="nonzero" fill="rgb(60.784314%, 78.823529%, 100%)" fill-opacity="1" d="M 47.199219 28 L 47.199219 31.199219 C 47.199219 32.082031 46.484375 32.796875 45.601562 32.800781 L 32 32.800781 C 29.347656 32.800781 27.199219 34.949219 27.199219 37.601562 C 27.203125 40.25 29.351562 42.394531 32 42.398438 L 33.601562 47.199219 L 14.398438 47.199219 L 16 42.398438 C 18.648438 42.394531 20.796875 40.25 20.800781 37.601562 C 20.800781 34.949219 18.652344 32.800781 16 32.800781 L 2.398438 32.800781 C 1.515625 32.796875 0.800781 32.082031 0.800781 31.199219 L 0.800781 28 Z M 47.199219 28 "/>
<path fill-rule="nonzero" fill="rgb(0%, 100%, 0%)" fill-opacity="1" d="M 23.082031 34.71875 L 23.082031 36.4375 L 24.917969 36.4375 L 24.917969 34.71875 Z M 23.746094 34.816406 L 23.753906 34.816406 L 23.753906 36.335938 L 23.746094 36.335938 Z M 24.253906 34.816406 L 24.253906 36.335938 Z M 24.253906 34.816406 "/>
<path fill-rule="nonzero" fill="rgb(12.54902%, 47.843137%, 82.745098%)" fill-opacity="1" d="M 45.601562 0 L 2.398438 0 C 1.074219 0 0 1.074219 0 2.398438 L 0 31.199219 C 0 32.523438 1.074219 33.601562 2.398438 33.601562 L 16 33.601562 C 18.207031 33.601562 19.996094 35.390625 20 37.601562 C 19.996094 39.808594 18.207031 41.597656 16 41.601562 C 15.988281 41.601562 15.980469 41.605469 15.96875 41.605469 C 15.910156 41.609375 15.851562 41.621094 15.796875 41.640625 C 15.753906 41.648438 15.710938 41.660156 15.667969 41.675781 C 15.621094 41.703125 15.578125 41.730469 15.535156 41.765625 C 15.496094 41.792969 15.457031 41.820312 15.421875 41.855469 C 15.390625 41.890625 15.363281 41.929688 15.339844 41.96875 C 15.304688 42.015625 15.277344 42.066406 15.253906 42.121094 C 15.253906 42.128906 15.242188 42.136719 15.238281 42.148438 L 13.640625 46.949219 C 13.558594 47.191406 13.597656 47.460938 13.75 47.667969 C 13.902344 47.878906 14.144531 48 14.398438 48 L 33.601562 48 C 33.855469 48 34.097656 47.875 34.25 47.667969 C 34.398438 47.457031 34.441406 47.191406 34.359375 46.949219 L 32.757812 42.148438 C 32.757812 42.136719 32.746094 42.128906 32.746094 42.121094 C 32.71875 42.066406 32.691406 42.015625 32.65625 41.96875 C 32.632812 41.929688 32.609375 41.890625 32.578125 41.855469 C 32.542969 41.820312 32.503906 41.792969 32.460938 41.765625 C 32.421875 41.730469 32.375 41.703125 32.332031 41.675781 C 32.289062 41.660156 32.246094 41.648438 32.199219 41.640625 C 32.144531 41.621094 32.085938 41.609375 32.027344 41.605469 C 32.019531 41.605469 32.007812 41.601562 31.996094 41.601562 C 29.789062 41.597656 28 39.808594 27.996094 37.601562 C 28 35.390625 29.789062 33.601562 31.996094 33.601562 L 45.601562 33.601562 C 46.925781 33.601562 48 32.523438 48 31.199219 L 48 2.398438 C 48 1.074219 46.925781 0 45.601562 0 Z M 26.398438 37.601562 C 26.402344 40.464844 28.566406 42.863281 31.414062 43.167969 L 32.488281 46.398438 L 15.511719 46.398438 L 16.585938 43.167969 C 19.433594 42.863281 21.597656 40.464844 21.601562 37.601562 C 21.601562 36.09375 20.992188 34.648438 19.910156 33.601562 L 28.089844 33.601562 C 27.007812 34.648438 26.398438 36.09375 26.398438 37.601562 Z M 46.398438 31.199219 C 46.398438 31.640625 46.042969 32 45.601562 32 L 2.398438 32 C 1.957031 32 1.601562 31.640625 1.601562 31.199219 L 1.601562 28.800781 L 46.398438 28.800781 Z M 1.601562 27.199219 L 1.601562 2.398438 C 1.601562 1.957031 1.957031 1.601562 2.398438 1.601562 L 45.601562 1.601562 C 46.042969 1.601562 46.398438 1.957031 46.398438 2.398438 L 46.398438 27.199219 Z M 1.601562 27.199219 "/>
<path fill-rule="nonzero" fill="rgb(0%, 0%, 75.294118%)" fill-opacity="1" d="M 1.675781 1.273438 L 46.53125 1.273438 L 46.53125 32.015625 L 1.675781 32.015625 Z M 1.675781 1.273438 "/>
<path fill-rule="nonzero" fill="rgb(33.333333%, 86.666667%, 100%)" fill-opacity="1" d="M 1.519531 1.214844 L 1.519531 32.019531 L 46.605469 32.019531 L 46.605469 1.214844 Z M 3.324219 2.648438 L 15.945312 2.648438 L 15.945312 25.929688 L 3.324219 25.929688 Z M 17.300781 2.648438 L 23.160156 2.648438 L 23.160156 25.929688 L 17.300781 25.929688 Z M 24.964844 2.648438 L 37.589844 2.648438 L 37.589844 25.929688 L 24.964844 25.929688 Z M 38.941406 2.648438 L 44.800781 2.648438 L 44.800781 25.929688 L 38.941406 25.929688 Z M 4.675781 7.304688 L 4.675781 8.378906 L 14.59375 8.378906 L 14.59375 7.304688 Z M 18.652344 7.304688 L 18.652344 8.378906 L 21.808594 8.378906 L 21.808594 7.304688 Z M 26.316406 7.304688 L 26.316406 8.378906 L 36.234375 8.378906 L 36.234375 7.304688 Z M 40.292969 7.304688 L 40.292969 8.378906 L 43.449219 8.378906 L 43.449219 7.304688 Z M 4.675781 9.8125 L 4.675781 10.886719 L 14.59375 10.886719 L 14.59375 9.8125 Z M 18.652344 9.8125 L 18.652344 10.886719 L 21.808594 10.886719 L 21.808594 9.8125 Z M 26.316406 9.8125 L 26.316406 10.886719 L 36.234375 10.886719 L 36.234375 9.8125 Z M 40.292969 9.8125 L 40.292969 10.886719 L 43.449219 10.886719 L 43.449219 9.8125 Z M 4.675781 12.316406 L 4.675781 13.394531 L 14.59375 13.394531 L 14.59375 12.316406 Z M 18.652344 12.316406 L 18.652344 13.394531 L 21.808594 13.394531 L 21.808594 12.316406 Z M 26.316406 12.316406 L 26.316406 13.394531 L 36.234375 13.394531 L 36.234375 12.316406 Z M 40.292969 12.316406 L 40.292969 13.394531 L 43.449219 13.394531 L 43.449219 12.316406 Z M 4.675781 14.824219 L 4.675781 15.898438 L 14.59375 15.898438 L 14.59375 14.824219 Z M 18.652344 14.824219 L 18.652344 15.898438 L 21.808594 15.898438 L 21.808594 14.824219 Z M 4.675781 17.332031 L 4.675781 18.40625 L 14.59375 18.40625 L 14.59375 17.332031 Z M 18.652344 17.332031 L 18.652344 18.40625 L 21.808594 18.40625 L 21.808594 17.332031 Z M 3.324219 27.003906 L 23.160156 27.003906 L 23.160156 30.585938 L 3.324219 30.585938 Z M 24.964844 27.003906 L 44.800781 27.003906 L 44.800781 30.585938 L 24.964844 30.585938 Z M 4.222656 28.257812 L 4.222656 29.332031 L 13.242188 29.332031 L 13.242188 28.257812 Z M 14.59375 28.257812 L 14.59375 29.332031 L 15.945312 29.332031 L 15.945312 28.257812 Z M 17.300781 28.257812 L 17.300781 29.332031 L 21.355469 29.332031 L 21.355469 28.257812 Z M 25.867188 28.257812 L 25.867188 29.332031 L 34.882812 29.332031 L 34.882812 28.257812 Z M 36.234375 28.257812 L 36.234375 29.332031 L 37.589844 29.332031 L 37.589844 28.257812 Z M 38.941406 28.257812 L 38.941406 29.332031 L 43 29.332031 L 43 28.257812 Z M 38.941406 28.257812 "/>
<path fill-rule="nonzero" fill="rgb(100%, 100%, 0%)" fill-opacity="1" d="M 28.164062 3.722656 L 28.164062 4.796875 L 35.359375 4.796875 L 35.359375 3.722656 Z M 6.570312 3.722656 L 6.570312 4.796875 L 13.769531 4.796875 L 13.769531 3.722656 Z M 18.71875 3.722656 L 18.71875 4.796875 L 22.316406 4.796875 L 22.316406 3.722656 Z M 40.308594 3.722656 L 40.308594 4.796875 L 43.90625 4.796875 L 43.90625 3.722656 Z M 40.308594 3.722656 "/>
</svg>
